<?xml version="1.0" encoding="utf-8" standalone="no"?>
<!DOCTYPE svg PUBLIC "-//W3C//DTD SVG 1.1//EN"
  "http://www.w3.org/Graphics/SVG/1.1/DTD/svg11.dtd">
<!-- Created with matplotlib (http://matplotlib.org/) -->
<svg height="1711pt" version="1.1" viewBox="0 0 3185 1711" width="3185pt" xmlns="http://www.w3.org/2000/svg" xmlns:xlink="http://www.w3.org/1999/xlink">
 <defs>
  <style type="text/css">
*{stroke-linecap:butt;stroke-linejoin:round;}
  </style>
 </defs>
 <g id="figure_1">
  <g id="patch_1">
   <path d="M -0 1711.8275 
L 3185.4775 1711.8275 
L 3185.4775 0 
L -0 0 
z
" style="fill:#ffffff;"/>
  </g>
  <g id="axes_1">
   <g id="patch_2">
    <path d="M 388.2775 1670.4 
L 3178.2775 1670.4 
L 3178.2775 7.2 
L 388.2775 7.2 
z
" style="fill:none;"/>
   </g>
   <g id="matplotlib.axis_1">
    <g id="xtick_1">
     <g id="line2d_1"/>
    </g>
    <g id="xtick_2">
     <g id="line2d_2"/>
    </g>
    <g id="text_1">
     <!-- Sample Type -->
     <defs>
      <path d="M 53.515625 70.515625 
L 53.515625 60.890625 
Q 47.90625 63.578125 42.921875 64.890625 
Q 37.9375 66.21875 33.296875 66.21875 
Q 25.25 66.21875 20.875 63.09375 
Q 16.5 59.96875 16.5 54.203125 
Q 16.5 49.359375 19.40625 46.890625 
Q 22.3125 44.4375 30.421875 42.921875 
L 36.375 41.703125 
Q 47.40625 39.59375 52.65625 34.296875 
Q 57.90625 29 57.90625 20.125 
Q 57.90625 9.515625 50.796875 4.046875 
Q 43.703125 -1.421875 29.984375 -1.421875 
Q 24.8125 -1.421875 18.96875 -0.25 
Q 13.140625 0.921875 6.890625 3.21875 
L 6.890625 13.375 
Q 12.890625 10.015625 18.65625 8.296875 
Q 24.421875 6.59375 29.984375 6.59375 
Q 38.421875 6.59375 43.015625 9.90625 
Q 47.609375 13.234375 47.609375 19.390625 
Q 47.609375 24.75 44.3125 27.78125 
Q 41.015625 30.8125 33.5 32.328125 
L 27.484375 33.5 
Q 16.453125 35.6875 11.515625 40.375 
Q 6.59375 45.0625 6.59375 53.421875 
Q 6.59375 63.09375 13.40625 68.65625 
Q 20.21875 74.21875 32.171875 74.21875 
Q 37.3125 74.21875 42.625 73.28125 
Q 47.953125 72.359375 53.515625 70.515625 
z
" id="DejaVuSans-53"/>
      <path d="M 34.28125 27.484375 
Q 23.390625 27.484375 19.1875 25 
Q 14.984375 22.515625 14.984375 16.5 
Q 14.984375 11.71875 18.140625 8.90625 
Q 21.296875 6.109375 26.703125 6.109375 
Q 34.1875 6.109375 38.703125 11.40625 
Q 43.21875 16.703125 43.21875 25.484375 
L 43.21875 27.484375 
z
M 52.203125 31.203125 
L 52.203125 0 
L 43.21875 0 
L 43.21875 8.296875 
Q 40.140625 3.328125 35.546875 0.953125 
Q 30.953125 -1.421875 24.3125 -1.421875 
Q 15.921875 -1.421875 10.953125 3.296875 
Q 6 8.015625 6 15.921875 
Q 6 25.140625 12.171875 29.828125 
Q 18.359375 34.515625 30.609375 34.515625 
L 43.21875 34.515625 
L 43.21875 35.40625 
Q 43.21875 41.609375 39.140625 45 
Q 35.0625 48.390625 27.6875 48.390625 
Q 23 48.390625 18.546875 47.265625 
Q 14.109375 46.140625 10.015625 43.890625 
L 10.015625 52.203125 
Q 14.9375 54.109375 19.578125 55.046875 
Q 24.21875 56 28.609375 56 
Q 40.484375 56 46.34375 49.84375 
Q 52.203125 43.703125 52.203125 31.203125 
z
" id="DejaVuSans-61"/>
      <path d="M 52 44.1875 
Q 55.375 50.25 60.0625 53.125 
Q 64.75 56 71.09375 56 
Q 79.640625 56 84.28125 50.015625 
Q 88.921875 44.046875 88.921875 33.015625 
L 88.921875 0 
L 79.890625 0 
L 79.890625 32.71875 
Q 79.890625 40.578125 77.09375 44.375 
Q 74.3125 48.1875 68.609375 48.1875 
Q 61.625 48.1875 57.5625 43.546875 
Q 53.515625 38.921875 53.515625 30.90625 
L 53.515625 0 
L 44.484375 0 
L 44.484375 32.71875 
Q 44.484375 40.625 41.703125 44.40625 
Q 38.921875 48.1875 33.109375 48.1875 
Q 26.21875 48.1875 22.15625 43.53125 
Q 18.109375 38.875 18.109375 30.90625 
L 18.109375 0 
L 9.078125 0 
L 9.078125 54.6875 
L 18.109375 54.6875 
L 18.109375 46.1875 
Q 21.1875 51.21875 25.484375 53.609375 
Q 29.78125 56 35.6875 56 
Q 41.65625 56 45.828125 52.96875 
Q 50 49.953125 52 44.1875 
z
" id="DejaVuSans-6d"/>
      <path d="M 18.109375 8.203125 
L 18.109375 -20.796875 
L 9.078125 -20.796875 
L 9.078125 54.6875 
L 18.109375 54.6875 
L 18.109375 46.390625 
Q 20.953125 51.265625 25.265625 53.625 
Q 29.59375 56 35.59375 56 
Q 45.5625 56 51.78125 48.09375 
Q 58.015625 40.1875 58.015625 27.296875 
Q 58.015625 14.40625 51.78125 6.484375 
Q 45.5625 -1.421875 35.59375 -1.421875 
Q 29.59375 -1.421875 25.265625 0.953125 
Q 20.953125 3.328125 18.109375 8.203125 
z
M 48.6875 27.296875 
Q 48.6875 37.203125 44.609375 42.84375 
Q 40.53125 48.484375 33.40625 48.484375 
Q 26.265625 48.484375 22.1875 42.84375 
Q 18.109375 37.203125 18.109375 27.296875 
Q 18.109375 17.390625 22.1875 11.75 
Q 26.265625 6.109375 33.40625 6.109375 
Q 40.53125 6.109375 44.609375 11.75 
Q 48.6875 17.390625 48.6875 27.296875 
z
" id="DejaVuSans-70"/>
      <path d="M 9.421875 75.984375 
L 18.40625 75.984375 
L 18.40625 0 
L 9.421875 0 
z
" id="DejaVuSans-6c"/>
      <path d="M 56.203125 29.59375 
L 56.203125 25.203125 
L 14.890625 25.203125 
Q 15.484375 15.921875 20.484375 11.0625 
Q 25.484375 6.203125 34.421875 6.203125 
Q 39.59375 6.203125 44.453125 7.46875 
Q 49.3125 8.734375 54.109375 11.28125 
L 54.109375 2.78125 
Q 49.265625 0.734375 44.1875 -0.34375 
Q 39.109375 -1.421875 33.890625 -1.421875 
Q 20.796875 -1.421875 13.15625 6.1875 
Q 5.515625 13.8125 5.515625 26.8125 
Q 5.515625 40.234375 12.765625 48.109375 
Q 20.015625 56 32.328125 56 
Q 43.359375 56 49.78125 48.890625 
Q 56.203125 41.796875 56.203125 29.59375 
z
M 47.21875 32.234375 
Q 47.125 39.59375 43.09375 43.984375 
Q 39.0625 48.390625 32.421875 48.390625 
Q 24.90625 48.390625 20.390625 44.140625 
Q 15.875 39.890625 15.1875 32.171875 
z
" id="DejaVuSans-65"/>
      <path id="DejaVuSans-20"/>
      <path d="M -0.296875 72.90625 
L 61.375 72.90625 
L 61.375 64.59375 
L 35.5 64.59375 
L 35.5 0 
L 25.59375 0 
L 25.59375 64.59375 
L -0.296875 64.59375 
z
" id="DejaVuSans-54"/>
      <path d="M 32.171875 -5.078125 
Q 28.375 -14.84375 24.75 -17.8125 
Q 21.140625 -20.796875 15.09375 -20.796875 
L 7.90625 -20.796875 
L 7.90625 -13.28125 
L 13.1875 -13.28125 
Q 16.890625 -13.28125 18.9375 -11.515625 
Q 21 -9.765625 23.484375 -3.21875 
L 25.09375 0.875 
L 2.984375 54.6875 
L 12.5 54.6875 
L 29.59375 11.921875 
L 46.6875 54.6875 
L 56.203125 54.6875 
z
" id="DejaVuSans-79"/>
     </defs>
     <g style="fill:#262626;" transform="translate(1705.061875 1699.63625)scale(0.24 -0.24)">
      <use xlink:href="#DejaVuSans-53"/>
      <use x="63.476562" xlink:href="#DejaVuSans-61"/>
      <use x="124.755859" xlink:href="#DejaVuSans-6d"/>
      <use x="222.167969" xlink:href="#DejaVuSans-70"/>
      <use x="285.644531" xlink:href="#DejaVuSans-6c"/>
      <use x="313.427734" xlink:href="#DejaVuSans-65"/>
      <use x="374.951172" xlink:href="#DejaVuSans-20"/>
      <use x="406.738281" xlink:href="#DejaVuSans-54"/>
      <use x="467.587891" xlink:href="#DejaVuSans-79"/>
      <use x="526.767578" xlink:href="#DejaVuSans-70"/>
      <use x="590.244141" xlink:href="#DejaVuSans-65"/>
     </g>
    </g>
   </g>
   <g id="matplotlib.axis_2">
    <g id="ytick_1">
     <g id="line2d_3"/>
     <g id="text_2">
      <!-- AstraZeneca_P0001_T1 -->
      <defs>
       <path d="M 34.1875 63.1875 
L 20.796875 26.90625 
L 47.609375 26.90625 
z
M 28.609375 72.90625 
L 39.796875 72.90625 
L 67.578125 0 
L 57.328125 0 
L 50.6875 18.703125 
L 17.828125 18.703125 
L 11.1875 0 
L 0.78125 0 
z
" id="DejaVuSans-41"/>
       <path d="M 44.28125 53.078125 
L 44.28125 44.578125 
Q 40.484375 46.53125 36.375 47.5 
Q 32.28125 48.484375 27.875 48.484375 
Q 21.1875 48.484375 17.84375 46.4375 
Q 14.5 44.390625 14.5 40.28125 
Q 14.5 37.15625 16.890625 35.375 
Q 19.28125 33.59375 26.515625 31.984375 
L 29.59375 31.296875 
Q 39.15625 29.25 43.1875 25.515625 
Q 47.21875 21.78125 47.21875 15.09375 
Q 47.21875 7.46875 41.1875 3.015625 
Q 35.15625 -1.421875 24.609375 -1.421875 
Q 20.21875 -1.421875 15.453125 -0.5625 
Q 10.6875 0.296875 5.421875 2 
L 5.421875 11.28125 
Q 10.40625 8.6875 15.234375 7.390625 
Q 20.0625 6.109375 24.8125 6.109375 
Q 31.15625 6.109375 34.5625 8.28125 
Q 37.984375 10.453125 37.984375 14.40625 
Q 37.984375 18.0625 35.515625 20.015625 
Q 33.0625 21.96875 24.703125 23.78125 
L 21.578125 24.515625 
Q 13.234375 26.265625 9.515625 29.90625 
Q 5.8125 33.546875 5.8125 39.890625 
Q 5.8125 47.609375 11.28125 51.796875 
Q 16.75 56 26.8125 56 
Q 31.78125 56 36.171875 55.265625 
Q 40.578125 54.546875 44.28125 53.078125 
z
" id="DejaVuSans-73"/>
       <path d="M 18.3125 70.21875 
L 18.3125 54.6875 
L 36.8125 54.6875 
L 36.8125 47.703125 
L 18.3125 47.703125 
L 18.3125 18.015625 
Q 18.3125 11.328125 20.140625 9.421875 
Q 21.96875 7.515625 27.59375 7.515625 
L 36.8125 7.515625 
L 36.8125 0 
L 27.59375 0 
Q 17.1875 0 13.234375 3.875 
Q 9.28125 7.765625 9.28125 18.015625 
L 9.28125 47.703125 
L 2.6875 47.703125 
L 2.6875 54.6875 
L 9.28125 54.6875 
L 9.28125 70.21875 
z
" id="DejaVuSans-74"/>
       <path d="M 41.109375 46.296875 
Q 39.59375 47.171875 37.8125 47.578125 
Q 36.03125 48 33.890625 48 
Q 26.265625 48 22.1875 43.046875 
Q 18.109375 38.09375 18.109375 28.8125 
L 18.109375 0 
L 9.078125 0 
L 9.078125 54.6875 
L 18.109375 54.6875 
L 18.109375 46.1875 
Q 20.953125 51.171875 25.484375 53.578125 
Q 30.03125 56 36.53125 56 
Q 37.453125 56 38.578125 55.875 
Q 39.703125 55.765625 41.0625 55.515625 
z
" id="DejaVuSans-72"/>
       <path d="M 5.609375 72.90625 
L 62.890625 72.90625 
L 62.890625 65.375 
L 16.796875 8.296875 
L 64.015625 8.296875 
L 64.015625 0 
L 4.5 0 
L 4.5 7.515625 
L 50.59375 64.59375 
L 5.609375 64.59375 
z
" id="DejaVuSans-5a"/>
       <path d="M 54.890625 33.015625 
L 54.890625 0 
L 45.90625 0 
L 45.90625 32.71875 
Q 45.90625 40.484375 42.875 44.328125 
Q 39.84375 48.1875 33.796875 48.1875 
Q 26.515625 48.1875 22.3125 43.546875 
Q 18.109375 38.921875 18.109375 30.90625 
L 18.109375 0 
L 9.078125 0 
L 9.078125 54.6875 
L 18.109375 54.6875 
L 18.109375 46.1875 
Q 21.34375 51.125 25.703125 53.5625 
Q 30.078125 56 35.796875 56 
Q 45.21875 56 50.046875 50.171875 
Q 54.890625 44.34375 54.890625 33.015625 
z
" id="DejaVuSans-6e"/>
       <path d="M 48.78125 52.59375 
L 48.78125 44.1875 
Q 44.96875 46.296875 41.140625 47.34375 
Q 37.3125 48.390625 33.40625 48.390625 
Q 24.65625 48.390625 19.8125 42.84375 
Q 14.984375 37.3125 14.984375 27.296875 
Q 14.984375 17.28125 19.8125 11.734375 
Q 24.65625 6.203125 33.40625 6.203125 
Q 37.3125 6.203125 41.140625 7.25 
Q 44.96875 8.296875 48.78125 10.40625 
L 48.78125 2.09375 
Q 45.015625 0.34375 40.984375 -0.53125 
Q 36.96875 -1.421875 32.421875 -1.421875 
Q 20.0625 -1.421875 12.78125 6.34375 
Q 5.515625 14.109375 5.515625 27.296875 
Q 5.515625 40.671875 12.859375 48.328125 
Q 20.21875 56 33.015625 56 
Q 37.15625 56 41.109375 55.140625 
Q 45.0625 54.296875 48.78125 52.59375 
z
" id="DejaVuSans-63"/>
       <path d="M 50.984375 -16.609375 
L 50.984375 -23.578125 
L -0.984375 -23.578125 
L -0.984375 -16.609375 
z
" id="DejaVuSans-5f"/>
       <path d="M 19.671875 64.796875 
L 19.671875 37.40625 
L 32.078125 37.40625 
Q 38.96875 37.40625 42.71875 40.96875 
Q 46.484375 44.53125 46.484375 51.125 
Q 46.484375 57.671875 42.71875 61.234375 
Q 38.96875 64.796875 32.078125 64.796875 
z
M 9.8125 72.90625 
L 32.078125 72.90625 
Q 44.34375 72.90625 50.609375 67.359375 
Q 56.890625 61.8125 56.890625 51.125 
Q 56.890625 40.328125 50.609375 34.8125 
Q 44.34375 29.296875 32.078125 29.296875 
L 19.671875 29.296875 
L 19.671875 0 
L 9.8125 0 
z
" id="DejaVuSans-50"/>
       <path d="M 31.78125 66.40625 
Q 24.171875 66.40625 20.328125 58.90625 
Q 16.5 51.421875 16.5 36.375 
Q 16.5 21.390625 20.328125 13.890625 
Q 24.171875 6.390625 31.78125 6.390625 
Q 39.453125 6.390625 43.28125 13.890625 
Q 47.125 21.390625 47.125 36.375 
Q 47.125 51.421875 43.28125 58.90625 
Q 39.453125 66.40625 31.78125 66.40625 
z
M 31.78125 74.21875 
Q 44.046875 74.21875 50.515625 64.515625 
Q 56.984375 54.828125 56.984375 36.375 
Q 56.984375 17.96875 50.515625 8.265625 
Q 44.046875 -1.421875 31.78125 -1.421875 
Q 19.53125 -1.421875 13.0625 8.265625 
Q 6.59375 17.96875 6.59375 36.375 
Q 6.59375 54.828125 13.0625 64.515625 
Q 19.53125 74.21875 31.78125 74.21875 
z
" id="DejaVuSans-30"/>
       <path d="M 12.40625 8.296875 
L 28.515625 8.296875 
L 28.515625 63.921875 
L 10.984375 60.40625 
L 10.984375 69.390625 
L 28.421875 72.90625 
L 38.28125 72.90625 
L 38.28125 8.296875 
L 54.390625 8.296875 
L 54.390625 0 
L 12.40625 0 
z
" id="DejaVuSans-31"/>
      </defs>
      <g style="fill:#262626;" transform="translate(99.80625 1591.769408)scale(0.24 -0.24)">
       <use xlink:href="#DejaVuSans-41"/>
       <use x="68.408203" xlink:href="#DejaVuSans-73"/>
       <use x="120.507812" xlink:href="#DejaVuSans-74"/>
       <use x="159.716797" xlink:href="#DejaVuSans-72"/>
       <use x="200.830078" xlink:href="#DejaVuSans-61"/>
       <use x="262.109375" xlink:href="#DejaVuSans-5a"/>
       <use x="330.615234" xlink:href="#DejaVuSans-65"/>
       <use x="392.138672" xlink:href="#DejaVuSans-6e"/>
       <use x="455.517578" xlink:href="#DejaVuSans-65"/>
       <use x="517.041016" xlink:href="#DejaVuSans-63"/>
       <use x="572.021484" xlink:href="#DejaVuSans-61"/>
       <use x="633.300781" xlink:href="#DejaVuSans-5f"/>
       <use x="683.300781" xlink:href="#DejaVuSans-50"/>
       <use x="743.603516" xlink:href="#DejaVuSans-30"/>
       <use x="807.226562" xlink:href="#DejaVuSans-30"/>
       <use x="870.849609" xlink:href="#DejaVuSans-30"/>
       <use x="934.472656" xlink:href="#DejaVuSans-31"/>
       <use x="998.095703" xlink:href="#DejaVuSans-5f"/>
       <use x="1048.095703" xlink:href="#DejaVuSans-54"/>
       <use x="1109.179688" xlink:href="#DejaVuSans-31"/>
      </g>
     </g>
    </g>
    <g id="ytick_2">
     <g id="line2d_4"/>
     <g id="text_3">
      <!-- Biodesix_P0001_T1 -->
      <defs>
       <path d="M 19.671875 34.8125 
L 19.671875 8.109375 
L 35.5 8.109375 
Q 43.453125 8.109375 47.28125 11.40625 
Q 51.125 14.703125 51.125 21.484375 
Q 51.125 28.328125 47.28125 31.5625 
Q 43.453125 34.8125 35.5 34.8125 
z
M 19.671875 64.796875 
L 19.671875 42.828125 
L 34.28125 42.828125 
Q 41.5 42.828125 45.03125 45.53125 
Q 48.578125 48.25 48.578125 53.8125 
Q 48.578125 59.328125 45.03125 62.0625 
Q 41.5 64.796875 34.28125 64.796875 
z
M 9.8125 72.90625 
L 35.015625 72.90625 
Q 46.296875 72.90625 52.390625 68.21875 
Q 58.5 63.53125 58.5 54.890625 
Q 58.5 48.1875 55.375 44.234375 
Q 52.25 40.28125 46.1875 39.3125 
Q 53.46875 37.75 57.5 32.78125 
Q 61.53125 27.828125 61.53125 20.40625 
Q 61.53125 10.640625 54.890625 5.3125 
Q 48.25 0 35.984375 0 
L 9.8125 0 
z
" id="DejaVuSans-42"/>
       <path d="M 9.421875 54.6875 
L 18.40625 54.6875 
L 18.40625 0 
L 9.421875 0 
z
M 9.421875 75.984375 
L 18.40625 75.984375 
L 18.40625 64.59375 
L 9.421875 64.59375 
z
" id="DejaVuSans-69"/>
       <path d="M 30.609375 48.390625 
Q 23.390625 48.390625 19.1875 42.75 
Q 14.984375 37.109375 14.984375 27.296875 
Q 14.984375 17.484375 19.15625 11.84375 
Q 23.34375 6.203125 30.609375 6.203125 
Q 37.796875 6.203125 41.984375 11.859375 
Q 46.1875 17.53125 46.1875 27.296875 
Q 46.1875 37.015625 41.984375 42.703125 
Q 37.796875 48.390625 30.609375 48.390625 
z
M 30.609375 56 
Q 42.328125 56 49.015625 48.375 
Q 55.71875 40.765625 55.71875 27.296875 
Q 55.71875 13.875 49.015625 6.21875 
Q 42.328125 -1.421875 30.609375 -1.421875 
Q 18.84375 -1.421875 12.171875 6.21875 
Q 5.515625 13.875 5.515625 27.296875 
Q 5.515625 40.765625 12.171875 48.375 
Q 18.84375 56 30.609375 56 
z
" id="DejaVuSans-6f"/>
       <path d="M 45.40625 46.390625 
L 45.40625 75.984375 
L 54.390625 75.984375 
L 54.390625 0 
L 45.40625 0 
L 45.40625 8.203125 
Q 42.578125 3.328125 38.25 0.953125 
Q 33.9375 -1.421875 27.875 -1.421875 
Q 17.96875 -1.421875 11.734375 6.484375 
Q 5.515625 14.40625 5.515625 27.296875 
Q 5.515625 40.1875 11.734375 48.09375 
Q 17.96875 56 27.875 56 
Q 33.9375 56 38.25 53.625 
Q 42.578125 51.265625 45.40625 46.390625 
z
M 14.796875 27.296875 
Q 14.796875 17.390625 18.875 11.75 
Q 22.953125 6.109375 30.078125 6.109375 
Q 37.203125 6.109375 41.296875 11.75 
Q 45.40625 17.390625 45.40625 27.296875 
Q 45.40625 37.203125 41.296875 42.84375 
Q 37.203125 48.484375 30.078125 48.484375 
Q 22.953125 48.484375 18.875 42.84375 
Q 14.796875 37.203125 14.796875 27.296875 
z
" id="DejaVuSans-64"/>
       <path d="M 54.890625 54.6875 
L 35.109375 28.078125 
L 55.90625 0 
L 45.3125 0 
L 29.390625 21.484375 
L 13.484375 0 
L 2.875 0 
L 24.125 28.609375 
L 4.6875 54.6875 
L 15.28125 54.6875 
L 29.78125 35.203125 
L 44.28125 54.6875 
z
" id="DejaVuSans-78"/>
      </defs>
      <g style="fill:#262626;" transform="translate(150.6 1504.444441)scale(0.24 -0.24)">
       <use xlink:href="#DejaVuSans-42"/>
       <use x="68.603516" xlink:href="#DejaVuSans-69"/>
       <use x="96.386719" xlink:href="#DejaVuSans-6f"/>
       <use x="157.568359" xlink:href="#DejaVuSans-64"/>
       <use x="221.044922" xlink:href="#DejaVuSans-65"/>
       <use x="282.568359" xlink:href="#DejaVuSans-73"/>
       <use x="334.667969" xlink:href="#DejaVuSans-69"/>
       <use x="362.451172" xlink:href="#DejaVuSans-78"/>
       <use x="421.630859" xlink:href="#DejaVuSans-5f"/>
       <use x="471.630859" xlink:href="#DejaVuSans-50"/>
       <use x="531.933594" xlink:href="#DejaVuSans-30"/>
       <use x="595.556641" xlink:href="#DejaVuSans-30"/>
       <use x="659.179688" xlink:href="#DejaVuSans-30"/>
       <use x="722.802734" xlink:href="#DejaVuSans-31"/>
       <use x="786.425781" xlink:href="#DejaVuSans-5f"/>
       <use x="836.425781" xlink:href="#DejaVuSans-54"/>
       <use x="897.509766" xlink:href="#DejaVuSans-31"/>
      </g>
     </g>
    </g>
    <g id="ytick_3">
     <g id="line2d_5"/>
     <g id="text_4">
      <!-- CytoLumina_P0001_T1 -->
      <defs>
       <path d="M 64.40625 67.28125 
L 64.40625 56.890625 
Q 59.421875 61.53125 53.78125 63.8125 
Q 48.140625 66.109375 41.796875 66.109375 
Q 29.296875 66.109375 22.65625 58.46875 
Q 16.015625 50.828125 16.015625 36.375 
Q 16.015625 21.96875 22.65625 14.328125 
Q 29.296875 6.6875 41.796875 6.6875 
Q 48.140625 6.6875 53.78125 8.984375 
Q 59.421875 11.28125 64.40625 15.921875 
L 64.40625 5.609375 
Q 59.234375 2.09375 53.4375 0.328125 
Q 47.65625 -1.421875 41.21875 -1.421875 
Q 24.65625 -1.421875 15.125 8.703125 
Q 5.609375 18.84375 5.609375 36.375 
Q 5.609375 53.953125 15.125 64.078125 
Q 24.65625 74.21875 41.21875 74.21875 
Q 47.75 74.21875 53.53125 72.484375 
Q 59.328125 70.75 64.40625 67.28125 
z
" id="DejaVuSans-43"/>
       <path d="M 9.8125 72.90625 
L 19.671875 72.90625 
L 19.671875 8.296875 
L 55.171875 8.296875 
L 55.171875 0 
L 9.8125 0 
z
" id="DejaVuSans-4c"/>
       <path d="M 8.5 21.578125 
L 8.5 54.6875 
L 17.484375 54.6875 
L 17.484375 21.921875 
Q 17.484375 14.15625 20.5 10.265625 
Q 23.53125 6.390625 29.59375 6.390625 
Q 36.859375 6.390625 41.078125 11.03125 
Q 45.3125 15.671875 45.3125 23.6875 
L 45.3125 54.6875 
L 54.296875 54.6875 
L 54.296875 0 
L 45.3125 0 
L 45.3125 8.40625 
Q 42.046875 3.421875 37.71875 1 
Q 33.40625 -1.421875 27.6875 -1.421875 
Q 18.265625 -1.421875 13.375 4.4375 
Q 8.5 10.296875 8.5 21.578125 
z
M 31.109375 56 
z
" id="DejaVuSans-75"/>
      </defs>
      <g style="fill:#262626;" transform="translate(108.19875 1416.907599)scale(0.24 -0.24)">
       <use xlink:href="#DejaVuSans-43"/>
       <use x="69.824219" xlink:href="#DejaVuSans-79"/>
       <use x="129.003906" xlink:href="#DejaVuSans-74"/>
       <use x="168.212891" xlink:href="#DejaVuSans-6f"/>
       <use x="229.394531" xlink:href="#DejaVuSans-4c"/>
       <use x="285.091797" xlink:href="#DejaVuSans-75"/>
       <use x="348.470703" xlink:href="#DejaVuSans-6d"/>
       <use x="445.882812" xlink:href="#DejaVuSans-69"/>
       <use x="473.666016" xlink:href="#DejaVuSans-6e"/>
       <use x="537.044922" xlink:href="#DejaVuSans-61"/>
       <use x="598.324219" xlink:href="#DejaVuSans-5f"/>
       <use x="648.324219" xlink:href="#DejaVuSans-50"/>
       <use x="708.626953" xlink:href="#DejaVuSans-30"/>
       <use x="772.25" xlink:href="#DejaVuSans-30"/>
       <use x="835.873047" xlink:href="#DejaVuSans-30"/>
       <use x="899.496094" xlink:href="#DejaVuSans-31"/>
       <use x="963.119141" xlink:href="#DejaVuSans-5f"/>
       <use x="1013.119141" xlink:href="#DejaVuSans-54"/>
       <use x="1074.203125" xlink:href="#DejaVuSans-31"/>
      </g>
     </g>
    </g>
    <g id="ytick_4">
     <g id="line2d_6"/>
     <g id="text_5">
      <!-- EpicSciences_P001_T1 -->
      <defs>
       <path d="M 9.8125 72.90625 
L 55.90625 72.90625 
L 55.90625 64.59375 
L 19.671875 64.59375 
L 19.671875 43.015625 
L 54.390625 43.015625 
L 54.390625 34.71875 
L 19.671875 34.71875 
L 19.671875 8.296875 
L 56.78125 8.296875 
L 56.78125 0 
L 9.8125 0 
z
" id="DejaVuSans-45"/>
      </defs>
      <g style="fill:#262626;" transform="translate(111.25875 1329.370757)scale(0.24 -0.24)">
       <use xlink:href="#DejaVuSans-45"/>
       <use x="63.183594" xlink:href="#DejaVuSans-70"/>
       <use x="126.660156" xlink:href="#DejaVuSans-69"/>
       <use x="154.443359" xlink:href="#DejaVuSans-63"/>
       <use x="209.423828" xlink:href="#DejaVuSans-53"/>
       <use x="272.900391" xlink:href="#DejaVuSans-63"/>
       <use x="327.880859" xlink:href="#DejaVuSans-69"/>
       <use x="355.664062" xlink:href="#DejaVuSans-65"/>
       <use x="417.1875" xlink:href="#DejaVuSans-6e"/>
       <use x="480.566406" xlink:href="#DejaVuSans-63"/>
       <use x="535.546875" xlink:href="#DejaVuSans-65"/>
       <use x="597.070312" xlink:href="#DejaVuSans-73"/>
       <use x="649.169922" xlink:href="#DejaVuSans-5f"/>
       <use x="699.169922" xlink:href="#DejaVuSans-50"/>
       <use x="759.472656" xlink:href="#DejaVuSans-30"/>
       <use x="823.095703" xlink:href="#DejaVuSans-30"/>
       <use x="886.71875" xlink:href="#DejaVuSans-31"/>
       <use x="950.341797" xlink:href="#DejaVuSans-5f"/>
       <use x="1000.341797" xlink:href="#DejaVuSans-54"/>
       <use x="1061.425781" xlink:href="#DejaVuSans-31"/>
      </g>
     </g>
    </g>
    <g id="ytick_5">
     <g id="line2d_7"/>
     <g id="text_6">
      <!-- FoundationMedicine_ClinAV_T1 -->
      <defs>
       <path d="M 9.8125 72.90625 
L 51.703125 72.90625 
L 51.703125 64.59375 
L 19.671875 64.59375 
L 19.671875 43.109375 
L 48.578125 43.109375 
L 48.578125 34.8125 
L 19.671875 34.8125 
L 19.671875 0 
L 9.8125 0 
z
" id="DejaVuSans-46"/>
       <path d="M 9.8125 72.90625 
L 24.515625 72.90625 
L 43.109375 23.296875 
L 61.8125 72.90625 
L 76.515625 72.90625 
L 76.515625 0 
L 66.890625 0 
L 66.890625 64.015625 
L 48.09375 14.015625 
L 38.1875 14.015625 
L 19.390625 64.015625 
L 19.390625 0 
L 9.8125 0 
z
" id="DejaVuSans-4d"/>
       <path d="M 28.609375 0 
L 0.78125 72.90625 
L 11.078125 72.90625 
L 34.1875 11.53125 
L 57.328125 72.90625 
L 67.578125 72.90625 
L 39.796875 0 
z
" id="DejaVuSans-56"/>
      </defs>
      <g style="fill:#262626;" transform="translate(7.2 1241.833914)scale(0.24 -0.24)">
       <use xlink:href="#DejaVuSans-46"/>
       <use x="57.472656" xlink:href="#DejaVuSans-6f"/>
       <use x="118.654297" xlink:href="#DejaVuSans-75"/>
       <use x="182.033203" xlink:href="#DejaVuSans-6e"/>
       <use x="245.412109" xlink:href="#DejaVuSans-64"/>
       <use x="308.888672" xlink:href="#DejaVuSans-61"/>
       <use x="370.167969" xlink:href="#DejaVuSans-74"/>
       <use x="409.376953" xlink:href="#DejaVuSans-69"/>
       <use x="437.160156" xlink:href="#DejaVuSans-6f"/>
       <use x="498.341797" xlink:href="#DejaVuSans-6e"/>
       <use x="561.720703" xlink:href="#DejaVuSans-4d"/>
       <use x="648" xlink:href="#DejaVuSans-65"/>
       <use x="709.523438" xlink:href="#DejaVuSans-64"/>
       <use x="773" xlink:href="#DejaVuSans-69"/>
       <use x="800.783203" xlink:href="#DejaVuSans-63"/>
       <use x="855.763672" xlink:href="#DejaVuSans-69"/>
       <use x="883.546875" xlink:href="#DejaVuSans-6e"/>
       <use x="946.925781" xlink:href="#DejaVuSans-65"/>
       <use x="1008.449219" xlink:href="#DejaVuSans-5f"/>
       <use x="1058.449219" xlink:href="#DejaVuSans-43"/>
       <use x="1128.273438" xlink:href="#DejaVuSans-6c"/>
       <use x="1156.056641" xlink:href="#DejaVuSans-69"/>
       <use x="1183.839844" xlink:href="#DejaVuSans-6e"/>
       <use x="1247.21875" xlink:href="#DejaVuSans-41"/>
       <use x="1315.533203" xlink:href="#DejaVuSans-56"/>
       <use x="1383.941406" xlink:href="#DejaVuSans-5f"/>
       <use x="1433.941406" xlink:href="#DejaVuSans-54"/>
       <use x="1495.025391" xlink:href="#DejaVuSans-31"/>
      </g>
     </g>
    </g>
    <g id="ytick_6">
     <g id="line2d_8"/>
     <g id="text_7">
      <!-- GenomicHealth_P0001_T1 -->
      <defs>
       <path d="M 59.515625 10.40625 
L 59.515625 29.984375 
L 43.40625 29.984375 
L 43.40625 38.09375 
L 69.28125 38.09375 
L 69.28125 6.78125 
Q 63.578125 2.734375 56.6875 0.65625 
Q 49.8125 -1.421875 42 -1.421875 
Q 24.90625 -1.421875 15.25 8.5625 
Q 5.609375 18.5625 5.609375 36.375 
Q 5.609375 54.25 15.25 64.234375 
Q 24.90625 74.21875 42 74.21875 
Q 49.125 74.21875 55.546875 72.453125 
Q 61.96875 70.703125 67.390625 67.28125 
L 67.390625 56.78125 
Q 61.921875 61.421875 55.765625 63.765625 
Q 49.609375 66.109375 42.828125 66.109375 
Q 29.4375 66.109375 22.71875 58.640625 
Q 16.015625 51.171875 16.015625 36.375 
Q 16.015625 21.625 22.71875 14.15625 
Q 29.4375 6.6875 42.828125 6.6875 
Q 48.046875 6.6875 52.140625 7.59375 
Q 56.25 8.5 59.515625 10.40625 
z
" id="DejaVuSans-47"/>
       <path d="M 9.8125 72.90625 
L 19.671875 72.90625 
L 19.671875 43.015625 
L 55.515625 43.015625 
L 55.515625 72.90625 
L 65.375 72.90625 
L 65.375 0 
L 55.515625 0 
L 55.515625 34.71875 
L 19.671875 34.71875 
L 19.671875 0 
L 9.8125 0 
z
" id="DejaVuSans-48"/>
       <path d="M 54.890625 33.015625 
L 54.890625 0 
L 45.90625 0 
L 45.90625 32.71875 
Q 45.90625 40.484375 42.875 44.328125 
Q 39.84375 48.1875 33.796875 48.1875 
Q 26.515625 48.1875 22.3125 43.546875 
Q 18.109375 38.921875 18.109375 30.90625 
L 18.109375 0 
L 9.078125 0 
L 9.078125 75.984375 
L 18.109375 75.984375 
L 18.109375 46.1875 
Q 21.34375 51.125 25.703125 53.5625 
Q 30.078125 56 35.796875 56 
Q 45.21875 56 50.046875 50.171875 
Q 54.890625 44.34375 54.890625 33.015625 
z
" id="DejaVuSans-68"/>
      </defs>
      <g style="fill:#262626;" transform="translate(66.4875 1154.297072)scale(0.24 -0.24)">
       <use xlink:href="#DejaVuSans-47"/>
       <use x="77.490234" xlink:href="#DejaVuSans-65"/>
       <use x="139.013672" xlink:href="#DejaVuSans-6e"/>
       <use x="202.392578" xlink:href="#DejaVuSans-6f"/>
       <use x="263.574219" xlink:href="#DejaVuSans-6d"/>
       <use x="360.986328" xlink:href="#DejaVuSans-69"/>
       <use x="388.769531" xlink:href="#DejaVuSans-63"/>
       <use x="443.75" xlink:href="#DejaVuSans-48"/>
       <use x="518.945312" xlink:href="#DejaVuSans-65"/>
       <use x="580.46875" xlink:href="#DejaVuSans-61"/>
       <use x="641.748047" xlink:href="#DejaVuSans-6c"/>
       <use x="669.53125" xlink:href="#DejaVuSans-74"/>
       <use x="708.740234" xlink:href="#DejaVuSans-68"/>
       <use x="772.119141" xlink:href="#DejaVuSans-5f"/>
       <use x="822.119141" xlink:href="#DejaVuSans-50"/>
       <use x="882.421875" xlink:href="#DejaVuSans-30"/>
       <use x="946.044922" xlink:href="#DejaVuSans-30"/>
       <use x="1009.667969" xlink:href="#DejaVuSans-30"/>
       <use x="1073.291016" xlink:href="#DejaVuSans-31"/>
       <use x="1136.914062" xlink:href="#DejaVuSans-5f"/>
       <use x="1186.914062" xlink:href="#DejaVuSans-54"/>
       <use x="1247.998047" xlink:href="#DejaVuSans-31"/>
      </g>
     </g>
    </g>
    <g id="ytick_7">
     <g id="line2d_9"/>
     <g id="text_8">
      <!-- Guardant_P0001_T1 -->
      <g style="fill:#262626;" transform="translate(138.85875 1066.76023)scale(0.24 -0.24)">
       <use xlink:href="#DejaVuSans-47"/>
       <use x="77.490234" xlink:href="#DejaVuSans-75"/>
       <use x="140.869141" xlink:href="#DejaVuSans-61"/>
       <use x="202.148438" xlink:href="#DejaVuSans-72"/>
       <use x="243.246094" xlink:href="#DejaVuSans-64"/>
       <use x="306.722656" xlink:href="#DejaVuSans-61"/>
       <use x="368.001953" xlink:href="#DejaVuSans-6e"/>
       <use x="431.380859" xlink:href="#DejaVuSans-74"/>
       <use x="470.589844" xlink:href="#DejaVuSans-5f"/>
       <use x="520.589844" xlink:href="#DejaVuSans-50"/>
       <use x="580.892578" xlink:href="#DejaVuSans-30"/>
       <use x="644.515625" xlink:href="#DejaVuSans-30"/>
       <use x="708.138672" xlink:href="#DejaVuSans-30"/>
       <use x="771.761719" xlink:href="#DejaVuSans-31"/>
       <use x="835.384766" xlink:href="#DejaVuSans-5f"/>
       <use x="885.384766" xlink:href="#DejaVuSans-54"/>
       <use x="946.46875" xlink:href="#DejaVuSans-31"/>
      </g>
     </g>
    </g>
    <g id="ytick_8">
     <g id="line2d_10"/>
     <g id="text_9">
      <!-- Lexent_P0001_T1  -->
      <g style="fill:#262626;" transform="translate(162.4575 979.011513)scale(0.24 -0.24)">
       <use xlink:href="#DejaVuSans-4c"/>
       <use x="55.697266" xlink:href="#DejaVuSans-65"/>
       <use x="117.205078" xlink:href="#DejaVuSans-78"/>
       <use x="176.337891" xlink:href="#DejaVuSans-65"/>
       <use x="237.861328" xlink:href="#DejaVuSans-6e"/>
       <use x="301.240234" xlink:href="#DejaVuSans-74"/>
       <use x="340.449219" xlink:href="#DejaVuSans-5f"/>
       <use x="390.449219" xlink:href="#DejaVuSans-50"/>
       <use x="450.751953" xlink:href="#DejaVuSans-30"/>
       <use x="514.375" xlink:href="#DejaVuSans-30"/>
       <use x="577.998047" xlink:href="#DejaVuSans-30"/>
       <use x="641.621094" xlink:href="#DejaVuSans-31"/>
       <use x="705.244141" xlink:href="#DejaVuSans-5f"/>
       <use x="755.244141" xlink:href="#DejaVuSans-54"/>
       <use x="816.328125" xlink:href="#DejaVuSans-31"/>
       <use x="879.951172" xlink:href="#DejaVuSans-20"/>
      </g>
     </g>
    </g>
    <g id="ytick_9">
     <g id="line2d_11"/>
     <g id="text_10">
      <!-- MSKCC_P0001_T1 -->
      <defs>
       <path d="M 9.8125 72.90625 
L 19.671875 72.90625 
L 19.671875 42.09375 
L 52.390625 72.90625 
L 65.09375 72.90625 
L 28.90625 38.921875 
L 67.671875 0 
L 54.6875 0 
L 19.671875 35.109375 
L 19.671875 0 
L 9.8125 0 
z
" id="DejaVuSans-4b"/>
      </defs>
      <g style="fill:#262626;" transform="translate(166.61625 891.474671)scale(0.24 -0.24)">
       <use xlink:href="#DejaVuSans-4d"/>
       <use x="86.279297" xlink:href="#DejaVuSans-53"/>
       <use x="149.755859" xlink:href="#DejaVuSans-4b"/>
       <use x="215.253906" xlink:href="#DejaVuSans-43"/>
       <use x="285.078125" xlink:href="#DejaVuSans-43"/>
       <use x="354.902344" xlink:href="#DejaVuSans-5f"/>
       <use x="404.902344" xlink:href="#DejaVuSans-50"/>
       <use x="465.205078" xlink:href="#DejaVuSans-30"/>
       <use x="528.828125" xlink:href="#DejaVuSans-30"/>
       <use x="592.451172" xlink:href="#DejaVuSans-30"/>
       <use x="656.074219" xlink:href="#DejaVuSans-31"/>
       <use x="719.697266" xlink:href="#DejaVuSans-5f"/>
       <use x="769.697266" xlink:href="#DejaVuSans-54"/>
       <use x="830.78125" xlink:href="#DejaVuSans-31"/>
      </g>
     </g>
    </g>
    <g id="ytick_10">
     <g id="line2d_12"/>
     <g id="text_11">
      <!-- Novartis_Contrived1_T1 -->
      <defs>
       <path d="M 9.8125 72.90625 
L 23.09375 72.90625 
L 55.421875 11.921875 
L 55.421875 72.90625 
L 64.984375 72.90625 
L 64.984375 0 
L 51.703125 0 
L 19.390625 60.984375 
L 19.390625 0 
L 9.8125 0 
z
" id="DejaVuSans-4e"/>
       <path d="M 2.984375 54.6875 
L 12.5 54.6875 
L 29.59375 8.796875 
L 46.6875 54.6875 
L 56.203125 54.6875 
L 35.6875 0 
L 23.484375 0 
z
" id="DejaVuSans-76"/>
      </defs>
      <g style="fill:#262626;" transform="translate(95.27625 804.149704)scale(0.24 -0.24)">
       <use xlink:href="#DejaVuSans-4e"/>
       <use x="74.804688" xlink:href="#DejaVuSans-6f"/>
       <use x="135.986328" xlink:href="#DejaVuSans-76"/>
       <use x="195.166016" xlink:href="#DejaVuSans-61"/>
       <use x="256.445312" xlink:href="#DejaVuSans-72"/>
       <use x="297.558594" xlink:href="#DejaVuSans-74"/>
       <use x="336.767578" xlink:href="#DejaVuSans-69"/>
       <use x="364.550781" xlink:href="#DejaVuSans-73"/>
       <use x="416.650391" xlink:href="#DejaVuSans-5f"/>
       <use x="466.650391" xlink:href="#DejaVuSans-43"/>
       <use x="536.474609" xlink:href="#DejaVuSans-6f"/>
       <use x="597.65625" xlink:href="#DejaVuSans-6e"/>
       <use x="661.035156" xlink:href="#DejaVuSans-74"/>
       <use x="700.244141" xlink:href="#DejaVuSans-72"/>
       <use x="741.357422" xlink:href="#DejaVuSans-69"/>
       <use x="769.140625" xlink:href="#DejaVuSans-76"/>
       <use x="828.320312" xlink:href="#DejaVuSans-65"/>
       <use x="889.84375" xlink:href="#DejaVuSans-64"/>
       <use x="953.320312" xlink:href="#DejaVuSans-31"/>
       <use x="1016.943359" xlink:href="#DejaVuSans-5f"/>
       <use x="1066.943359" xlink:href="#DejaVuSans-54"/>
       <use x="1128.027344" xlink:href="#DejaVuSans-31"/>
      </g>
     </g>
    </g>
    <g id="ytick_11">
     <g id="line2d_13"/>
     <g id="text_12">
      <!-- PersonalGenomeDx_P0001_T1 -->
      <defs>
       <path d="M 19.671875 64.796875 
L 19.671875 8.109375 
L 31.59375 8.109375 
Q 46.6875 8.109375 53.6875 14.9375 
Q 60.6875 21.78125 60.6875 36.53125 
Q 60.6875 51.171875 53.6875 57.984375 
Q 46.6875 64.796875 31.59375 64.796875 
z
M 9.8125 72.90625 
L 30.078125 72.90625 
Q 51.265625 72.90625 61.171875 64.09375 
Q 71.09375 55.28125 71.09375 36.53125 
Q 71.09375 17.671875 61.125 8.828125 
Q 51.171875 0 30.078125 0 
L 9.8125 0 
z
" id="DejaVuSans-44"/>
      </defs>
      <g style="fill:#262626;" transform="translate(14.8425 716.612862)scale(0.24 -0.24)">
       <use xlink:href="#DejaVuSans-50"/>
       <use x="60.255859" xlink:href="#DejaVuSans-65"/>
       <use x="121.779297" xlink:href="#DejaVuSans-72"/>
       <use x="162.892578" xlink:href="#DejaVuSans-73"/>
       <use x="214.992188" xlink:href="#DejaVuSans-6f"/>
       <use x="276.173828" xlink:href="#DejaVuSans-6e"/>
       <use x="339.552734" xlink:href="#DejaVuSans-61"/>
       <use x="400.832031" xlink:href="#DejaVuSans-6c"/>
       <use x="428.615234" xlink:href="#DejaVuSans-47"/>
       <use x="506.105469" xlink:href="#DejaVuSans-65"/>
       <use x="567.628906" xlink:href="#DejaVuSans-6e"/>
       <use x="631.007812" xlink:href="#DejaVuSans-6f"/>
       <use x="692.189453" xlink:href="#DejaVuSans-6d"/>
       <use x="789.601562" xlink:href="#DejaVuSans-65"/>
       <use x="851.125" xlink:href="#DejaVuSans-44"/>
       <use x="928.126953" xlink:href="#DejaVuSans-78"/>
       <use x="987.306641" xlink:href="#DejaVuSans-5f"/>
       <use x="1037.306641" xlink:href="#DejaVuSans-50"/>
       <use x="1097.609375" xlink:href="#DejaVuSans-30"/>
       <use x="1161.232422" xlink:href="#DejaVuSans-30"/>
       <use x="1224.855469" xlink:href="#DejaVuSans-30"/>
       <use x="1288.478516" xlink:href="#DejaVuSans-31"/>
       <use x="1352.101562" xlink:href="#DejaVuSans-5f"/>
       <use x="1402.101562" xlink:href="#DejaVuSans-54"/>
       <use x="1463.185547" xlink:href="#DejaVuSans-31"/>
      </g>
     </g>
    </g>
    <g id="ytick_12">
     <g id="line2d_14"/>
     <g id="text_13">
      <!-- Provista_P0001_T1 -->
      <g style="fill:#262626;" transform="translate(155.295 629.07602)scale(0.24 -0.24)">
       <use xlink:href="#DejaVuSans-50"/>
       <use x="60.287109" xlink:href="#DejaVuSans-72"/>
       <use x="101.369141" xlink:href="#DejaVuSans-6f"/>
       <use x="162.550781" xlink:href="#DejaVuSans-76"/>
       <use x="221.730469" xlink:href="#DejaVuSans-69"/>
       <use x="249.513672" xlink:href="#DejaVuSans-73"/>
       <use x="301.613281" xlink:href="#DejaVuSans-74"/>
       <use x="340.822266" xlink:href="#DejaVuSans-61"/>
       <use x="402.101562" xlink:href="#DejaVuSans-5f"/>
       <use x="452.101562" xlink:href="#DejaVuSans-50"/>
       <use x="512.404297" xlink:href="#DejaVuSans-30"/>
       <use x="576.027344" xlink:href="#DejaVuSans-30"/>
       <use x="639.650391" xlink:href="#DejaVuSans-30"/>
       <use x="703.273438" xlink:href="#DejaVuSans-31"/>
       <use x="766.896484" xlink:href="#DejaVuSans-5f"/>
       <use x="816.896484" xlink:href="#DejaVuSans-54"/>
       <use x="877.980469" xlink:href="#DejaVuSans-31"/>
      </g>
     </g>
    </g>
    <g id="ytick_13">
     <g id="line2d_15"/>
     <g id="text_14">
      <!-- ThermoFisher_P0001_T1 -->
      <g style="fill:#262626;" transform="translate(86.445 541.539178)scale(0.24 -0.24)">
       <use xlink:href="#DejaVuSans-54"/>
       <use x="61.083984" xlink:href="#DejaVuSans-68"/>
       <use x="124.462891" xlink:href="#DejaVuSans-65"/>
       <use x="185.986328" xlink:href="#DejaVuSans-72"/>
       <use x="227.083984" xlink:href="#DejaVuSans-6d"/>
       <use x="324.496094" xlink:href="#DejaVuSans-6f"/>
       <use x="385.677734" xlink:href="#DejaVuSans-46"/>
       <use x="443.087891" xlink:href="#DejaVuSans-69"/>
       <use x="470.871094" xlink:href="#DejaVuSans-73"/>
       <use x="522.970703" xlink:href="#DejaVuSans-68"/>
       <use x="586.349609" xlink:href="#DejaVuSans-65"/>
       <use x="647.873047" xlink:href="#DejaVuSans-72"/>
       <use x="688.986328" xlink:href="#DejaVuSans-5f"/>
       <use x="738.986328" xlink:href="#DejaVuSans-50"/>
       <use x="799.289062" xlink:href="#DejaVuSans-30"/>
       <use x="862.912109" xlink:href="#DejaVuSans-30"/>
       <use x="926.535156" xlink:href="#DejaVuSans-30"/>
       <use x="990.158203" xlink:href="#DejaVuSans-31"/>
       <use x="1053.78125" xlink:href="#DejaVuSans-5f"/>
       <use x="1103.78125" xlink:href="#DejaVuSans-54"/>
       <use x="1164.865234" xlink:href="#DejaVuSans-31"/>
      </g>
     </g>
    </g>
    <g id="ytick_14">
     <g id="line2d_16"/>
     <g id="text_15">
      <!-- ThermoFisher_P0002_T1 -->
      <defs>
       <path d="M 19.1875 8.296875 
L 53.609375 8.296875 
L 53.609375 0 
L 7.328125 0 
L 7.328125 8.296875 
Q 12.9375 14.109375 22.625 23.890625 
Q 32.328125 33.6875 34.8125 36.53125 
Q 39.546875 41.84375 41.421875 45.53125 
Q 43.3125 49.21875 43.3125 52.78125 
Q 43.3125 58.59375 39.234375 62.25 
Q 35.15625 65.921875 28.609375 65.921875 
Q 23.96875 65.921875 18.8125 64.3125 
Q 13.671875 62.703125 7.8125 59.421875 
L 7.8125 69.390625 
Q 13.765625 71.78125 18.9375 73 
Q 24.125 74.21875 28.421875 74.21875 
Q 39.75 74.21875 46.484375 68.546875 
Q 53.21875 62.890625 53.21875 53.421875 
Q 53.21875 48.921875 51.53125 44.890625 
Q 49.859375 40.875 45.40625 35.40625 
Q 44.1875 33.984375 37.640625 27.21875 
Q 31.109375 20.453125 19.1875 8.296875 
z
" id="DejaVuSans-32"/>
      </defs>
      <g style="fill:#262626;" transform="translate(86.445 454.002336)scale(0.24 -0.24)">
       <use xlink:href="#DejaVuSans-54"/>
       <use x="61.083984" xlink:href="#DejaVuSans-68"/>
       <use x="124.462891" xlink:href="#DejaVuSans-65"/>
       <use x="185.986328" xlink:href="#DejaVuSans-72"/>
       <use x="227.083984" xlink:href="#DejaVuSans-6d"/>
       <use x="324.496094" xlink:href="#DejaVuSans-6f"/>
       <use x="385.677734" xlink:href="#DejaVuSans-46"/>
       <use x="443.087891" xlink:href="#DejaVuSans-69"/>
       <use x="470.871094" xlink:href="#DejaVuSans-73"/>
       <use x="522.970703" xlink:href="#DejaVuSans-68"/>
       <use x="586.349609" xlink:href="#DejaVuSans-65"/>
       <use x="647.873047" xlink:href="#DejaVuSans-72"/>
       <use x="688.986328" xlink:href="#DejaVuSans-5f"/>
       <use x="738.986328" xlink:href="#DejaVuSans-50"/>
       <use x="799.289062" xlink:href="#DejaVuSans-30"/>
       <use x="862.912109" xlink:href="#DejaVuSans-30"/>
       <use x="926.535156" xlink:href="#DejaVuSans-30"/>
       <use x="990.158203" xlink:href="#DejaVuSans-32"/>
       <use x="1053.78125" xlink:href="#DejaVuSans-5f"/>
       <use x="1103.78125" xlink:href="#DejaVuSans-54"/>
       <use x="1164.865234" xlink:href="#DejaVuSans-31"/>
      </g>
     </g>
    </g>
    <g id="ytick_15">
     <g id="line2d_17"/>
     <g id="text_16">
      <!-- UAMS_P0001_T1 -->
      <defs>
       <path d="M 8.6875 72.90625 
L 18.609375 72.90625 
L 18.609375 28.609375 
Q 18.609375 16.890625 22.84375 11.734375 
Q 27.09375 6.59375 36.625 6.59375 
Q 46.09375 6.59375 50.34375 11.734375 
Q 54.59375 16.890625 54.59375 28.609375 
L 54.59375 72.90625 
L 64.5 72.90625 
L 64.5 27.390625 
Q 64.5 13.140625 57.4375 5.859375 
Q 50.390625 -1.421875 36.625 -1.421875 
Q 22.796875 -1.421875 15.734375 5.859375 
Q 8.6875 13.140625 8.6875 27.390625 
z
" id="DejaVuSans-55"/>
      </defs>
      <g style="fill:#262626;" transform="translate(181.87125 366.253618)scale(0.24 -0.24)">
       <use xlink:href="#DejaVuSans-55"/>
       <use x="73.193359" xlink:href="#DejaVuSans-41"/>
       <use x="141.601562" xlink:href="#DejaVuSans-4d"/>
       <use x="227.880859" xlink:href="#DejaVuSans-53"/>
       <use x="291.357422" xlink:href="#DejaVuSans-5f"/>
       <use x="341.357422" xlink:href="#DejaVuSans-50"/>
       <use x="401.660156" xlink:href="#DejaVuSans-30"/>
       <use x="465.283203" xlink:href="#DejaVuSans-30"/>
       <use x="528.90625" xlink:href="#DejaVuSans-30"/>
       <use x="592.529297" xlink:href="#DejaVuSans-31"/>
       <use x="656.152344" xlink:href="#DejaVuSans-5f"/>
       <use x="706.152344" xlink:href="#DejaVuSans-54"/>
       <use x="767.236328" xlink:href="#DejaVuSans-31"/>
      </g>
     </g>
    </g>
    <g id="ytick_16">
     <g id="line2d_18"/>
     <g id="text_17">
      <!-- UMich_P0001_T1 -->
      <g style="fill:#262626;" transform="translate(178.45125 278.928651)scale(0.24 -0.24)">
       <use xlink:href="#DejaVuSans-55"/>
       <use x="73.193359" xlink:href="#DejaVuSans-4d"/>
       <use x="159.472656" xlink:href="#DejaVuSans-69"/>
       <use x="187.255859" xlink:href="#DejaVuSans-63"/>
       <use x="242.236328" xlink:href="#DejaVuSans-68"/>
       <use x="305.615234" xlink:href="#DejaVuSans-5f"/>
       <use x="355.615234" xlink:href="#DejaVuSans-50"/>
       <use x="415.917969" xlink:href="#DejaVuSans-30"/>
       <use x="479.541016" xlink:href="#DejaVuSans-30"/>
       <use x="543.164062" xlink:href="#DejaVuSans-30"/>
       <use x="606.787109" xlink:href="#DejaVuSans-31"/>
       <use x="670.410156" xlink:href="#DejaVuSans-5f"/>
       <use x="720.410156" xlink:href="#DejaVuSans-54"/>
       <use x="781.494141" xlink:href="#DejaVuSans-31"/>
      </g>
     </g>
    </g>
    <g id="ytick_17">
     <g id="line2d_19"/>
     <g id="text_18">
      <!-- UMich_P0002_T1 -->
      <g style="fill:#262626;" transform="translate(178.45125 191.391809)scale(0.24 -0.24)">
       <use xlink:href="#DejaVuSans-55"/>
       <use x="73.193359" xlink:href="#DejaVuSans-4d"/>
       <use x="159.472656" xlink:href="#DejaVuSans-69"/>
       <use x="187.255859" xlink:href="#DejaVuSans-63"/>
       <use x="242.236328" xlink:href="#DejaVuSans-68"/>
       <use x="305.615234" xlink:href="#DejaVuSans-5f"/>
       <use x="355.615234" xlink:href="#DejaVuSans-50"/>
       <use x="415.917969" xlink:href="#DejaVuSans-30"/>
       <use x="479.541016" xlink:href="#DejaVuSans-30"/>
       <use x="543.164062" xlink:href="#DejaVuSans-30"/>
       <use x="606.787109" xlink:href="#DejaVuSans-32"/>
       <use x="670.410156" xlink:href="#DejaVuSans-5f"/>
       <use x="720.410156" xlink:href="#DejaVuSans-54"/>
       <use x="781.494141" xlink:href="#DejaVuSans-31"/>
      </g>
     </g>
    </g>
    <g id="ytick_18">
     <g id="line2d_20"/>
     <g id="text_19">
      <!-- USC_OPT1_T1 -->
      <defs>
       <path d="M 39.40625 66.21875 
Q 28.65625 66.21875 22.328125 58.203125 
Q 16.015625 50.203125 16.015625 36.375 
Q 16.015625 22.609375 22.328125 14.59375 
Q 28.65625 6.59375 39.40625 6.59375 
Q 50.140625 6.59375 56.421875 14.59375 
Q 62.703125 22.609375 62.703125 36.375 
Q 62.703125 50.203125 56.421875 58.203125 
Q 50.140625 66.21875 39.40625 66.21875 
z
M 39.40625 74.21875 
Q 54.734375 74.21875 63.90625 63.9375 
Q 73.09375 53.65625 73.09375 36.375 
Q 73.09375 19.140625 63.90625 8.859375 
Q 54.734375 -1.421875 39.40625 -1.421875 
Q 24.03125 -1.421875 14.8125 8.828125 
Q 5.609375 19.09375 5.609375 36.375 
Q 5.609375 53.65625 14.8125 63.9375 
Q 24.03125 74.21875 39.40625 74.21875 
z
" id="DejaVuSans-4f"/>
      </defs>
      <g style="fill:#262626;" transform="translate(214.49625 103.643092)scale(0.24 -0.24)">
       <use xlink:href="#DejaVuSans-55"/>
       <use x="73.193359" xlink:href="#DejaVuSans-53"/>
       <use x="136.669922" xlink:href="#DejaVuSans-43"/>
       <use x="206.494141" xlink:href="#DejaVuSans-5f"/>
       <use x="256.494141" xlink:href="#DejaVuSans-4f"/>
       <use x="335.205078" xlink:href="#DejaVuSans-50"/>
       <use x="395.507812" xlink:href="#DejaVuSans-54"/>
       <use x="456.591797" xlink:href="#DejaVuSans-31"/>
       <use x="520.214844" xlink:href="#DejaVuSans-5f"/>
       <use x="570.214844" xlink:href="#DejaVuSans-54"/>
       <use x="631.298828" xlink:href="#DejaVuSans-31"/>
      </g>
     </g>
    </g>
   </g>
   <g id="PathCollection_1">
    <path clip-path="url(#pbcac2730b1)" d="M 2590.909079 1603.167098 
C 2596.293747 1603.167098 2601.458598 1601.027747 2605.266133 1597.220212 
C 2609.073668 1593.412677 2611.213019 1588.247826 2611.213019 1582.863158 
C 2611.213019 1577.47849 2609.073668 1572.313639 2605.266133 1568.506104 
C 2601.458598 1564.698569 2596.293747 1562.559217 2590.909079 1562.559217 
C 2585.524411 1562.559217 2580.35956 1564.698569 2576.552025 1568.506104 
C 2572.74449 1572.313639 2570.605138 1577.47849 2570.605138 1582.863158 
C 2570.605138 1588.247826 2572.74449 1593.412677 2576.552025 1597.220212 
C 2580.35956 1601.027747 2585.524411 1603.167098 2590.909079 1603.167098 
z
" style="fill:#aec7e8;fill-opacity:0.5;stroke:#ffffff;stroke-opacity:0.5;stroke-width:2;"/>
    <path clip-path="url(#pbcac2730b1)" d="M 2590.909079 1542.839472 
C 2603.509715 1542.839472 2615.595958 1537.833186 2624.505954 1528.923191 
C 2633.415949 1520.013195 2638.422235 1507.926952 2638.422235 1495.326316 
C 2638.422235 1482.72568 2633.415949 1470.639436 2624.505954 1461.729441 
C 2615.595958 1452.819446 2603.509715 1447.81316 2590.909079 1447.81316 
C 2578.308443 1447.81316 2566.222199 1452.819446 2557.312204 1461.729441 
C 2548.402209 1470.639436 2543.395923 1482.72568 2543.395923 1495.326316 
C 2543.395923 1507.926952 2548.402209 1520.013195 2557.312204 1528.923191 
C 2566.222199 1537.833186 2578.308443 1542.839472 2590.909079 1542.839472 
z
" style="fill:#aec7e8;fill-opacity:0.5;stroke:#ffffff;stroke-opacity:0.5;stroke-width:2;"/>
    <path clip-path="url(#pbcac2730b1)" d="M 2590.909079 1426.397268 
C 2595.843924 1426.397268 2600.577314 1424.436633 2604.066776 1420.947171 
C 2607.556238 1417.457709 2609.516873 1412.724318 2609.516873 1407.789474 
C 2609.516873 1402.854629 2607.556238 1398.121238 2604.066776 1394.631776 
C 2600.577314 1391.142314 2595.843924 1389.18168 2590.909079 1389.18168 
C 2585.974234 1389.18168 2581.240844 1391.142314 2577.751382 1394.631776 
C 2574.261919 1398.121238 2572.301285 1402.854629 2572.301285 1407.789474 
C 2572.301285 1412.724318 2574.261919 1417.457709 2577.751382 1420.947171 
C 2581.240844 1424.436633 2585.974234 1426.397268 2590.909079 1426.397268 
z
" style="fill:#aec7e8;fill-opacity:0.5;stroke:#ffffff;stroke-opacity:0.5;stroke-width:2;"/>
    <path clip-path="url(#pbcac2730b1)" d="M 2590.909079 1341.932115 
C 2596.658545 1341.932115 2602.173302 1339.647828 2606.238789 1335.582341 
C 2610.304275 1331.516855 2612.588562 1326.002098 2612.588562 1320.252632 
C 2612.588562 1314.503165 2610.304275 1308.988408 2606.238789 1304.922922 
C 2602.173302 1300.857435 2596.658545 1298.573148 2590.909079 1298.573148 
C 2585.159613 1298.573148 2579.644856 1300.857435 2575.579369 1304.922922 
C 2571.513883 1308.988408 2569.229596 1314.503165 2569.229596 1320.252632 
C 2569.229596 1326.002098 2571.513883 1331.516855 2575.579369 1335.582341 
C 2579.644856 1339.647828 2585.159613 1341.932115 2590.909079 1341.932115 
z
" style="fill:#aec7e8;fill-opacity:0.5;stroke:#ffffff;stroke-opacity:0.5;stroke-width:2;"/>
    <path clip-path="url(#pbcac2730b1)" d="M 2590.909079 1261.577529 
C 2598.563302 1261.577529 2605.905058 1258.536474 2611.317411 1253.124121 
C 2616.729763 1247.711768 2619.770818 1240.370012 2619.770818 1232.715789 
C 2619.770818 1225.061567 2616.729763 1217.719811 2611.317411 1212.307458 
C 2605.905058 1206.895105 2598.563302 1203.85405 2590.909079 1203.85405 
C 2583.254856 1203.85405 2575.9131 1206.895105 2570.500747 1212.307458 
C 2565.088395 1217.719811 2562.04734 1225.061567 2562.04734 1232.715789 
C 2562.04734 1240.370012 2565.088395 1247.711768 2570.500747 1253.124121 
C 2575.9131 1258.536474 2583.254856 1261.577529 2590.909079 1261.577529 
z
" style="fill:#aec7e8;fill-opacity:0.5;stroke:#ffffff;stroke-opacity:0.5;stroke-width:2;"/>
    <path clip-path="url(#pbcac2730b1)" d="M 1122.488026 1171.499092 
C 1129.46821 1171.499092 1136.163444 1168.725835 1141.099179 1163.7901 
C 1146.034914 1158.854365 1148.808171 1152.159131 1148.808171 1145.178947 
C 1148.808171 1138.198763 1146.034914 1131.50353 1141.099179 1126.567795 
C 1136.163444 1121.632059 1129.46821 1118.858803 1122.488026 1118.858803 
C 1115.507842 1118.858803 1108.812609 1121.632059 1103.876874 1126.567795 
C 1098.941138 1131.50353 1096.167882 1138.198763 1096.167882 1145.178947 
C 1096.167882 1152.159131 1098.941138 1158.854365 1103.876874 1163.7901 
C 1108.812609 1168.725835 1115.507842 1171.499092 1122.488026 1171.499092 
z
" style="fill:#1f77b4;fill-opacity:0.5;stroke:#ffffff;stroke-opacity:0.5;stroke-width:2;"/>
    <path clip-path="url(#pbcac2730b1)" d="M 2590.909079 1166.279895 
C 2596.505116 1166.279895 2601.872707 1164.056566 2605.829702 1160.099571 
C 2609.786698 1156.142575 2612.010027 1150.774984 2612.010027 1145.178947 
C 2612.010027 1139.582911 2609.786698 1134.21532 2605.829702 1130.258324 
C 2601.872707 1126.301329 2596.505116 1124.078 2590.909079 1124.078 
C 2585.313042 1124.078 2579.945451 1126.301329 2575.988456 1130.258324 
C 2572.03146 1134.21532 2569.808131 1139.582911 2569.808131 1145.178947 
C 2569.808131 1150.774984 2572.03146 1156.142575 2575.988456 1160.099571 
C 2579.945451 1164.056566 2585.313042 1166.279895 2590.909079 1166.279895 
z
" style="fill:#aec7e8;fill-opacity:0.5;stroke:#ffffff;stroke-opacity:0.5;stroke-width:2;"/>
    <path clip-path="url(#pbcac2730b1)" d="M 2590.909079 1097.953394 
C 2601.599758 1097.953394 2611.854013 1093.705942 2619.413465 1086.146491 
C 2626.972916 1078.587039 2631.220368 1068.332784 2631.220368 1057.642105 
C 2631.220368 1046.951427 2626.972916 1036.697171 2619.413465 1029.13772 
C 2611.854013 1021.578268 2601.599758 1017.330817 2590.909079 1017.330817 
C 2580.2184 1017.330817 2569.964145 1021.578268 2562.404693 1029.13772 
C 2554.845242 1036.697171 2550.59779 1046.951427 2550.59779 1057.642105 
C 2550.59779 1068.332784 2554.845242 1078.587039 2562.404693 1086.146491 
C 2569.964145 1093.705942 2580.2184 1097.953394 2590.909079 1097.953394 
z
" style="fill:#aec7e8;fill-opacity:0.5;stroke:#ffffff;stroke-opacity:0.5;stroke-width:2;"/>
    <path clip-path="url(#pbcac2730b1)" d="M 2590.909079 901.542087 
C 2595.940954 901.542087 2600.767414 899.542902 2604.325487 895.984829 
C 2607.88356 892.426756 2609.882745 887.600296 2609.882745 882.568421 
C 2609.882745 877.536546 2607.88356 872.710086 2604.325487 869.152013 
C 2600.767414 865.59394 2595.940954 863.594755 2590.909079 863.594755 
C 2585.877204 863.594755 2581.050744 865.59394 2577.492671 869.152013 
C 2573.934598 872.710086 2571.935413 877.536546 2571.935413 882.568421 
C 2571.935413 887.600296 2573.934598 892.426756 2577.492671 895.984829 
C 2581.050744 899.542902 2585.877204 901.542087 2590.909079 901.542087 
z
" style="fill:#aec7e8;fill-opacity:0.5;stroke:#ffffff;stroke-opacity:0.5;stroke-width:2;"/>
    <path clip-path="url(#pbcac2730b1)" d="M 1122.488026 823.071729 
C 1129.924361 823.071729 1137.057124 820.117242 1142.315406 814.858959 
C 1147.573689 809.600676 1150.528176 802.467914 1150.528176 795.031579 
C 1150.528176 787.595244 1147.573689 780.462482 1142.315406 775.204199 
C 1137.057124 769.945916 1129.924361 766.991429 1122.488026 766.991429 
C 1115.051692 766.991429 1107.918929 769.945916 1102.660646 775.204199 
C 1097.402364 780.462482 1094.447877 787.595244 1094.447877 795.031579 
C 1094.447877 802.467914 1097.402364 809.600676 1102.660646 814.858959 
C 1107.918929 820.117242 1115.051692 823.071729 1122.488026 823.071729 
z
" style="fill:#1f77b4;fill-opacity:0.5;stroke:#ffffff;stroke-opacity:0.5;stroke-width:2;"/>
    <path clip-path="url(#pbcac2730b1)" d="M 2590.909079 725.729319 
C 2595.744947 725.729319 2600.383401 723.808009 2603.802876 720.388534 
C 2607.222351 716.969059 2609.143661 712.330605 2609.143661 707.494737 
C 2609.143661 702.658869 2607.222351 698.020415 2603.802876 694.60094 
C 2600.383401 691.181465 2595.744947 689.260154 2590.909079 689.260154 
C 2586.073211 689.260154 2581.434757 691.181465 2578.015282 694.60094 
C 2574.595807 698.020415 2572.674496 702.658869 2572.674496 707.494737 
C 2572.674496 712.330605 2574.595807 716.969059 2578.015282 720.388534 
C 2581.434757 723.808009 2586.073211 725.729319 2590.909079 725.729319 
z
" style="fill:#aec7e8;fill-opacity:0.5;stroke:#ffffff;stroke-opacity:0.5;stroke-width:2;"/>
    <path clip-path="url(#pbcac2730b1)" d="M 2590.909079 653.736586 
C 2599.867293 653.736586 2608.459807 650.17745 2614.794221 643.843037 
C 2621.128634 637.508623 2624.68777 628.916108 2624.68777 619.957895 
C 2624.68777 610.999681 2621.128634 602.407167 2614.794221 596.072753 
C 2608.459807 589.738339 2599.867293 586.179203 2590.909079 586.179203 
C 2581.950865 586.179203 2573.358351 589.738339 2567.023937 596.072753 
C 2560.689523 602.407167 2557.130387 610.999681 2557.130387 619.957895 
C 2557.130387 628.916108 2560.689523 637.508623 2567.023937 643.843037 
C 2573.358351 650.17745 2581.950865 653.736586 2590.909079 653.736586 
z
" style="fill:#aec7e8;fill-opacity:0.5;stroke:#ffffff;stroke-opacity:0.5;stroke-width:2;"/>
    <path clip-path="url(#pbcac2730b1)" d="M 1122.488026 548.996637 
C 1126.883923 548.996637 1131.100366 547.250129 1134.208734 544.141761 
C 1137.317103 541.033393 1139.063611 536.816949 1139.063611 532.421053 
C 1139.063611 528.025156 1137.317103 523.808713 1134.208734 520.700344 
C 1131.100366 517.591976 1126.883923 515.845468 1122.488026 515.845468 
C 1118.09213 515.845468 1113.875686 517.591976 1110.767318 520.700344 
C 1107.65895 523.808713 1105.912442 528.025156 1105.912442 532.421053 
C 1105.912442 536.816949 1107.65895 541.033393 1110.767318 544.141761 
C 1113.875686 547.250129 1118.09213 548.996637 1122.488026 548.996637 
z
" style="fill:#1f77b4;fill-opacity:0.5;stroke:#ffffff;stroke-opacity:0.5;stroke-width:2;"/>
    <path clip-path="url(#pbcac2730b1)" d="M 2590.909079 462.030639 
C 2595.456365 462.030639 2599.818018 460.223983 2603.033435 457.008566 
C 2606.248851 453.793149 2608.055507 449.431496 2608.055507 444.884211 
C 2608.055507 440.336925 2606.248851 435.975272 2603.033435 432.759855 
C 2599.818018 429.544438 2595.456365 427.737782 2590.909079 427.737782 
C 2586.361793 427.737782 2582.00014 429.544438 2578.784723 432.759855 
C 2575.569307 435.975272 2573.762651 440.336925 2573.762651 444.884211 
C 2573.762651 449.431496 2575.569307 453.793149 2578.784723 457.008566 
C 2582.00014 460.223983 2586.361793 462.030639 2590.909079 462.030639 
z
" style="fill:#aec7e8;fill-opacity:0.5;stroke:#ffffff;stroke-opacity:0.5;stroke-width:2;"/>
    <path clip-path="url(#pbcac2730b1)" d="M 2590.909079 376.892189 
C 2596.092426 376.892189 2601.064174 374.832823 2604.729354 371.167643 
C 2608.394534 367.502464 2610.453899 362.530715 2610.453899 357.347368 
C 2610.453899 352.164021 2608.394534 347.192273 2604.729354 343.527093 
C 2601.064174 339.861914 2596.092426 337.802548 2590.909079 337.802548 
C 2585.725732 337.802548 2580.753984 339.861914 2577.088804 343.527093 
C 2573.423624 347.192273 2571.364259 352.164021 2571.364259 357.347368 
C 2571.364259 362.530715 2573.423624 367.502464 2577.088804 371.167643 
C 2580.753984 374.832823 2585.725732 376.892189 2590.909079 376.892189 
z
" style="fill:#aec7e8;fill-opacity:0.5;stroke:#ffffff;stroke-opacity:0.5;stroke-width:2;"/>
    <path clip-path="url(#pbcac2730b1)" d="M 2590.909079 289.634754 
C 2596.166526 289.634754 2601.209349 287.545948 2604.926925 283.828372 
C 2608.644501 280.110796 2610.733307 275.067973 2610.733307 269.810526 
C 2610.733307 264.55308 2608.644501 259.510257 2604.926925 255.792681 
C 2601.209349 252.075104 2596.166526 249.986299 2590.909079 249.986299 
C 2585.651632 249.986299 2580.608809 252.075104 2576.891233 255.792681 
C 2573.173657 259.510257 2571.084851 264.55308 2571.084851 269.810526 
C 2571.084851 275.067973 2573.173657 280.110796 2576.891233 283.828372 
C 2580.608809 287.545948 2585.651632 289.634754 2590.909079 289.634754 
z
" style="fill:#aec7e8;fill-opacity:0.5;stroke:#ffffff;stroke-opacity:0.5;stroke-width:2;"/>
    <path clip-path="url(#pbcac2730b1)" d="M 2590.909079 204.578392 
C 2596.824357 204.578392 2602.498156 202.228227 2606.680889 198.045495 
C 2610.863622 193.862762 2613.213787 188.188962 2613.213787 182.273684 
C 2613.213787 176.358406 2610.863622 170.684607 2606.680889 166.501874 
C 2602.498156 162.319141 2596.824357 159.968976 2590.909079 159.968976 
C 2584.993801 159.968976 2579.320002 162.319141 2575.137269 166.501874 
C 2570.954536 170.684607 2568.604371 176.358406 2568.604371 182.273684 
C 2568.604371 188.188962 2570.954536 193.862762 2575.137269 198.045495 
C 2579.320002 202.228227 2584.993801 204.578392 2590.909079 204.578392 
z
" style="fill:#aec7e8;fill-opacity:0.5;stroke:#ffffff;stroke-opacity:0.5;stroke-width:2;"/>
    <path clip-path="url(#pbcac2730b1)" d="M 2590.909079 148.928631 
C 2605.280909 148.928631 2619.066042 143.218642 2629.22846 133.056224 
C 2639.390879 122.893805 2645.100868 109.108673 2645.100868 94.736842 
C 2645.100868 80.365012 2639.390879 66.579879 2629.22846 56.417461 
C 2619.066042 46.255042 2605.280909 40.545053 2590.909079 40.545053 
C 2576.537248 40.545053 2562.752116 46.255042 2552.589697 56.417461 
C 2542.427279 66.579879 2536.71729 80.365012 2536.71729 94.736842 
C 2536.71729 109.108673 2542.427279 122.893805 2552.589697 133.056224 
C 2562.752116 143.218642 2576.537248 148.928631 2590.909079 148.928631 
z
" style="fill:#aec7e8;fill-opacity:0.5;stroke:#ffffff;stroke-opacity:0.5;stroke-width:2;"/>
   </g>
   <g id="patch_3">
    <path d="M 388.2775 1670.4 
L 388.2775 7.2 
" style="fill:none;stroke:#262626;stroke-linecap:square;stroke-linejoin:miter;stroke-width:1.25;"/>
   </g>
   <g id="patch_4">
    <path d="M 3178.2775 1670.4 
L 3178.2775 7.2 
" style="fill:none;stroke:#262626;stroke-linecap:square;stroke-linejoin:miter;stroke-width:1.25;"/>
   </g>
   <g id="patch_5">
    <path d="M 388.2775 1670.4 
L 3178.2775 1670.4 
" style="fill:none;stroke:#262626;stroke-linecap:square;stroke-linejoin:miter;stroke-width:1.25;"/>
   </g>
   <g id="patch_6">
    <path d="M 388.2775 7.2 
L 3178.2775 7.2 
" style="fill:none;stroke:#262626;stroke-linecap:square;stroke-linejoin:miter;stroke-width:1.25;"/>
   </g>
   <g id="text_20">
    <!-- 59 -->
    <defs>
     <path d="M 10.796875 72.90625 
L 49.515625 72.90625 
L 49.515625 64.59375 
L 19.828125 64.59375 
L 19.828125 46.734375 
Q 21.96875 47.46875 24.109375 47.828125 
Q 26.265625 48.1875 28.421875 48.1875 
Q 40.625 48.1875 47.75 41.5 
Q 54.890625 34.8125 54.890625 23.390625 
Q 54.890625 11.625 47.5625 5.09375 
Q 40.234375 -1.421875 26.90625 -1.421875 
Q 22.3125 -1.421875 17.546875 -0.640625 
Q 12.796875 0.140625 7.71875 1.703125 
L 7.71875 11.625 
Q 12.109375 9.234375 16.796875 8.0625 
Q 21.484375 6.890625 26.703125 6.890625 
Q 35.15625 6.890625 40.078125 11.328125 
Q 45.015625 15.765625 45.015625 23.390625 
Q 45.015625 31 40.078125 35.4375 
Q 35.15625 39.890625 26.703125 39.890625 
Q 22.75 39.890625 18.8125 39.015625 
Q 14.890625 38.140625 10.796875 36.28125 
z
" id="DejaVuSans-35"/>
     <path d="M 10.984375 1.515625 
L 10.984375 10.5 
Q 14.703125 8.734375 18.5 7.8125 
Q 22.3125 6.890625 25.984375 6.890625 
Q 35.75 6.890625 40.890625 13.453125 
Q 46.046875 20.015625 46.78125 33.40625 
Q 43.953125 29.203125 39.59375 26.953125 
Q 35.25 24.703125 29.984375 24.703125 
Q 19.046875 24.703125 12.671875 31.3125 
Q 6.296875 37.9375 6.296875 49.421875 
Q 6.296875 60.640625 12.9375 67.421875 
Q 19.578125 74.21875 30.609375 74.21875 
Q 43.265625 74.21875 49.921875 64.515625 
Q 56.59375 54.828125 56.59375 36.375 
Q 56.59375 19.140625 48.40625 8.859375 
Q 40.234375 -1.421875 26.421875 -1.421875 
Q 22.703125 -1.421875 18.890625 -0.6875 
Q 15.09375 0.046875 10.984375 1.515625 
z
M 30.609375 32.421875 
Q 37.25 32.421875 41.125 36.953125 
Q 45.015625 41.5 45.015625 49.421875 
Q 45.015625 57.28125 41.125 61.84375 
Q 37.25 66.40625 30.609375 66.40625 
Q 23.96875 66.40625 20.09375 61.84375 
Q 16.21875 57.28125 16.21875 49.421875 
Q 16.21875 41.5 20.09375 36.953125 
Q 23.96875 32.421875 30.609375 32.421875 
z
" id="DejaVuSans-39"/>
    </defs>
    <g style="fill:#262626;" transform="translate(2575.639079 1582.863158)scale(0.24 -0.24)">
     <use xlink:href="#DejaVuSans-35"/>
     <use x="63.623047" xlink:href="#DejaVuSans-39"/>
    </g>
   </g>
   <g id="text_21">
    <!-- 730 -->
    <defs>
     <path d="M 8.203125 72.90625 
L 55.078125 72.90625 
L 55.078125 68.703125 
L 28.609375 0 
L 18.3125 0 
L 43.21875 64.59375 
L 8.203125 64.59375 
z
" id="DejaVuSans-37"/>
     <path d="M 40.578125 39.3125 
Q 47.65625 37.796875 51.625 33 
Q 55.609375 28.21875 55.609375 21.1875 
Q 55.609375 10.40625 48.1875 4.484375 
Q 40.765625 -1.421875 27.09375 -1.421875 
Q 22.515625 -1.421875 17.65625 -0.515625 
Q 12.796875 0.390625 7.625 2.203125 
L 7.625 11.71875 
Q 11.71875 9.328125 16.59375 8.109375 
Q 21.484375 6.890625 26.8125 6.890625 
Q 36.078125 6.890625 40.9375 10.546875 
Q 45.796875 14.203125 45.796875 21.1875 
Q 45.796875 27.640625 41.28125 31.265625 
Q 36.765625 34.90625 28.71875 34.90625 
L 20.21875 34.90625 
L 20.21875 43.015625 
L 29.109375 43.015625 
Q 36.375 43.015625 40.234375 45.921875 
Q 44.09375 48.828125 44.09375 54.296875 
Q 44.09375 59.90625 40.109375 62.90625 
Q 36.140625 65.921875 28.71875 65.921875 
Q 24.65625 65.921875 20.015625 65.03125 
Q 15.375 64.15625 9.8125 62.3125 
L 9.8125 71.09375 
Q 15.4375 72.65625 20.34375 73.4375 
Q 25.25 74.21875 29.59375 74.21875 
Q 40.828125 74.21875 47.359375 69.109375 
Q 53.90625 64.015625 53.90625 55.328125 
Q 53.90625 49.265625 50.4375 45.09375 
Q 46.96875 40.921875 40.578125 39.3125 
z
" id="DejaVuSans-33"/>
    </defs>
    <g style="fill:#262626;" transform="translate(2568.004079 1495.326316)scale(0.24 -0.24)">
     <use xlink:href="#DejaVuSans-37"/>
     <use x="63.623047" xlink:href="#DejaVuSans-33"/>
     <use x="127.246094" xlink:href="#DejaVuSans-30"/>
    </g>
   </g>
   <g id="text_22">
    <!-- 35 -->
    <g style="fill:#262626;" transform="translate(2575.639079 1407.789474)scale(0.24 -0.24)">
     <use xlink:href="#DejaVuSans-33"/>
     <use x="63.623047" xlink:href="#DejaVuSans-35"/>
    </g>
   </g>
   <g id="text_23">
    <!-- 80 -->
    <defs>
     <path d="M 31.78125 34.625 
Q 24.75 34.625 20.71875 30.859375 
Q 16.703125 27.09375 16.703125 20.515625 
Q 16.703125 13.921875 20.71875 10.15625 
Q 24.75 6.390625 31.78125 6.390625 
Q 38.8125 6.390625 42.859375 10.171875 
Q 46.921875 13.96875 46.921875 20.515625 
Q 46.921875 27.09375 42.890625 30.859375 
Q 38.875 34.625 31.78125 34.625 
z
M 21.921875 38.8125 
Q 15.578125 40.375 12.03125 44.71875 
Q 8.5 49.078125 8.5 55.328125 
Q 8.5 64.0625 14.71875 69.140625 
Q 20.953125 74.21875 31.78125 74.21875 
Q 42.671875 74.21875 48.875 69.140625 
Q 55.078125 64.0625 55.078125 55.328125 
Q 55.078125 49.078125 51.53125 44.71875 
Q 48 40.375 41.703125 38.8125 
Q 48.828125 37.15625 52.796875 32.3125 
Q 56.78125 27.484375 56.78125 20.515625 
Q 56.78125 9.90625 50.3125 4.234375 
Q 43.84375 -1.421875 31.78125 -1.421875 
Q 19.734375 -1.421875 13.25 4.234375 
Q 6.78125 9.90625 6.78125 20.515625 
Q 6.78125 27.484375 10.78125 32.3125 
Q 14.796875 37.15625 21.921875 38.8125 
z
M 18.3125 54.390625 
Q 18.3125 48.734375 21.84375 45.5625 
Q 25.390625 42.390625 31.78125 42.390625 
Q 38.140625 42.390625 41.71875 45.5625 
Q 45.3125 48.734375 45.3125 54.390625 
Q 45.3125 60.0625 41.71875 63.234375 
Q 38.140625 66.40625 31.78125 66.40625 
Q 25.390625 66.40625 21.84375 63.234375 
Q 18.3125 60.0625 18.3125 54.390625 
z
" id="DejaVuSans-38"/>
    </defs>
    <g style="fill:#262626;" transform="translate(2575.639079 1320.252632)scale(0.24 -0.24)">
     <use xlink:href="#DejaVuSans-38"/>
     <use x="63.623047" xlink:href="#DejaVuSans-30"/>
    </g>
   </g>
   <g id="text_24">
    <!-- 212 -->
    <g style="fill:#262626;" transform="translate(2568.004079 1232.715789)scale(0.24 -0.24)">
     <use xlink:href="#DejaVuSans-32"/>
     <use x="63.623047" xlink:href="#DejaVuSans-31"/>
     <use x="127.246094" xlink:href="#DejaVuSans-32"/>
    </g>
   </g>
   <g id="text_25">
    <!-- 161 -->
    <defs>
     <path d="M 33.015625 40.375 
Q 26.375 40.375 22.484375 35.828125 
Q 18.609375 31.296875 18.609375 23.390625 
Q 18.609375 15.53125 22.484375 10.953125 
Q 26.375 6.390625 33.015625 6.390625 
Q 39.65625 6.390625 43.53125 10.953125 
Q 47.40625 15.53125 47.40625 23.390625 
Q 47.40625 31.296875 43.53125 35.828125 
Q 39.65625 40.375 33.015625 40.375 
z
M 52.59375 71.296875 
L 52.59375 62.3125 
Q 48.875 64.0625 45.09375 64.984375 
Q 41.3125 65.921875 37.59375 65.921875 
Q 27.828125 65.921875 22.671875 59.328125 
Q 17.53125 52.734375 16.796875 39.40625 
Q 19.671875 43.65625 24.015625 45.921875 
Q 28.375 48.1875 33.59375 48.1875 
Q 44.578125 48.1875 50.953125 41.515625 
Q 57.328125 34.859375 57.328125 23.390625 
Q 57.328125 12.15625 50.6875 5.359375 
Q 44.046875 -1.421875 33.015625 -1.421875 
Q 20.359375 -1.421875 13.671875 8.265625 
Q 6.984375 17.96875 6.984375 36.375 
Q 6.984375 53.65625 15.1875 63.9375 
Q 23.390625 74.21875 37.203125 74.21875 
Q 40.921875 74.21875 44.703125 73.484375 
Q 48.484375 72.75 52.59375 71.296875 
z
" id="DejaVuSans-36"/>
    </defs>
    <g style="fill:#262626;" transform="translate(1099.583026 1145.178947)scale(0.24 -0.24)">
     <use xlink:href="#DejaVuSans-31"/>
     <use x="63.623047" xlink:href="#DejaVuSans-36"/>
     <use x="127.246094" xlink:href="#DejaVuSans-31"/>
    </g>
   </g>
   <g id="text_26">
    <!-- 71 -->
    <g style="fill:#262626;" transform="translate(2575.639079 1145.178947)scale(0.24 -0.24)">
     <use xlink:href="#DejaVuSans-37"/>
     <use x="63.623047" xlink:href="#DejaVuSans-31"/>
    </g>
   </g>
   <g id="text_27">
    <!-- 500 -->
    <g style="fill:#262626;" transform="translate(2568.004079 1057.642105)scale(0.24 -0.24)">
     <use xlink:href="#DejaVuSans-35"/>
     <use x="63.623047" xlink:href="#DejaVuSans-30"/>
     <use x="127.246094" xlink:href="#DejaVuSans-30"/>
    </g>
   </g>
   <g id="text_28">
    <!-- 40 -->
    <defs>
     <path d="M 37.796875 64.3125 
L 12.890625 25.390625 
L 37.796875 25.390625 
z
M 35.203125 72.90625 
L 47.609375 72.90625 
L 47.609375 25.390625 
L 58.015625 25.390625 
L 58.015625 17.1875 
L 47.609375 17.1875 
L 47.609375 0 
L 37.796875 0 
L 37.796875 17.1875 
L 4.890625 17.1875 
L 4.890625 26.703125 
z
" id="DejaVuSans-34"/>
    </defs>
    <g style="fill:#262626;" transform="translate(2575.639079 882.568421)scale(0.24 -0.24)">
     <use xlink:href="#DejaVuSans-34"/>
     <use x="63.623047" xlink:href="#DejaVuSans-30"/>
    </g>
   </g>
   <g id="text_29">
    <!-- 195 -->
    <g style="fill:#262626;" transform="translate(1099.583026 795.031579)scale(0.24 -0.24)">
     <use xlink:href="#DejaVuSans-31"/>
     <use x="63.623047" xlink:href="#DejaVuSans-39"/>
     <use x="127.246094" xlink:href="#DejaVuSans-35"/>
    </g>
   </g>
   <g id="text_30">
    <!-- 30 -->
    <g style="fill:#262626;" transform="translate(2575.639079 707.494737)scale(0.24 -0.24)">
     <use xlink:href="#DejaVuSans-33"/>
     <use x="63.623047" xlink:href="#DejaVuSans-30"/>
    </g>
   </g>
   <g id="text_31">
    <!-- 324 -->
    <g style="fill:#262626;" transform="translate(2568.004079 619.957895)scale(0.24 -0.24)">
     <use xlink:href="#DejaVuSans-33"/>
     <use x="63.623047" xlink:href="#DejaVuSans-32"/>
     <use x="127.246094" xlink:href="#DejaVuSans-34"/>
    </g>
   </g>
   <g id="text_32">
    <!-- 9 -->
    <g style="fill:#262626;" transform="translate(1114.853026 532.421053)scale(0.24 -0.24)">
     <use xlink:href="#DejaVuSans-39"/>
    </g>
   </g>
   <g id="text_33">
    <!-- 16 -->
    <g style="fill:#262626;" transform="translate(2575.639079 444.884211)scale(0.24 -0.24)">
     <use xlink:href="#DejaVuSans-31"/>
     <use x="63.623047" xlink:href="#DejaVuSans-36"/>
    </g>
   </g>
   <g id="text_34">
    <!-- 48 -->
    <g style="fill:#262626;" transform="translate(2575.639079 357.347368)scale(0.24 -0.24)">
     <use xlink:href="#DejaVuSans-34"/>
     <use x="63.623047" xlink:href="#DejaVuSans-38"/>
    </g>
   </g>
   <g id="text_35">
    <!-- 52 -->
    <g style="fill:#262626;" transform="translate(2575.639079 269.810526)scale(0.24 -0.24)">
     <use xlink:href="#DejaVuSans-35"/>
     <use x="63.623047" xlink:href="#DejaVuSans-32"/>
    </g>
   </g>
   <g id="text_36">
    <!-- 90 -->
    <g style="fill:#262626;" transform="translate(2575.639079 182.273684)scale(0.24 -0.24)">
     <use xlink:href="#DejaVuSans-39"/>
     <use x="63.623047" xlink:href="#DejaVuSans-30"/>
    </g>
   </g>
   <g id="text_37">
    <!-- 977 -->
    <g style="fill:#262626;" transform="translate(2568.004079 94.736842)scale(0.24 -0.24)">
     <use xlink:href="#DejaVuSans-39"/>
     <use x="63.623047" xlink:href="#DejaVuSans-37"/>
     <use x="127.246094" xlink:href="#DejaVuSans-37"/>
    </g>
   </g>
   <g id="legend_1">
    <g id="line2d_21">
     <path d="M 2972.6725 38.63625 
L 3020.6725 38.63625 
" style="fill:none;opacity:0.5;stroke:#ffffff;stroke-linecap:round;stroke-width:1.75;"/>
    </g>
    <g id="line2d_22">
     <defs>
      <path d="M 0 12 
C 3.182437 12 6.234958 10.735604 8.485281 8.485281 
C 10.735604 6.234958 12 3.182437 12 0 
C 12 -3.182437 10.735604 -6.234958 8.485281 -8.485281 
C 6.234958 -10.735604 3.182437 -12 0 -12 
C -3.182437 -12 -6.234958 -10.735604 -8.485281 -8.485281 
C -10.735604 -6.234958 -12 -3.182437 -12 0 
C -12 3.182437 -10.735604 6.234958 -8.485281 8.485281 
C -6.234958 10.735604 -3.182437 12 0 12 
z
" id="m9452a5f822"/>
     </defs>
     <g>
      <use style="fill:#1f77b4;opacity:0.5;" x="2996.6725" xlink:href="#m9452a5f822" y="38.63625"/>
     </g>
    </g>
    <g id="text_38">
     <!-- Contrived -->
     <g style="fill:#262626;" transform="translate(3039.8725 47.03625)scale(0.24 -0.24)">
      <use xlink:href="#DejaVuSans-43"/>
      <use x="69.824219" xlink:href="#DejaVuSans-6f"/>
      <use x="131.005859" xlink:href="#DejaVuSans-6e"/>
      <use x="194.384766" xlink:href="#DejaVuSans-74"/>
      <use x="233.59375" xlink:href="#DejaVuSans-72"/>
      <use x="274.707031" xlink:href="#DejaVuSans-69"/>
      <use x="302.490234" xlink:href="#DejaVuSans-76"/>
      <use x="361.669922" xlink:href="#DejaVuSans-65"/>
      <use x="423.193359" xlink:href="#DejaVuSans-64"/>
     </g>
    </g>
    <g id="line2d_23">
     <path d="M 2972.6725 73.86375 
L 3020.6725 73.86375 
" style="fill:none;opacity:0.5;stroke:#ffffff;stroke-linecap:round;stroke-width:1.75;"/>
    </g>
    <g id="line2d_24">
     <defs>
      <path d="M 0 12 
C 3.182437 12 6.234958 10.735604 8.485281 8.485281 
C 10.735604 6.234958 12 3.182437 12 0 
C 12 -3.182437 10.735604 -6.234958 8.485281 -8.485281 
C 6.234958 -10.735604 3.182437 -12 0 -12 
C -3.182437 -12 -6.234958 -10.735604 -8.485281 -8.485281 
C -10.735604 -6.234958 -12 -3.182437 -12 0 
C -12 3.182437 -10.735604 6.234958 -8.485281 8.485281 
C -6.234958 10.735604 -3.182437 12 0 12 
z
" id="m6feca2721d"/>
     </defs>
     <g>
      <use style="fill:#aec7e8;opacity:0.5;" x="2996.6725" xlink:href="#m6feca2721d" y="73.86375"/>
     </g>
    </g>
    <g id="text_39">
     <!-- Clinical -->
     <g style="fill:#262626;" transform="translate(3039.8725 82.26375)scale(0.24 -0.24)">
      <use xlink:href="#DejaVuSans-43"/>
      <use x="69.824219" xlink:href="#DejaVuSans-6c"/>
      <use x="97.607422" xlink:href="#DejaVuSans-69"/>
      <use x="125.390625" xlink:href="#DejaVuSans-6e"/>
      <use x="188.769531" xlink:href="#DejaVuSans-69"/>
      <use x="216.552734" xlink:href="#DejaVuSans-63"/>
      <use x="271.533203" xlink:href="#DejaVuSans-61"/>
      <use x="332.8125" xlink:href="#DejaVuSans-6c"/>
     </g>
    </g>
   </g>
  </g>
 </g>
 <defs>
  <clipPath id="pbcac2730b1">
   <rect height="1663.2" width="2790" x="388.2775" y="7.2"/>
  </clipPath>
 </defs>
</svg>
