<?xml version="1.0" encoding="utf-8" standalone="no"?>
<!DOCTYPE svg PUBLIC "-//W3C//DTD SVG 1.1//EN"
  "http://www.w3.org/Graphics/SVG/1.1/DTD/svg11.dtd">
<!-- Created with matplotlib (http://matplotlib.org/) -->
<svg height="1711pt" version="1.1" viewBox="0 0 3185 1711" width="3185pt" xmlns="http://www.w3.org/2000/svg" xmlns:xlink="http://www.w3.org/1999/xlink">
 <defs>
  <style type="text/css">
*{stroke-linecap:butt;stroke-linejoin:round;}
  </style>
 </defs>
 <g id="figure_1">
  <g id="patch_1">
   <path d="M -0 1711.8275 
L 3185.4775 1711.8275 
L 3185.4775 0 
L -0 0 
z
" style="fill:#ffffff;"/>
  </g>
  <g id="axes_1">
   <g id="patch_2">
    <path d="M 388.2775 1670.4 
L 3178.2775 1670.4 
L 3178.2775 7.2 
L 388.2775 7.2 
z
" style="fill:none;"/>
   </g>
   <g id="matplotlib.axis_1">
    <g id="xtick_1">
     <g id="line2d_1"/>
    </g>
    <g id="xtick_2">
     <g id="line2d_2"/>
    </g>
    <g id="xtick_3">
     <g id="line2d_3"/>
    </g>
    <g id="xtick_4">
     <g id="line2d_4"/>
    </g>
    <g id="xtick_5">
     <g id="line2d_5"/>
    </g>
    <g id="text_1">
     <!-- Tube Type -->
     <defs>
      <path d="M -0.296875 72.90625 
L 61.375 72.90625 
L 61.375 64.59375 
L 35.5 64.59375 
L 35.5 0 
L 25.59375 0 
L 25.59375 64.59375 
L -0.296875 64.59375 
z
" id="DejaVuSans-54"/>
      <path d="M 8.5 21.578125 
L 8.5 54.6875 
L 17.484375 54.6875 
L 17.484375 21.921875 
Q 17.484375 14.15625 20.5 10.265625 
Q 23.53125 6.390625 29.59375 6.390625 
Q 36.859375 6.390625 41.078125 11.03125 
Q 45.3125 15.671875 45.3125 23.6875 
L 45.3125 54.6875 
L 54.296875 54.6875 
L 54.296875 0 
L 45.3125 0 
L 45.3125 8.40625 
Q 42.046875 3.421875 37.71875 1 
Q 33.40625 -1.421875 27.6875 -1.421875 
Q 18.265625 -1.421875 13.375 4.4375 
Q 8.5 10.296875 8.5 21.578125 
z
M 31.109375 56 
z
" id="DejaVuSans-75"/>
      <path d="M 48.6875 27.296875 
Q 48.6875 37.203125 44.609375 42.84375 
Q 40.53125 48.484375 33.40625 48.484375 
Q 26.265625 48.484375 22.1875 42.84375 
Q 18.109375 37.203125 18.109375 27.296875 
Q 18.109375 17.390625 22.1875 11.75 
Q 26.265625 6.109375 33.40625 6.109375 
Q 40.53125 6.109375 44.609375 11.75 
Q 48.6875 17.390625 48.6875 27.296875 
z
M 18.109375 46.390625 
Q 20.953125 51.265625 25.265625 53.625 
Q 29.59375 56 35.59375 56 
Q 45.5625 56 51.78125 48.09375 
Q 58.015625 40.1875 58.015625 27.296875 
Q 58.015625 14.40625 51.78125 6.484375 
Q 45.5625 -1.421875 35.59375 -1.421875 
Q 29.59375 -1.421875 25.265625 0.953125 
Q 20.953125 3.328125 18.109375 8.203125 
L 18.109375 0 
L 9.078125 0 
L 9.078125 75.984375 
L 18.109375 75.984375 
z
" id="DejaVuSans-62"/>
      <path d="M 56.203125 29.59375 
L 56.203125 25.203125 
L 14.890625 25.203125 
Q 15.484375 15.921875 20.484375 11.0625 
Q 25.484375 6.203125 34.421875 6.203125 
Q 39.59375 6.203125 44.453125 7.46875 
Q 49.3125 8.734375 54.109375 11.28125 
L 54.109375 2.78125 
Q 49.265625 0.734375 44.1875 -0.34375 
Q 39.109375 -1.421875 33.890625 -1.421875 
Q 20.796875 -1.421875 13.15625 6.1875 
Q 5.515625 13.8125 5.515625 26.8125 
Q 5.515625 40.234375 12.765625 48.109375 
Q 20.015625 56 32.328125 56 
Q 43.359375 56 49.78125 48.890625 
Q 56.203125 41.796875 56.203125 29.59375 
z
M 47.21875 32.234375 
Q 47.125 39.59375 43.09375 43.984375 
Q 39.0625 48.390625 32.421875 48.390625 
Q 24.90625 48.390625 20.390625 44.140625 
Q 15.875 39.890625 15.1875 32.171875 
z
" id="DejaVuSans-65"/>
      <path id="DejaVuSans-20"/>
      <path d="M 32.171875 -5.078125 
Q 28.375 -14.84375 24.75 -17.8125 
Q 21.140625 -20.796875 15.09375 -20.796875 
L 7.90625 -20.796875 
L 7.90625 -13.28125 
L 13.1875 -13.28125 
Q 16.890625 -13.28125 18.9375 -11.515625 
Q 21 -9.765625 23.484375 -3.21875 
L 25.09375 0.875 
L 2.984375 54.6875 
L 12.5 54.6875 
L 29.59375 11.921875 
L 46.6875 54.6875 
L 56.203125 54.6875 
z
" id="DejaVuSans-79"/>
      <path d="M 18.109375 8.203125 
L 18.109375 -20.796875 
L 9.078125 -20.796875 
L 9.078125 54.6875 
L 18.109375 54.6875 
L 18.109375 46.390625 
Q 20.953125 51.265625 25.265625 53.625 
Q 29.59375 56 35.59375 56 
Q 45.5625 56 51.78125 48.09375 
Q 58.015625 40.1875 58.015625 27.296875 
Q 58.015625 14.40625 51.78125 6.484375 
Q 45.5625 -1.421875 35.59375 -1.421875 
Q 29.59375 -1.421875 25.265625 0.953125 
Q 20.953125 3.328125 18.109375 8.203125 
z
M 48.6875 27.296875 
Q 48.6875 37.203125 44.609375 42.84375 
Q 40.53125 48.484375 33.40625 48.484375 
Q 26.265625 48.484375 22.1875 42.84375 
Q 18.109375 37.203125 18.109375 27.296875 
Q 18.109375 17.390625 22.1875 11.75 
Q 26.265625 6.109375 33.40625 6.109375 
Q 40.53125 6.109375 44.609375 11.75 
Q 48.6875 17.390625 48.6875 27.296875 
z
" id="DejaVuSans-70"/>
     </defs>
     <g style="fill:#262626;" transform="translate(1720.15 1699.63625)scale(0.24 -0.24)">
      <use xlink:href="#DejaVuSans-54"/>
      <use x="60.849609" xlink:href="#DejaVuSans-75"/>
      <use x="124.228516" xlink:href="#DejaVuSans-62"/>
      <use x="187.705078" xlink:href="#DejaVuSans-65"/>
      <use x="249.228516" xlink:href="#DejaVuSans-20"/>
      <use x="281.015625" xlink:href="#DejaVuSans-54"/>
      <use x="341.865234" xlink:href="#DejaVuSans-79"/>
      <use x="401.044922" xlink:href="#DejaVuSans-70"/>
      <use x="464.521484" xlink:href="#DejaVuSans-65"/>
     </g>
    </g>
   </g>
   <g id="matplotlib.axis_2">
    <g id="ytick_1">
     <g id="line2d_6"/>
     <g id="text_2">
      <!-- AstraZeneca_P0001_T1 -->
      <defs>
       <path d="M 34.1875 63.1875 
L 20.796875 26.90625 
L 47.609375 26.90625 
z
M 28.609375 72.90625 
L 39.796875 72.90625 
L 67.578125 0 
L 57.328125 0 
L 50.6875 18.703125 
L 17.828125 18.703125 
L 11.1875 0 
L 0.78125 0 
z
" id="DejaVuSans-41"/>
       <path d="M 44.28125 53.078125 
L 44.28125 44.578125 
Q 40.484375 46.53125 36.375 47.5 
Q 32.28125 48.484375 27.875 48.484375 
Q 21.1875 48.484375 17.84375 46.4375 
Q 14.5 44.390625 14.5 40.28125 
Q 14.5 37.15625 16.890625 35.375 
Q 19.28125 33.59375 26.515625 31.984375 
L 29.59375 31.296875 
Q 39.15625 29.25 43.1875 25.515625 
Q 47.21875 21.78125 47.21875 15.09375 
Q 47.21875 7.46875 41.1875 3.015625 
Q 35.15625 -1.421875 24.609375 -1.421875 
Q 20.21875 -1.421875 15.453125 -0.5625 
Q 10.6875 0.296875 5.421875 2 
L 5.421875 11.28125 
Q 10.40625 8.6875 15.234375 7.390625 
Q 20.0625 6.109375 24.8125 6.109375 
Q 31.15625 6.109375 34.5625 8.28125 
Q 37.984375 10.453125 37.984375 14.40625 
Q 37.984375 18.0625 35.515625 20.015625 
Q 33.0625 21.96875 24.703125 23.78125 
L 21.578125 24.515625 
Q 13.234375 26.265625 9.515625 29.90625 
Q 5.8125 33.546875 5.8125 39.890625 
Q 5.8125 47.609375 11.28125 51.796875 
Q 16.75 56 26.8125 56 
Q 31.78125 56 36.171875 55.265625 
Q 40.578125 54.546875 44.28125 53.078125 
z
" id="DejaVuSans-73"/>
       <path d="M 18.3125 70.21875 
L 18.3125 54.6875 
L 36.8125 54.6875 
L 36.8125 47.703125 
L 18.3125 47.703125 
L 18.3125 18.015625 
Q 18.3125 11.328125 20.140625 9.421875 
Q 21.96875 7.515625 27.59375 7.515625 
L 36.8125 7.515625 
L 36.8125 0 
L 27.59375 0 
Q 17.1875 0 13.234375 3.875 
Q 9.28125 7.765625 9.28125 18.015625 
L 9.28125 47.703125 
L 2.6875 47.703125 
L 2.6875 54.6875 
L 9.28125 54.6875 
L 9.28125 70.21875 
z
" id="DejaVuSans-74"/>
       <path d="M 41.109375 46.296875 
Q 39.59375 47.171875 37.8125 47.578125 
Q 36.03125 48 33.890625 48 
Q 26.265625 48 22.1875 43.046875 
Q 18.109375 38.09375 18.109375 28.8125 
L 18.109375 0 
L 9.078125 0 
L 9.078125 54.6875 
L 18.109375 54.6875 
L 18.109375 46.1875 
Q 20.953125 51.171875 25.484375 53.578125 
Q 30.03125 56 36.53125 56 
Q 37.453125 56 38.578125 55.875 
Q 39.703125 55.765625 41.0625 55.515625 
z
" id="DejaVuSans-72"/>
       <path d="M 34.28125 27.484375 
Q 23.390625 27.484375 19.1875 25 
Q 14.984375 22.515625 14.984375 16.5 
Q 14.984375 11.71875 18.140625 8.90625 
Q 21.296875 6.109375 26.703125 6.109375 
Q 34.1875 6.109375 38.703125 11.40625 
Q 43.21875 16.703125 43.21875 25.484375 
L 43.21875 27.484375 
z
M 52.203125 31.203125 
L 52.203125 0 
L 43.21875 0 
L 43.21875 8.296875 
Q 40.140625 3.328125 35.546875 0.953125 
Q 30.953125 -1.421875 24.3125 -1.421875 
Q 15.921875 -1.421875 10.953125 3.296875 
Q 6 8.015625 6 15.921875 
Q 6 25.140625 12.171875 29.828125 
Q 18.359375 34.515625 30.609375 34.515625 
L 43.21875 34.515625 
L 43.21875 35.40625 
Q 43.21875 41.609375 39.140625 45 
Q 35.0625 48.390625 27.6875 48.390625 
Q 23 48.390625 18.546875 47.265625 
Q 14.109375 46.140625 10.015625 43.890625 
L 10.015625 52.203125 
Q 14.9375 54.109375 19.578125 55.046875 
Q 24.21875 56 28.609375 56 
Q 40.484375 56 46.34375 49.84375 
Q 52.203125 43.703125 52.203125 31.203125 
z
" id="DejaVuSans-61"/>
       <path d="M 5.609375 72.90625 
L 62.890625 72.90625 
L 62.890625 65.375 
L 16.796875 8.296875 
L 64.015625 8.296875 
L 64.015625 0 
L 4.5 0 
L 4.5 7.515625 
L 50.59375 64.59375 
L 5.609375 64.59375 
z
" id="DejaVuSans-5a"/>
       <path d="M 54.890625 33.015625 
L 54.890625 0 
L 45.90625 0 
L 45.90625 32.71875 
Q 45.90625 40.484375 42.875 44.328125 
Q 39.84375 48.1875 33.796875 48.1875 
Q 26.515625 48.1875 22.3125 43.546875 
Q 18.109375 38.921875 18.109375 30.90625 
L 18.109375 0 
L 9.078125 0 
L 9.078125 54.6875 
L 18.109375 54.6875 
L 18.109375 46.1875 
Q 21.34375 51.125 25.703125 53.5625 
Q 30.078125 56 35.796875 56 
Q 45.21875 56 50.046875 50.171875 
Q 54.890625 44.34375 54.890625 33.015625 
z
" id="DejaVuSans-6e"/>
       <path d="M 48.78125 52.59375 
L 48.78125 44.1875 
Q 44.96875 46.296875 41.140625 47.34375 
Q 37.3125 48.390625 33.40625 48.390625 
Q 24.65625 48.390625 19.8125 42.84375 
Q 14.984375 37.3125 14.984375 27.296875 
Q 14.984375 17.28125 19.8125 11.734375 
Q 24.65625 6.203125 33.40625 6.203125 
Q 37.3125 6.203125 41.140625 7.25 
Q 44.96875 8.296875 48.78125 10.40625 
L 48.78125 2.09375 
Q 45.015625 0.34375 40.984375 -0.53125 
Q 36.96875 -1.421875 32.421875 -1.421875 
Q 20.0625 -1.421875 12.78125 6.34375 
Q 5.515625 14.109375 5.515625 27.296875 
Q 5.515625 40.671875 12.859375 48.328125 
Q 20.21875 56 33.015625 56 
Q 37.15625 56 41.109375 55.140625 
Q 45.0625 54.296875 48.78125 52.59375 
z
" id="DejaVuSans-63"/>
       <path d="M 50.984375 -16.609375 
L 50.984375 -23.578125 
L -0.984375 -23.578125 
L -0.984375 -16.609375 
z
" id="DejaVuSans-5f"/>
       <path d="M 19.671875 64.796875 
L 19.671875 37.40625 
L 32.078125 37.40625 
Q 38.96875 37.40625 42.71875 40.96875 
Q 46.484375 44.53125 46.484375 51.125 
Q 46.484375 57.671875 42.71875 61.234375 
Q 38.96875 64.796875 32.078125 64.796875 
z
M 9.8125 72.90625 
L 32.078125 72.90625 
Q 44.34375 72.90625 50.609375 67.359375 
Q 56.890625 61.8125 56.890625 51.125 
Q 56.890625 40.328125 50.609375 34.8125 
Q 44.34375 29.296875 32.078125 29.296875 
L 19.671875 29.296875 
L 19.671875 0 
L 9.8125 0 
z
" id="DejaVuSans-50"/>
       <path d="M 31.78125 66.40625 
Q 24.171875 66.40625 20.328125 58.90625 
Q 16.5 51.421875 16.5 36.375 
Q 16.5 21.390625 20.328125 13.890625 
Q 24.171875 6.390625 31.78125 6.390625 
Q 39.453125 6.390625 43.28125 13.890625 
Q 47.125 21.390625 47.125 36.375 
Q 47.125 51.421875 43.28125 58.90625 
Q 39.453125 66.40625 31.78125 66.40625 
z
M 31.78125 74.21875 
Q 44.046875 74.21875 50.515625 64.515625 
Q 56.984375 54.828125 56.984375 36.375 
Q 56.984375 17.96875 50.515625 8.265625 
Q 44.046875 -1.421875 31.78125 -1.421875 
Q 19.53125 -1.421875 13.0625 8.265625 
Q 6.59375 17.96875 6.59375 36.375 
Q 6.59375 54.828125 13.0625 64.515625 
Q 19.53125 74.21875 31.78125 74.21875 
z
" id="DejaVuSans-30"/>
       <path d="M 12.40625 8.296875 
L 28.515625 8.296875 
L 28.515625 63.921875 
L 10.984375 60.40625 
L 10.984375 69.390625 
L 28.421875 72.90625 
L 38.28125 72.90625 
L 38.28125 8.296875 
L 54.390625 8.296875 
L 54.390625 0 
L 12.40625 0 
z
" id="DejaVuSans-31"/>
      </defs>
      <g style="fill:#262626;" transform="translate(99.80625 1591.769408)scale(0.24 -0.24)">
       <use xlink:href="#DejaVuSans-41"/>
       <use x="68.408203" xlink:href="#DejaVuSans-73"/>
       <use x="120.507812" xlink:href="#DejaVuSans-74"/>
       <use x="159.716797" xlink:href="#DejaVuSans-72"/>
       <use x="200.830078" xlink:href="#DejaVuSans-61"/>
       <use x="262.109375" xlink:href="#DejaVuSans-5a"/>
       <use x="330.615234" xlink:href="#DejaVuSans-65"/>
       <use x="392.138672" xlink:href="#DejaVuSans-6e"/>
       <use x="455.517578" xlink:href="#DejaVuSans-65"/>
       <use x="517.041016" xlink:href="#DejaVuSans-63"/>
       <use x="572.021484" xlink:href="#DejaVuSans-61"/>
       <use x="633.300781" xlink:href="#DejaVuSans-5f"/>
       <use x="683.300781" xlink:href="#DejaVuSans-50"/>
       <use x="743.603516" xlink:href="#DejaVuSans-30"/>
       <use x="807.226562" xlink:href="#DejaVuSans-30"/>
       <use x="870.849609" xlink:href="#DejaVuSans-30"/>
       <use x="934.472656" xlink:href="#DejaVuSans-31"/>
       <use x="998.095703" xlink:href="#DejaVuSans-5f"/>
       <use x="1048.095703" xlink:href="#DejaVuSans-54"/>
       <use x="1109.179688" xlink:href="#DejaVuSans-31"/>
      </g>
     </g>
    </g>
    <g id="ytick_2">
     <g id="line2d_7"/>
     <g id="text_3">
      <!-- Biodesix_P0001_T1 -->
      <defs>
       <path d="M 19.671875 34.8125 
L 19.671875 8.109375 
L 35.5 8.109375 
Q 43.453125 8.109375 47.28125 11.40625 
Q 51.125 14.703125 51.125 21.484375 
Q 51.125 28.328125 47.28125 31.5625 
Q 43.453125 34.8125 35.5 34.8125 
z
M 19.671875 64.796875 
L 19.671875 42.828125 
L 34.28125 42.828125 
Q 41.5 42.828125 45.03125 45.53125 
Q 48.578125 48.25 48.578125 53.8125 
Q 48.578125 59.328125 45.03125 62.0625 
Q 41.5 64.796875 34.28125 64.796875 
z
M 9.8125 72.90625 
L 35.015625 72.90625 
Q 46.296875 72.90625 52.390625 68.21875 
Q 58.5 63.53125 58.5 54.890625 
Q 58.5 48.1875 55.375 44.234375 
Q 52.25 40.28125 46.1875 39.3125 
Q 53.46875 37.75 57.5 32.78125 
Q 61.53125 27.828125 61.53125 20.40625 
Q 61.53125 10.640625 54.890625 5.3125 
Q 48.25 0 35.984375 0 
L 9.8125 0 
z
" id="DejaVuSans-42"/>
       <path d="M 9.421875 54.6875 
L 18.40625 54.6875 
L 18.40625 0 
L 9.421875 0 
z
M 9.421875 75.984375 
L 18.40625 75.984375 
L 18.40625 64.59375 
L 9.421875 64.59375 
z
" id="DejaVuSans-69"/>
       <path d="M 30.609375 48.390625 
Q 23.390625 48.390625 19.1875 42.75 
Q 14.984375 37.109375 14.984375 27.296875 
Q 14.984375 17.484375 19.15625 11.84375 
Q 23.34375 6.203125 30.609375 6.203125 
Q 37.796875 6.203125 41.984375 11.859375 
Q 46.1875 17.53125 46.1875 27.296875 
Q 46.1875 37.015625 41.984375 42.703125 
Q 37.796875 48.390625 30.609375 48.390625 
z
M 30.609375 56 
Q 42.328125 56 49.015625 48.375 
Q 55.71875 40.765625 55.71875 27.296875 
Q 55.71875 13.875 49.015625 6.21875 
Q 42.328125 -1.421875 30.609375 -1.421875 
Q 18.84375 -1.421875 12.171875 6.21875 
Q 5.515625 13.875 5.515625 27.296875 
Q 5.515625 40.765625 12.171875 48.375 
Q 18.84375 56 30.609375 56 
z
" id="DejaVuSans-6f"/>
       <path d="M 45.40625 46.390625 
L 45.40625 75.984375 
L 54.390625 75.984375 
L 54.390625 0 
L 45.40625 0 
L 45.40625 8.203125 
Q 42.578125 3.328125 38.25 0.953125 
Q 33.9375 -1.421875 27.875 -1.421875 
Q 17.96875 -1.421875 11.734375 6.484375 
Q 5.515625 14.40625 5.515625 27.296875 
Q 5.515625 40.1875 11.734375 48.09375 
Q 17.96875 56 27.875 56 
Q 33.9375 56 38.25 53.625 
Q 42.578125 51.265625 45.40625 46.390625 
z
M 14.796875 27.296875 
Q 14.796875 17.390625 18.875 11.75 
Q 22.953125 6.109375 30.078125 6.109375 
Q 37.203125 6.109375 41.296875 11.75 
Q 45.40625 17.390625 45.40625 27.296875 
Q 45.40625 37.203125 41.296875 42.84375 
Q 37.203125 48.484375 30.078125 48.484375 
Q 22.953125 48.484375 18.875 42.84375 
Q 14.796875 37.203125 14.796875 27.296875 
z
" id="DejaVuSans-64"/>
       <path d="M 54.890625 54.6875 
L 35.109375 28.078125 
L 55.90625 0 
L 45.3125 0 
L 29.390625 21.484375 
L 13.484375 0 
L 2.875 0 
L 24.125 28.609375 
L 4.6875 54.6875 
L 15.28125 54.6875 
L 29.78125 35.203125 
L 44.28125 54.6875 
z
" id="DejaVuSans-78"/>
      </defs>
      <g style="fill:#262626;" transform="translate(150.6 1504.444441)scale(0.24 -0.24)">
       <use xlink:href="#DejaVuSans-42"/>
       <use x="68.603516" xlink:href="#DejaVuSans-69"/>
       <use x="96.386719" xlink:href="#DejaVuSans-6f"/>
       <use x="157.568359" xlink:href="#DejaVuSans-64"/>
       <use x="221.044922" xlink:href="#DejaVuSans-65"/>
       <use x="282.568359" xlink:href="#DejaVuSans-73"/>
       <use x="334.667969" xlink:href="#DejaVuSans-69"/>
       <use x="362.451172" xlink:href="#DejaVuSans-78"/>
       <use x="421.630859" xlink:href="#DejaVuSans-5f"/>
       <use x="471.630859" xlink:href="#DejaVuSans-50"/>
       <use x="531.933594" xlink:href="#DejaVuSans-30"/>
       <use x="595.556641" xlink:href="#DejaVuSans-30"/>
       <use x="659.179688" xlink:href="#DejaVuSans-30"/>
       <use x="722.802734" xlink:href="#DejaVuSans-31"/>
       <use x="786.425781" xlink:href="#DejaVuSans-5f"/>
       <use x="836.425781" xlink:href="#DejaVuSans-54"/>
       <use x="897.509766" xlink:href="#DejaVuSans-31"/>
      </g>
     </g>
    </g>
    <g id="ytick_3">
     <g id="line2d_8"/>
     <g id="text_4">
      <!-- CytoLumina_P0001_T1 -->
      <defs>
       <path d="M 64.40625 67.28125 
L 64.40625 56.890625 
Q 59.421875 61.53125 53.78125 63.8125 
Q 48.140625 66.109375 41.796875 66.109375 
Q 29.296875 66.109375 22.65625 58.46875 
Q 16.015625 50.828125 16.015625 36.375 
Q 16.015625 21.96875 22.65625 14.328125 
Q 29.296875 6.6875 41.796875 6.6875 
Q 48.140625 6.6875 53.78125 8.984375 
Q 59.421875 11.28125 64.40625 15.921875 
L 64.40625 5.609375 
Q 59.234375 2.09375 53.4375 0.328125 
Q 47.65625 -1.421875 41.21875 -1.421875 
Q 24.65625 -1.421875 15.125 8.703125 
Q 5.609375 18.84375 5.609375 36.375 
Q 5.609375 53.953125 15.125 64.078125 
Q 24.65625 74.21875 41.21875 74.21875 
Q 47.75 74.21875 53.53125 72.484375 
Q 59.328125 70.75 64.40625 67.28125 
z
" id="DejaVuSans-43"/>
       <path d="M 9.8125 72.90625 
L 19.671875 72.90625 
L 19.671875 8.296875 
L 55.171875 8.296875 
L 55.171875 0 
L 9.8125 0 
z
" id="DejaVuSans-4c"/>
       <path d="M 52 44.1875 
Q 55.375 50.25 60.0625 53.125 
Q 64.75 56 71.09375 56 
Q 79.640625 56 84.28125 50.015625 
Q 88.921875 44.046875 88.921875 33.015625 
L 88.921875 0 
L 79.890625 0 
L 79.890625 32.71875 
Q 79.890625 40.578125 77.09375 44.375 
Q 74.3125 48.1875 68.609375 48.1875 
Q 61.625 48.1875 57.5625 43.546875 
Q 53.515625 38.921875 53.515625 30.90625 
L 53.515625 0 
L 44.484375 0 
L 44.484375 32.71875 
Q 44.484375 40.625 41.703125 44.40625 
Q 38.921875 48.1875 33.109375 48.1875 
Q 26.21875 48.1875 22.15625 43.53125 
Q 18.109375 38.875 18.109375 30.90625 
L 18.109375 0 
L 9.078125 0 
L 9.078125 54.6875 
L 18.109375 54.6875 
L 18.109375 46.1875 
Q 21.1875 51.21875 25.484375 53.609375 
Q 29.78125 56 35.6875 56 
Q 41.65625 56 45.828125 52.96875 
Q 50 49.953125 52 44.1875 
z
" id="DejaVuSans-6d"/>
      </defs>
      <g style="fill:#262626;" transform="translate(108.19875 1416.907599)scale(0.24 -0.24)">
       <use xlink:href="#DejaVuSans-43"/>
       <use x="69.824219" xlink:href="#DejaVuSans-79"/>
       <use x="129.003906" xlink:href="#DejaVuSans-74"/>
       <use x="168.212891" xlink:href="#DejaVuSans-6f"/>
       <use x="229.394531" xlink:href="#DejaVuSans-4c"/>
       <use x="285.091797" xlink:href="#DejaVuSans-75"/>
       <use x="348.470703" xlink:href="#DejaVuSans-6d"/>
       <use x="445.882812" xlink:href="#DejaVuSans-69"/>
       <use x="473.666016" xlink:href="#DejaVuSans-6e"/>
       <use x="537.044922" xlink:href="#DejaVuSans-61"/>
       <use x="598.324219" xlink:href="#DejaVuSans-5f"/>
       <use x="648.324219" xlink:href="#DejaVuSans-50"/>
       <use x="708.626953" xlink:href="#DejaVuSans-30"/>
       <use x="772.25" xlink:href="#DejaVuSans-30"/>
       <use x="835.873047" xlink:href="#DejaVuSans-30"/>
       <use x="899.496094" xlink:href="#DejaVuSans-31"/>
       <use x="963.119141" xlink:href="#DejaVuSans-5f"/>
       <use x="1013.119141" xlink:href="#DejaVuSans-54"/>
       <use x="1074.203125" xlink:href="#DejaVuSans-31"/>
      </g>
     </g>
    </g>
    <g id="ytick_4">
     <g id="line2d_9"/>
     <g id="text_5">
      <!-- EpicSciences_P001_T1 -->
      <defs>
       <path d="M 9.8125 72.90625 
L 55.90625 72.90625 
L 55.90625 64.59375 
L 19.671875 64.59375 
L 19.671875 43.015625 
L 54.390625 43.015625 
L 54.390625 34.71875 
L 19.671875 34.71875 
L 19.671875 8.296875 
L 56.78125 8.296875 
L 56.78125 0 
L 9.8125 0 
z
" id="DejaVuSans-45"/>
       <path d="M 53.515625 70.515625 
L 53.515625 60.890625 
Q 47.90625 63.578125 42.921875 64.890625 
Q 37.9375 66.21875 33.296875 66.21875 
Q 25.25 66.21875 20.875 63.09375 
Q 16.5 59.96875 16.5 54.203125 
Q 16.5 49.359375 19.40625 46.890625 
Q 22.3125 44.4375 30.421875 42.921875 
L 36.375 41.703125 
Q 47.40625 39.59375 52.65625 34.296875 
Q 57.90625 29 57.90625 20.125 
Q 57.90625 9.515625 50.796875 4.046875 
Q 43.703125 -1.421875 29.984375 -1.421875 
Q 24.8125 -1.421875 18.96875 -0.25 
Q 13.140625 0.921875 6.890625 3.21875 
L 6.890625 13.375 
Q 12.890625 10.015625 18.65625 8.296875 
Q 24.421875 6.59375 29.984375 6.59375 
Q 38.421875 6.59375 43.015625 9.90625 
Q 47.609375 13.234375 47.609375 19.390625 
Q 47.609375 24.75 44.3125 27.78125 
Q 41.015625 30.8125 33.5 32.328125 
L 27.484375 33.5 
Q 16.453125 35.6875 11.515625 40.375 
Q 6.59375 45.0625 6.59375 53.421875 
Q 6.59375 63.09375 13.40625 68.65625 
Q 20.21875 74.21875 32.171875 74.21875 
Q 37.3125 74.21875 42.625 73.28125 
Q 47.953125 72.359375 53.515625 70.515625 
z
" id="DejaVuSans-53"/>
      </defs>
      <g style="fill:#262626;" transform="translate(111.25875 1329.370757)scale(0.24 -0.24)">
       <use xlink:href="#DejaVuSans-45"/>
       <use x="63.183594" xlink:href="#DejaVuSans-70"/>
       <use x="126.660156" xlink:href="#DejaVuSans-69"/>
       <use x="154.443359" xlink:href="#DejaVuSans-63"/>
       <use x="209.423828" xlink:href="#DejaVuSans-53"/>
       <use x="272.900391" xlink:href="#DejaVuSans-63"/>
       <use x="327.880859" xlink:href="#DejaVuSans-69"/>
       <use x="355.664062" xlink:href="#DejaVuSans-65"/>
       <use x="417.1875" xlink:href="#DejaVuSans-6e"/>
       <use x="480.566406" xlink:href="#DejaVuSans-63"/>
       <use x="535.546875" xlink:href="#DejaVuSans-65"/>
       <use x="597.070312" xlink:href="#DejaVuSans-73"/>
       <use x="649.169922" xlink:href="#DejaVuSans-5f"/>
       <use x="699.169922" xlink:href="#DejaVuSans-50"/>
       <use x="759.472656" xlink:href="#DejaVuSans-30"/>
       <use x="823.095703" xlink:href="#DejaVuSans-30"/>
       <use x="886.71875" xlink:href="#DejaVuSans-31"/>
       <use x="950.341797" xlink:href="#DejaVuSans-5f"/>
       <use x="1000.341797" xlink:href="#DejaVuSans-54"/>
       <use x="1061.425781" xlink:href="#DejaVuSans-31"/>
      </g>
     </g>
    </g>
    <g id="ytick_5">
     <g id="line2d_10"/>
     <g id="text_6">
      <!-- FoundationMedicine_ClinAV_T1 -->
      <defs>
       <path d="M 9.8125 72.90625 
L 51.703125 72.90625 
L 51.703125 64.59375 
L 19.671875 64.59375 
L 19.671875 43.109375 
L 48.578125 43.109375 
L 48.578125 34.8125 
L 19.671875 34.8125 
L 19.671875 0 
L 9.8125 0 
z
" id="DejaVuSans-46"/>
       <path d="M 9.8125 72.90625 
L 24.515625 72.90625 
L 43.109375 23.296875 
L 61.8125 72.90625 
L 76.515625 72.90625 
L 76.515625 0 
L 66.890625 0 
L 66.890625 64.015625 
L 48.09375 14.015625 
L 38.1875 14.015625 
L 19.390625 64.015625 
L 19.390625 0 
L 9.8125 0 
z
" id="DejaVuSans-4d"/>
       <path d="M 9.421875 75.984375 
L 18.40625 75.984375 
L 18.40625 0 
L 9.421875 0 
z
" id="DejaVuSans-6c"/>
       <path d="M 28.609375 0 
L 0.78125 72.90625 
L 11.078125 72.90625 
L 34.1875 11.53125 
L 57.328125 72.90625 
L 67.578125 72.90625 
L 39.796875 0 
z
" id="DejaVuSans-56"/>
      </defs>
      <g style="fill:#262626;" transform="translate(7.2 1241.833914)scale(0.24 -0.24)">
       <use xlink:href="#DejaVuSans-46"/>
       <use x="57.472656" xlink:href="#DejaVuSans-6f"/>
       <use x="118.654297" xlink:href="#DejaVuSans-75"/>
       <use x="182.033203" xlink:href="#DejaVuSans-6e"/>
       <use x="245.412109" xlink:href="#DejaVuSans-64"/>
       <use x="308.888672" xlink:href="#DejaVuSans-61"/>
       <use x="370.167969" xlink:href="#DejaVuSans-74"/>
       <use x="409.376953" xlink:href="#DejaVuSans-69"/>
       <use x="437.160156" xlink:href="#DejaVuSans-6f"/>
       <use x="498.341797" xlink:href="#DejaVuSans-6e"/>
       <use x="561.720703" xlink:href="#DejaVuSans-4d"/>
       <use x="648" xlink:href="#DejaVuSans-65"/>
       <use x="709.523438" xlink:href="#DejaVuSans-64"/>
       <use x="773" xlink:href="#DejaVuSans-69"/>
       <use x="800.783203" xlink:href="#DejaVuSans-63"/>
       <use x="855.763672" xlink:href="#DejaVuSans-69"/>
       <use x="883.546875" xlink:href="#DejaVuSans-6e"/>
       <use x="946.925781" xlink:href="#DejaVuSans-65"/>
       <use x="1008.449219" xlink:href="#DejaVuSans-5f"/>
       <use x="1058.449219" xlink:href="#DejaVuSans-43"/>
       <use x="1128.273438" xlink:href="#DejaVuSans-6c"/>
       <use x="1156.056641" xlink:href="#DejaVuSans-69"/>
       <use x="1183.839844" xlink:href="#DejaVuSans-6e"/>
       <use x="1247.21875" xlink:href="#DejaVuSans-41"/>
       <use x="1315.533203" xlink:href="#DejaVuSans-56"/>
       <use x="1383.941406" xlink:href="#DejaVuSans-5f"/>
       <use x="1433.941406" xlink:href="#DejaVuSans-54"/>
       <use x="1495.025391" xlink:href="#DejaVuSans-31"/>
      </g>
     </g>
    </g>
    <g id="ytick_6">
     <g id="line2d_11"/>
     <g id="text_7">
      <!-- GenomicHealth_P0001_T1 -->
      <defs>
       <path d="M 59.515625 10.40625 
L 59.515625 29.984375 
L 43.40625 29.984375 
L 43.40625 38.09375 
L 69.28125 38.09375 
L 69.28125 6.78125 
Q 63.578125 2.734375 56.6875 0.65625 
Q 49.8125 -1.421875 42 -1.421875 
Q 24.90625 -1.421875 15.25 8.5625 
Q 5.609375 18.5625 5.609375 36.375 
Q 5.609375 54.25 15.25 64.234375 
Q 24.90625 74.21875 42 74.21875 
Q 49.125 74.21875 55.546875 72.453125 
Q 61.96875 70.703125 67.390625 67.28125 
L 67.390625 56.78125 
Q 61.921875 61.421875 55.765625 63.765625 
Q 49.609375 66.109375 42.828125 66.109375 
Q 29.4375 66.109375 22.71875 58.640625 
Q 16.015625 51.171875 16.015625 36.375 
Q 16.015625 21.625 22.71875 14.15625 
Q 29.4375 6.6875 42.828125 6.6875 
Q 48.046875 6.6875 52.140625 7.59375 
Q 56.25 8.5 59.515625 10.40625 
z
" id="DejaVuSans-47"/>
       <path d="M 9.8125 72.90625 
L 19.671875 72.90625 
L 19.671875 43.015625 
L 55.515625 43.015625 
L 55.515625 72.90625 
L 65.375 72.90625 
L 65.375 0 
L 55.515625 0 
L 55.515625 34.71875 
L 19.671875 34.71875 
L 19.671875 0 
L 9.8125 0 
z
" id="DejaVuSans-48"/>
       <path d="M 54.890625 33.015625 
L 54.890625 0 
L 45.90625 0 
L 45.90625 32.71875 
Q 45.90625 40.484375 42.875 44.328125 
Q 39.84375 48.1875 33.796875 48.1875 
Q 26.515625 48.1875 22.3125 43.546875 
Q 18.109375 38.921875 18.109375 30.90625 
L 18.109375 0 
L 9.078125 0 
L 9.078125 75.984375 
L 18.109375 75.984375 
L 18.109375 46.1875 
Q 21.34375 51.125 25.703125 53.5625 
Q 30.078125 56 35.796875 56 
Q 45.21875 56 50.046875 50.171875 
Q 54.890625 44.34375 54.890625 33.015625 
z
" id="DejaVuSans-68"/>
      </defs>
      <g style="fill:#262626;" transform="translate(66.4875 1154.297072)scale(0.24 -0.24)">
       <use xlink:href="#DejaVuSans-47"/>
       <use x="77.490234" xlink:href="#DejaVuSans-65"/>
       <use x="139.013672" xlink:href="#DejaVuSans-6e"/>
       <use x="202.392578" xlink:href="#DejaVuSans-6f"/>
       <use x="263.574219" xlink:href="#DejaVuSans-6d"/>
       <use x="360.986328" xlink:href="#DejaVuSans-69"/>
       <use x="388.769531" xlink:href="#DejaVuSans-63"/>
       <use x="443.75" xlink:href="#DejaVuSans-48"/>
       <use x="518.945312" xlink:href="#DejaVuSans-65"/>
       <use x="580.46875" xlink:href="#DejaVuSans-61"/>
       <use x="641.748047" xlink:href="#DejaVuSans-6c"/>
       <use x="669.53125" xlink:href="#DejaVuSans-74"/>
       <use x="708.740234" xlink:href="#DejaVuSans-68"/>
       <use x="772.119141" xlink:href="#DejaVuSans-5f"/>
       <use x="822.119141" xlink:href="#DejaVuSans-50"/>
       <use x="882.421875" xlink:href="#DejaVuSans-30"/>
       <use x="946.044922" xlink:href="#DejaVuSans-30"/>
       <use x="1009.667969" xlink:href="#DejaVuSans-30"/>
       <use x="1073.291016" xlink:href="#DejaVuSans-31"/>
       <use x="1136.914062" xlink:href="#DejaVuSans-5f"/>
       <use x="1186.914062" xlink:href="#DejaVuSans-54"/>
       <use x="1247.998047" xlink:href="#DejaVuSans-31"/>
      </g>
     </g>
    </g>
    <g id="ytick_7">
     <g id="line2d_12"/>
     <g id="text_8">
      <!-- Guardant_P0001_T1 -->
      <g style="fill:#262626;" transform="translate(138.85875 1066.76023)scale(0.24 -0.24)">
       <use xlink:href="#DejaVuSans-47"/>
       <use x="77.490234" xlink:href="#DejaVuSans-75"/>
       <use x="140.869141" xlink:href="#DejaVuSans-61"/>
       <use x="202.148438" xlink:href="#DejaVuSans-72"/>
       <use x="243.246094" xlink:href="#DejaVuSans-64"/>
       <use x="306.722656" xlink:href="#DejaVuSans-61"/>
       <use x="368.001953" xlink:href="#DejaVuSans-6e"/>
       <use x="431.380859" xlink:href="#DejaVuSans-74"/>
       <use x="470.589844" xlink:href="#DejaVuSans-5f"/>
       <use x="520.589844" xlink:href="#DejaVuSans-50"/>
       <use x="580.892578" xlink:href="#DejaVuSans-30"/>
       <use x="644.515625" xlink:href="#DejaVuSans-30"/>
       <use x="708.138672" xlink:href="#DejaVuSans-30"/>
       <use x="771.761719" xlink:href="#DejaVuSans-31"/>
       <use x="835.384766" xlink:href="#DejaVuSans-5f"/>
       <use x="885.384766" xlink:href="#DejaVuSans-54"/>
       <use x="946.46875" xlink:href="#DejaVuSans-31"/>
      </g>
     </g>
    </g>
    <g id="ytick_8">
     <g id="line2d_13"/>
     <g id="text_9">
      <!-- Lexent_P0001_T1  -->
      <g style="fill:#262626;" transform="translate(162.4575 979.011513)scale(0.24 -0.24)">
       <use xlink:href="#DejaVuSans-4c"/>
       <use x="55.697266" xlink:href="#DejaVuSans-65"/>
       <use x="117.205078" xlink:href="#DejaVuSans-78"/>
       <use x="176.337891" xlink:href="#DejaVuSans-65"/>
       <use x="237.861328" xlink:href="#DejaVuSans-6e"/>
       <use x="301.240234" xlink:href="#DejaVuSans-74"/>
       <use x="340.449219" xlink:href="#DejaVuSans-5f"/>
       <use x="390.449219" xlink:href="#DejaVuSans-50"/>
       <use x="450.751953" xlink:href="#DejaVuSans-30"/>
       <use x="514.375" xlink:href="#DejaVuSans-30"/>
       <use x="577.998047" xlink:href="#DejaVuSans-30"/>
       <use x="641.621094" xlink:href="#DejaVuSans-31"/>
       <use x="705.244141" xlink:href="#DejaVuSans-5f"/>
       <use x="755.244141" xlink:href="#DejaVuSans-54"/>
       <use x="816.328125" xlink:href="#DejaVuSans-31"/>
       <use x="879.951172" xlink:href="#DejaVuSans-20"/>
      </g>
     </g>
    </g>
    <g id="ytick_9">
     <g id="line2d_14"/>
     <g id="text_10">
      <!-- MSKCC_P0001_T1 -->
      <defs>
       <path d="M 9.8125 72.90625 
L 19.671875 72.90625 
L 19.671875 42.09375 
L 52.390625 72.90625 
L 65.09375 72.90625 
L 28.90625 38.921875 
L 67.671875 0 
L 54.6875 0 
L 19.671875 35.109375 
L 19.671875 0 
L 9.8125 0 
z
" id="DejaVuSans-4b"/>
      </defs>
      <g style="fill:#262626;" transform="translate(166.61625 891.474671)scale(0.24 -0.24)">
       <use xlink:href="#DejaVuSans-4d"/>
       <use x="86.279297" xlink:href="#DejaVuSans-53"/>
       <use x="149.755859" xlink:href="#DejaVuSans-4b"/>
       <use x="215.253906" xlink:href="#DejaVuSans-43"/>
       <use x="285.078125" xlink:href="#DejaVuSans-43"/>
       <use x="354.902344" xlink:href="#DejaVuSans-5f"/>
       <use x="404.902344" xlink:href="#DejaVuSans-50"/>
       <use x="465.205078" xlink:href="#DejaVuSans-30"/>
       <use x="528.828125" xlink:href="#DejaVuSans-30"/>
       <use x="592.451172" xlink:href="#DejaVuSans-30"/>
       <use x="656.074219" xlink:href="#DejaVuSans-31"/>
       <use x="719.697266" xlink:href="#DejaVuSans-5f"/>
       <use x="769.697266" xlink:href="#DejaVuSans-54"/>
       <use x="830.78125" xlink:href="#DejaVuSans-31"/>
      </g>
     </g>
    </g>
    <g id="ytick_10">
     <g id="line2d_15"/>
     <g id="text_11">
      <!-- Novartis_Contrived1_T1 -->
      <defs>
       <path d="M 9.8125 72.90625 
L 23.09375 72.90625 
L 55.421875 11.921875 
L 55.421875 72.90625 
L 64.984375 72.90625 
L 64.984375 0 
L 51.703125 0 
L 19.390625 60.984375 
L 19.390625 0 
L 9.8125 0 
z
" id="DejaVuSans-4e"/>
       <path d="M 2.984375 54.6875 
L 12.5 54.6875 
L 29.59375 8.796875 
L 46.6875 54.6875 
L 56.203125 54.6875 
L 35.6875 0 
L 23.484375 0 
z
" id="DejaVuSans-76"/>
      </defs>
      <g style="fill:#262626;" transform="translate(95.27625 804.149704)scale(0.24 -0.24)">
       <use xlink:href="#DejaVuSans-4e"/>
       <use x="74.804688" xlink:href="#DejaVuSans-6f"/>
       <use x="135.986328" xlink:href="#DejaVuSans-76"/>
       <use x="195.166016" xlink:href="#DejaVuSans-61"/>
       <use x="256.445312" xlink:href="#DejaVuSans-72"/>
       <use x="297.558594" xlink:href="#DejaVuSans-74"/>
       <use x="336.767578" xlink:href="#DejaVuSans-69"/>
       <use x="364.550781" xlink:href="#DejaVuSans-73"/>
       <use x="416.650391" xlink:href="#DejaVuSans-5f"/>
       <use x="466.650391" xlink:href="#DejaVuSans-43"/>
       <use x="536.474609" xlink:href="#DejaVuSans-6f"/>
       <use x="597.65625" xlink:href="#DejaVuSans-6e"/>
       <use x="661.035156" xlink:href="#DejaVuSans-74"/>
       <use x="700.244141" xlink:href="#DejaVuSans-72"/>
       <use x="741.357422" xlink:href="#DejaVuSans-69"/>
       <use x="769.140625" xlink:href="#DejaVuSans-76"/>
       <use x="828.320312" xlink:href="#DejaVuSans-65"/>
       <use x="889.84375" xlink:href="#DejaVuSans-64"/>
       <use x="953.320312" xlink:href="#DejaVuSans-31"/>
       <use x="1016.943359" xlink:href="#DejaVuSans-5f"/>
       <use x="1066.943359" xlink:href="#DejaVuSans-54"/>
       <use x="1128.027344" xlink:href="#DejaVuSans-31"/>
      </g>
     </g>
    </g>
    <g id="ytick_11">
     <g id="line2d_16"/>
     <g id="text_12">
      <!-- PersonalGenomeDx_P0001_T1 -->
      <defs>
       <path d="M 19.671875 64.796875 
L 19.671875 8.109375 
L 31.59375 8.109375 
Q 46.6875 8.109375 53.6875 14.9375 
Q 60.6875 21.78125 60.6875 36.53125 
Q 60.6875 51.171875 53.6875 57.984375 
Q 46.6875 64.796875 31.59375 64.796875 
z
M 9.8125 72.90625 
L 30.078125 72.90625 
Q 51.265625 72.90625 61.171875 64.09375 
Q 71.09375 55.28125 71.09375 36.53125 
Q 71.09375 17.671875 61.125 8.828125 
Q 51.171875 0 30.078125 0 
L 9.8125 0 
z
" id="DejaVuSans-44"/>
      </defs>
      <g style="fill:#262626;" transform="translate(14.8425 716.612862)scale(0.24 -0.24)">
       <use xlink:href="#DejaVuSans-50"/>
       <use x="60.255859" xlink:href="#DejaVuSans-65"/>
       <use x="121.779297" xlink:href="#DejaVuSans-72"/>
       <use x="162.892578" xlink:href="#DejaVuSans-73"/>
       <use x="214.992188" xlink:href="#DejaVuSans-6f"/>
       <use x="276.173828" xlink:href="#DejaVuSans-6e"/>
       <use x="339.552734" xlink:href="#DejaVuSans-61"/>
       <use x="400.832031" xlink:href="#DejaVuSans-6c"/>
       <use x="428.615234" xlink:href="#DejaVuSans-47"/>
       <use x="506.105469" xlink:href="#DejaVuSans-65"/>
       <use x="567.628906" xlink:href="#DejaVuSans-6e"/>
       <use x="631.007812" xlink:href="#DejaVuSans-6f"/>
       <use x="692.189453" xlink:href="#DejaVuSans-6d"/>
       <use x="789.601562" xlink:href="#DejaVuSans-65"/>
       <use x="851.125" xlink:href="#DejaVuSans-44"/>
       <use x="928.126953" xlink:href="#DejaVuSans-78"/>
       <use x="987.306641" xlink:href="#DejaVuSans-5f"/>
       <use x="1037.306641" xlink:href="#DejaVuSans-50"/>
       <use x="1097.609375" xlink:href="#DejaVuSans-30"/>
       <use x="1161.232422" xlink:href="#DejaVuSans-30"/>
       <use x="1224.855469" xlink:href="#DejaVuSans-30"/>
       <use x="1288.478516" xlink:href="#DejaVuSans-31"/>
       <use x="1352.101562" xlink:href="#DejaVuSans-5f"/>
       <use x="1402.101562" xlink:href="#DejaVuSans-54"/>
       <use x="1463.185547" xlink:href="#DejaVuSans-31"/>
      </g>
     </g>
    </g>
    <g id="ytick_12">
     <g id="line2d_17"/>
     <g id="text_13">
      <!-- Provista_P0001_T1 -->
      <g style="fill:#262626;" transform="translate(155.295 629.07602)scale(0.24 -0.24)">
       <use xlink:href="#DejaVuSans-50"/>
       <use x="60.287109" xlink:href="#DejaVuSans-72"/>
       <use x="101.369141" xlink:href="#DejaVuSans-6f"/>
       <use x="162.550781" xlink:href="#DejaVuSans-76"/>
       <use x="221.730469" xlink:href="#DejaVuSans-69"/>
       <use x="249.513672" xlink:href="#DejaVuSans-73"/>
       <use x="301.613281" xlink:href="#DejaVuSans-74"/>
       <use x="340.822266" xlink:href="#DejaVuSans-61"/>
       <use x="402.101562" xlink:href="#DejaVuSans-5f"/>
       <use x="452.101562" xlink:href="#DejaVuSans-50"/>
       <use x="512.404297" xlink:href="#DejaVuSans-30"/>
       <use x="576.027344" xlink:href="#DejaVuSans-30"/>
       <use x="639.650391" xlink:href="#DejaVuSans-30"/>
       <use x="703.273438" xlink:href="#DejaVuSans-31"/>
       <use x="766.896484" xlink:href="#DejaVuSans-5f"/>
       <use x="816.896484" xlink:href="#DejaVuSans-54"/>
       <use x="877.980469" xlink:href="#DejaVuSans-31"/>
      </g>
     </g>
    </g>
    <g id="ytick_13">
     <g id="line2d_18"/>
     <g id="text_14">
      <!-- ThermoFisher_P0001_T1 -->
      <g style="fill:#262626;" transform="translate(86.445 541.539178)scale(0.24 -0.24)">
       <use xlink:href="#DejaVuSans-54"/>
       <use x="61.083984" xlink:href="#DejaVuSans-68"/>
       <use x="124.462891" xlink:href="#DejaVuSans-65"/>
       <use x="185.986328" xlink:href="#DejaVuSans-72"/>
       <use x="227.083984" xlink:href="#DejaVuSans-6d"/>
       <use x="324.496094" xlink:href="#DejaVuSans-6f"/>
       <use x="385.677734" xlink:href="#DejaVuSans-46"/>
       <use x="443.087891" xlink:href="#DejaVuSans-69"/>
       <use x="470.871094" xlink:href="#DejaVuSans-73"/>
       <use x="522.970703" xlink:href="#DejaVuSans-68"/>
       <use x="586.349609" xlink:href="#DejaVuSans-65"/>
       <use x="647.873047" xlink:href="#DejaVuSans-72"/>
       <use x="688.986328" xlink:href="#DejaVuSans-5f"/>
       <use x="738.986328" xlink:href="#DejaVuSans-50"/>
       <use x="799.289062" xlink:href="#DejaVuSans-30"/>
       <use x="862.912109" xlink:href="#DejaVuSans-30"/>
       <use x="926.535156" xlink:href="#DejaVuSans-30"/>
       <use x="990.158203" xlink:href="#DejaVuSans-31"/>
       <use x="1053.78125" xlink:href="#DejaVuSans-5f"/>
       <use x="1103.78125" xlink:href="#DejaVuSans-54"/>
       <use x="1164.865234" xlink:href="#DejaVuSans-31"/>
      </g>
     </g>
    </g>
    <g id="ytick_14">
     <g id="line2d_19"/>
     <g id="text_15">
      <!-- ThermoFisher_P0002_T1 -->
      <defs>
       <path d="M 19.1875 8.296875 
L 53.609375 8.296875 
L 53.609375 0 
L 7.328125 0 
L 7.328125 8.296875 
Q 12.9375 14.109375 22.625 23.890625 
Q 32.328125 33.6875 34.8125 36.53125 
Q 39.546875 41.84375 41.421875 45.53125 
Q 43.3125 49.21875 43.3125 52.78125 
Q 43.3125 58.59375 39.234375 62.25 
Q 35.15625 65.921875 28.609375 65.921875 
Q 23.96875 65.921875 18.8125 64.3125 
Q 13.671875 62.703125 7.8125 59.421875 
L 7.8125 69.390625 
Q 13.765625 71.78125 18.9375 73 
Q 24.125 74.21875 28.421875 74.21875 
Q 39.75 74.21875 46.484375 68.546875 
Q 53.21875 62.890625 53.21875 53.421875 
Q 53.21875 48.921875 51.53125 44.890625 
Q 49.859375 40.875 45.40625 35.40625 
Q 44.1875 33.984375 37.640625 27.21875 
Q 31.109375 20.453125 19.1875 8.296875 
z
" id="DejaVuSans-32"/>
      </defs>
      <g style="fill:#262626;" transform="translate(86.445 454.002336)scale(0.24 -0.24)">
       <use xlink:href="#DejaVuSans-54"/>
       <use x="61.083984" xlink:href="#DejaVuSans-68"/>
       <use x="124.462891" xlink:href="#DejaVuSans-65"/>
       <use x="185.986328" xlink:href="#DejaVuSans-72"/>
       <use x="227.083984" xlink:href="#DejaVuSans-6d"/>
       <use x="324.496094" xlink:href="#DejaVuSans-6f"/>
       <use x="385.677734" xlink:href="#DejaVuSans-46"/>
       <use x="443.087891" xlink:href="#DejaVuSans-69"/>
       <use x="470.871094" xlink:href="#DejaVuSans-73"/>
       <use x="522.970703" xlink:href="#DejaVuSans-68"/>
       <use x="586.349609" xlink:href="#DejaVuSans-65"/>
       <use x="647.873047" xlink:href="#DejaVuSans-72"/>
       <use x="688.986328" xlink:href="#DejaVuSans-5f"/>
       <use x="738.986328" xlink:href="#DejaVuSans-50"/>
       <use x="799.289062" xlink:href="#DejaVuSans-30"/>
       <use x="862.912109" xlink:href="#DejaVuSans-30"/>
       <use x="926.535156" xlink:href="#DejaVuSans-30"/>
       <use x="990.158203" xlink:href="#DejaVuSans-32"/>
       <use x="1053.78125" xlink:href="#DejaVuSans-5f"/>
       <use x="1103.78125" xlink:href="#DejaVuSans-54"/>
       <use x="1164.865234" xlink:href="#DejaVuSans-31"/>
      </g>
     </g>
    </g>
    <g id="ytick_15">
     <g id="line2d_20"/>
     <g id="text_16">
      <!-- UAMS_P0001_T1 -->
      <defs>
       <path d="M 8.6875 72.90625 
L 18.609375 72.90625 
L 18.609375 28.609375 
Q 18.609375 16.890625 22.84375 11.734375 
Q 27.09375 6.59375 36.625 6.59375 
Q 46.09375 6.59375 50.34375 11.734375 
Q 54.59375 16.890625 54.59375 28.609375 
L 54.59375 72.90625 
L 64.5 72.90625 
L 64.5 27.390625 
Q 64.5 13.140625 57.4375 5.859375 
Q 50.390625 -1.421875 36.625 -1.421875 
Q 22.796875 -1.421875 15.734375 5.859375 
Q 8.6875 13.140625 8.6875 27.390625 
z
" id="DejaVuSans-55"/>
      </defs>
      <g style="fill:#262626;" transform="translate(181.87125 366.253618)scale(0.24 -0.24)">
       <use xlink:href="#DejaVuSans-55"/>
       <use x="73.193359" xlink:href="#DejaVuSans-41"/>
       <use x="141.601562" xlink:href="#DejaVuSans-4d"/>
       <use x="227.880859" xlink:href="#DejaVuSans-53"/>
       <use x="291.357422" xlink:href="#DejaVuSans-5f"/>
       <use x="341.357422" xlink:href="#DejaVuSans-50"/>
       <use x="401.660156" xlink:href="#DejaVuSans-30"/>
       <use x="465.283203" xlink:href="#DejaVuSans-30"/>
       <use x="528.90625" xlink:href="#DejaVuSans-30"/>
       <use x="592.529297" xlink:href="#DejaVuSans-31"/>
       <use x="656.152344" xlink:href="#DejaVuSans-5f"/>
       <use x="706.152344" xlink:href="#DejaVuSans-54"/>
       <use x="767.236328" xlink:href="#DejaVuSans-31"/>
      </g>
     </g>
    </g>
    <g id="ytick_16">
     <g id="line2d_21"/>
     <g id="text_17">
      <!-- UMich_P0001_T1 -->
      <g style="fill:#262626;" transform="translate(178.45125 278.928651)scale(0.24 -0.24)">
       <use xlink:href="#DejaVuSans-55"/>
       <use x="73.193359" xlink:href="#DejaVuSans-4d"/>
       <use x="159.472656" xlink:href="#DejaVuSans-69"/>
       <use x="187.255859" xlink:href="#DejaVuSans-63"/>
       <use x="242.236328" xlink:href="#DejaVuSans-68"/>
       <use x="305.615234" xlink:href="#DejaVuSans-5f"/>
       <use x="355.615234" xlink:href="#DejaVuSans-50"/>
       <use x="415.917969" xlink:href="#DejaVuSans-30"/>
       <use x="479.541016" xlink:href="#DejaVuSans-30"/>
       <use x="543.164062" xlink:href="#DejaVuSans-30"/>
       <use x="606.787109" xlink:href="#DejaVuSans-31"/>
       <use x="670.410156" xlink:href="#DejaVuSans-5f"/>
       <use x="720.410156" xlink:href="#DejaVuSans-54"/>
       <use x="781.494141" xlink:href="#DejaVuSans-31"/>
      </g>
     </g>
    </g>
    <g id="ytick_17">
     <g id="line2d_22"/>
     <g id="text_18">
      <!-- UMich_P0002_T1 -->
      <g style="fill:#262626;" transform="translate(178.45125 191.391809)scale(0.24 -0.24)">
       <use xlink:href="#DejaVuSans-55"/>
       <use x="73.193359" xlink:href="#DejaVuSans-4d"/>
       <use x="159.472656" xlink:href="#DejaVuSans-69"/>
       <use x="187.255859" xlink:href="#DejaVuSans-63"/>
       <use x="242.236328" xlink:href="#DejaVuSans-68"/>
       <use x="305.615234" xlink:href="#DejaVuSans-5f"/>
       <use x="355.615234" xlink:href="#DejaVuSans-50"/>
       <use x="415.917969" xlink:href="#DejaVuSans-30"/>
       <use x="479.541016" xlink:href="#DejaVuSans-30"/>
       <use x="543.164062" xlink:href="#DejaVuSans-30"/>
       <use x="606.787109" xlink:href="#DejaVuSans-32"/>
       <use x="670.410156" xlink:href="#DejaVuSans-5f"/>
       <use x="720.410156" xlink:href="#DejaVuSans-54"/>
       <use x="781.494141" xlink:href="#DejaVuSans-31"/>
      </g>
     </g>
    </g>
    <g id="ytick_18">
     <g id="line2d_23"/>
     <g id="text_19">
      <!-- USC_OPT1_T1 -->
      <defs>
       <path d="M 39.40625 66.21875 
Q 28.65625 66.21875 22.328125 58.203125 
Q 16.015625 50.203125 16.015625 36.375 
Q 16.015625 22.609375 22.328125 14.59375 
Q 28.65625 6.59375 39.40625 6.59375 
Q 50.140625 6.59375 56.421875 14.59375 
Q 62.703125 22.609375 62.703125 36.375 
Q 62.703125 50.203125 56.421875 58.203125 
Q 50.140625 66.21875 39.40625 66.21875 
z
M 39.40625 74.21875 
Q 54.734375 74.21875 63.90625 63.9375 
Q 73.09375 53.65625 73.09375 36.375 
Q 73.09375 19.140625 63.90625 8.859375 
Q 54.734375 -1.421875 39.40625 -1.421875 
Q 24.03125 -1.421875 14.8125 8.828125 
Q 5.609375 19.09375 5.609375 36.375 
Q 5.609375 53.65625 14.8125 63.9375 
Q 24.03125 74.21875 39.40625 74.21875 
z
" id="DejaVuSans-4f"/>
      </defs>
      <g style="fill:#262626;" transform="translate(214.49625 103.643092)scale(0.24 -0.24)">
       <use xlink:href="#DejaVuSans-55"/>
       <use x="73.193359" xlink:href="#DejaVuSans-53"/>
       <use x="136.669922" xlink:href="#DejaVuSans-43"/>
       <use x="206.494141" xlink:href="#DejaVuSans-5f"/>
       <use x="256.494141" xlink:href="#DejaVuSans-4f"/>
       <use x="335.205078" xlink:href="#DejaVuSans-50"/>
       <use x="395.507812" xlink:href="#DejaVuSans-54"/>
       <use x="456.591797" xlink:href="#DejaVuSans-31"/>
       <use x="520.214844" xlink:href="#DejaVuSans-5f"/>
       <use x="570.214844" xlink:href="#DejaVuSans-54"/>
       <use x="631.298828" xlink:href="#DejaVuSans-31"/>
      </g>
     </g>
    </g>
   </g>
   <g id="PathCollection_1">
    <path clip-path="url(#p4aa875fe26)" d="M 1149.186591 1602.611576 
C 1154.423932 1602.611576 1159.447471 1600.530758 1163.150831 1596.827398 
C 1166.854191 1593.124038 1168.935009 1588.100499 1168.935009 1582.863158 
C 1168.935009 1577.625816 1166.854191 1572.602278 1163.150831 1568.898918 
C 1159.447471 1565.195558 1154.423932 1563.11474 1149.186591 1563.11474 
C 1143.949249 1563.11474 1138.925711 1565.195558 1135.222351 1568.898918 
C 1131.518991 1572.602278 1129.438173 1577.625816 1129.438173 1582.863158 
C 1129.438173 1588.100499 1131.518991 1593.124038 1135.222351 1596.827398 
C 1138.925711 1600.530758 1143.949249 1602.611576 1149.186591 1602.611576 
z
" style="fill:#aec7e8;fill-opacity:0.5;stroke:#ffffff;stroke-opacity:0.5;stroke-width:2;"/>
    <path clip-path="url(#p4aa875fe26)" d="M 2163.732045 1600.653605 
C 2168.450127 1600.653605 2172.975604 1598.779091 2176.311791 1595.442904 
C 2179.647979 1592.106716 2181.522492 1587.58124 2181.522492 1582.863158 
C 2181.522492 1578.145076 2179.647979 1573.6196 2176.311791 1570.283412 
C 2172.975604 1566.947225 2168.450127 1565.072711 2163.732045 1565.072711 
C 2159.013964 1565.072711 2154.488487 1566.947225 2151.1523 1570.283412 
C 2147.816112 1573.6196 2145.941599 1578.145076 2145.941599 1582.863158 
C 2145.941599 1587.58124 2147.816112 1592.106716 2151.1523 1595.442904 
C 2154.488487 1598.779091 2159.013964 1600.653605 2163.732045 1600.653605 
z
" style="fill:#ffbb78;fill-opacity:0.5;stroke:#ffffff;stroke-opacity:0.5;stroke-width:2;"/>
    <path clip-path="url(#p4aa875fe26)" d="M 2163.732045 1548.288566 
C 2177.777799 1548.288566 2191.250165 1542.70813 2201.182012 1532.776282 
C 2211.113859 1522.844435 2216.694296 1509.372069 2216.694296 1495.326316 
C 2216.694296 1481.280563 2211.113859 1467.808196 2201.182012 1457.876349 
C 2191.250165 1447.944502 2177.777799 1442.364065 2163.732045 1442.364065 
C 2149.686292 1442.364065 2136.213926 1447.944502 2126.282079 1457.876349 
C 2116.350232 1467.808196 2110.769795 1481.280563 2110.769795 1495.326316 
C 2110.769795 1509.372069 2116.350232 1522.844435 2126.282079 1532.776282 
C 2136.213926 1542.70813 2149.686292 1548.288566 2163.732045 1548.288566 
z
" style="fill:#ffbb78;fill-opacity:0.5;stroke:#ffffff;stroke-opacity:0.5;stroke-width:2;"/>
    <path clip-path="url(#p4aa875fe26)" d="M 641.913864 1427.089733 
C 647.032352 1427.089733 651.94189 1425.056136 655.561208 1421.436818 
C 659.180526 1417.8175 661.214123 1412.907962 661.214123 1407.789474 
C 661.214123 1402.670985 659.180526 1397.761448 655.561208 1394.14213 
C 651.94189 1390.522812 647.032352 1388.489215 641.913864 1388.489215 
C 636.795375 1388.489215 631.885838 1390.522812 628.26652 1394.14213 
C 624.647202 1397.761448 622.613605 1402.670985 622.613605 1407.789474 
C 622.613605 1412.907962 624.647202 1417.8175 628.26652 1421.436818 
C 631.885838 1425.056136 636.795375 1427.089733 641.913864 1427.089733 
z
" style="fill:#1f77b4;fill-opacity:0.5;stroke:#ffffff;stroke-opacity:0.5;stroke-width:2;"/>
    <path clip-path="url(#p4aa875fe26)" d="M 2671.004773 1340.001049 
C 2676.242114 1340.001049 2681.265653 1337.920231 2684.969013 1334.216872 
C 2688.672373 1330.513512 2690.75319 1325.489973 2690.75319 1320.252632 
C 2690.75319 1315.01529 2688.672373 1309.991751 2684.969013 1306.288392 
C 2681.265653 1302.585032 2676.242114 1300.504214 2671.004773 1300.504214 
C 2665.767431 1300.504214 2660.743892 1302.585032 2657.040533 1306.288392 
C 2653.337173 1309.991751 2651.256355 1315.01529 2651.256355 1320.252632 
C 2651.256355 1325.489973 2653.337173 1330.513512 2657.040533 1334.216872 
C 2660.743892 1337.920231 2665.767431 1340.001049 2671.004773 1340.001049 
z
" style="fill:#2ca02c;fill-opacity:0.5;stroke:#ffffff;stroke-opacity:0.5;stroke-width:2;"/>
    <path clip-path="url(#p4aa875fe26)" d="M 1149.186591 1264.100499 
C 1157.509913 1264.100499 1165.493454 1260.793608 1171.378932 1254.90813 
C 1177.26441 1249.022653 1180.571301 1241.039112 1180.571301 1232.715789 
C 1180.571301 1224.392467 1177.26441 1216.408926 1171.378932 1210.523448 
C 1165.493454 1204.637971 1157.509913 1201.33108 1149.186591 1201.33108 
C 1140.863269 1201.33108 1132.879728 1204.637971 1126.99425 1210.523448 
C 1121.108772 1216.408926 1117.801881 1224.392467 1117.801881 1232.715789 
C 1117.801881 1241.039112 1121.108772 1249.022653 1126.99425 1254.90813 
C 1132.879728 1260.793608 1140.863269 1264.100499 1149.186591 1264.100499 
z
" style="fill:#aec7e8;fill-opacity:0.5;stroke:#ffffff;stroke-opacity:0.5;stroke-width:2;"/>
    <path clip-path="url(#p4aa875fe26)" d="M 2671.004773 1248.747009 
C 2675.256302 1248.747009 2679.334272 1247.057859 2682.340557 1244.051574 
C 2685.346842 1241.045288 2687.035992 1236.967319 2687.035992 1232.715789 
C 2687.035992 1228.46426 2685.346842 1224.38629 2682.340557 1221.380005 
C 2679.334272 1218.37372 2675.256302 1216.68457 2671.004773 1216.68457 
C 2666.753244 1216.68457 2662.675274 1218.37372 2659.668989 1221.380005 
C 2656.662704 1224.38629 2654.973553 1228.46426 2654.973553 1232.715789 
C 2654.973553 1236.967319 2656.662704 1241.045288 2659.668989 1244.051574 
C 2662.675274 1247.057859 2666.753244 1248.747009 2671.004773 1248.747009 
z
" style="fill:#2ca02c;fill-opacity:0.5;stroke:#ffffff;stroke-opacity:0.5;stroke-width:2;"/>
    <path clip-path="url(#p4aa875fe26)" d="M 2163.732045 1161.210167 
C 2167.983575 1161.210167 2172.061544 1159.521016 2175.06783 1156.514731 
C 2178.074115 1153.508446 2179.763265 1149.430476 2179.763265 1145.178947 
C 2179.763265 1140.927418 2178.074115 1136.849448 2175.06783 1133.843163 
C 2172.061544 1130.836878 2167.983575 1129.147728 2163.732045 1129.147728 
C 2159.480516 1129.147728 2155.402546 1130.836878 2152.396261 1133.843163 
C 2149.389976 1136.849448 2147.700826 1140.927418 2147.700826 1145.178947 
C 2147.700826 1149.430476 2149.389976 1153.508446 2152.396261 1156.514731 
C 2155.402546 1159.521016 2159.480516 1161.210167 2163.732045 1161.210167 
z
" style="fill:#ffbb78;fill-opacity:0.5;stroke:#ffffff;stroke-opacity:0.5;stroke-width:2;"/>
    <path clip-path="url(#p4aa875fe26)" d="M 2671.004773 1167.584304 
C 2676.946743 1167.584304 2682.646145 1165.223534 2686.847752 1161.021927 
C 2691.04936 1156.82032 2693.410129 1151.120917 2693.410129 1145.178947 
C 2693.410129 1139.236977 2691.04936 1133.537575 2686.847752 1129.335968 
C 2682.646145 1125.134361 2676.946743 1122.773591 2671.004773 1122.773591 
C 2665.062803 1122.773591 2659.3634 1125.134361 2655.161793 1129.335968 
C 2650.960186 1133.537575 2648.599416 1139.236977 2648.599416 1145.178947 
C 2648.599416 1151.120917 2650.960186 1156.82032 2655.161793 1161.021927 
C 2659.3634 1165.223534 2665.062803 1167.584304 2671.004773 1167.584304 
z
" style="fill:#2ca02c;fill-opacity:0.5;stroke:#ffffff;stroke-opacity:0.5;stroke-width:2;"/>
    <path clip-path="url(#p4aa875fe26)" d="M 2671.004773 1102.363465 
C 2682.865016 1102.363465 2694.241091 1097.65134 2702.627549 1089.264882 
C 2711.014008 1080.878423 2715.726132 1069.502348 2715.726132 1057.642105 
C 2715.726132 1045.781862 2711.014008 1034.405787 2702.627549 1026.019329 
C 2694.241091 1017.63287 2682.865016 1012.920746 2671.004773 1012.920746 
C 2659.14453 1012.920746 2647.768455 1017.63287 2639.381996 1026.019329 
C 2630.995538 1034.405787 2626.283413 1045.781862 2626.283413 1057.642105 
C 2626.283413 1069.502348 2630.995538 1080.878423 2639.381996 1089.264882 
C 2647.768455 1097.65134 2659.14453 1102.363465 2671.004773 1102.363465 
z
" style="fill:#2ca02c;fill-opacity:0.5;stroke:#ffffff;stroke-opacity:0.5;stroke-width:2;"/>
    <path clip-path="url(#p4aa875fe26)" d="M 1149.186591 900.456965 
C 1153.930688 900.456965 1158.481118 898.572115 1161.835702 895.217532 
C 1165.190285 891.862948 1167.075135 887.312518 1167.075135 882.568421 
C 1167.075135 877.824324 1165.190285 873.273894 1161.835702 869.91931 
C 1158.481118 866.564727 1153.930688 864.679877 1149.186591 864.679877 
C 1144.442494 864.679877 1139.892064 866.564727 1136.53748 869.91931 
C 1133.182897 873.273894 1131.298047 877.824324 1131.298047 882.568421 
C 1131.298047 887.312518 1133.182897 891.862948 1136.53748 895.217532 
C 1139.892064 898.572115 1144.442494 900.456965 1149.186591 900.456965 
z
" style="fill:#aec7e8;fill-opacity:0.5;stroke:#ffffff;stroke-opacity:0.5;stroke-width:2;"/>
    <path clip-path="url(#p4aa875fe26)" d="M 2671.004773 900.456965 
C 2675.74887 900.456965 2680.2993 898.572115 2683.653883 895.217532 
C 2687.008467 891.862948 2688.893317 887.312518 2688.893317 882.568421 
C 2688.893317 877.824324 2687.008467 873.273894 2683.653883 869.91931 
C 2680.2993 866.564727 2675.74887 864.679877 2671.004773 864.679877 
C 2666.260675 864.679877 2661.710245 866.564727 2658.355662 869.91931 
C 2655.001079 873.273894 2653.116229 877.824324 2653.116229 882.568421 
C 2653.116229 887.312518 2655.001079 891.862948 2658.355662 895.217532 
C 2661.710245 898.572115 2666.260675 900.456965 2671.004773 900.456965 
z
" style="fill:#2ca02c;fill-opacity:0.5;stroke:#ffffff;stroke-opacity:0.5;stroke-width:2;"/>
    <path clip-path="url(#p4aa875fe26)" d="M 1149.186591 814.956438 
C 1154.470725 814.956438 1159.539146 812.857029 1163.275594 809.120582 
C 1167.012041 805.384135 1169.11145 800.315713 1169.11145 795.031579 
C 1169.11145 789.747445 1167.012041 784.679023 1163.275594 780.942576 
C 1159.539146 777.206129 1154.470725 775.10672 1149.186591 775.10672 
C 1143.902457 775.10672 1138.834035 777.206129 1135.097588 780.942576 
C 1131.361141 784.679023 1129.261732 789.747445 1129.261732 795.031579 
C 1129.261732 800.315713 1131.361141 805.384135 1135.097588 809.120582 
C 1138.834035 812.857029 1143.902457 814.956438 1149.186591 814.956438 
z
" style="fill:#aec7e8;fill-opacity:0.5;stroke:#ffffff;stroke-opacity:0.5;stroke-width:2;"/>
    <path clip-path="url(#p4aa875fe26)" d="M 1149.186591 724.887264 
C 1153.799143 724.887264 1158.223398 723.054678 1161.484965 719.793111 
C 1164.746532 716.531544 1166.579118 712.107289 1166.579118 707.494737 
C 1166.579118 702.882185 1164.746532 698.45793 1161.484965 695.196363 
C 1158.223398 691.934796 1153.799143 690.10221 1149.186591 690.10221 
C 1144.574039 690.10221 1140.149784 691.934796 1136.888217 695.196363 
C 1133.62665 698.45793 1131.794064 702.882185 1131.794064 707.494737 
C 1131.794064 712.107289 1133.62665 716.531544 1136.888217 719.793111 
C 1140.149784 723.054678 1144.574039 724.887264 1149.186591 724.887264 
z
" style="fill:#aec7e8;fill-opacity:0.5;stroke:#ffffff;stroke-opacity:0.5;stroke-width:2;"/>
    <path clip-path="url(#p4aa875fe26)" d="M 2671.004773 724.887264 
C 2675.617325 724.887264 2680.04158 723.054678 2683.303147 719.793111 
C 2686.564713 716.531544 2688.3973 712.107289 2688.3973 707.494737 
C 2688.3973 702.882185 2686.564713 698.45793 2683.303147 695.196363 
C 2680.04158 691.934796 2675.617325 690.10221 2671.004773 690.10221 
C 2666.392221 690.10221 2661.967966 691.934796 2658.706399 695.196363 
C 2655.444832 698.45793 2653.612246 702.882185 2653.612246 707.494737 
C 2653.612246 712.107289 2655.444832 716.531544 2658.706399 719.793111 
C 2661.967966 723.054678 2666.392221 724.887264 2671.004773 724.887264 
z
" style="fill:#2ca02c;fill-opacity:0.5;stroke:#ffffff;stroke-opacity:0.5;stroke-width:2;"/>
    <path clip-path="url(#p4aa875fe26)" d="M 1149.186591 637.649701 
C 1153.878513 637.649701 1158.378897 635.78558 1161.696587 632.467891 
C 1165.014277 629.150201 1166.878397 624.649817 1166.878397 619.957895 
C 1166.878397 615.265973 1165.014277 610.765588 1161.696587 607.447899 
C 1158.378897 604.130209 1153.878513 602.266089 1149.186591 602.266089 
C 1144.494669 602.266089 1139.994285 604.130209 1136.676595 607.447899 
C 1133.358905 610.765588 1131.494785 615.265973 1131.494785 619.957895 
C 1131.494785 624.649817 1133.358905 629.150201 1136.676595 632.467891 
C 1139.994285 635.78558 1144.494669 637.649701 1149.186591 637.649701 
z
" style="fill:#aec7e8;fill-opacity:0.5;stroke:#ffffff;stroke-opacity:0.5;stroke-width:2;"/>
    <path clip-path="url(#p4aa875fe26)" d="M 2163.732045 548.342736 
C 2167.954525 548.342736 2172.004632 546.665127 2174.990376 543.679383 
C 2177.97612 540.693639 2179.653729 536.643532 2179.653729 532.421053 
C 2179.653729 528.198573 2177.97612 524.148466 2174.990376 521.162722 
C 2172.004632 518.176978 2167.954525 516.499369 2163.732045 516.499369 
C 2159.509566 516.499369 2155.459459 518.176978 2152.473715 521.162722 
C 2149.487971 524.148466 2147.810362 528.198573 2147.810362 532.421053 
C 2147.810362 536.643532 2149.487971 540.693639 2152.473715 543.679383 
C 2155.459459 546.665127 2159.509566 548.342736 2163.732045 548.342736 
z
" style="fill:#ffbb78;fill-opacity:0.5;stroke:#ffffff;stroke-opacity:0.5;stroke-width:2;"/>
    <path clip-path="url(#p4aa875fe26)" d="M 1149.186591 462.377066 
C 1153.82575 462.377066 1158.275527 460.533909 1161.555908 457.253527 
C 1164.836289 453.973146 1166.679447 449.52337 1166.679447 444.884211 
C 1166.679447 440.245051 1164.836289 435.795275 1161.555908 432.514894 
C 1158.275527 429.234512 1153.82575 427.391355 1149.186591 427.391355 
C 1144.547431 427.391355 1140.097655 429.234512 1136.817274 432.514894 
C 1133.536893 435.795275 1131.693735 440.245051 1131.693735 444.884211 
C 1131.693735 449.52337 1133.536893 453.973146 1136.817274 457.253527 
C 1140.097655 460.533909 1144.547431 462.377066 1149.186591 462.377066 
z
" style="fill:#aec7e8;fill-opacity:0.5;stroke:#ffffff;stroke-opacity:0.5;stroke-width:2;"/>
    <path clip-path="url(#p4aa875fe26)" d="M 2163.732045 462.377066 
C 2168.371205 462.377066 2172.820981 460.533909 2176.101362 457.253527 
C 2179.381744 453.973146 2181.224901 449.52337 2181.224901 444.884211 
C 2181.224901 440.245051 2179.381744 435.795275 2176.101362 432.514894 
C 2172.820981 429.234512 2168.371205 427.391355 2163.732045 427.391355 
C 2159.092886 427.391355 2154.64311 429.234512 2151.362729 432.514894 
C 2148.082347 435.795275 2146.23919 440.245051 2146.23919 444.884211 
C 2146.23919 449.52337 2148.082347 453.973146 2151.362729 457.253527 
C 2154.64311 460.533909 2159.092886 462.377066 2163.732045 462.377066 
z
" style="fill:#ffbb78;fill-opacity:0.5;stroke:#ffffff;stroke-opacity:0.5;stroke-width:2;"/>
    <path clip-path="url(#p4aa875fe26)" d="M 2163.732045 374.0207 
C 2168.153865 374.0207 2172.395173 372.263893 2175.521872 369.137195 
C 2178.64857 366.010496 2180.405377 361.769188 2180.405377 357.347368 
C 2180.405377 352.925549 2178.64857 348.684241 2175.521872 345.557542 
C 2172.395173 342.430844 2168.153865 340.674036 2163.732045 340.674036 
C 2159.310226 340.674036 2155.068918 342.430844 2151.942219 345.557542 
C 2148.815521 348.684241 2147.058713 352.925549 2147.058713 357.347368 
C 2147.058713 361.769188 2148.815521 366.010496 2151.942219 369.137195 
C 2155.068918 372.263893 2159.310226 374.0207 2163.732045 374.0207 
z
" style="fill:#ffbb78;fill-opacity:0.5;stroke:#ffffff;stroke-opacity:0.5;stroke-width:2;"/>
    <path clip-path="url(#p4aa875fe26)" d="M 2671.004773 374.0207 
C 2675.426592 374.0207 2679.6679 372.263893 2682.794599 369.137195 
C 2685.921297 366.010496 2687.678105 361.769188 2687.678105 357.347368 
C 2687.678105 352.925549 2685.921297 348.684241 2682.794599 345.557542 
C 2679.6679 342.430844 2675.426592 340.674036 2671.004773 340.674036 
C 2666.582953 340.674036 2662.341645 342.430844 2659.214947 345.557542 
C 2656.088248 348.684241 2654.331441 352.925549 2654.331441 357.347368 
C 2654.331441 361.769188 2656.088248 366.010496 2659.214947 369.137195 
C 2662.341645 372.263893 2666.582953 374.0207 2671.004773 374.0207 
z
" style="fill:#2ca02c;fill-opacity:0.5;stroke:#ffffff;stroke-opacity:0.5;stroke-width:2;"/>
    <path clip-path="url(#p4aa875fe26)" d="M 1149.186591 290.595136 
C 1154.698734 290.595136 1159.985856 288.405138 1163.883529 284.507465 
C 1167.781203 280.609791 1169.971201 275.322669 1169.971201 269.810526 
C 1169.971201 264.298383 1167.781203 259.011261 1163.883529 255.113588 
C 1159.985856 251.215914 1154.698734 249.025917 1149.186591 249.025917 
C 1143.674448 249.025917 1138.387326 251.215914 1134.489652 255.113588 
C 1130.591979 259.011261 1128.401981 264.298383 1128.401981 269.810526 
C 1128.401981 275.322669 1130.591979 280.609791 1134.489652 284.507465 
C 1138.387326 288.405138 1143.674448 290.595136 1149.186591 290.595136 
z
" style="fill:#aec7e8;fill-opacity:0.5;stroke:#ffffff;stroke-opacity:0.5;stroke-width:2;"/>
    <path clip-path="url(#p4aa875fe26)" d="M 1149.186591 201.664404 
C 1154.32907 201.664404 1159.261618 199.621275 1162.8979 195.984993 
C 1166.534182 192.348712 1168.57731 187.416163 1168.57731 182.273684 
C 1168.57731 177.131205 1166.534182 172.198657 1162.8979 168.562375 
C 1159.261618 164.926093 1154.32907 162.882965 1149.186591 162.882965 
C 1144.044112 162.882965 1139.111563 164.926093 1135.475282 168.562375 
C 1131.839 172.198657 1129.795871 177.131205 1129.795871 182.273684 
C 1129.795871 187.416163 1131.839 192.348712 1135.475282 195.984993 
C 1139.111563 199.621275 1144.044112 201.664404 1149.186591 201.664404 
z
" style="fill:#aec7e8;fill-opacity:0.5;stroke:#ffffff;stroke-opacity:0.5;stroke-width:2;"/>
    <path clip-path="url(#p4aa875fe26)" d="M 1656.459318 199.96549 
C 1661.15124 199.96549 1665.651624 198.10137 1668.969314 194.78368 
C 1672.287004 191.46599 1674.151124 186.965606 1674.151124 182.273684 
C 1674.151124 177.581762 1672.287004 173.081378 1668.969314 169.763688 
C 1665.651624 166.445998 1661.15124 164.581878 1656.459318 164.581878 
C 1651.767396 164.581878 1647.267012 166.445998 1643.949322 169.763688 
C 1640.631632 173.081378 1638.767512 177.581762 1638.767512 182.273684 
C 1638.767512 186.965606 1640.631632 191.46599 1643.949322 194.78368 
C 1647.267012 198.10137 1651.767396 199.96549 1656.459318 199.96549 
z
" style="fill:#ff7f0e;fill-opacity:0.5;stroke:#ffffff;stroke-opacity:0.5;stroke-width:2;"/>
    <path clip-path="url(#p4aa875fe26)" d="M 2671.004773 201.664404 
C 2676.147252 201.664404 2681.0798 199.621275 2684.716082 195.984993 
C 2688.352364 192.348712 2690.395492 187.416163 2690.395492 182.273684 
C 2690.395492 177.131205 2688.352364 172.198657 2684.716082 168.562375 
C 2681.0798 164.926093 2676.147252 162.882965 2671.004773 162.882965 
C 2665.862294 162.882965 2660.929745 164.926093 2657.293464 168.562375 
C 2653.657182 172.198657 2651.614053 177.131205 2651.614053 182.273684 
C 2651.614053 187.416163 2653.657182 192.348712 2657.293464 195.984993 
C 2660.929745 199.621275 2665.862294 201.664404 2671.004773 201.664404 
z
" style="fill:#2ca02c;fill-opacity:0.5;stroke:#ffffff;stroke-opacity:0.5;stroke-width:2;"/>
    <path clip-path="url(#p4aa875fe26)" d="M 2671.004773 131.60824 
C 2680.783182 131.60824 2690.162409 127.723237 2697.076788 120.808858 
C 2703.991168 113.894478 2707.876171 104.515251 2707.876171 94.736842 
C 2707.876171 84.958433 2703.991168 75.579206 2697.076788 68.664826 
C 2690.162409 61.750447 2680.783182 57.865444 2671.004773 57.865444 
C 2661.226364 57.865444 2651.847136 61.750447 2644.932757 68.664826 
C 2638.018378 75.579206 2634.133375 84.958433 2634.133375 94.736842 
C 2634.133375 104.515251 2638.018378 113.894478 2644.932757 120.808858 
C 2651.847136 127.723237 2661.226364 131.60824 2671.004773 131.60824 
z
" style="fill:#2ca02c;fill-opacity:0.5;stroke:#ffffff;stroke-opacity:0.5;stroke-width:2;"/>
   </g>
   <g id="patch_3">
    <path d="M 388.2775 1670.4 
L 388.2775 7.2 
" style="fill:none;stroke:#262626;stroke-linecap:square;stroke-linejoin:miter;stroke-width:1.25;"/>
   </g>
   <g id="patch_4">
    <path d="M 3178.2775 1670.4 
L 3178.2775 7.2 
" style="fill:none;stroke:#262626;stroke-linecap:square;stroke-linejoin:miter;stroke-width:1.25;"/>
   </g>
   <g id="patch_5">
    <path d="M 388.2775 1670.4 
L 3178.2775 1670.4 
" style="fill:none;stroke:#262626;stroke-linecap:square;stroke-linejoin:miter;stroke-width:1.25;"/>
   </g>
   <g id="patch_6">
    <path d="M 388.2775 7.2 
L 3178.2775 7.2 
" style="fill:none;stroke:#262626;stroke-linecap:square;stroke-linejoin:miter;stroke-width:1.25;"/>
   </g>
   <g id="text_20">
    <!-- 40 -->
    <defs>
     <path d="M 37.796875 64.3125 
L 12.890625 25.390625 
L 37.796875 25.390625 
z
M 35.203125 72.90625 
L 47.609375 72.90625 
L 47.609375 25.390625 
L 58.015625 25.390625 
L 58.015625 17.1875 
L 47.609375 17.1875 
L 47.609375 0 
L 37.796875 0 
L 37.796875 17.1875 
L 4.890625 17.1875 
L 4.890625 26.703125 
z
" id="DejaVuSans-34"/>
    </defs>
    <g style="fill:#262626;" transform="translate(1133.916591 1582.863158)scale(0.24 -0.24)">
     <use xlink:href="#DejaVuSans-34"/>
     <use x="63.623047" xlink:href="#DejaVuSans-30"/>
    </g>
   </g>
   <g id="text_21">
    <!-- 19 -->
    <defs>
     <path d="M 10.984375 1.515625 
L 10.984375 10.5 
Q 14.703125 8.734375 18.5 7.8125 
Q 22.3125 6.890625 25.984375 6.890625 
Q 35.75 6.890625 40.890625 13.453125 
Q 46.046875 20.015625 46.78125 33.40625 
Q 43.953125 29.203125 39.59375 26.953125 
Q 35.25 24.703125 29.984375 24.703125 
Q 19.046875 24.703125 12.671875 31.3125 
Q 6.296875 37.9375 6.296875 49.421875 
Q 6.296875 60.640625 12.9375 67.421875 
Q 19.578125 74.21875 30.609375 74.21875 
Q 43.265625 74.21875 49.921875 64.515625 
Q 56.59375 54.828125 56.59375 36.375 
Q 56.59375 19.140625 48.40625 8.859375 
Q 40.234375 -1.421875 26.421875 -1.421875 
Q 22.703125 -1.421875 18.890625 -0.6875 
Q 15.09375 0.046875 10.984375 1.515625 
z
M 30.609375 32.421875 
Q 37.25 32.421875 41.125 36.953125 
Q 45.015625 41.5 45.015625 49.421875 
Q 45.015625 57.28125 41.125 61.84375 
Q 37.25 66.40625 30.609375 66.40625 
Q 23.96875 66.40625 20.09375 61.84375 
Q 16.21875 57.28125 16.21875 49.421875 
Q 16.21875 41.5 20.09375 36.953125 
Q 23.96875 32.421875 30.609375 32.421875 
z
" id="DejaVuSans-39"/>
    </defs>
    <g style="fill:#262626;" transform="translate(2148.462045 1582.863158)scale(0.24 -0.24)">
     <use xlink:href="#DejaVuSans-31"/>
     <use x="63.623047" xlink:href="#DejaVuSans-39"/>
    </g>
   </g>
   <g id="text_22">
    <!-- 730 -->
    <defs>
     <path d="M 8.203125 72.90625 
L 55.078125 72.90625 
L 55.078125 68.703125 
L 28.609375 0 
L 18.3125 0 
L 43.21875 64.59375 
L 8.203125 64.59375 
z
" id="DejaVuSans-37"/>
     <path d="M 40.578125 39.3125 
Q 47.65625 37.796875 51.625 33 
Q 55.609375 28.21875 55.609375 21.1875 
Q 55.609375 10.40625 48.1875 4.484375 
Q 40.765625 -1.421875 27.09375 -1.421875 
Q 22.515625 -1.421875 17.65625 -0.515625 
Q 12.796875 0.390625 7.625 2.203125 
L 7.625 11.71875 
Q 11.71875 9.328125 16.59375 8.109375 
Q 21.484375 6.890625 26.8125 6.890625 
Q 36.078125 6.890625 40.9375 10.546875 
Q 45.796875 14.203125 45.796875 21.1875 
Q 45.796875 27.640625 41.28125 31.265625 
Q 36.765625 34.90625 28.71875 34.90625 
L 20.21875 34.90625 
L 20.21875 43.015625 
L 29.109375 43.015625 
Q 36.375 43.015625 40.234375 45.921875 
Q 44.09375 48.828125 44.09375 54.296875 
Q 44.09375 59.90625 40.109375 62.90625 
Q 36.140625 65.921875 28.71875 65.921875 
Q 24.65625 65.921875 20.015625 65.03125 
Q 15.375 64.15625 9.8125 62.3125 
L 9.8125 71.09375 
Q 15.4375 72.65625 20.34375 73.4375 
Q 25.25 74.21875 29.59375 74.21875 
Q 40.828125 74.21875 47.359375 69.109375 
Q 53.90625 64.015625 53.90625 55.328125 
Q 53.90625 49.265625 50.4375 45.09375 
Q 46.96875 40.921875 40.578125 39.3125 
z
" id="DejaVuSans-33"/>
    </defs>
    <g style="fill:#262626;" transform="translate(2140.827045 1495.326316)scale(0.24 -0.24)">
     <use xlink:href="#DejaVuSans-37"/>
     <use x="63.623047" xlink:href="#DejaVuSans-33"/>
     <use x="127.246094" xlink:href="#DejaVuSans-30"/>
    </g>
   </g>
   <g id="text_23">
    <!-- 35 -->
    <defs>
     <path d="M 10.796875 72.90625 
L 49.515625 72.90625 
L 49.515625 64.59375 
L 19.828125 64.59375 
L 19.828125 46.734375 
Q 21.96875 47.46875 24.109375 47.828125 
Q 26.265625 48.1875 28.421875 48.1875 
Q 40.625 48.1875 47.75 41.5 
Q 54.890625 34.8125 54.890625 23.390625 
Q 54.890625 11.625 47.5625 5.09375 
Q 40.234375 -1.421875 26.90625 -1.421875 
Q 22.3125 -1.421875 17.546875 -0.640625 
Q 12.796875 0.140625 7.71875 1.703125 
L 7.71875 11.625 
Q 12.109375 9.234375 16.796875 8.0625 
Q 21.484375 6.890625 26.703125 6.890625 
Q 35.15625 6.890625 40.078125 11.328125 
Q 45.015625 15.765625 45.015625 23.390625 
Q 45.015625 31 40.078125 35.4375 
Q 35.15625 39.890625 26.703125 39.890625 
Q 22.75 39.890625 18.8125 39.015625 
Q 14.890625 38.140625 10.796875 36.28125 
z
" id="DejaVuSans-35"/>
    </defs>
    <g style="fill:#262626;" transform="translate(626.643864 1407.789474)scale(0.24 -0.24)">
     <use xlink:href="#DejaVuSans-33"/>
     <use x="63.623047" xlink:href="#DejaVuSans-35"/>
    </g>
   </g>
   <g id="text_24">
    <!-- 40 -->
    <g style="fill:#262626;" transform="translate(2655.734773 1320.252632)scale(0.24 -0.24)">
     <use xlink:href="#DejaVuSans-34"/>
     <use x="63.623047" xlink:href="#DejaVuSans-30"/>
    </g>
   </g>
   <g id="text_25">
    <!-- 210 -->
    <g style="fill:#262626;" transform="translate(1126.281591 1232.715789)scale(0.24 -0.24)">
     <use xlink:href="#DejaVuSans-32"/>
     <use x="63.623047" xlink:href="#DejaVuSans-31"/>
     <use x="127.246094" xlink:href="#DejaVuSans-30"/>
    </g>
   </g>
   <g id="text_26">
    <!-- 2 -->
    <g style="fill:#262626;" transform="translate(2663.369773 1232.715789)scale(0.24 -0.24)">
     <use xlink:href="#DejaVuSans-32"/>
    </g>
   </g>
   <g id="text_27">
    <!-- 2 -->
    <g style="fill:#262626;" transform="translate(2156.097045 1145.178947)scale(0.24 -0.24)">
     <use xlink:href="#DejaVuSans-32"/>
    </g>
   </g>
   <g id="text_28">
    <!-- 72 -->
    <g style="fill:#262626;" transform="translate(2655.734773 1145.178947)scale(0.24 -0.24)">
     <use xlink:href="#DejaVuSans-37"/>
     <use x="63.623047" xlink:href="#DejaVuSans-32"/>
    </g>
   </g>
   <g id="text_29">
    <!-- 500 -->
    <g style="fill:#262626;" transform="translate(2648.099773 1057.642105)scale(0.24 -0.24)">
     <use xlink:href="#DejaVuSans-35"/>
     <use x="63.623047" xlink:href="#DejaVuSans-30"/>
     <use x="127.246094" xlink:href="#DejaVuSans-30"/>
    </g>
   </g>
   <g id="text_30">
    <!-- 20 -->
    <g style="fill:#262626;" transform="translate(1133.916591 882.568421)scale(0.24 -0.24)">
     <use xlink:href="#DejaVuSans-32"/>
     <use x="63.623047" xlink:href="#DejaVuSans-30"/>
    </g>
   </g>
   <g id="text_31">
    <!-- 20 -->
    <g style="fill:#262626;" transform="translate(2655.734773 882.568421)scale(0.24 -0.24)">
     <use xlink:href="#DejaVuSans-32"/>
     <use x="63.623047" xlink:href="#DejaVuSans-30"/>
    </g>
   </g>
   <g id="text_32">
    <!-- 42 -->
    <g style="fill:#262626;" transform="translate(1133.916591 795.031579)scale(0.24 -0.24)">
     <use xlink:href="#DejaVuSans-34"/>
     <use x="63.623047" xlink:href="#DejaVuSans-32"/>
    </g>
   </g>
   <g id="text_33">
    <!-- 15 -->
    <g style="fill:#262626;" transform="translate(1133.916591 707.494737)scale(0.24 -0.24)">
     <use xlink:href="#DejaVuSans-31"/>
     <use x="63.623047" xlink:href="#DejaVuSans-35"/>
    </g>
   </g>
   <g id="text_34">
    <!-- 15 -->
    <g style="fill:#262626;" transform="translate(2655.734773 707.494737)scale(0.24 -0.24)">
     <use xlink:href="#DejaVuSans-31"/>
     <use x="63.623047" xlink:href="#DejaVuSans-35"/>
    </g>
   </g>
   <g id="text_35">
    <!-- 18 -->
    <defs>
     <path d="M 31.78125 34.625 
Q 24.75 34.625 20.71875 30.859375 
Q 16.703125 27.09375 16.703125 20.515625 
Q 16.703125 13.921875 20.71875 10.15625 
Q 24.75 6.390625 31.78125 6.390625 
Q 38.8125 6.390625 42.859375 10.171875 
Q 46.921875 13.96875 46.921875 20.515625 
Q 46.921875 27.09375 42.890625 30.859375 
Q 38.875 34.625 31.78125 34.625 
z
M 21.921875 38.8125 
Q 15.578125 40.375 12.03125 44.71875 
Q 8.5 49.078125 8.5 55.328125 
Q 8.5 64.0625 14.71875 69.140625 
Q 20.953125 74.21875 31.78125 74.21875 
Q 42.671875 74.21875 48.875 69.140625 
Q 55.078125 64.0625 55.078125 55.328125 
Q 55.078125 49.078125 51.53125 44.71875 
Q 48 40.375 41.703125 38.8125 
Q 48.828125 37.15625 52.796875 32.3125 
Q 56.78125 27.484375 56.78125 20.515625 
Q 56.78125 9.90625 50.3125 4.234375 
Q 43.84375 -1.421875 31.78125 -1.421875 
Q 19.734375 -1.421875 13.25 4.234375 
Q 6.78125 9.90625 6.78125 20.515625 
Q 6.78125 27.484375 10.78125 32.3125 
Q 14.796875 37.15625 21.921875 38.8125 
z
M 18.3125 54.390625 
Q 18.3125 48.734375 21.84375 45.5625 
Q 25.390625 42.390625 31.78125 42.390625 
Q 38.140625 42.390625 41.71875 45.5625 
Q 45.3125 48.734375 45.3125 54.390625 
Q 45.3125 60.0625 41.71875 63.234375 
Q 38.140625 66.40625 31.78125 66.40625 
Q 25.390625 66.40625 21.84375 63.234375 
Q 18.3125 60.0625 18.3125 54.390625 
z
" id="DejaVuSans-38"/>
    </defs>
    <g style="fill:#262626;" transform="translate(1133.916591 619.957895)scale(0.24 -0.24)">
     <use xlink:href="#DejaVuSans-31"/>
     <use x="63.623047" xlink:href="#DejaVuSans-38"/>
    </g>
   </g>
   <g id="text_36">
    <!-- 1 -->
    <g style="fill:#262626;" transform="translate(2156.097045 532.421053)scale(0.24 -0.24)">
     <use xlink:href="#DejaVuSans-31"/>
    </g>
   </g>
   <g id="text_37">
    <!-- 16 -->
    <defs>
     <path d="M 33.015625 40.375 
Q 26.375 40.375 22.484375 35.828125 
Q 18.609375 31.296875 18.609375 23.390625 
Q 18.609375 15.53125 22.484375 10.953125 
Q 26.375 6.390625 33.015625 6.390625 
Q 39.65625 6.390625 43.53125 10.953125 
Q 47.40625 15.53125 47.40625 23.390625 
Q 47.40625 31.296875 43.53125 35.828125 
Q 39.65625 40.375 33.015625 40.375 
z
M 52.59375 71.296875 
L 52.59375 62.3125 
Q 48.875 64.0625 45.09375 64.984375 
Q 41.3125 65.921875 37.59375 65.921875 
Q 27.828125 65.921875 22.671875 59.328125 
Q 17.53125 52.734375 16.796875 39.40625 
Q 19.671875 43.65625 24.015625 45.921875 
Q 28.375 48.1875 33.59375 48.1875 
Q 44.578125 48.1875 50.953125 41.515625 
Q 57.328125 34.859375 57.328125 23.390625 
Q 57.328125 12.15625 50.6875 5.359375 
Q 44.046875 -1.421875 33.015625 -1.421875 
Q 20.359375 -1.421875 13.671875 8.265625 
Q 6.984375 17.96875 6.984375 36.375 
Q 6.984375 53.65625 15.1875 63.9375 
Q 23.390625 74.21875 37.203125 74.21875 
Q 40.921875 74.21875 44.703125 73.484375 
Q 48.484375 72.75 52.59375 71.296875 
z
" id="DejaVuSans-36"/>
    </defs>
    <g style="fill:#262626;" transform="translate(1133.916591 444.884211)scale(0.24 -0.24)">
     <use xlink:href="#DejaVuSans-31"/>
     <use x="63.623047" xlink:href="#DejaVuSans-36"/>
    </g>
   </g>
   <g id="text_38">
    <!-- 16 -->
    <g style="fill:#262626;" transform="translate(2148.462045 444.884211)scale(0.24 -0.24)">
     <use xlink:href="#DejaVuSans-31"/>
     <use x="63.623047" xlink:href="#DejaVuSans-36"/>
    </g>
   </g>
   <g id="text_39">
    <!-- 8 -->
    <g style="fill:#262626;" transform="translate(2156.097045 357.347368)scale(0.24 -0.24)">
     <use xlink:href="#DejaVuSans-38"/>
    </g>
   </g>
   <g id="text_40">
    <!-- 8 -->
    <g style="fill:#262626;" transform="translate(2663.369773 357.347368)scale(0.24 -0.24)">
     <use xlink:href="#DejaVuSans-38"/>
    </g>
   </g>
   <g id="text_41">
    <!-- 52 -->
    <g style="fill:#262626;" transform="translate(1133.916591 269.810526)scale(0.24 -0.24)">
     <use xlink:href="#DejaVuSans-35"/>
     <use x="63.623047" xlink:href="#DejaVuSans-32"/>
    </g>
   </g>
   <g id="text_42">
    <!-- 36 -->
    <g style="fill:#262626;" transform="translate(1133.916591 182.273684)scale(0.24 -0.24)">
     <use xlink:href="#DejaVuSans-33"/>
     <use x="63.623047" xlink:href="#DejaVuSans-36"/>
    </g>
   </g>
   <g id="text_43">
    <!-- 18 -->
    <g style="fill:#262626;" transform="translate(1641.189318 182.273684)scale(0.24 -0.24)">
     <use xlink:href="#DejaVuSans-31"/>
     <use x="63.623047" xlink:href="#DejaVuSans-38"/>
    </g>
   </g>
   <g id="text_44">
    <!-- 36 -->
    <g style="fill:#262626;" transform="translate(2655.734773 182.273684)scale(0.24 -0.24)">
     <use xlink:href="#DejaVuSans-33"/>
     <use x="63.623047" xlink:href="#DejaVuSans-36"/>
    </g>
   </g>
   <g id="text_45">
    <!-- 317 -->
    <g style="fill:#262626;" transform="translate(2648.099773 94.736842)scale(0.24 -0.24)">
     <use xlink:href="#DejaVuSans-33"/>
     <use x="63.623047" xlink:href="#DejaVuSans-31"/>
     <use x="127.246094" xlink:href="#DejaVuSans-37"/>
    </g>
   </g>
   <g id="legend_1">
    <g id="line2d_24">
     <path d="M 2754.445 38.63625 
L 2802.445 38.63625 
" style="fill:none;opacity:0.5;stroke:#ffffff;stroke-linecap:round;stroke-width:1.75;"/>
    </g>
    <g id="line2d_25">
     <defs>
      <path d="M 0 12 
C 3.182437 12 6.234958 10.735604 8.485281 8.485281 
C 10.735604 6.234958 12 3.182437 12 0 
C 12 -3.182437 10.735604 -6.234958 8.485281 -8.485281 
C 6.234958 -10.735604 3.182437 -12 0 -12 
C -3.182437 -12 -6.234958 -10.735604 -8.485281 -8.485281 
C -10.735604 -6.234958 -12 -3.182437 -12 0 
C -12 3.182437 -10.735604 6.234958 -8.485281 8.485281 
C -6.234958 10.735604 -3.182437 12 0 12 
z
" id="mb3923f4b48"/>
     </defs>
     <g>
      <use style="fill:#1f77b4;opacity:0.5;" x="2778.445" xlink:href="#mb3923f4b48" y="38.63625"/>
     </g>
    </g>
    <g id="text_46">
     <!-- Acid Citrate Dextrose (ACD) -->
     <defs>
      <path d="M 31 75.875 
Q 24.46875 64.65625 21.28125 53.65625 
Q 18.109375 42.671875 18.109375 31.390625 
Q 18.109375 20.125 21.3125 9.0625 
Q 24.515625 -2 31 -13.1875 
L 23.1875 -13.1875 
Q 15.875 -1.703125 12.234375 9.375 
Q 8.59375 20.453125 8.59375 31.390625 
Q 8.59375 42.28125 12.203125 53.3125 
Q 15.828125 64.359375 23.1875 75.875 
z
" id="DejaVuSans-28"/>
      <path d="M 8.015625 75.875 
L 15.828125 75.875 
Q 23.140625 64.359375 26.78125 53.3125 
Q 30.421875 42.28125 30.421875 31.390625 
Q 30.421875 20.453125 26.78125 9.375 
Q 23.140625 -1.703125 15.828125 -13.1875 
L 8.015625 -13.1875 
Q 14.5 -2 17.703125 9.0625 
Q 20.90625 20.125 20.90625 31.390625 
Q 20.90625 42.671875 17.703125 53.65625 
Q 14.5 64.65625 8.015625 75.875 
z
" id="DejaVuSans-29"/>
     </defs>
     <g style="fill:#262626;" transform="translate(2821.645 47.03625)scale(0.24 -0.24)">
      <use xlink:href="#DejaVuSans-41"/>
      <use x="68.392578" xlink:href="#DejaVuSans-63"/>
      <use x="123.373047" xlink:href="#DejaVuSans-69"/>
      <use x="151.15625" xlink:href="#DejaVuSans-64"/>
      <use x="214.632812" xlink:href="#DejaVuSans-20"/>
      <use x="246.419922" xlink:href="#DejaVuSans-43"/>
      <use x="316.244141" xlink:href="#DejaVuSans-69"/>
      <use x="344.027344" xlink:href="#DejaVuSans-74"/>
      <use x="383.236328" xlink:href="#DejaVuSans-72"/>
      <use x="424.349609" xlink:href="#DejaVuSans-61"/>
      <use x="485.628906" xlink:href="#DejaVuSans-74"/>
      <use x="524.837891" xlink:href="#DejaVuSans-65"/>
      <use x="586.361328" xlink:href="#DejaVuSans-20"/>
      <use x="618.148438" xlink:href="#DejaVuSans-44"/>
      <use x="695.150391" xlink:href="#DejaVuSans-65"/>
      <use x="756.658203" xlink:href="#DejaVuSans-78"/>
      <use x="815.837891" xlink:href="#DejaVuSans-74"/>
      <use x="855.046875" xlink:href="#DejaVuSans-72"/>
      <use x="896.128906" xlink:href="#DejaVuSans-6f"/>
      <use x="957.310547" xlink:href="#DejaVuSans-73"/>
      <use x="1009.410156" xlink:href="#DejaVuSans-65"/>
      <use x="1070.933594" xlink:href="#DejaVuSans-20"/>
      <use x="1102.720703" xlink:href="#DejaVuSans-28"/>
      <use x="1141.734375" xlink:href="#DejaVuSans-41"/>
      <use x="1210.126953" xlink:href="#DejaVuSans-43"/>
      <use x="1279.951172" xlink:href="#DejaVuSans-44"/>
      <use x="1356.953125" xlink:href="#DejaVuSans-29"/>
     </g>
    </g>
    <g id="line2d_26">
     <path d="M 2754.445 73.86375 
L 2802.445 73.86375 
" style="fill:none;opacity:0.5;stroke:#ffffff;stroke-linecap:round;stroke-width:1.75;"/>
    </g>
    <g id="line2d_27">
     <defs>
      <path d="M 0 12 
C 3.182437 12 6.234958 10.735604 8.485281 8.485281 
C 10.735604 6.234958 12 3.182437 12 0 
C 12 -3.182437 10.735604 -6.234958 8.485281 -8.485281 
C 6.234958 -10.735604 3.182437 -12 0 -12 
C -3.182437 -12 -6.234958 -10.735604 -8.485281 -8.485281 
C -10.735604 -6.234958 -12 -3.182437 -12 0 
C -12 3.182437 -10.735604 6.234958 -8.485281 8.485281 
C -6.234958 10.735604 -3.182437 12 0 12 
z
" id="mf040033469"/>
     </defs>
     <g>
      <use style="fill:#aec7e8;opacity:0.5;" x="2778.445" xlink:href="#mf040033469" y="73.86375"/>
     </g>
    </g>
    <g id="text_47">
     <!-- EDTA -->
     <g style="fill:#262626;" transform="translate(2821.645 82.26375)scale(0.24 -0.24)">
      <use xlink:href="#DejaVuSans-45"/>
      <use x="63.183594" xlink:href="#DejaVuSans-44"/>
      <use x="140.185547" xlink:href="#DejaVuSans-54"/>
      <use x="201.160156" xlink:href="#DejaVuSans-41"/>
     </g>
    </g>
    <g id="line2d_28">
     <path d="M 2754.445 109.09125 
L 2802.445 109.09125 
" style="fill:none;opacity:0.5;stroke:#ffffff;stroke-linecap:round;stroke-width:1.75;"/>
    </g>
    <g id="line2d_29">
     <defs>
      <path d="M 0 12 
C 3.182437 12 6.234958 10.735604 8.485281 8.485281 
C 10.735604 6.234958 12 3.182437 12 0 
C 12 -3.182437 10.735604 -6.234958 8.485281 -8.485281 
C 6.234958 -10.735604 3.182437 -12 0 -12 
C -3.182437 -12 -6.234958 -10.735604 -8.485281 -8.485281 
C -10.735604 -6.234958 -12 -3.182437 -12 0 
C -12 3.182437 -10.735604 6.234958 -8.485281 8.485281 
C -6.234958 10.735604 -3.182437 12 0 12 
z
" id="m047e261354"/>
     </defs>
     <g>
      <use style="fill:#ff7f0e;opacity:0.5;" x="2778.445" xlink:href="#m047e261354" y="109.09125"/>
     </g>
    </g>
    <g id="text_48">
     <!-- CellSave -->
     <g style="fill:#262626;" transform="translate(2821.645 117.49125)scale(0.24 -0.24)">
      <use xlink:href="#DejaVuSans-43"/>
      <use x="69.824219" xlink:href="#DejaVuSans-65"/>
      <use x="131.347656" xlink:href="#DejaVuSans-6c"/>
      <use x="159.130859" xlink:href="#DejaVuSans-6c"/>
      <use x="186.914062" xlink:href="#DejaVuSans-53"/>
      <use x="250.390625" xlink:href="#DejaVuSans-61"/>
      <use x="311.669922" xlink:href="#DejaVuSans-76"/>
      <use x="370.849609" xlink:href="#DejaVuSans-65"/>
     </g>
    </g>
    <g id="line2d_30">
     <path d="M 2754.445 144.31875 
L 2802.445 144.31875 
" style="fill:none;opacity:0.5;stroke:#ffffff;stroke-linecap:round;stroke-width:1.75;"/>
    </g>
    <g id="line2d_31">
     <defs>
      <path d="M 0 12 
C 3.182437 12 6.234958 10.735604 8.485281 8.485281 
C 10.735604 6.234958 12 3.182437 12 0 
C 12 -3.182437 10.735604 -6.234958 8.485281 -8.485281 
C 6.234958 -10.735604 3.182437 -12 0 -12 
C -3.182437 -12 -6.234958 -10.735604 -8.485281 -8.485281 
C -10.735604 -6.234958 -12 -3.182437 -12 0 
C -12 3.182437 -10.735604 6.234958 -8.485281 8.485281 
C -6.234958 10.735604 -3.182437 12 0 12 
z
" id="m3569c912f5"/>
     </defs>
     <g>
      <use style="fill:#ffbb78;opacity:0.5;" x="2778.445" xlink:href="#m3569c912f5" y="144.31875"/>
     </g>
    </g>
    <g id="text_49">
     <!-- Not Applicable -->
     <g style="fill:#262626;" transform="translate(2821.645 152.71875)scale(0.24 -0.24)">
      <use xlink:href="#DejaVuSans-4e"/>
      <use x="74.804688" xlink:href="#DejaVuSans-6f"/>
      <use x="135.986328" xlink:href="#DejaVuSans-74"/>
      <use x="175.195312" xlink:href="#DejaVuSans-20"/>
      <use x="206.982422" xlink:href="#DejaVuSans-41"/>
      <use x="275.390625" xlink:href="#DejaVuSans-70"/>
      <use x="338.867188" xlink:href="#DejaVuSans-70"/>
      <use x="402.34375" xlink:href="#DejaVuSans-6c"/>
      <use x="430.126953" xlink:href="#DejaVuSans-69"/>
      <use x="457.910156" xlink:href="#DejaVuSans-63"/>
      <use x="512.890625" xlink:href="#DejaVuSans-61"/>
      <use x="574.169922" xlink:href="#DejaVuSans-62"/>
      <use x="637.646484" xlink:href="#DejaVuSans-6c"/>
      <use x="665.429688" xlink:href="#DejaVuSans-65"/>
     </g>
    </g>
    <g id="line2d_32">
     <path d="M 2754.445 179.54625 
L 2802.445 179.54625 
" style="fill:none;opacity:0.5;stroke:#ffffff;stroke-linecap:round;stroke-width:1.75;"/>
    </g>
    <g id="line2d_33">
     <defs>
      <path d="M 0 12 
C 3.182437 12 6.234958 10.735604 8.485281 8.485281 
C 10.735604 6.234958 12 3.182437 12 0 
C 12 -3.182437 10.735604 -6.234958 8.485281 -8.485281 
C 6.234958 -10.735604 3.182437 -12 0 -12 
C -3.182437 -12 -6.234958 -10.735604 -8.485281 -8.485281 
C -10.735604 -6.234958 -12 -3.182437 -12 0 
C -12 3.182437 -10.735604 6.234958 -8.485281 8.485281 
C -6.234958 10.735604 -3.182437 12 0 12 
z
" id="m827e4af39a"/>
     </defs>
     <g>
      <use style="fill:#2ca02c;opacity:0.5;" x="2778.445" xlink:href="#m827e4af39a" y="179.54625"/>
     </g>
    </g>
    <g id="text_50">
     <!-- Streck -->
     <defs>
      <path d="M 9.078125 75.984375 
L 18.109375 75.984375 
L 18.109375 31.109375 
L 44.921875 54.6875 
L 56.390625 54.6875 
L 27.390625 29.109375 
L 57.625 0 
L 45.90625 0 
L 18.109375 26.703125 
L 18.109375 0 
L 9.078125 0 
z
" id="DejaVuSans-6b"/>
     </defs>
     <g style="fill:#262626;" transform="translate(2821.645 187.94625)scale(0.24 -0.24)">
      <use xlink:href="#DejaVuSans-53"/>
      <use x="63.476562" xlink:href="#DejaVuSans-74"/>
      <use x="102.685547" xlink:href="#DejaVuSans-72"/>
      <use x="143.767578" xlink:href="#DejaVuSans-65"/>
      <use x="205.291016" xlink:href="#DejaVuSans-63"/>
      <use x="260.271484" xlink:href="#DejaVuSans-6b"/>
     </g>
    </g>
   </g>
  </g>
 </g>
 <defs>
  <clipPath id="p4aa875fe26">
   <rect height="1663.2" width="2790" x="388.2775" y="7.2"/>
  </clipPath>
 </defs>
</svg>
