<?xml version="1.0" encoding="utf-8" standalone="no"?>
<!DOCTYPE svg PUBLIC "-//W3C//DTD SVG 1.1//EN"
  "http://www.w3.org/Graphics/SVG/1.1/DTD/svg11.dtd">
<!-- Created with matplotlib (http://matplotlib.org/) -->
<svg height="1711pt" version="1.1" viewBox="0 0 3185 1711" width="3185pt" xmlns="http://www.w3.org/2000/svg" xmlns:xlink="http://www.w3.org/1999/xlink">
 <defs>
  <style type="text/css">
*{stroke-linecap:butt;stroke-linejoin:round;}
  </style>
 </defs>
 <g id="figure_1">
  <g id="patch_1">
   <path d="M -0 1711.8275 
L 3185.4775 1711.8275 
L 3185.4775 0 
L -0 0 
z
" style="fill:#ffffff;"/>
  </g>
  <g id="axes_1">
   <g id="patch_2">
    <path d="M 388.2775 1670.4 
L 3178.2775 1670.4 
L 3178.2775 7.2 
L 388.2775 7.2 
z
" style="fill:none;"/>
   </g>
   <g id="matplotlib.axis_1">
    <g id="xtick_1">
     <g id="line2d_1"/>
    </g>
    <g id="xtick_2">
     <g id="line2d_2"/>
    </g>
    <g id="xtick_3">
     <g id="line2d_3"/>
    </g>
    <g id="xtick_4">
     <g id="line2d_4"/>
    </g>
    <g id="xtick_5">
     <g id="line2d_5"/>
    </g>
    <g id="xtick_6">
     <g id="line2d_6"/>
    </g>
    <g id="xtick_7">
     <g id="line2d_7"/>
    </g>
    <g id="xtick_8">
     <g id="line2d_8"/>
    </g>
    <g id="xtick_9">
     <g id="line2d_9"/>
    </g>
    <g id="xtick_10">
     <g id="line2d_10"/>
    </g>
    <g id="text_1">
     <!-- Composition -->
     <defs>
      <path d="M 64.40625 67.28125 
L 64.40625 56.890625 
Q 59.421875 61.53125 53.78125 63.8125 
Q 48.140625 66.109375 41.796875 66.109375 
Q 29.296875 66.109375 22.65625 58.46875 
Q 16.015625 50.828125 16.015625 36.375 
Q 16.015625 21.96875 22.65625 14.328125 
Q 29.296875 6.6875 41.796875 6.6875 
Q 48.140625 6.6875 53.78125 8.984375 
Q 59.421875 11.28125 64.40625 15.921875 
L 64.40625 5.609375 
Q 59.234375 2.09375 53.4375 0.328125 
Q 47.65625 -1.421875 41.21875 -1.421875 
Q 24.65625 -1.421875 15.125 8.703125 
Q 5.609375 18.84375 5.609375 36.375 
Q 5.609375 53.953125 15.125 64.078125 
Q 24.65625 74.21875 41.21875 74.21875 
Q 47.75 74.21875 53.53125 72.484375 
Q 59.328125 70.75 64.40625 67.28125 
z
" id="DejaVuSans-43"/>
      <path d="M 30.609375 48.390625 
Q 23.390625 48.390625 19.1875 42.75 
Q 14.984375 37.109375 14.984375 27.296875 
Q 14.984375 17.484375 19.15625 11.84375 
Q 23.34375 6.203125 30.609375 6.203125 
Q 37.796875 6.203125 41.984375 11.859375 
Q 46.1875 17.53125 46.1875 27.296875 
Q 46.1875 37.015625 41.984375 42.703125 
Q 37.796875 48.390625 30.609375 48.390625 
z
M 30.609375 56 
Q 42.328125 56 49.015625 48.375 
Q 55.71875 40.765625 55.71875 27.296875 
Q 55.71875 13.875 49.015625 6.21875 
Q 42.328125 -1.421875 30.609375 -1.421875 
Q 18.84375 -1.421875 12.171875 6.21875 
Q 5.515625 13.875 5.515625 27.296875 
Q 5.515625 40.765625 12.171875 48.375 
Q 18.84375 56 30.609375 56 
z
" id="DejaVuSans-6f"/>
      <path d="M 52 44.1875 
Q 55.375 50.25 60.0625 53.125 
Q 64.75 56 71.09375 56 
Q 79.640625 56 84.28125 50.015625 
Q 88.921875 44.046875 88.921875 33.015625 
L 88.921875 0 
L 79.890625 0 
L 79.890625 32.71875 
Q 79.890625 40.578125 77.09375 44.375 
Q 74.3125 48.1875 68.609375 48.1875 
Q 61.625 48.1875 57.5625 43.546875 
Q 53.515625 38.921875 53.515625 30.90625 
L 53.515625 0 
L 44.484375 0 
L 44.484375 32.71875 
Q 44.484375 40.625 41.703125 44.40625 
Q 38.921875 48.1875 33.109375 48.1875 
Q 26.21875 48.1875 22.15625 43.53125 
Q 18.109375 38.875 18.109375 30.90625 
L 18.109375 0 
L 9.078125 0 
L 9.078125 54.6875 
L 18.109375 54.6875 
L 18.109375 46.1875 
Q 21.1875 51.21875 25.484375 53.609375 
Q 29.78125 56 35.6875 56 
Q 41.65625 56 45.828125 52.96875 
Q 50 49.953125 52 44.1875 
z
" id="DejaVuSans-6d"/>
      <path d="M 18.109375 8.203125 
L 18.109375 -20.796875 
L 9.078125 -20.796875 
L 9.078125 54.6875 
L 18.109375 54.6875 
L 18.109375 46.390625 
Q 20.953125 51.265625 25.265625 53.625 
Q 29.59375 56 35.59375 56 
Q 45.5625 56 51.78125 48.09375 
Q 58.015625 40.1875 58.015625 27.296875 
Q 58.015625 14.40625 51.78125 6.484375 
Q 45.5625 -1.421875 35.59375 -1.421875 
Q 29.59375 -1.421875 25.265625 0.953125 
Q 20.953125 3.328125 18.109375 8.203125 
z
M 48.6875 27.296875 
Q 48.6875 37.203125 44.609375 42.84375 
Q 40.53125 48.484375 33.40625 48.484375 
Q 26.265625 48.484375 22.1875 42.84375 
Q 18.109375 37.203125 18.109375 27.296875 
Q 18.109375 17.390625 22.1875 11.75 
Q 26.265625 6.109375 33.40625 6.109375 
Q 40.53125 6.109375 44.609375 11.75 
Q 48.6875 17.390625 48.6875 27.296875 
z
" id="DejaVuSans-70"/>
      <path d="M 44.28125 53.078125 
L 44.28125 44.578125 
Q 40.484375 46.53125 36.375 47.5 
Q 32.28125 48.484375 27.875 48.484375 
Q 21.1875 48.484375 17.84375 46.4375 
Q 14.5 44.390625 14.5 40.28125 
Q 14.5 37.15625 16.890625 35.375 
Q 19.28125 33.59375 26.515625 31.984375 
L 29.59375 31.296875 
Q 39.15625 29.25 43.1875 25.515625 
Q 47.21875 21.78125 47.21875 15.09375 
Q 47.21875 7.46875 41.1875 3.015625 
Q 35.15625 -1.421875 24.609375 -1.421875 
Q 20.21875 -1.421875 15.453125 -0.5625 
Q 10.6875 0.296875 5.421875 2 
L 5.421875 11.28125 
Q 10.40625 8.6875 15.234375 7.390625 
Q 20.0625 6.109375 24.8125 6.109375 
Q 31.15625 6.109375 34.5625 8.28125 
Q 37.984375 10.453125 37.984375 14.40625 
Q 37.984375 18.0625 35.515625 20.015625 
Q 33.0625 21.96875 24.703125 23.78125 
L 21.578125 24.515625 
Q 13.234375 26.265625 9.515625 29.90625 
Q 5.8125 33.546875 5.8125 39.890625 
Q 5.8125 47.609375 11.28125 51.796875 
Q 16.75 56 26.8125 56 
Q 31.78125 56 36.171875 55.265625 
Q 40.578125 54.546875 44.28125 53.078125 
z
" id="DejaVuSans-73"/>
      <path d="M 9.421875 54.6875 
L 18.40625 54.6875 
L 18.40625 0 
L 9.421875 0 
z
M 9.421875 75.984375 
L 18.40625 75.984375 
L 18.40625 64.59375 
L 9.421875 64.59375 
z
" id="DejaVuSans-69"/>
      <path d="M 18.3125 70.21875 
L 18.3125 54.6875 
L 36.8125 54.6875 
L 36.8125 47.703125 
L 18.3125 47.703125 
L 18.3125 18.015625 
Q 18.3125 11.328125 20.140625 9.421875 
Q 21.96875 7.515625 27.59375 7.515625 
L 36.8125 7.515625 
L 36.8125 0 
L 27.59375 0 
Q 17.1875 0 13.234375 3.875 
Q 9.28125 7.765625 9.28125 18.015625 
L 9.28125 47.703125 
L 2.6875 47.703125 
L 2.6875 54.6875 
L 9.28125 54.6875 
L 9.28125 70.21875 
z
" id="DejaVuSans-74"/>
      <path d="M 54.890625 33.015625 
L 54.890625 0 
L 45.90625 0 
L 45.90625 32.71875 
Q 45.90625 40.484375 42.875 44.328125 
Q 39.84375 48.1875 33.796875 48.1875 
Q 26.515625 48.1875 22.3125 43.546875 
Q 18.109375 38.921875 18.109375 30.90625 
L 18.109375 0 
L 9.078125 0 
L 9.078125 54.6875 
L 18.109375 54.6875 
L 18.109375 46.1875 
Q 21.34375 51.125 25.703125 53.5625 
Q 30.078125 56 35.796875 56 
Q 45.21875 56 50.046875 50.171875 
Q 54.890625 44.34375 54.890625 33.015625 
z
" id="DejaVuSans-6e"/>
     </defs>
     <g style="fill:#262626;" transform="translate(1708.335625 1699.63625)scale(0.24 -0.24)">
      <use xlink:href="#DejaVuSans-43"/>
      <use x="69.824219" xlink:href="#DejaVuSans-6f"/>
      <use x="131.005859" xlink:href="#DejaVuSans-6d"/>
      <use x="228.417969" xlink:href="#DejaVuSans-70"/>
      <use x="291.894531" xlink:href="#DejaVuSans-6f"/>
      <use x="353.076172" xlink:href="#DejaVuSans-73"/>
      <use x="405.175781" xlink:href="#DejaVuSans-69"/>
      <use x="432.958984" xlink:href="#DejaVuSans-74"/>
      <use x="472.167969" xlink:href="#DejaVuSans-69"/>
      <use x="499.951172" xlink:href="#DejaVuSans-6f"/>
      <use x="561.132812" xlink:href="#DejaVuSans-6e"/>
     </g>
    </g>
   </g>
   <g id="matplotlib.axis_2">
    <g id="ytick_1">
     <g id="line2d_11"/>
     <g id="text_2">
      <!-- AstraZeneca_P0001_T1 -->
      <defs>
       <path d="M 34.1875 63.1875 
L 20.796875 26.90625 
L 47.609375 26.90625 
z
M 28.609375 72.90625 
L 39.796875 72.90625 
L 67.578125 0 
L 57.328125 0 
L 50.6875 18.703125 
L 17.828125 18.703125 
L 11.1875 0 
L 0.78125 0 
z
" id="DejaVuSans-41"/>
       <path d="M 41.109375 46.296875 
Q 39.59375 47.171875 37.8125 47.578125 
Q 36.03125 48 33.890625 48 
Q 26.265625 48 22.1875 43.046875 
Q 18.109375 38.09375 18.109375 28.8125 
L 18.109375 0 
L 9.078125 0 
L 9.078125 54.6875 
L 18.109375 54.6875 
L 18.109375 46.1875 
Q 20.953125 51.171875 25.484375 53.578125 
Q 30.03125 56 36.53125 56 
Q 37.453125 56 38.578125 55.875 
Q 39.703125 55.765625 41.0625 55.515625 
z
" id="DejaVuSans-72"/>
       <path d="M 34.28125 27.484375 
Q 23.390625 27.484375 19.1875 25 
Q 14.984375 22.515625 14.984375 16.5 
Q 14.984375 11.71875 18.140625 8.90625 
Q 21.296875 6.109375 26.703125 6.109375 
Q 34.1875 6.109375 38.703125 11.40625 
Q 43.21875 16.703125 43.21875 25.484375 
L 43.21875 27.484375 
z
M 52.203125 31.203125 
L 52.203125 0 
L 43.21875 0 
L 43.21875 8.296875 
Q 40.140625 3.328125 35.546875 0.953125 
Q 30.953125 -1.421875 24.3125 -1.421875 
Q 15.921875 -1.421875 10.953125 3.296875 
Q 6 8.015625 6 15.921875 
Q 6 25.140625 12.171875 29.828125 
Q 18.359375 34.515625 30.609375 34.515625 
L 43.21875 34.515625 
L 43.21875 35.40625 
Q 43.21875 41.609375 39.140625 45 
Q 35.0625 48.390625 27.6875 48.390625 
Q 23 48.390625 18.546875 47.265625 
Q 14.109375 46.140625 10.015625 43.890625 
L 10.015625 52.203125 
Q 14.9375 54.109375 19.578125 55.046875 
Q 24.21875 56 28.609375 56 
Q 40.484375 56 46.34375 49.84375 
Q 52.203125 43.703125 52.203125 31.203125 
z
" id="DejaVuSans-61"/>
       <path d="M 5.609375 72.90625 
L 62.890625 72.90625 
L 62.890625 65.375 
L 16.796875 8.296875 
L 64.015625 8.296875 
L 64.015625 0 
L 4.5 0 
L 4.5 7.515625 
L 50.59375 64.59375 
L 5.609375 64.59375 
z
" id="DejaVuSans-5a"/>
       <path d="M 56.203125 29.59375 
L 56.203125 25.203125 
L 14.890625 25.203125 
Q 15.484375 15.921875 20.484375 11.0625 
Q 25.484375 6.203125 34.421875 6.203125 
Q 39.59375 6.203125 44.453125 7.46875 
Q 49.3125 8.734375 54.109375 11.28125 
L 54.109375 2.78125 
Q 49.265625 0.734375 44.1875 -0.34375 
Q 39.109375 -1.421875 33.890625 -1.421875 
Q 20.796875 -1.421875 13.15625 6.1875 
Q 5.515625 13.8125 5.515625 26.8125 
Q 5.515625 40.234375 12.765625 48.109375 
Q 20.015625 56 32.328125 56 
Q 43.359375 56 49.78125 48.890625 
Q 56.203125 41.796875 56.203125 29.59375 
z
M 47.21875 32.234375 
Q 47.125 39.59375 43.09375 43.984375 
Q 39.0625 48.390625 32.421875 48.390625 
Q 24.90625 48.390625 20.390625 44.140625 
Q 15.875 39.890625 15.1875 32.171875 
z
" id="DejaVuSans-65"/>
       <path d="M 48.78125 52.59375 
L 48.78125 44.1875 
Q 44.96875 46.296875 41.140625 47.34375 
Q 37.3125 48.390625 33.40625 48.390625 
Q 24.65625 48.390625 19.8125 42.84375 
Q 14.984375 37.3125 14.984375 27.296875 
Q 14.984375 17.28125 19.8125 11.734375 
Q 24.65625 6.203125 33.40625 6.203125 
Q 37.3125 6.203125 41.140625 7.25 
Q 44.96875 8.296875 48.78125 10.40625 
L 48.78125 2.09375 
Q 45.015625 0.34375 40.984375 -0.53125 
Q 36.96875 -1.421875 32.421875 -1.421875 
Q 20.0625 -1.421875 12.78125 6.34375 
Q 5.515625 14.109375 5.515625 27.296875 
Q 5.515625 40.671875 12.859375 48.328125 
Q 20.21875 56 33.015625 56 
Q 37.15625 56 41.109375 55.140625 
Q 45.0625 54.296875 48.78125 52.59375 
z
" id="DejaVuSans-63"/>
       <path d="M 50.984375 -16.609375 
L 50.984375 -23.578125 
L -0.984375 -23.578125 
L -0.984375 -16.609375 
z
" id="DejaVuSans-5f"/>
       <path d="M 19.671875 64.796875 
L 19.671875 37.40625 
L 32.078125 37.40625 
Q 38.96875 37.40625 42.71875 40.96875 
Q 46.484375 44.53125 46.484375 51.125 
Q 46.484375 57.671875 42.71875 61.234375 
Q 38.96875 64.796875 32.078125 64.796875 
z
M 9.8125 72.90625 
L 32.078125 72.90625 
Q 44.34375 72.90625 50.609375 67.359375 
Q 56.890625 61.8125 56.890625 51.125 
Q 56.890625 40.328125 50.609375 34.8125 
Q 44.34375 29.296875 32.078125 29.296875 
L 19.671875 29.296875 
L 19.671875 0 
L 9.8125 0 
z
" id="DejaVuSans-50"/>
       <path d="M 31.78125 66.40625 
Q 24.171875 66.40625 20.328125 58.90625 
Q 16.5 51.421875 16.5 36.375 
Q 16.5 21.390625 20.328125 13.890625 
Q 24.171875 6.390625 31.78125 6.390625 
Q 39.453125 6.390625 43.28125 13.890625 
Q 47.125 21.390625 47.125 36.375 
Q 47.125 51.421875 43.28125 58.90625 
Q 39.453125 66.40625 31.78125 66.40625 
z
M 31.78125 74.21875 
Q 44.046875 74.21875 50.515625 64.515625 
Q 56.984375 54.828125 56.984375 36.375 
Q 56.984375 17.96875 50.515625 8.265625 
Q 44.046875 -1.421875 31.78125 -1.421875 
Q 19.53125 -1.421875 13.0625 8.265625 
Q 6.59375 17.96875 6.59375 36.375 
Q 6.59375 54.828125 13.0625 64.515625 
Q 19.53125 74.21875 31.78125 74.21875 
z
" id="DejaVuSans-30"/>
       <path d="M 12.40625 8.296875 
L 28.515625 8.296875 
L 28.515625 63.921875 
L 10.984375 60.40625 
L 10.984375 69.390625 
L 28.421875 72.90625 
L 38.28125 72.90625 
L 38.28125 8.296875 
L 54.390625 8.296875 
L 54.390625 0 
L 12.40625 0 
z
" id="DejaVuSans-31"/>
       <path d="M -0.296875 72.90625 
L 61.375 72.90625 
L 61.375 64.59375 
L 35.5 64.59375 
L 35.5 0 
L 25.59375 0 
L 25.59375 64.59375 
L -0.296875 64.59375 
z
" id="DejaVuSans-54"/>
      </defs>
      <g style="fill:#262626;" transform="translate(99.80625 1591.769408)scale(0.24 -0.24)">
       <use xlink:href="#DejaVuSans-41"/>
       <use x="68.408203" xlink:href="#DejaVuSans-73"/>
       <use x="120.507812" xlink:href="#DejaVuSans-74"/>
       <use x="159.716797" xlink:href="#DejaVuSans-72"/>
       <use x="200.830078" xlink:href="#DejaVuSans-61"/>
       <use x="262.109375" xlink:href="#DejaVuSans-5a"/>
       <use x="330.615234" xlink:href="#DejaVuSans-65"/>
       <use x="392.138672" xlink:href="#DejaVuSans-6e"/>
       <use x="455.517578" xlink:href="#DejaVuSans-65"/>
       <use x="517.041016" xlink:href="#DejaVuSans-63"/>
       <use x="572.021484" xlink:href="#DejaVuSans-61"/>
       <use x="633.300781" xlink:href="#DejaVuSans-5f"/>
       <use x="683.300781" xlink:href="#DejaVuSans-50"/>
       <use x="743.603516" xlink:href="#DejaVuSans-30"/>
       <use x="807.226562" xlink:href="#DejaVuSans-30"/>
       <use x="870.849609" xlink:href="#DejaVuSans-30"/>
       <use x="934.472656" xlink:href="#DejaVuSans-31"/>
       <use x="998.095703" xlink:href="#DejaVuSans-5f"/>
       <use x="1048.095703" xlink:href="#DejaVuSans-54"/>
       <use x="1109.179688" xlink:href="#DejaVuSans-31"/>
      </g>
     </g>
    </g>
    <g id="ytick_2">
     <g id="line2d_12"/>
     <g id="text_3">
      <!-- Biodesix_P0001_T1 -->
      <defs>
       <path d="M 19.671875 34.8125 
L 19.671875 8.109375 
L 35.5 8.109375 
Q 43.453125 8.109375 47.28125 11.40625 
Q 51.125 14.703125 51.125 21.484375 
Q 51.125 28.328125 47.28125 31.5625 
Q 43.453125 34.8125 35.5 34.8125 
z
M 19.671875 64.796875 
L 19.671875 42.828125 
L 34.28125 42.828125 
Q 41.5 42.828125 45.03125 45.53125 
Q 48.578125 48.25 48.578125 53.8125 
Q 48.578125 59.328125 45.03125 62.0625 
Q 41.5 64.796875 34.28125 64.796875 
z
M 9.8125 72.90625 
L 35.015625 72.90625 
Q 46.296875 72.90625 52.390625 68.21875 
Q 58.5 63.53125 58.5 54.890625 
Q 58.5 48.1875 55.375 44.234375 
Q 52.25 40.28125 46.1875 39.3125 
Q 53.46875 37.75 57.5 32.78125 
Q 61.53125 27.828125 61.53125 20.40625 
Q 61.53125 10.640625 54.890625 5.3125 
Q 48.25 0 35.984375 0 
L 9.8125 0 
z
" id="DejaVuSans-42"/>
       <path d="M 45.40625 46.390625 
L 45.40625 75.984375 
L 54.390625 75.984375 
L 54.390625 0 
L 45.40625 0 
L 45.40625 8.203125 
Q 42.578125 3.328125 38.25 0.953125 
Q 33.9375 -1.421875 27.875 -1.421875 
Q 17.96875 -1.421875 11.734375 6.484375 
Q 5.515625 14.40625 5.515625 27.296875 
Q 5.515625 40.1875 11.734375 48.09375 
Q 17.96875 56 27.875 56 
Q 33.9375 56 38.25 53.625 
Q 42.578125 51.265625 45.40625 46.390625 
z
M 14.796875 27.296875 
Q 14.796875 17.390625 18.875 11.75 
Q 22.953125 6.109375 30.078125 6.109375 
Q 37.203125 6.109375 41.296875 11.75 
Q 45.40625 17.390625 45.40625 27.296875 
Q 45.40625 37.203125 41.296875 42.84375 
Q 37.203125 48.484375 30.078125 48.484375 
Q 22.953125 48.484375 18.875 42.84375 
Q 14.796875 37.203125 14.796875 27.296875 
z
" id="DejaVuSans-64"/>
       <path d="M 54.890625 54.6875 
L 35.109375 28.078125 
L 55.90625 0 
L 45.3125 0 
L 29.390625 21.484375 
L 13.484375 0 
L 2.875 0 
L 24.125 28.609375 
L 4.6875 54.6875 
L 15.28125 54.6875 
L 29.78125 35.203125 
L 44.28125 54.6875 
z
" id="DejaVuSans-78"/>
      </defs>
      <g style="fill:#262626;" transform="translate(150.6 1504.444441)scale(0.24 -0.24)">
       <use xlink:href="#DejaVuSans-42"/>
       <use x="68.603516" xlink:href="#DejaVuSans-69"/>
       <use x="96.386719" xlink:href="#DejaVuSans-6f"/>
       <use x="157.568359" xlink:href="#DejaVuSans-64"/>
       <use x="221.044922" xlink:href="#DejaVuSans-65"/>
       <use x="282.568359" xlink:href="#DejaVuSans-73"/>
       <use x="334.667969" xlink:href="#DejaVuSans-69"/>
       <use x="362.451172" xlink:href="#DejaVuSans-78"/>
       <use x="421.630859" xlink:href="#DejaVuSans-5f"/>
       <use x="471.630859" xlink:href="#DejaVuSans-50"/>
       <use x="531.933594" xlink:href="#DejaVuSans-30"/>
       <use x="595.556641" xlink:href="#DejaVuSans-30"/>
       <use x="659.179688" xlink:href="#DejaVuSans-30"/>
       <use x="722.802734" xlink:href="#DejaVuSans-31"/>
       <use x="786.425781" xlink:href="#DejaVuSans-5f"/>
       <use x="836.425781" xlink:href="#DejaVuSans-54"/>
       <use x="897.509766" xlink:href="#DejaVuSans-31"/>
      </g>
     </g>
    </g>
    <g id="ytick_3">
     <g id="line2d_13"/>
     <g id="text_4">
      <!-- CytoLumina_P0001_T1 -->
      <defs>
       <path d="M 32.171875 -5.078125 
Q 28.375 -14.84375 24.75 -17.8125 
Q 21.140625 -20.796875 15.09375 -20.796875 
L 7.90625 -20.796875 
L 7.90625 -13.28125 
L 13.1875 -13.28125 
Q 16.890625 -13.28125 18.9375 -11.515625 
Q 21 -9.765625 23.484375 -3.21875 
L 25.09375 0.875 
L 2.984375 54.6875 
L 12.5 54.6875 
L 29.59375 11.921875 
L 46.6875 54.6875 
L 56.203125 54.6875 
z
" id="DejaVuSans-79"/>
       <path d="M 9.8125 72.90625 
L 19.671875 72.90625 
L 19.671875 8.296875 
L 55.171875 8.296875 
L 55.171875 0 
L 9.8125 0 
z
" id="DejaVuSans-4c"/>
       <path d="M 8.5 21.578125 
L 8.5 54.6875 
L 17.484375 54.6875 
L 17.484375 21.921875 
Q 17.484375 14.15625 20.5 10.265625 
Q 23.53125 6.390625 29.59375 6.390625 
Q 36.859375 6.390625 41.078125 11.03125 
Q 45.3125 15.671875 45.3125 23.6875 
L 45.3125 54.6875 
L 54.296875 54.6875 
L 54.296875 0 
L 45.3125 0 
L 45.3125 8.40625 
Q 42.046875 3.421875 37.71875 1 
Q 33.40625 -1.421875 27.6875 -1.421875 
Q 18.265625 -1.421875 13.375 4.4375 
Q 8.5 10.296875 8.5 21.578125 
z
M 31.109375 56 
z
" id="DejaVuSans-75"/>
      </defs>
      <g style="fill:#262626;" transform="translate(108.19875 1416.907599)scale(0.24 -0.24)">
       <use xlink:href="#DejaVuSans-43"/>
       <use x="69.824219" xlink:href="#DejaVuSans-79"/>
       <use x="129.003906" xlink:href="#DejaVuSans-74"/>
       <use x="168.212891" xlink:href="#DejaVuSans-6f"/>
       <use x="229.394531" xlink:href="#DejaVuSans-4c"/>
       <use x="285.091797" xlink:href="#DejaVuSans-75"/>
       <use x="348.470703" xlink:href="#DejaVuSans-6d"/>
       <use x="445.882812" xlink:href="#DejaVuSans-69"/>
       <use x="473.666016" xlink:href="#DejaVuSans-6e"/>
       <use x="537.044922" xlink:href="#DejaVuSans-61"/>
       <use x="598.324219" xlink:href="#DejaVuSans-5f"/>
       <use x="648.324219" xlink:href="#DejaVuSans-50"/>
       <use x="708.626953" xlink:href="#DejaVuSans-30"/>
       <use x="772.25" xlink:href="#DejaVuSans-30"/>
       <use x="835.873047" xlink:href="#DejaVuSans-30"/>
       <use x="899.496094" xlink:href="#DejaVuSans-31"/>
       <use x="963.119141" xlink:href="#DejaVuSans-5f"/>
       <use x="1013.119141" xlink:href="#DejaVuSans-54"/>
       <use x="1074.203125" xlink:href="#DejaVuSans-31"/>
      </g>
     </g>
    </g>
    <g id="ytick_4">
     <g id="line2d_14"/>
     <g id="text_5">
      <!-- EpicSciences_P001_T1 -->
      <defs>
       <path d="M 9.8125 72.90625 
L 55.90625 72.90625 
L 55.90625 64.59375 
L 19.671875 64.59375 
L 19.671875 43.015625 
L 54.390625 43.015625 
L 54.390625 34.71875 
L 19.671875 34.71875 
L 19.671875 8.296875 
L 56.78125 8.296875 
L 56.78125 0 
L 9.8125 0 
z
" id="DejaVuSans-45"/>
       <path d="M 53.515625 70.515625 
L 53.515625 60.890625 
Q 47.90625 63.578125 42.921875 64.890625 
Q 37.9375 66.21875 33.296875 66.21875 
Q 25.25 66.21875 20.875 63.09375 
Q 16.5 59.96875 16.5 54.203125 
Q 16.5 49.359375 19.40625 46.890625 
Q 22.3125 44.4375 30.421875 42.921875 
L 36.375 41.703125 
Q 47.40625 39.59375 52.65625 34.296875 
Q 57.90625 29 57.90625 20.125 
Q 57.90625 9.515625 50.796875 4.046875 
Q 43.703125 -1.421875 29.984375 -1.421875 
Q 24.8125 -1.421875 18.96875 -0.25 
Q 13.140625 0.921875 6.890625 3.21875 
L 6.890625 13.375 
Q 12.890625 10.015625 18.65625 8.296875 
Q 24.421875 6.59375 29.984375 6.59375 
Q 38.421875 6.59375 43.015625 9.90625 
Q 47.609375 13.234375 47.609375 19.390625 
Q 47.609375 24.75 44.3125 27.78125 
Q 41.015625 30.8125 33.5 32.328125 
L 27.484375 33.5 
Q 16.453125 35.6875 11.515625 40.375 
Q 6.59375 45.0625 6.59375 53.421875 
Q 6.59375 63.09375 13.40625 68.65625 
Q 20.21875 74.21875 32.171875 74.21875 
Q 37.3125 74.21875 42.625 73.28125 
Q 47.953125 72.359375 53.515625 70.515625 
z
" id="DejaVuSans-53"/>
      </defs>
      <g style="fill:#262626;" transform="translate(111.25875 1329.370757)scale(0.24 -0.24)">
       <use xlink:href="#DejaVuSans-45"/>
       <use x="63.183594" xlink:href="#DejaVuSans-70"/>
       <use x="126.660156" xlink:href="#DejaVuSans-69"/>
       <use x="154.443359" xlink:href="#DejaVuSans-63"/>
       <use x="209.423828" xlink:href="#DejaVuSans-53"/>
       <use x="272.900391" xlink:href="#DejaVuSans-63"/>
       <use x="327.880859" xlink:href="#DejaVuSans-69"/>
       <use x="355.664062" xlink:href="#DejaVuSans-65"/>
       <use x="417.1875" xlink:href="#DejaVuSans-6e"/>
       <use x="480.566406" xlink:href="#DejaVuSans-63"/>
       <use x="535.546875" xlink:href="#DejaVuSans-65"/>
       <use x="597.070312" xlink:href="#DejaVuSans-73"/>
       <use x="649.169922" xlink:href="#DejaVuSans-5f"/>
       <use x="699.169922" xlink:href="#DejaVuSans-50"/>
       <use x="759.472656" xlink:href="#DejaVuSans-30"/>
       <use x="823.095703" xlink:href="#DejaVuSans-30"/>
       <use x="886.71875" xlink:href="#DejaVuSans-31"/>
       <use x="950.341797" xlink:href="#DejaVuSans-5f"/>
       <use x="1000.341797" xlink:href="#DejaVuSans-54"/>
       <use x="1061.425781" xlink:href="#DejaVuSans-31"/>
      </g>
     </g>
    </g>
    <g id="ytick_5">
     <g id="line2d_15"/>
     <g id="text_6">
      <!-- FoundationMedicine_ClinAV_T1 -->
      <defs>
       <path d="M 9.8125 72.90625 
L 51.703125 72.90625 
L 51.703125 64.59375 
L 19.671875 64.59375 
L 19.671875 43.109375 
L 48.578125 43.109375 
L 48.578125 34.8125 
L 19.671875 34.8125 
L 19.671875 0 
L 9.8125 0 
z
" id="DejaVuSans-46"/>
       <path d="M 9.8125 72.90625 
L 24.515625 72.90625 
L 43.109375 23.296875 
L 61.8125 72.90625 
L 76.515625 72.90625 
L 76.515625 0 
L 66.890625 0 
L 66.890625 64.015625 
L 48.09375 14.015625 
L 38.1875 14.015625 
L 19.390625 64.015625 
L 19.390625 0 
L 9.8125 0 
z
" id="DejaVuSans-4d"/>
       <path d="M 9.421875 75.984375 
L 18.40625 75.984375 
L 18.40625 0 
L 9.421875 0 
z
" id="DejaVuSans-6c"/>
       <path d="M 28.609375 0 
L 0.78125 72.90625 
L 11.078125 72.90625 
L 34.1875 11.53125 
L 57.328125 72.90625 
L 67.578125 72.90625 
L 39.796875 0 
z
" id="DejaVuSans-56"/>
      </defs>
      <g style="fill:#262626;" transform="translate(7.2 1241.833914)scale(0.24 -0.24)">
       <use xlink:href="#DejaVuSans-46"/>
       <use x="57.472656" xlink:href="#DejaVuSans-6f"/>
       <use x="118.654297" xlink:href="#DejaVuSans-75"/>
       <use x="182.033203" xlink:href="#DejaVuSans-6e"/>
       <use x="245.412109" xlink:href="#DejaVuSans-64"/>
       <use x="308.888672" xlink:href="#DejaVuSans-61"/>
       <use x="370.167969" xlink:href="#DejaVuSans-74"/>
       <use x="409.376953" xlink:href="#DejaVuSans-69"/>
       <use x="437.160156" xlink:href="#DejaVuSans-6f"/>
       <use x="498.341797" xlink:href="#DejaVuSans-6e"/>
       <use x="561.720703" xlink:href="#DejaVuSans-4d"/>
       <use x="648" xlink:href="#DejaVuSans-65"/>
       <use x="709.523438" xlink:href="#DejaVuSans-64"/>
       <use x="773" xlink:href="#DejaVuSans-69"/>
       <use x="800.783203" xlink:href="#DejaVuSans-63"/>
       <use x="855.763672" xlink:href="#DejaVuSans-69"/>
       <use x="883.546875" xlink:href="#DejaVuSans-6e"/>
       <use x="946.925781" xlink:href="#DejaVuSans-65"/>
       <use x="1008.449219" xlink:href="#DejaVuSans-5f"/>
       <use x="1058.449219" xlink:href="#DejaVuSans-43"/>
       <use x="1128.273438" xlink:href="#DejaVuSans-6c"/>
       <use x="1156.056641" xlink:href="#DejaVuSans-69"/>
       <use x="1183.839844" xlink:href="#DejaVuSans-6e"/>
       <use x="1247.21875" xlink:href="#DejaVuSans-41"/>
       <use x="1315.533203" xlink:href="#DejaVuSans-56"/>
       <use x="1383.941406" xlink:href="#DejaVuSans-5f"/>
       <use x="1433.941406" xlink:href="#DejaVuSans-54"/>
       <use x="1495.025391" xlink:href="#DejaVuSans-31"/>
      </g>
     </g>
    </g>
    <g id="ytick_6">
     <g id="line2d_16"/>
     <g id="text_7">
      <!-- GenomicHealth_P0001_T1 -->
      <defs>
       <path d="M 59.515625 10.40625 
L 59.515625 29.984375 
L 43.40625 29.984375 
L 43.40625 38.09375 
L 69.28125 38.09375 
L 69.28125 6.78125 
Q 63.578125 2.734375 56.6875 0.65625 
Q 49.8125 -1.421875 42 -1.421875 
Q 24.90625 -1.421875 15.25 8.5625 
Q 5.609375 18.5625 5.609375 36.375 
Q 5.609375 54.25 15.25 64.234375 
Q 24.90625 74.21875 42 74.21875 
Q 49.125 74.21875 55.546875 72.453125 
Q 61.96875 70.703125 67.390625 67.28125 
L 67.390625 56.78125 
Q 61.921875 61.421875 55.765625 63.765625 
Q 49.609375 66.109375 42.828125 66.109375 
Q 29.4375 66.109375 22.71875 58.640625 
Q 16.015625 51.171875 16.015625 36.375 
Q 16.015625 21.625 22.71875 14.15625 
Q 29.4375 6.6875 42.828125 6.6875 
Q 48.046875 6.6875 52.140625 7.59375 
Q 56.25 8.5 59.515625 10.40625 
z
" id="DejaVuSans-47"/>
       <path d="M 9.8125 72.90625 
L 19.671875 72.90625 
L 19.671875 43.015625 
L 55.515625 43.015625 
L 55.515625 72.90625 
L 65.375 72.90625 
L 65.375 0 
L 55.515625 0 
L 55.515625 34.71875 
L 19.671875 34.71875 
L 19.671875 0 
L 9.8125 0 
z
" id="DejaVuSans-48"/>
       <path d="M 54.890625 33.015625 
L 54.890625 0 
L 45.90625 0 
L 45.90625 32.71875 
Q 45.90625 40.484375 42.875 44.328125 
Q 39.84375 48.1875 33.796875 48.1875 
Q 26.515625 48.1875 22.3125 43.546875 
Q 18.109375 38.921875 18.109375 30.90625 
L 18.109375 0 
L 9.078125 0 
L 9.078125 75.984375 
L 18.109375 75.984375 
L 18.109375 46.1875 
Q 21.34375 51.125 25.703125 53.5625 
Q 30.078125 56 35.796875 56 
Q 45.21875 56 50.046875 50.171875 
Q 54.890625 44.34375 54.890625 33.015625 
z
" id="DejaVuSans-68"/>
      </defs>
      <g style="fill:#262626;" transform="translate(66.4875 1154.297072)scale(0.24 -0.24)">
       <use xlink:href="#DejaVuSans-47"/>
       <use x="77.490234" xlink:href="#DejaVuSans-65"/>
       <use x="139.013672" xlink:href="#DejaVuSans-6e"/>
       <use x="202.392578" xlink:href="#DejaVuSans-6f"/>
       <use x="263.574219" xlink:href="#DejaVuSans-6d"/>
       <use x="360.986328" xlink:href="#DejaVuSans-69"/>
       <use x="388.769531" xlink:href="#DejaVuSans-63"/>
       <use x="443.75" xlink:href="#DejaVuSans-48"/>
       <use x="518.945312" xlink:href="#DejaVuSans-65"/>
       <use x="580.46875" xlink:href="#DejaVuSans-61"/>
       <use x="641.748047" xlink:href="#DejaVuSans-6c"/>
       <use x="669.53125" xlink:href="#DejaVuSans-74"/>
       <use x="708.740234" xlink:href="#DejaVuSans-68"/>
       <use x="772.119141" xlink:href="#DejaVuSans-5f"/>
       <use x="822.119141" xlink:href="#DejaVuSans-50"/>
       <use x="882.421875" xlink:href="#DejaVuSans-30"/>
       <use x="946.044922" xlink:href="#DejaVuSans-30"/>
       <use x="1009.667969" xlink:href="#DejaVuSans-30"/>
       <use x="1073.291016" xlink:href="#DejaVuSans-31"/>
       <use x="1136.914062" xlink:href="#DejaVuSans-5f"/>
       <use x="1186.914062" xlink:href="#DejaVuSans-54"/>
       <use x="1247.998047" xlink:href="#DejaVuSans-31"/>
      </g>
     </g>
    </g>
    <g id="ytick_7">
     <g id="line2d_17"/>
     <g id="text_8">
      <!-- Guardant_P0001_T1 -->
      <g style="fill:#262626;" transform="translate(138.85875 1066.76023)scale(0.24 -0.24)">
       <use xlink:href="#DejaVuSans-47"/>
       <use x="77.490234" xlink:href="#DejaVuSans-75"/>
       <use x="140.869141" xlink:href="#DejaVuSans-61"/>
       <use x="202.148438" xlink:href="#DejaVuSans-72"/>
       <use x="243.246094" xlink:href="#DejaVuSans-64"/>
       <use x="306.722656" xlink:href="#DejaVuSans-61"/>
       <use x="368.001953" xlink:href="#DejaVuSans-6e"/>
       <use x="431.380859" xlink:href="#DejaVuSans-74"/>
       <use x="470.589844" xlink:href="#DejaVuSans-5f"/>
       <use x="520.589844" xlink:href="#DejaVuSans-50"/>
       <use x="580.892578" xlink:href="#DejaVuSans-30"/>
       <use x="644.515625" xlink:href="#DejaVuSans-30"/>
       <use x="708.138672" xlink:href="#DejaVuSans-30"/>
       <use x="771.761719" xlink:href="#DejaVuSans-31"/>
       <use x="835.384766" xlink:href="#DejaVuSans-5f"/>
       <use x="885.384766" xlink:href="#DejaVuSans-54"/>
       <use x="946.46875" xlink:href="#DejaVuSans-31"/>
      </g>
     </g>
    </g>
    <g id="ytick_8">
     <g id="line2d_18"/>
     <g id="text_9">
      <!-- Lexent_P0001_T1  -->
      <defs>
       <path id="DejaVuSans-20"/>
      </defs>
      <g style="fill:#262626;" transform="translate(162.4575 979.011513)scale(0.24 -0.24)">
       <use xlink:href="#DejaVuSans-4c"/>
       <use x="55.697266" xlink:href="#DejaVuSans-65"/>
       <use x="117.205078" xlink:href="#DejaVuSans-78"/>
       <use x="176.337891" xlink:href="#DejaVuSans-65"/>
       <use x="237.861328" xlink:href="#DejaVuSans-6e"/>
       <use x="301.240234" xlink:href="#DejaVuSans-74"/>
       <use x="340.449219" xlink:href="#DejaVuSans-5f"/>
       <use x="390.449219" xlink:href="#DejaVuSans-50"/>
       <use x="450.751953" xlink:href="#DejaVuSans-30"/>
       <use x="514.375" xlink:href="#DejaVuSans-30"/>
       <use x="577.998047" xlink:href="#DejaVuSans-30"/>
       <use x="641.621094" xlink:href="#DejaVuSans-31"/>
       <use x="705.244141" xlink:href="#DejaVuSans-5f"/>
       <use x="755.244141" xlink:href="#DejaVuSans-54"/>
       <use x="816.328125" xlink:href="#DejaVuSans-31"/>
       <use x="879.951172" xlink:href="#DejaVuSans-20"/>
      </g>
     </g>
    </g>
    <g id="ytick_9">
     <g id="line2d_19"/>
     <g id="text_10">
      <!-- MSKCC_P0001_T1 -->
      <defs>
       <path d="M 9.8125 72.90625 
L 19.671875 72.90625 
L 19.671875 42.09375 
L 52.390625 72.90625 
L 65.09375 72.90625 
L 28.90625 38.921875 
L 67.671875 0 
L 54.6875 0 
L 19.671875 35.109375 
L 19.671875 0 
L 9.8125 0 
z
" id="DejaVuSans-4b"/>
      </defs>
      <g style="fill:#262626;" transform="translate(166.61625 891.474671)scale(0.24 -0.24)">
       <use xlink:href="#DejaVuSans-4d"/>
       <use x="86.279297" xlink:href="#DejaVuSans-53"/>
       <use x="149.755859" xlink:href="#DejaVuSans-4b"/>
       <use x="215.253906" xlink:href="#DejaVuSans-43"/>
       <use x="285.078125" xlink:href="#DejaVuSans-43"/>
       <use x="354.902344" xlink:href="#DejaVuSans-5f"/>
       <use x="404.902344" xlink:href="#DejaVuSans-50"/>
       <use x="465.205078" xlink:href="#DejaVuSans-30"/>
       <use x="528.828125" xlink:href="#DejaVuSans-30"/>
       <use x="592.451172" xlink:href="#DejaVuSans-30"/>
       <use x="656.074219" xlink:href="#DejaVuSans-31"/>
       <use x="719.697266" xlink:href="#DejaVuSans-5f"/>
       <use x="769.697266" xlink:href="#DejaVuSans-54"/>
       <use x="830.78125" xlink:href="#DejaVuSans-31"/>
      </g>
     </g>
    </g>
    <g id="ytick_10">
     <g id="line2d_20"/>
     <g id="text_11">
      <!-- Novartis_Contrived1_T1 -->
      <defs>
       <path d="M 9.8125 72.90625 
L 23.09375 72.90625 
L 55.421875 11.921875 
L 55.421875 72.90625 
L 64.984375 72.90625 
L 64.984375 0 
L 51.703125 0 
L 19.390625 60.984375 
L 19.390625 0 
L 9.8125 0 
z
" id="DejaVuSans-4e"/>
       <path d="M 2.984375 54.6875 
L 12.5 54.6875 
L 29.59375 8.796875 
L 46.6875 54.6875 
L 56.203125 54.6875 
L 35.6875 0 
L 23.484375 0 
z
" id="DejaVuSans-76"/>
      </defs>
      <g style="fill:#262626;" transform="translate(95.27625 804.149704)scale(0.24 -0.24)">
       <use xlink:href="#DejaVuSans-4e"/>
       <use x="74.804688" xlink:href="#DejaVuSans-6f"/>
       <use x="135.986328" xlink:href="#DejaVuSans-76"/>
       <use x="195.166016" xlink:href="#DejaVuSans-61"/>
       <use x="256.445312" xlink:href="#DejaVuSans-72"/>
       <use x="297.558594" xlink:href="#DejaVuSans-74"/>
       <use x="336.767578" xlink:href="#DejaVuSans-69"/>
       <use x="364.550781" xlink:href="#DejaVuSans-73"/>
       <use x="416.650391" xlink:href="#DejaVuSans-5f"/>
       <use x="466.650391" xlink:href="#DejaVuSans-43"/>
       <use x="536.474609" xlink:href="#DejaVuSans-6f"/>
       <use x="597.65625" xlink:href="#DejaVuSans-6e"/>
       <use x="661.035156" xlink:href="#DejaVuSans-74"/>
       <use x="700.244141" xlink:href="#DejaVuSans-72"/>
       <use x="741.357422" xlink:href="#DejaVuSans-69"/>
       <use x="769.140625" xlink:href="#DejaVuSans-76"/>
       <use x="828.320312" xlink:href="#DejaVuSans-65"/>
       <use x="889.84375" xlink:href="#DejaVuSans-64"/>
       <use x="953.320312" xlink:href="#DejaVuSans-31"/>
       <use x="1016.943359" xlink:href="#DejaVuSans-5f"/>
       <use x="1066.943359" xlink:href="#DejaVuSans-54"/>
       <use x="1128.027344" xlink:href="#DejaVuSans-31"/>
      </g>
     </g>
    </g>
    <g id="ytick_11">
     <g id="line2d_21"/>
     <g id="text_12">
      <!-- PersonalGenomeDx_P0001_T1 -->
      <defs>
       <path d="M 19.671875 64.796875 
L 19.671875 8.109375 
L 31.59375 8.109375 
Q 46.6875 8.109375 53.6875 14.9375 
Q 60.6875 21.78125 60.6875 36.53125 
Q 60.6875 51.171875 53.6875 57.984375 
Q 46.6875 64.796875 31.59375 64.796875 
z
M 9.8125 72.90625 
L 30.078125 72.90625 
Q 51.265625 72.90625 61.171875 64.09375 
Q 71.09375 55.28125 71.09375 36.53125 
Q 71.09375 17.671875 61.125 8.828125 
Q 51.171875 0 30.078125 0 
L 9.8125 0 
z
" id="DejaVuSans-44"/>
      </defs>
      <g style="fill:#262626;" transform="translate(14.8425 716.612862)scale(0.24 -0.24)">
       <use xlink:href="#DejaVuSans-50"/>
       <use x="60.255859" xlink:href="#DejaVuSans-65"/>
       <use x="121.779297" xlink:href="#DejaVuSans-72"/>
       <use x="162.892578" xlink:href="#DejaVuSans-73"/>
       <use x="214.992188" xlink:href="#DejaVuSans-6f"/>
       <use x="276.173828" xlink:href="#DejaVuSans-6e"/>
       <use x="339.552734" xlink:href="#DejaVuSans-61"/>
       <use x="400.832031" xlink:href="#DejaVuSans-6c"/>
       <use x="428.615234" xlink:href="#DejaVuSans-47"/>
       <use x="506.105469" xlink:href="#DejaVuSans-65"/>
       <use x="567.628906" xlink:href="#DejaVuSans-6e"/>
       <use x="631.007812" xlink:href="#DejaVuSans-6f"/>
       <use x="692.189453" xlink:href="#DejaVuSans-6d"/>
       <use x="789.601562" xlink:href="#DejaVuSans-65"/>
       <use x="851.125" xlink:href="#DejaVuSans-44"/>
       <use x="928.126953" xlink:href="#DejaVuSans-78"/>
       <use x="987.306641" xlink:href="#DejaVuSans-5f"/>
       <use x="1037.306641" xlink:href="#DejaVuSans-50"/>
       <use x="1097.609375" xlink:href="#DejaVuSans-30"/>
       <use x="1161.232422" xlink:href="#DejaVuSans-30"/>
       <use x="1224.855469" xlink:href="#DejaVuSans-30"/>
       <use x="1288.478516" xlink:href="#DejaVuSans-31"/>
       <use x="1352.101562" xlink:href="#DejaVuSans-5f"/>
       <use x="1402.101562" xlink:href="#DejaVuSans-54"/>
       <use x="1463.185547" xlink:href="#DejaVuSans-31"/>
      </g>
     </g>
    </g>
    <g id="ytick_12">
     <g id="line2d_22"/>
     <g id="text_13">
      <!-- Provista_P0001_T1 -->
      <g style="fill:#262626;" transform="translate(155.295 629.07602)scale(0.24 -0.24)">
       <use xlink:href="#DejaVuSans-50"/>
       <use x="60.287109" xlink:href="#DejaVuSans-72"/>
       <use x="101.369141" xlink:href="#DejaVuSans-6f"/>
       <use x="162.550781" xlink:href="#DejaVuSans-76"/>
       <use x="221.730469" xlink:href="#DejaVuSans-69"/>
       <use x="249.513672" xlink:href="#DejaVuSans-73"/>
       <use x="301.613281" xlink:href="#DejaVuSans-74"/>
       <use x="340.822266" xlink:href="#DejaVuSans-61"/>
       <use x="402.101562" xlink:href="#DejaVuSans-5f"/>
       <use x="452.101562" xlink:href="#DejaVuSans-50"/>
       <use x="512.404297" xlink:href="#DejaVuSans-30"/>
       <use x="576.027344" xlink:href="#DejaVuSans-30"/>
       <use x="639.650391" xlink:href="#DejaVuSans-30"/>
       <use x="703.273438" xlink:href="#DejaVuSans-31"/>
       <use x="766.896484" xlink:href="#DejaVuSans-5f"/>
       <use x="816.896484" xlink:href="#DejaVuSans-54"/>
       <use x="877.980469" xlink:href="#DejaVuSans-31"/>
      </g>
     </g>
    </g>
    <g id="ytick_13">
     <g id="line2d_23"/>
     <g id="text_14">
      <!-- ThermoFisher_P0001_T1 -->
      <g style="fill:#262626;" transform="translate(86.445 541.539178)scale(0.24 -0.24)">
       <use xlink:href="#DejaVuSans-54"/>
       <use x="61.083984" xlink:href="#DejaVuSans-68"/>
       <use x="124.462891" xlink:href="#DejaVuSans-65"/>
       <use x="185.986328" xlink:href="#DejaVuSans-72"/>
       <use x="227.083984" xlink:href="#DejaVuSans-6d"/>
       <use x="324.496094" xlink:href="#DejaVuSans-6f"/>
       <use x="385.677734" xlink:href="#DejaVuSans-46"/>
       <use x="443.087891" xlink:href="#DejaVuSans-69"/>
       <use x="470.871094" xlink:href="#DejaVuSans-73"/>
       <use x="522.970703" xlink:href="#DejaVuSans-68"/>
       <use x="586.349609" xlink:href="#DejaVuSans-65"/>
       <use x="647.873047" xlink:href="#DejaVuSans-72"/>
       <use x="688.986328" xlink:href="#DejaVuSans-5f"/>
       <use x="738.986328" xlink:href="#DejaVuSans-50"/>
       <use x="799.289062" xlink:href="#DejaVuSans-30"/>
       <use x="862.912109" xlink:href="#DejaVuSans-30"/>
       <use x="926.535156" xlink:href="#DejaVuSans-30"/>
       <use x="990.158203" xlink:href="#DejaVuSans-31"/>
       <use x="1053.78125" xlink:href="#DejaVuSans-5f"/>
       <use x="1103.78125" xlink:href="#DejaVuSans-54"/>
       <use x="1164.865234" xlink:href="#DejaVuSans-31"/>
      </g>
     </g>
    </g>
    <g id="ytick_14">
     <g id="line2d_24"/>
     <g id="text_15">
      <!-- ThermoFisher_P0002_T1 -->
      <defs>
       <path d="M 19.1875 8.296875 
L 53.609375 8.296875 
L 53.609375 0 
L 7.328125 0 
L 7.328125 8.296875 
Q 12.9375 14.109375 22.625 23.890625 
Q 32.328125 33.6875 34.8125 36.53125 
Q 39.546875 41.84375 41.421875 45.53125 
Q 43.3125 49.21875 43.3125 52.78125 
Q 43.3125 58.59375 39.234375 62.25 
Q 35.15625 65.921875 28.609375 65.921875 
Q 23.96875 65.921875 18.8125 64.3125 
Q 13.671875 62.703125 7.8125 59.421875 
L 7.8125 69.390625 
Q 13.765625 71.78125 18.9375 73 
Q 24.125 74.21875 28.421875 74.21875 
Q 39.75 74.21875 46.484375 68.546875 
Q 53.21875 62.890625 53.21875 53.421875 
Q 53.21875 48.921875 51.53125 44.890625 
Q 49.859375 40.875 45.40625 35.40625 
Q 44.1875 33.984375 37.640625 27.21875 
Q 31.109375 20.453125 19.1875 8.296875 
z
" id="DejaVuSans-32"/>
      </defs>
      <g style="fill:#262626;" transform="translate(86.445 454.002336)scale(0.24 -0.24)">
       <use xlink:href="#DejaVuSans-54"/>
       <use x="61.083984" xlink:href="#DejaVuSans-68"/>
       <use x="124.462891" xlink:href="#DejaVuSans-65"/>
       <use x="185.986328" xlink:href="#DejaVuSans-72"/>
       <use x="227.083984" xlink:href="#DejaVuSans-6d"/>
       <use x="324.496094" xlink:href="#DejaVuSans-6f"/>
       <use x="385.677734" xlink:href="#DejaVuSans-46"/>
       <use x="443.087891" xlink:href="#DejaVuSans-69"/>
       <use x="470.871094" xlink:href="#DejaVuSans-73"/>
       <use x="522.970703" xlink:href="#DejaVuSans-68"/>
       <use x="586.349609" xlink:href="#DejaVuSans-65"/>
       <use x="647.873047" xlink:href="#DejaVuSans-72"/>
       <use x="688.986328" xlink:href="#DejaVuSans-5f"/>
       <use x="738.986328" xlink:href="#DejaVuSans-50"/>
       <use x="799.289062" xlink:href="#DejaVuSans-30"/>
       <use x="862.912109" xlink:href="#DejaVuSans-30"/>
       <use x="926.535156" xlink:href="#DejaVuSans-30"/>
       <use x="990.158203" xlink:href="#DejaVuSans-32"/>
       <use x="1053.78125" xlink:href="#DejaVuSans-5f"/>
       <use x="1103.78125" xlink:href="#DejaVuSans-54"/>
       <use x="1164.865234" xlink:href="#DejaVuSans-31"/>
      </g>
     </g>
    </g>
    <g id="ytick_15">
     <g id="line2d_25"/>
     <g id="text_16">
      <!-- UAMS_P0001_T1 -->
      <defs>
       <path d="M 8.6875 72.90625 
L 18.609375 72.90625 
L 18.609375 28.609375 
Q 18.609375 16.890625 22.84375 11.734375 
Q 27.09375 6.59375 36.625 6.59375 
Q 46.09375 6.59375 50.34375 11.734375 
Q 54.59375 16.890625 54.59375 28.609375 
L 54.59375 72.90625 
L 64.5 72.90625 
L 64.5 27.390625 
Q 64.5 13.140625 57.4375 5.859375 
Q 50.390625 -1.421875 36.625 -1.421875 
Q 22.796875 -1.421875 15.734375 5.859375 
Q 8.6875 13.140625 8.6875 27.390625 
z
" id="DejaVuSans-55"/>
      </defs>
      <g style="fill:#262626;" transform="translate(181.87125 366.253618)scale(0.24 -0.24)">
       <use xlink:href="#DejaVuSans-55"/>
       <use x="73.193359" xlink:href="#DejaVuSans-41"/>
       <use x="141.601562" xlink:href="#DejaVuSans-4d"/>
       <use x="227.880859" xlink:href="#DejaVuSans-53"/>
       <use x="291.357422" xlink:href="#DejaVuSans-5f"/>
       <use x="341.357422" xlink:href="#DejaVuSans-50"/>
       <use x="401.660156" xlink:href="#DejaVuSans-30"/>
       <use x="465.283203" xlink:href="#DejaVuSans-30"/>
       <use x="528.90625" xlink:href="#DejaVuSans-30"/>
       <use x="592.529297" xlink:href="#DejaVuSans-31"/>
       <use x="656.152344" xlink:href="#DejaVuSans-5f"/>
       <use x="706.152344" xlink:href="#DejaVuSans-54"/>
       <use x="767.236328" xlink:href="#DejaVuSans-31"/>
      </g>
     </g>
    </g>
    <g id="ytick_16">
     <g id="line2d_26"/>
     <g id="text_17">
      <!-- UMich_P0001_T1 -->
      <g style="fill:#262626;" transform="translate(178.45125 278.928651)scale(0.24 -0.24)">
       <use xlink:href="#DejaVuSans-55"/>
       <use x="73.193359" xlink:href="#DejaVuSans-4d"/>
       <use x="159.472656" xlink:href="#DejaVuSans-69"/>
       <use x="187.255859" xlink:href="#DejaVuSans-63"/>
       <use x="242.236328" xlink:href="#DejaVuSans-68"/>
       <use x="305.615234" xlink:href="#DejaVuSans-5f"/>
       <use x="355.615234" xlink:href="#DejaVuSans-50"/>
       <use x="415.917969" xlink:href="#DejaVuSans-30"/>
       <use x="479.541016" xlink:href="#DejaVuSans-30"/>
       <use x="543.164062" xlink:href="#DejaVuSans-30"/>
       <use x="606.787109" xlink:href="#DejaVuSans-31"/>
       <use x="670.410156" xlink:href="#DejaVuSans-5f"/>
       <use x="720.410156" xlink:href="#DejaVuSans-54"/>
       <use x="781.494141" xlink:href="#DejaVuSans-31"/>
      </g>
     </g>
    </g>
    <g id="ytick_17">
     <g id="line2d_27"/>
     <g id="text_18">
      <!-- UMich_P0002_T1 -->
      <g style="fill:#262626;" transform="translate(178.45125 191.391809)scale(0.24 -0.24)">
       <use xlink:href="#DejaVuSans-55"/>
       <use x="73.193359" xlink:href="#DejaVuSans-4d"/>
       <use x="159.472656" xlink:href="#DejaVuSans-69"/>
       <use x="187.255859" xlink:href="#DejaVuSans-63"/>
       <use x="242.236328" xlink:href="#DejaVuSans-68"/>
       <use x="305.615234" xlink:href="#DejaVuSans-5f"/>
       <use x="355.615234" xlink:href="#DejaVuSans-50"/>
       <use x="415.917969" xlink:href="#DejaVuSans-30"/>
       <use x="479.541016" xlink:href="#DejaVuSans-30"/>
       <use x="543.164062" xlink:href="#DejaVuSans-30"/>
       <use x="606.787109" xlink:href="#DejaVuSans-32"/>
       <use x="670.410156" xlink:href="#DejaVuSans-5f"/>
       <use x="720.410156" xlink:href="#DejaVuSans-54"/>
       <use x="781.494141" xlink:href="#DejaVuSans-31"/>
      </g>
     </g>
    </g>
    <g id="ytick_18">
     <g id="line2d_28"/>
     <g id="text_19">
      <!-- USC_OPT1_T1 -->
      <defs>
       <path d="M 39.40625 66.21875 
Q 28.65625 66.21875 22.328125 58.203125 
Q 16.015625 50.203125 16.015625 36.375 
Q 16.015625 22.609375 22.328125 14.59375 
Q 28.65625 6.59375 39.40625 6.59375 
Q 50.140625 6.59375 56.421875 14.59375 
Q 62.703125 22.609375 62.703125 36.375 
Q 62.703125 50.203125 56.421875 58.203125 
Q 50.140625 66.21875 39.40625 66.21875 
z
M 39.40625 74.21875 
Q 54.734375 74.21875 63.90625 63.9375 
Q 73.09375 53.65625 73.09375 36.375 
Q 73.09375 19.140625 63.90625 8.859375 
Q 54.734375 -1.421875 39.40625 -1.421875 
Q 24.03125 -1.421875 14.8125 8.828125 
Q 5.609375 19.09375 5.609375 36.375 
Q 5.609375 53.65625 14.8125 63.9375 
Q 24.03125 74.21875 39.40625 74.21875 
z
" id="DejaVuSans-4f"/>
      </defs>
      <g style="fill:#262626;" transform="translate(214.49625 103.643092)scale(0.24 -0.24)">
       <use xlink:href="#DejaVuSans-55"/>
       <use x="73.193359" xlink:href="#DejaVuSans-53"/>
       <use x="136.669922" xlink:href="#DejaVuSans-43"/>
       <use x="206.494141" xlink:href="#DejaVuSans-5f"/>
       <use x="256.494141" xlink:href="#DejaVuSans-4f"/>
       <use x="335.205078" xlink:href="#DejaVuSans-50"/>
       <use x="395.507812" xlink:href="#DejaVuSans-54"/>
       <use x="456.591797" xlink:href="#DejaVuSans-31"/>
       <use x="520.214844" xlink:href="#DejaVuSans-5f"/>
       <use x="570.214844" xlink:href="#DejaVuSans-54"/>
       <use x="631.298828" xlink:href="#DejaVuSans-31"/>
      </g>
     </g>
    </g>
   </g>
   <g id="PathCollection_1">
    <path clip-path="url(#p8e93ef8061)" d="M 994.799239 1600.653605 
C 999.517321 1600.653605 1004.042797 1598.779091 1007.378985 1595.442904 
C 1010.715172 1592.106716 1012.589686 1587.58124 1012.589686 1582.863158 
C 1012.589686 1578.145076 1010.715172 1573.6196 1007.378985 1570.283412 
C 1004.042797 1566.947225 999.517321 1565.072711 994.799239 1565.072711 
C 990.081157 1565.072711 985.555681 1566.947225 982.219494 1570.283412 
C 978.883306 1573.6196 977.008792 1578.145076 977.008792 1582.863158 
C 977.008792 1587.58124 978.883306 1592.106716 982.219494 1595.442904 
C 985.555681 1598.779091 990.081157 1600.653605 994.799239 1600.653605 
z
" style="fill:#ff7f0e;fill-opacity:0.5;stroke:#ffffff;stroke-opacity:0.5;stroke-width:2;"/>
    <path clip-path="url(#p8e93ef8061)" d="M 1722.625326 1600.751702 
C 1727.369423 1600.751702 1731.919853 1598.866852 1735.274437 1595.512269 
C 1738.62902 1592.157685 1740.51387 1587.607255 1740.51387 1582.863158 
C 1740.51387 1578.119061 1738.62902 1573.568631 1735.274437 1570.214047 
C 1731.919853 1566.859464 1727.369423 1564.974614 1722.625326 1564.974614 
C 1717.881229 1564.974614 1713.330799 1566.859464 1709.976215 1570.214047 
C 1706.621632 1573.568631 1704.736782 1578.119061 1704.736782 1582.863158 
C 1704.736782 1587.607255 1706.621632 1592.157685 1709.976215 1595.512269 
C 1713.330799 1598.866852 1717.881229 1600.751702 1722.625326 1600.751702 
z
" style="fill:#98df8a;fill-opacity:0.5;stroke:#ffffff;stroke-opacity:0.5;stroke-width:2;"/>
    <path clip-path="url(#p8e93ef8061)" d="M 2207.842717 1600.751702 
C 2212.586815 1600.751702 2217.137245 1598.866852 2220.491828 1595.512269 
C 2223.846411 1592.157685 2225.731261 1587.607255 2225.731261 1582.863158 
C 2225.731261 1578.119061 2223.846411 1573.568631 2220.491828 1570.214047 
C 2217.137245 1566.859464 2212.586815 1564.974614 2207.842717 1564.974614 
C 2203.09862 1564.974614 2198.54819 1566.859464 2195.193607 1570.214047 
C 2191.839023 1573.568631 2189.954174 1578.119061 2189.954174 1582.863158 
C 2189.954174 1587.607255 2191.839023 1592.157685 2195.193607 1595.512269 
C 2198.54819 1598.866852 2203.09862 1600.751702 2207.842717 1600.751702 
z
" style="fill:#ff9896;fill-opacity:0.5;stroke:#ffffff;stroke-opacity:0.5;stroke-width:2;"/>
    <path clip-path="url(#p8e93ef8061)" d="M 2450.451413 1548.288566 
C 2464.497166 1548.288566 2477.969532 1542.70813 2487.90138 1532.776282 
C 2497.833227 1522.844435 2503.413664 1509.372069 2503.413664 1495.326316 
C 2503.413664 1481.280563 2497.833227 1467.808196 2487.90138 1457.876349 
C 2477.969532 1447.944502 2464.497166 1442.364065 2450.451413 1442.364065 
C 2436.40566 1442.364065 2422.933294 1447.944502 2413.001446 1457.876349 
C 2403.069599 1467.808196 2397.489162 1481.280563 2397.489162 1495.326316 
C 2397.489162 1509.372069 2403.069599 1522.844435 2413.001446 1532.776282 
C 2422.933294 1542.70813 2436.40566 1548.288566 2450.451413 1548.288566 
z
" style="fill:#9467bd;fill-opacity:0.5;stroke:#ffffff;stroke-opacity:0.5;stroke-width:2;"/>
    <path clip-path="url(#p8e93ef8061)" d="M 1237.407935 1427.089733 
C 1242.526423 1427.089733 1247.435961 1425.056136 1251.055279 1421.436818 
C 1254.674597 1417.8175 1256.708194 1412.907962 1256.708194 1407.789474 
C 1256.708194 1402.670985 1254.674597 1397.761448 1251.055279 1394.14213 
C 1247.435961 1390.522812 1242.526423 1388.489215 1237.407935 1388.489215 
C 1232.289446 1388.489215 1227.379909 1390.522812 1223.760591 1394.14213 
C 1220.141273 1397.761448 1218.107676 1402.670985 1218.107676 1407.789474 
C 1218.107676 1412.907962 1220.141273 1417.8175 1223.760591 1421.436818 
C 1227.379909 1425.056136 1232.289446 1427.089733 1237.407935 1427.089733 
z
" style="fill:#ffbb78;fill-opacity:0.5;stroke:#ffffff;stroke-opacity:0.5;stroke-width:2;"/>
    <path clip-path="url(#p8e93ef8061)" d="M 1237.407935 1340.001049 
C 1242.645276 1340.001049 1247.668815 1337.920231 1251.372175 1334.216872 
C 1255.075535 1330.513512 1257.156352 1325.489973 1257.156352 1320.252632 
C 1257.156352 1315.01529 1255.075535 1309.991751 1251.372175 1306.288392 
C 1247.668815 1302.585032 1242.645276 1300.504214 1237.407935 1300.504214 
C 1232.170593 1300.504214 1227.147054 1302.585032 1223.443695 1306.288392 
C 1219.740335 1309.991751 1217.659517 1315.01529 1217.659517 1320.252632 
C 1217.659517 1325.489973 1219.740335 1330.513512 1223.443695 1334.216872 
C 1227.147054 1337.920231 1232.170593 1340.001049 1237.407935 1340.001049 
z
" style="fill:#ffbb78;fill-opacity:0.5;stroke:#ffffff;stroke-opacity:0.5;stroke-width:2;"/>
    <path clip-path="url(#p8e93ef8061)" d="M 509.581848 1250.108317 
C 514.1944 1250.108317 518.618655 1248.27573 521.880222 1245.014163 
C 525.141789 1241.752596 526.974375 1237.328342 526.974375 1232.715789 
C 526.974375 1228.103237 525.141789 1223.678982 521.880222 1220.417416 
C 518.618655 1217.155849 514.1944 1215.323262 509.581848 1215.323262 
C 504.969296 1215.323262 500.545041 1217.155849 497.283474 1220.417416 
C 494.021907 1223.678982 492.189321 1228.103237 492.189321 1232.715789 
C 492.189321 1237.328342 494.021907 1241.752596 497.283474 1245.014163 
C 500.545041 1248.27573 504.969296 1250.108317 509.581848 1250.108317 
z
" style="fill:#1f77b4;fill-opacity:0.5;stroke:#ffffff;stroke-opacity:0.5;stroke-width:2;"/>
    <path clip-path="url(#p8e93ef8061)" d="M 2207.842717 1263.137821 
C 2215.910734 1263.137821 2223.649393 1259.932364 2229.354342 1254.227414 
C 2235.059292 1248.522465 2238.264749 1240.783807 2238.264749 1232.715789 
C 2238.264749 1224.647772 2235.059292 1216.909114 2229.354342 1211.204165 
C 2223.649393 1205.499215 2215.910734 1202.293758 2207.842717 1202.293758 
C 2199.7747 1202.293758 2192.036042 1205.499215 2186.331093 1211.204165 
C 2180.626143 1216.909114 2177.420686 1224.647772 2177.420686 1232.715789 
C 2177.420686 1240.783807 2180.626143 1248.522465 2186.331093 1254.227414 
C 2192.036042 1259.932364 2199.7747 1263.137821 2207.842717 1263.137821 
z
" style="fill:#ff9896;fill-opacity:0.5;stroke:#ffffff;stroke-opacity:0.5;stroke-width:2;"/>
    <path clip-path="url(#p8e93ef8061)" d="M 2693.060109 1248.963866 
C 2697.369149 1248.963866 2701.502282 1247.251866 2704.549234 1244.204915 
C 2707.596186 1241.157963 2709.308186 1237.02483 2709.308186 1232.715789 
C 2709.308186 1228.406749 2707.596186 1224.273616 2704.549234 1221.226664 
C 2701.502282 1218.179713 2697.369149 1216.467713 2693.060109 1216.467713 
C 2688.751068 1216.467713 2684.617935 1218.179713 2681.570983 1221.226664 
C 2678.524032 1224.273616 2676.812032 1228.406749 2676.812032 1232.715789 
C 2676.812032 1237.02483 2678.524032 1241.157963 2681.570983 1244.204915 
C 2684.617935 1247.251866 2688.751068 1248.963866 2693.060109 1248.963866 
z
" style="fill:#c5b0d5;fill-opacity:0.5;stroke:#ffffff;stroke-opacity:0.5;stroke-width:2;"/>
    <path clip-path="url(#p8e93ef8061)" d="M 752.190543 1161.31896 
C 756.470925 1161.31896 760.576569 1159.618346 763.603256 1156.59166 
C 766.629942 1153.564973 768.330556 1149.459329 768.330556 1145.178947 
C 768.330556 1140.898566 766.629942 1136.792922 763.603256 1133.766235 
C 760.576569 1130.739549 756.470925 1129.038935 752.190543 1129.038935 
C 747.910162 1129.038935 743.804518 1130.739549 740.777831 1133.766235 
C 737.751145 1136.792922 736.050531 1140.898566 736.050531 1145.178947 
C 736.050531 1149.459329 737.751145 1153.564973 740.777831 1156.59166 
C 743.804518 1159.618346 747.910162 1161.31896 752.190543 1161.31896 
z
" style="fill:#aec7e8;fill-opacity:0.5;stroke:#ffffff;stroke-opacity:0.5;stroke-width:2;"/>
    <path clip-path="url(#p8e93ef8061)" d="M 2207.842717 1167.506061 
C 2213.763937 1167.506061 2219.443436 1165.153535 2223.630371 1160.966601 
C 2227.817305 1156.779666 2230.169831 1151.100167 2230.169831 1145.178947 
C 2230.169831 1139.257728 2227.817305 1133.578229 2223.630371 1129.391294 
C 2219.443436 1125.204359 2213.763937 1122.851834 2207.842717 1122.851834 
C 2201.921498 1122.851834 2196.241999 1125.204359 2192.055064 1129.391294 
C 2187.868129 1133.578229 2185.515604 1139.257728 2185.515604 1145.178947 
C 2185.515604 1151.100167 2187.868129 1156.779666 2192.055064 1160.966601 
C 2196.241999 1165.153535 2201.921498 1167.506061 2207.842717 1167.506061 
z
" style="fill:#ff9896;fill-opacity:0.5;stroke:#ffffff;stroke-opacity:0.5;stroke-width:2;"/>
    <path clip-path="url(#p8e93ef8061)" d="M 2207.842717 1102.363465 
C 2219.702961 1102.363465 2231.079036 1097.65134 2239.465494 1089.264882 
C 2247.851952 1080.878423 2252.564077 1069.502348 2252.564077 1057.642105 
C 2252.564077 1045.781862 2247.851952 1034.405787 2239.465494 1026.019329 
C 2231.079036 1017.63287 2219.702961 1012.920746 2207.842717 1012.920746 
C 2195.982474 1012.920746 2184.606399 1017.63287 2176.219941 1026.019329 
C 2167.833482 1034.405787 2163.121358 1045.781862 2163.121358 1057.642105 
C 2163.121358 1069.502348 2167.833482 1080.878423 2176.219941 1089.264882 
C 2184.606399 1097.65134 2195.982474 1102.363465 2207.842717 1102.363465 
z
" style="fill:#ff9896;fill-opacity:0.5;stroke:#ffffff;stroke-opacity:0.5;stroke-width:2;"/>
    <path clip-path="url(#p8e93ef8061)" d="M 2693.060109 902.316839 
C 2698.29745 902.316839 2703.320989 900.236021 2707.024349 896.532661 
C 2710.727708 892.829301 2712.808526 887.805763 2712.808526 882.568421 
C 2712.808526 877.331079 2710.727708 872.307541 2707.024349 868.604181 
C 2703.320989 864.900821 2698.29745 862.820003 2693.060109 862.820003 
C 2687.822767 862.820003 2682.799228 864.900821 2679.095869 868.604181 
C 2675.392509 872.307541 2673.311691 877.331079 2673.311691 882.568421 
C 2673.311691 887.805763 2675.392509 892.829301 2679.095869 896.532661 
C 2682.799228 900.236021 2687.822767 902.316839 2693.060109 902.316839 
z
" style="fill:#c5b0d5;fill-opacity:0.5;stroke:#ffffff;stroke-opacity:0.5;stroke-width:2;"/>
    <path clip-path="url(#p8e93ef8061)" d="M 2207.842717 814.956438 
C 2213.126852 814.956438 2218.195273 812.857029 2221.93172 809.120582 
C 2225.668167 805.384135 2227.767576 800.315713 2227.767576 795.031579 
C 2227.767576 789.747445 2225.668167 784.679023 2221.93172 780.942576 
C 2218.195273 777.206129 2213.126852 775.10672 2207.842717 775.10672 
C 2202.558583 775.10672 2197.490162 777.206129 2193.753715 780.942576 
C 2190.017267 784.679023 2187.917859 789.747445 2187.917859 795.031579 
C 2187.917859 800.315713 2190.017267 805.384135 2193.753715 809.120582 
C 2197.490162 812.857029 2202.558583 814.956438 2207.842717 814.956438 
z
" style="fill:#ff9896;fill-opacity:0.5;stroke:#ffffff;stroke-opacity:0.5;stroke-width:2;"/>
    <path clip-path="url(#p8e93ef8061)" d="M 2207.842717 726.336181 
C 2212.839527 726.336181 2217.632352 724.350927 2221.16563 720.817649 
C 2224.698908 717.284372 2226.684161 712.491546 2226.684161 707.494737 
C 2226.684161 702.497928 2224.698908 697.705102 2221.16563 694.171824 
C 2217.632352 690.638547 2212.839527 688.653293 2207.842717 688.653293 
C 2202.845908 688.653293 2198.053083 690.638547 2194.519805 694.171824 
C 2190.986527 697.705102 2189.001274 702.497928 2189.001274 707.494737 
C 2189.001274 712.491546 2190.986527 717.284372 2194.519805 720.817649 
C 2198.053083 724.350927 2202.845908 726.336181 2207.842717 726.336181 
z
" style="fill:#ff9896;fill-opacity:0.5;stroke:#ffffff;stroke-opacity:0.5;stroke-width:2;"/>
    <path clip-path="url(#p8e93ef8061)" d="M 2450.451413 637.649701 
C 2455.143335 637.649701 2459.643719 635.78558 2462.961409 632.467891 
C 2466.279099 629.150201 2468.143219 624.649817 2468.143219 619.957895 
C 2468.143219 615.265973 2466.279099 610.765588 2462.961409 607.447899 
C 2459.643719 604.130209 2455.143335 602.266089 2450.451413 602.266089 
C 2445.759491 602.266089 2441.259107 604.130209 2437.941417 607.447899 
C 2434.623727 610.765588 2432.759607 615.265973 2432.759607 619.957895 
C 2432.759607 624.649817 2434.623727 629.150201 2437.941417 632.467891 
C 2441.259107 635.78558 2445.759491 637.649701 2450.451413 637.649701 
z
" style="fill:#9467bd;fill-opacity:0.5;stroke:#ffffff;stroke-opacity:0.5;stroke-width:2;"/>
    <path clip-path="url(#p8e93ef8061)" d="M 752.190543 548.669129 
C 756.499584 548.669129 760.632717 546.95713 763.679669 543.910178 
C 766.72662 540.863226 768.43862 536.730093 768.43862 532.421053 
C 768.43862 528.112012 766.72662 523.978879 763.679669 520.931927 
C 760.632717 517.884976 756.499584 516.172976 752.190543 516.172976 
C 747.881503 516.172976 743.74837 517.884976 740.701418 520.931927 
C 737.654467 523.978879 735.942467 528.112012 735.942467 532.421053 
C 735.942467 536.730093 737.654467 540.863226 740.701418 543.910178 
C 743.74837 546.95713 747.881503 548.669129 752.190543 548.669129 
z
" style="fill:#aec7e8;fill-opacity:0.5;stroke:#ffffff;stroke-opacity:0.5;stroke-width:2;"/>
    <path clip-path="url(#p8e93ef8061)" d="M 1722.625326 461.557543 
C 1727.047145 461.557543 1731.288454 459.800735 1734.415152 456.674037 
C 1737.541851 453.547338 1739.298658 449.30603 1739.298658 444.884211 
C 1739.298658 440.462391 1737.541851 436.221083 1734.415152 433.094384 
C 1731.288454 429.967686 1727.047145 428.210879 1722.625326 428.210879 
C 1718.203507 428.210879 1713.962198 429.967686 1710.8355 433.094384 
C 1707.708802 436.221083 1705.951994 440.462391 1705.951994 444.884211 
C 1705.951994 449.30603 1707.708802 453.547338 1710.8355 456.674037 
C 1713.962198 459.800735 1718.203507 461.557543 1722.625326 461.557543 
z
" style="fill:#98df8a;fill-opacity:0.5;stroke:#ffffff;stroke-opacity:0.5;stroke-width:2;"/>
    <path clip-path="url(#p8e93ef8061)" d="M 1965.234022 461.557543 
C 1969.655841 461.557543 1973.897149 459.800735 1977.023848 456.674037 
C 1980.150546 453.547338 1981.907354 449.30603 1981.907354 444.884211 
C 1981.907354 440.462391 1980.150546 436.221083 1977.023848 433.094384 
C 1973.897149 429.967686 1969.655841 428.210879 1965.234022 428.210879 
C 1960.812202 428.210879 1956.570894 429.967686 1953.444196 433.094384 
C 1950.317497 436.221083 1948.56069 440.462391 1948.56069 444.884211 
C 1948.56069 449.30603 1950.317497 453.547338 1953.444196 456.674037 
C 1956.570894 459.800735 1960.812202 461.557543 1965.234022 461.557543 
z
" style="fill:#d62728;fill-opacity:0.5;stroke:#ffffff;stroke-opacity:0.5;stroke-width:2;"/>
    <path clip-path="url(#p8e93ef8061)" d="M 994.799239 374.0207 
C 999.221058 374.0207 1003.462367 372.263893 1006.589065 369.137195 
C 1009.715764 366.010496 1011.472571 361.769188 1011.472571 357.347368 
C 1011.472571 352.925549 1009.715764 348.684241 1006.589065 345.557542 
C 1003.462367 342.430844 999.221058 340.674036 994.799239 340.674036 
C 990.37742 340.674036 986.136111 342.430844 983.009413 345.557542 
C 979.882715 348.684241 978.125907 352.925549 978.125907 357.347368 
C 978.125907 361.769188 979.882715 366.010496 983.009413 369.137195 
C 986.136111 372.263893 990.37742 374.0207 994.799239 374.0207 
z
" style="fill:#ff7f0e;fill-opacity:0.5;stroke:#ffffff;stroke-opacity:0.5;stroke-width:2;"/>
    <path clip-path="url(#p8e93ef8061)" d="M 1480.01663 374.0207 
C 1484.43845 374.0207 1488.679758 372.263893 1491.806457 369.137195 
C 1494.933155 366.010496 1496.689962 361.769188 1496.689962 357.347368 
C 1496.689962 352.925549 1494.933155 348.684241 1491.806457 345.557542 
C 1488.679758 342.430844 1484.43845 340.674036 1480.01663 340.674036 
C 1475.594811 340.674036 1471.353503 342.430844 1468.226804 345.557542 
C 1465.100106 348.684241 1463.343298 352.925549 1463.343298 357.347368 
C 1463.343298 361.769188 1465.100106 366.010496 1468.226804 369.137195 
C 1471.353503 372.263893 1475.594811 374.0207 1480.01663 374.0207 
z
" style="fill:#2ca02c;fill-opacity:0.5;stroke:#ffffff;stroke-opacity:0.5;stroke-width:2;"/>
    <path clip-path="url(#p8e93ef8061)" d="M 2207.842717 290.595136 
C 2213.35486 290.595136 2218.641982 288.405138 2222.539656 284.507465 
C 2226.437329 280.609791 2228.627327 275.322669 2228.627327 269.810526 
C 2228.627327 264.298383 2226.437329 259.011261 2222.539656 255.113588 
C 2218.641982 251.215914 2213.35486 249.025917 2207.842717 249.025917 
C 2202.330574 249.025917 2197.043453 251.215914 2193.145779 255.113588 
C 2189.248105 259.011261 2187.058108 264.298383 2187.058108 269.810526 
C 2187.058108 275.322669 2189.248105 280.609791 2193.145779 284.507465 
C 2197.043453 288.405138 2202.330574 290.595136 2207.842717 290.595136 
z
" style="fill:#ff9896;fill-opacity:0.5;stroke:#ffffff;stroke-opacity:0.5;stroke-width:2;"/>
    <path clip-path="url(#p8e93ef8061)" d="M 2207.842717 206.043413 
C 2214.146523 206.043413 2220.19299 203.538884 2224.650454 199.081421 
C 2229.107917 194.623957 2231.612446 188.57749 2231.612446 182.273684 
C 2231.612446 175.969878 2229.107917 169.923412 2224.650454 165.465948 
C 2220.19299 161.008484 2214.146523 158.503956 2207.842717 158.503956 
C 2201.538912 158.503956 2195.492445 161.008484 2191.034981 165.465948 
C 2186.577517 169.923412 2184.072989 175.969878 2184.072989 182.273684 
C 2184.072989 188.57749 2186.577517 194.623957 2191.034981 199.081421 
C 2195.492445 203.538884 2201.538912 206.043413 2207.842717 206.043413 
z
" style="fill:#ff9896;fill-opacity:0.5;stroke:#ffffff;stroke-opacity:0.5;stroke-width:2;"/>
    <path clip-path="url(#p8e93ef8061)" d="M 1237.407935 131.60824 
C 1247.186344 131.60824 1256.565571 127.723237 1263.47995 120.808858 
C 1270.39433 113.894478 1274.279333 104.515251 1274.279333 94.736842 
C 1274.279333 84.958433 1270.39433 75.579206 1263.47995 68.664826 
C 1256.565571 61.750447 1247.186344 57.865444 1237.407935 57.865444 
C 1227.629526 57.865444 1218.250299 61.750447 1211.335919 68.664826 
C 1204.42154 75.579206 1200.536537 84.958433 1200.536537 94.736842 
C 1200.536537 104.515251 1204.42154 113.894478 1211.335919 120.808858 
C 1218.250299 127.723237 1227.629526 131.60824 1237.407935 131.60824 
z
" style="fill:#ffbb78;fill-opacity:0.5;stroke:#ffffff;stroke-opacity:0.5;stroke-width:2;"/>
   </g>
   <g id="patch_3">
    <path d="M 388.2775 1670.4 
L 388.2775 7.2 
" style="fill:none;stroke:#262626;stroke-linecap:square;stroke-linejoin:miter;stroke-width:1.25;"/>
   </g>
   <g id="patch_4">
    <path d="M 3178.2775 1670.4 
L 3178.2775 7.2 
" style="fill:none;stroke:#262626;stroke-linecap:square;stroke-linejoin:miter;stroke-width:1.25;"/>
   </g>
   <g id="patch_5">
    <path d="M 388.2775 1670.4 
L 3178.2775 1670.4 
" style="fill:none;stroke:#262626;stroke-linecap:square;stroke-linejoin:miter;stroke-width:1.25;"/>
   </g>
   <g id="patch_6">
    <path d="M 388.2775 7.2 
L 3178.2775 7.2 
" style="fill:none;stroke:#262626;stroke-linecap:square;stroke-linejoin:miter;stroke-width:1.25;"/>
   </g>
   <g id="text_20">
    <!-- 19 -->
    <defs>
     <path d="M 10.984375 1.515625 
L 10.984375 10.5 
Q 14.703125 8.734375 18.5 7.8125 
Q 22.3125 6.890625 25.984375 6.890625 
Q 35.75 6.890625 40.890625 13.453125 
Q 46.046875 20.015625 46.78125 33.40625 
Q 43.953125 29.203125 39.59375 26.953125 
Q 35.25 24.703125 29.984375 24.703125 
Q 19.046875 24.703125 12.671875 31.3125 
Q 6.296875 37.9375 6.296875 49.421875 
Q 6.296875 60.640625 12.9375 67.421875 
Q 19.578125 74.21875 30.609375 74.21875 
Q 43.265625 74.21875 49.921875 64.515625 
Q 56.59375 54.828125 56.59375 36.375 
Q 56.59375 19.140625 48.40625 8.859375 
Q 40.234375 -1.421875 26.421875 -1.421875 
Q 22.703125 -1.421875 18.890625 -0.6875 
Q 15.09375 0.046875 10.984375 1.515625 
z
M 30.609375 32.421875 
Q 37.25 32.421875 41.125 36.953125 
Q 45.015625 41.5 45.015625 49.421875 
Q 45.015625 57.28125 41.125 61.84375 
Q 37.25 66.40625 30.609375 66.40625 
Q 23.96875 66.40625 20.09375 61.84375 
Q 16.21875 57.28125 16.21875 49.421875 
Q 16.21875 41.5 20.09375 36.953125 
Q 23.96875 32.421875 30.609375 32.421875 
z
" id="DejaVuSans-39"/>
    </defs>
    <g style="fill:#262626;" transform="translate(979.529239 1582.863158)scale(0.24 -0.24)">
     <use xlink:href="#DejaVuSans-31"/>
     <use x="63.623047" xlink:href="#DejaVuSans-39"/>
    </g>
   </g>
   <g id="text_21">
    <!-- 20 -->
    <g style="fill:#262626;" transform="translate(1707.355326 1582.863158)scale(0.24 -0.24)">
     <use xlink:href="#DejaVuSans-32"/>
     <use x="63.623047" xlink:href="#DejaVuSans-30"/>
    </g>
   </g>
   <g id="text_22">
    <!-- 20 -->
    <g style="fill:#262626;" transform="translate(2192.572717 1582.863158)scale(0.24 -0.24)">
     <use xlink:href="#DejaVuSans-32"/>
     <use x="63.623047" xlink:href="#DejaVuSans-30"/>
    </g>
   </g>
   <g id="text_23">
    <!-- 730 -->
    <defs>
     <path d="M 8.203125 72.90625 
L 55.078125 72.90625 
L 55.078125 68.703125 
L 28.609375 0 
L 18.3125 0 
L 43.21875 64.59375 
L 8.203125 64.59375 
z
" id="DejaVuSans-37"/>
     <path d="M 40.578125 39.3125 
Q 47.65625 37.796875 51.625 33 
Q 55.609375 28.21875 55.609375 21.1875 
Q 55.609375 10.40625 48.1875 4.484375 
Q 40.765625 -1.421875 27.09375 -1.421875 
Q 22.515625 -1.421875 17.65625 -0.515625 
Q 12.796875 0.390625 7.625 2.203125 
L 7.625 11.71875 
Q 11.71875 9.328125 16.59375 8.109375 
Q 21.484375 6.890625 26.8125 6.890625 
Q 36.078125 6.890625 40.9375 10.546875 
Q 45.796875 14.203125 45.796875 21.1875 
Q 45.796875 27.640625 41.28125 31.265625 
Q 36.765625 34.90625 28.71875 34.90625 
L 20.21875 34.90625 
L 20.21875 43.015625 
L 29.109375 43.015625 
Q 36.375 43.015625 40.234375 45.921875 
Q 44.09375 48.828125 44.09375 54.296875 
Q 44.09375 59.90625 40.109375 62.90625 
Q 36.140625 65.921875 28.71875 65.921875 
Q 24.65625 65.921875 20.015625 65.03125 
Q 15.375 64.15625 9.8125 62.3125 
L 9.8125 71.09375 
Q 15.4375 72.65625 20.34375 73.4375 
Q 25.25 74.21875 29.59375 74.21875 
Q 40.828125 74.21875 47.359375 69.109375 
Q 53.90625 64.015625 53.90625 55.328125 
Q 53.90625 49.265625 50.4375 45.09375 
Q 46.96875 40.921875 40.578125 39.3125 
z
" id="DejaVuSans-33"/>
    </defs>
    <g style="fill:#262626;" transform="translate(2427.546413 1495.326316)scale(0.24 -0.24)">
     <use xlink:href="#DejaVuSans-37"/>
     <use x="63.623047" xlink:href="#DejaVuSans-33"/>
     <use x="127.246094" xlink:href="#DejaVuSans-30"/>
    </g>
   </g>
   <g id="text_24">
    <!-- 35 -->
    <defs>
     <path d="M 10.796875 72.90625 
L 49.515625 72.90625 
L 49.515625 64.59375 
L 19.828125 64.59375 
L 19.828125 46.734375 
Q 21.96875 47.46875 24.109375 47.828125 
Q 26.265625 48.1875 28.421875 48.1875 
Q 40.625 48.1875 47.75 41.5 
Q 54.890625 34.8125 54.890625 23.390625 
Q 54.890625 11.625 47.5625 5.09375 
Q 40.234375 -1.421875 26.90625 -1.421875 
Q 22.3125 -1.421875 17.546875 -0.640625 
Q 12.796875 0.140625 7.71875 1.703125 
L 7.71875 11.625 
Q 12.109375 9.234375 16.796875 8.0625 
Q 21.484375 6.890625 26.703125 6.890625 
Q 35.15625 6.890625 40.078125 11.328125 
Q 45.015625 15.765625 45.015625 23.390625 
Q 45.015625 31 40.078125 35.4375 
Q 35.15625 39.890625 26.703125 39.890625 
Q 22.75 39.890625 18.8125 39.015625 
Q 14.890625 38.140625 10.796875 36.28125 
z
" id="DejaVuSans-35"/>
    </defs>
    <g style="fill:#262626;" transform="translate(1222.137935 1407.789474)scale(0.24 -0.24)">
     <use xlink:href="#DejaVuSans-33"/>
     <use x="63.623047" xlink:href="#DejaVuSans-35"/>
    </g>
   </g>
   <g id="text_25">
    <!-- 40 -->
    <defs>
     <path d="M 37.796875 64.3125 
L 12.890625 25.390625 
L 37.796875 25.390625 
z
M 35.203125 72.90625 
L 47.609375 72.90625 
L 47.609375 25.390625 
L 58.015625 25.390625 
L 58.015625 17.1875 
L 47.609375 17.1875 
L 47.609375 0 
L 37.796875 0 
L 37.796875 17.1875 
L 4.890625 17.1875 
L 4.890625 26.703125 
z
" id="DejaVuSans-34"/>
    </defs>
    <g style="fill:#262626;" transform="translate(1222.137935 1320.252632)scale(0.24 -0.24)">
     <use xlink:href="#DejaVuSans-34"/>
     <use x="63.623047" xlink:href="#DejaVuSans-30"/>
    </g>
   </g>
   <g id="text_26">
    <!-- 15 -->
    <g style="fill:#262626;" transform="translate(494.311848 1232.715789)scale(0.24 -0.24)">
     <use xlink:href="#DejaVuSans-31"/>
     <use x="63.623047" xlink:href="#DejaVuSans-35"/>
    </g>
   </g>
   <g id="text_27">
    <!-- 193 -->
    <g style="fill:#262626;" transform="translate(2184.937717 1232.715789)scale(0.24 -0.24)">
     <use xlink:href="#DejaVuSans-31"/>
     <use x="63.623047" xlink:href="#DejaVuSans-39"/>
     <use x="127.246094" xlink:href="#DejaVuSans-33"/>
    </g>
   </g>
   <g id="text_28">
    <!-- 4 -->
    <g style="fill:#262626;" transform="translate(2685.425109 1232.715789)scale(0.24 -0.24)">
     <use xlink:href="#DejaVuSans-34"/>
    </g>
   </g>
   <g id="text_29">
    <!-- 3 -->
    <g style="fill:#262626;" transform="translate(744.555543 1145.178947)scale(0.24 -0.24)">
     <use xlink:href="#DejaVuSans-33"/>
    </g>
   </g>
   <g id="text_30">
    <!-- 71 -->
    <g style="fill:#262626;" transform="translate(2192.572717 1145.178947)scale(0.24 -0.24)">
     <use xlink:href="#DejaVuSans-37"/>
     <use x="63.623047" xlink:href="#DejaVuSans-31"/>
    </g>
   </g>
   <g id="text_31">
    <!-- 500 -->
    <g style="fill:#262626;" transform="translate(2184.937717 1057.642105)scale(0.24 -0.24)">
     <use xlink:href="#DejaVuSans-35"/>
     <use x="63.623047" xlink:href="#DejaVuSans-30"/>
     <use x="127.246094" xlink:href="#DejaVuSans-30"/>
    </g>
   </g>
   <g id="text_32">
    <!-- 40 -->
    <g style="fill:#262626;" transform="translate(2677.790109 882.568421)scale(0.24 -0.24)">
     <use xlink:href="#DejaVuSans-34"/>
     <use x="63.623047" xlink:href="#DejaVuSans-30"/>
    </g>
   </g>
   <g id="text_33">
    <!-- 42 -->
    <g style="fill:#262626;" transform="translate(2192.572717 795.031579)scale(0.24 -0.24)">
     <use xlink:href="#DejaVuSans-34"/>
     <use x="63.623047" xlink:href="#DejaVuSans-32"/>
    </g>
   </g>
   <g id="text_34">
    <!-- 30 -->
    <g style="fill:#262626;" transform="translate(2192.572717 707.494737)scale(0.24 -0.24)">
     <use xlink:href="#DejaVuSans-33"/>
     <use x="63.623047" xlink:href="#DejaVuSans-30"/>
    </g>
   </g>
   <g id="text_35">
    <!-- 18 -->
    <defs>
     <path d="M 31.78125 34.625 
Q 24.75 34.625 20.71875 30.859375 
Q 16.703125 27.09375 16.703125 20.515625 
Q 16.703125 13.921875 20.71875 10.15625 
Q 24.75 6.390625 31.78125 6.390625 
Q 38.8125 6.390625 42.859375 10.171875 
Q 46.921875 13.96875 46.921875 20.515625 
Q 46.921875 27.09375 42.890625 30.859375 
Q 38.875 34.625 31.78125 34.625 
z
M 21.921875 38.8125 
Q 15.578125 40.375 12.03125 44.71875 
Q 8.5 49.078125 8.5 55.328125 
Q 8.5 64.0625 14.71875 69.140625 
Q 20.953125 74.21875 31.78125 74.21875 
Q 42.671875 74.21875 48.875 69.140625 
Q 55.078125 64.0625 55.078125 55.328125 
Q 55.078125 49.078125 51.53125 44.71875 
Q 48 40.375 41.703125 38.8125 
Q 48.828125 37.15625 52.796875 32.3125 
Q 56.78125 27.484375 56.78125 20.515625 
Q 56.78125 9.90625 50.3125 4.234375 
Q 43.84375 -1.421875 31.78125 -1.421875 
Q 19.734375 -1.421875 13.25 4.234375 
Q 6.78125 9.90625 6.78125 20.515625 
Q 6.78125 27.484375 10.78125 32.3125 
Q 14.796875 37.15625 21.921875 38.8125 
z
M 18.3125 54.390625 
Q 18.3125 48.734375 21.84375 45.5625 
Q 25.390625 42.390625 31.78125 42.390625 
Q 38.140625 42.390625 41.71875 45.5625 
Q 45.3125 48.734375 45.3125 54.390625 
Q 45.3125 60.0625 41.71875 63.234375 
Q 38.140625 66.40625 31.78125 66.40625 
Q 25.390625 66.40625 21.84375 63.234375 
Q 18.3125 60.0625 18.3125 54.390625 
z
" id="DejaVuSans-38"/>
    </defs>
    <g style="fill:#262626;" transform="translate(2435.181413 619.957895)scale(0.24 -0.24)">
     <use xlink:href="#DejaVuSans-31"/>
     <use x="63.623047" xlink:href="#DejaVuSans-38"/>
    </g>
   </g>
   <g id="text_36">
    <!-- 4 -->
    <g style="fill:#262626;" transform="translate(744.555543 532.421053)scale(0.24 -0.24)">
     <use xlink:href="#DejaVuSans-34"/>
    </g>
   </g>
   <g id="text_37">
    <!-- 8 -->
    <g style="fill:#262626;" transform="translate(1714.990326 444.884211)scale(0.24 -0.24)">
     <use xlink:href="#DejaVuSans-38"/>
    </g>
   </g>
   <g id="text_38">
    <!-- 8 -->
    <g style="fill:#262626;" transform="translate(1957.599022 444.884211)scale(0.24 -0.24)">
     <use xlink:href="#DejaVuSans-38"/>
    </g>
   </g>
   <g id="text_39">
    <!-- 8 -->
    <g style="fill:#262626;" transform="translate(987.164239 357.347368)scale(0.24 -0.24)">
     <use xlink:href="#DejaVuSans-38"/>
    </g>
   </g>
   <g id="text_40">
    <!-- 8 -->
    <g style="fill:#262626;" transform="translate(1472.38163 357.347368)scale(0.24 -0.24)">
     <use xlink:href="#DejaVuSans-38"/>
    </g>
   </g>
   <g id="text_41">
    <!-- 52 -->
    <g style="fill:#262626;" transform="translate(2192.572717 269.810526)scale(0.24 -0.24)">
     <use xlink:href="#DejaVuSans-35"/>
     <use x="63.623047" xlink:href="#DejaVuSans-32"/>
    </g>
   </g>
   <g id="text_42">
    <!-- 90 -->
    <g style="fill:#262626;" transform="translate(2192.572717 182.273684)scale(0.24 -0.24)">
     <use xlink:href="#DejaVuSans-39"/>
     <use x="63.623047" xlink:href="#DejaVuSans-30"/>
    </g>
   </g>
   <g id="text_43">
    <!-- 317 -->
    <g style="fill:#262626;" transform="translate(1214.502935 94.736842)scale(0.24 -0.24)">
     <use xlink:href="#DejaVuSans-33"/>
     <use x="63.623047" xlink:href="#DejaVuSans-31"/>
     <use x="127.246094" xlink:href="#DejaVuSans-37"/>
    </g>
   </g>
   <g id="legend_1">
    <g id="line2d_29">
     <path d="M 2672.71375 38.63625 
L 2720.71375 38.63625 
" style="fill:none;opacity:0.5;stroke:#ffffff;stroke-linecap:round;stroke-width:1.75;"/>
    </g>
    <g id="line2d_30">
     <defs>
      <path d="M 0 12 
C 3.182437 12 6.234958 10.735604 8.485281 8.485281 
C 10.735604 6.234958 12 3.182437 12 0 
C 12 -3.182437 10.735604 -6.234958 8.485281 -8.485281 
C 6.234958 -10.735604 3.182437 -12 0 -12 
C -3.182437 -12 -6.234958 -10.735604 -8.485281 -8.485281 
C -10.735604 -6.234958 -12 -3.182437 -12 0 
C -12 3.182437 -10.735604 6.234958 -8.485281 8.485281 
C -6.234958 10.735604 -3.182437 12 0 12 
z
" id="m13a62fc4a1"/>
     </defs>
     <g>
      <use style="fill:#1f77b4;opacity:0.5;" x="2696.71375" xlink:href="#m13a62fc4a1" y="38.63625"/>
     </g>
    </g>
    <g id="text_44">
     <!-- Unknown -->
     <defs>
      <path d="M 9.078125 75.984375 
L 18.109375 75.984375 
L 18.109375 31.109375 
L 44.921875 54.6875 
L 56.390625 54.6875 
L 27.390625 29.109375 
L 57.625 0 
L 45.90625 0 
L 18.109375 26.703125 
L 18.109375 0 
L 9.078125 0 
z
" id="DejaVuSans-6b"/>
      <path d="M 4.203125 54.6875 
L 13.1875 54.6875 
L 24.421875 12.015625 
L 35.59375 54.6875 
L 46.1875 54.6875 
L 57.421875 12.015625 
L 68.609375 54.6875 
L 77.59375 54.6875 
L 63.28125 0 
L 52.6875 0 
L 40.921875 44.828125 
L 29.109375 0 
L 18.5 0 
z
" id="DejaVuSans-77"/>
     </defs>
     <g style="fill:#262626;" transform="translate(2739.91375 47.03625)scale(0.24 -0.24)">
      <use xlink:href="#DejaVuSans-55"/>
      <use x="73.193359" xlink:href="#DejaVuSans-6e"/>
      <use x="136.572266" xlink:href="#DejaVuSans-6b"/>
      <use x="194.482422" xlink:href="#DejaVuSans-6e"/>
      <use x="257.861328" xlink:href="#DejaVuSans-6f"/>
      <use x="319.042969" xlink:href="#DejaVuSans-77"/>
      <use x="400.830078" xlink:href="#DejaVuSans-6e"/>
     </g>
    </g>
    <g id="line2d_31">
     <path d="M 2672.71375 73.86375 
L 2720.71375 73.86375 
" style="fill:none;opacity:0.5;stroke:#ffffff;stroke-linecap:round;stroke-width:1.75;"/>
    </g>
    <g id="line2d_32">
     <defs>
      <path d="M 0 12 
C 3.182437 12 6.234958 10.735604 8.485281 8.485281 
C 10.735604 6.234958 12 3.182437 12 0 
C 12 -3.182437 10.735604 -6.234958 8.485281 -8.485281 
C 6.234958 -10.735604 3.182437 -12 0 -12 
C -3.182437 -12 -6.234958 -10.735604 -8.485281 -8.485281 
C -10.735604 -6.234958 -12 -3.182437 -12 0 
C -12 3.182437 -10.735604 6.234958 -8.485281 8.485281 
C -6.234958 10.735604 -3.182437 12 0 12 
z
" id="meeba83313d"/>
     </defs>
     <g>
      <use style="fill:#aec7e8;opacity:0.5;" x="2696.71375" xlink:href="#meeba83313d" y="73.86375"/>
     </g>
    </g>
    <g id="text_45">
     <!-- Control Analyte -->
     <g style="fill:#262626;" transform="translate(2739.91375 82.26375)scale(0.24 -0.24)">
      <use xlink:href="#DejaVuSans-43"/>
      <use x="69.824219" xlink:href="#DejaVuSans-6f"/>
      <use x="131.005859" xlink:href="#DejaVuSans-6e"/>
      <use x="194.384766" xlink:href="#DejaVuSans-74"/>
      <use x="233.59375" xlink:href="#DejaVuSans-72"/>
      <use x="274.675781" xlink:href="#DejaVuSans-6f"/>
      <use x="335.857422" xlink:href="#DejaVuSans-6c"/>
      <use x="363.640625" xlink:href="#DejaVuSans-20"/>
      <use x="395.427734" xlink:href="#DejaVuSans-41"/>
      <use x="463.835938" xlink:href="#DejaVuSans-6e"/>
      <use x="527.214844" xlink:href="#DejaVuSans-61"/>
      <use x="588.494141" xlink:href="#DejaVuSans-6c"/>
      <use x="616.277344" xlink:href="#DejaVuSans-79"/>
      <use x="675.457031" xlink:href="#DejaVuSans-74"/>
      <use x="714.666016" xlink:href="#DejaVuSans-65"/>
     </g>
    </g>
    <g id="line2d_33">
     <path d="M 2672.71375 109.09125 
L 2720.71375 109.09125 
" style="fill:none;opacity:0.5;stroke:#ffffff;stroke-linecap:round;stroke-width:1.75;"/>
    </g>
    <g id="line2d_34">
     <defs>
      <path d="M 0 12 
C 3.182437 12 6.234958 10.735604 8.485281 8.485281 
C 10.735604 6.234958 12 3.182437 12 0 
C 12 -3.182437 10.735604 -6.234958 8.485281 -8.485281 
C 6.234958 -10.735604 3.182437 -12 0 -12 
C -3.182437 -12 -6.234958 -10.735604 -8.485281 -8.485281 
C -10.735604 -6.234958 -12 -3.182437 -12 0 
C -12 3.182437 -10.735604 6.234958 -8.485281 8.485281 
C -6.234958 10.735604 -3.182437 12 0 12 
z
" id="meff7872d36"/>
     </defs>
     <g>
      <use style="fill:#ff7f0e;opacity:0.5;" x="2696.71375" xlink:href="#meff7872d36" y="109.09125"/>
     </g>
    </g>
    <g id="text_46">
     <!-- Solid Tissue -->
     <g style="fill:#262626;" transform="translate(2739.91375 117.49125)scale(0.24 -0.24)">
      <use xlink:href="#DejaVuSans-53"/>
      <use x="63.476562" xlink:href="#DejaVuSans-6f"/>
      <use x="124.658203" xlink:href="#DejaVuSans-6c"/>
      <use x="152.441406" xlink:href="#DejaVuSans-69"/>
      <use x="180.224609" xlink:href="#DejaVuSans-64"/>
      <use x="243.701172" xlink:href="#DejaVuSans-20"/>
      <use x="275.488281" xlink:href="#DejaVuSans-54"/>
      <use x="336.525391" xlink:href="#DejaVuSans-69"/>
      <use x="364.308594" xlink:href="#DejaVuSans-73"/>
      <use x="416.408203" xlink:href="#DejaVuSans-73"/>
      <use x="468.507812" xlink:href="#DejaVuSans-75"/>
      <use x="531.886719" xlink:href="#DejaVuSans-65"/>
     </g>
    </g>
    <g id="line2d_35">
     <path d="M 2672.71375 144.31875 
L 2720.71375 144.31875 
" style="fill:none;opacity:0.5;stroke:#ffffff;stroke-linecap:round;stroke-width:1.75;"/>
    </g>
    <g id="line2d_36">
     <defs>
      <path d="M 0 12 
C 3.182437 12 6.234958 10.735604 8.485281 8.485281 
C 10.735604 6.234958 12 3.182437 12 0 
C 12 -3.182437 10.735604 -6.234958 8.485281 -8.485281 
C 6.234958 -10.735604 3.182437 -12 0 -12 
C -3.182437 -12 -6.234958 -10.735604 -8.485281 -8.485281 
C -10.735604 -6.234958 -12 -3.182437 -12 0 
C -12 3.182437 -10.735604 6.234958 -8.485281 8.485281 
C -6.234958 10.735604 -3.182437 12 0 12 
z
" id="m9229a8a39d"/>
     </defs>
     <g>
      <use style="fill:#ffbb78;opacity:0.5;" x="2696.71375" xlink:href="#m9229a8a39d" y="144.31875"/>
     </g>
    </g>
    <g id="text_47">
     <!-- Peripheral Blood Nucleated Cells -->
     <g style="fill:#262626;" transform="translate(2739.91375 152.71875)scale(0.24 -0.24)">
      <use xlink:href="#DejaVuSans-50"/>
      <use x="60.255859" xlink:href="#DejaVuSans-65"/>
      <use x="121.779297" xlink:href="#DejaVuSans-72"/>
      <use x="162.892578" xlink:href="#DejaVuSans-69"/>
      <use x="190.675781" xlink:href="#DejaVuSans-70"/>
      <use x="254.152344" xlink:href="#DejaVuSans-68"/>
      <use x="317.53125" xlink:href="#DejaVuSans-65"/>
      <use x="379.054688" xlink:href="#DejaVuSans-72"/>
      <use x="420.167969" xlink:href="#DejaVuSans-61"/>
      <use x="481.447266" xlink:href="#DejaVuSans-6c"/>
      <use x="509.230469" xlink:href="#DejaVuSans-20"/>
      <use x="541.017578" xlink:href="#DejaVuSans-42"/>
      <use x="609.621094" xlink:href="#DejaVuSans-6c"/>
      <use x="637.404297" xlink:href="#DejaVuSans-6f"/>
      <use x="698.585938" xlink:href="#DejaVuSans-6f"/>
      <use x="759.767578" xlink:href="#DejaVuSans-64"/>
      <use x="823.244141" xlink:href="#DejaVuSans-20"/>
      <use x="855.03125" xlink:href="#DejaVuSans-4e"/>
      <use x="929.835938" xlink:href="#DejaVuSans-75"/>
      <use x="993.214844" xlink:href="#DejaVuSans-63"/>
      <use x="1048.195312" xlink:href="#DejaVuSans-6c"/>
      <use x="1075.978516" xlink:href="#DejaVuSans-65"/>
      <use x="1137.501953" xlink:href="#DejaVuSans-61"/>
      <use x="1198.78125" xlink:href="#DejaVuSans-74"/>
      <use x="1237.990234" xlink:href="#DejaVuSans-65"/>
      <use x="1299.513672" xlink:href="#DejaVuSans-64"/>
      <use x="1362.990234" xlink:href="#DejaVuSans-20"/>
      <use x="1394.777344" xlink:href="#DejaVuSans-43"/>
      <use x="1464.601562" xlink:href="#DejaVuSans-65"/>
      <use x="1526.125" xlink:href="#DejaVuSans-6c"/>
      <use x="1553.908203" xlink:href="#DejaVuSans-6c"/>
      <use x="1581.691406" xlink:href="#DejaVuSans-73"/>
     </g>
    </g>
    <g id="line2d_37">
     <path d="M 2672.71375 179.54625 
L 2720.71375 179.54625 
" style="fill:none;opacity:0.5;stroke:#ffffff;stroke-linecap:round;stroke-width:1.75;"/>
    </g>
    <g id="line2d_38">
     <defs>
      <path d="M 0 12 
C 3.182437 12 6.234958 10.735604 8.485281 8.485281 
C 10.735604 6.234958 12 3.182437 12 0 
C 12 -3.182437 10.735604 -6.234958 8.485281 -8.485281 
C 6.234958 -10.735604 3.182437 -12 0 -12 
C -3.182437 -12 -6.234958 -10.735604 -8.485281 -8.485281 
C -10.735604 -6.234958 -12 -3.182437 -12 0 
C -12 3.182437 -10.735604 6.234958 -8.485281 8.485281 
C -6.234958 10.735604 -3.182437 12 0 12 
z
" id="m37985986bc"/>
     </defs>
     <g>
      <use style="fill:#2ca02c;opacity:0.5;" x="2696.71375" xlink:href="#m37985986bc" y="179.54625"/>
     </g>
    </g>
    <g id="text_48">
     <!-- Buffy Coat -->
     <defs>
      <path d="M 37.109375 75.984375 
L 37.109375 68.5 
L 28.515625 68.5 
Q 23.6875 68.5 21.796875 66.546875 
Q 19.921875 64.59375 19.921875 59.515625 
L 19.921875 54.6875 
L 34.71875 54.6875 
L 34.71875 47.703125 
L 19.921875 47.703125 
L 19.921875 0 
L 10.890625 0 
L 10.890625 47.703125 
L 2.296875 47.703125 
L 2.296875 54.6875 
L 10.890625 54.6875 
L 10.890625 58.5 
Q 10.890625 67.625 15.140625 71.796875 
Q 19.390625 75.984375 28.609375 75.984375 
z
" id="DejaVuSans-66"/>
     </defs>
     <g style="fill:#262626;" transform="translate(2739.91375 187.94625)scale(0.24 -0.24)">
      <use xlink:href="#DejaVuSans-42"/>
      <use x="68.603516" xlink:href="#DejaVuSans-75"/>
      <use x="131.982422" xlink:href="#DejaVuSans-66"/>
      <use x="167.1875" xlink:href="#DejaVuSans-66"/>
      <use x="202.376953" xlink:href="#DejaVuSans-79"/>
      <use x="261.556641" xlink:href="#DejaVuSans-20"/>
      <use x="293.34375" xlink:href="#DejaVuSans-43"/>
      <use x="363.167969" xlink:href="#DejaVuSans-6f"/>
      <use x="424.349609" xlink:href="#DejaVuSans-61"/>
      <use x="485.628906" xlink:href="#DejaVuSans-74"/>
     </g>
    </g>
    <g id="line2d_39">
     <path d="M 2672.71375 214.77375 
L 2720.71375 214.77375 
" style="fill:none;opacity:0.5;stroke:#ffffff;stroke-linecap:round;stroke-width:1.75;"/>
    </g>
    <g id="line2d_40">
     <defs>
      <path d="M 0 12 
C 3.182437 12 6.234958 10.735604 8.485281 8.485281 
C 10.735604 6.234958 12 3.182437 12 0 
C 12 -3.182437 10.735604 -6.234958 8.485281 -8.485281 
C 6.234958 -10.735604 3.182437 -12 0 -12 
C -3.182437 -12 -6.234958 -10.735604 -8.485281 -8.485281 
C -10.735604 -6.234958 -12 -3.182437 -12 0 
C -12 3.182437 -10.735604 6.234958 -8.485281 8.485281 
C -6.234958 10.735604 -3.182437 12 0 12 
z
" id="ma15f42d749"/>
     </defs>
     <g>
      <use style="fill:#98df8a;opacity:0.5;" x="2696.71375" xlink:href="#ma15f42d749" y="214.77375"/>
     </g>
    </g>
    <g id="text_49">
     <!-- Peripheral Blood Components NOS -->
     <g style="fill:#262626;" transform="translate(2739.91375 223.17375)scale(0.24 -0.24)">
      <use xlink:href="#DejaVuSans-50"/>
      <use x="60.255859" xlink:href="#DejaVuSans-65"/>
      <use x="121.779297" xlink:href="#DejaVuSans-72"/>
      <use x="162.892578" xlink:href="#DejaVuSans-69"/>
      <use x="190.675781" xlink:href="#DejaVuSans-70"/>
      <use x="254.152344" xlink:href="#DejaVuSans-68"/>
      <use x="317.53125" xlink:href="#DejaVuSans-65"/>
      <use x="379.054688" xlink:href="#DejaVuSans-72"/>
      <use x="420.167969" xlink:href="#DejaVuSans-61"/>
      <use x="481.447266" xlink:href="#DejaVuSans-6c"/>
      <use x="509.230469" xlink:href="#DejaVuSans-20"/>
      <use x="541.017578" xlink:href="#DejaVuSans-42"/>
      <use x="609.621094" xlink:href="#DejaVuSans-6c"/>
      <use x="637.404297" xlink:href="#DejaVuSans-6f"/>
      <use x="698.585938" xlink:href="#DejaVuSans-6f"/>
      <use x="759.767578" xlink:href="#DejaVuSans-64"/>
      <use x="823.244141" xlink:href="#DejaVuSans-20"/>
      <use x="855.03125" xlink:href="#DejaVuSans-43"/>
      <use x="924.855469" xlink:href="#DejaVuSans-6f"/>
      <use x="986.037109" xlink:href="#DejaVuSans-6d"/>
      <use x="1083.449219" xlink:href="#DejaVuSans-70"/>
      <use x="1146.925781" xlink:href="#DejaVuSans-6f"/>
      <use x="1208.107422" xlink:href="#DejaVuSans-6e"/>
      <use x="1271.486328" xlink:href="#DejaVuSans-65"/>
      <use x="1333.009766" xlink:href="#DejaVuSans-6e"/>
      <use x="1396.388672" xlink:href="#DejaVuSans-74"/>
      <use x="1435.597656" xlink:href="#DejaVuSans-73"/>
      <use x="1487.697266" xlink:href="#DejaVuSans-20"/>
      <use x="1519.484375" xlink:href="#DejaVuSans-4e"/>
      <use x="1594.289062" xlink:href="#DejaVuSans-4f"/>
      <use x="1673" xlink:href="#DejaVuSans-53"/>
     </g>
    </g>
    <g id="line2d_41">
     <path d="M 2672.71375 250.00125 
L 2720.71375 250.00125 
" style="fill:none;opacity:0.5;stroke:#ffffff;stroke-linecap:round;stroke-width:1.75;"/>
    </g>
    <g id="line2d_42">
     <defs>
      <path d="M 0 12 
C 3.182437 12 6.234958 10.735604 8.485281 8.485281 
C 10.735604 6.234958 12 3.182437 12 0 
C 12 -3.182437 10.735604 -6.234958 8.485281 -8.485281 
C 6.234958 -10.735604 3.182437 -12 0 -12 
C -3.182437 -12 -6.234958 -10.735604 -8.485281 -8.485281 
C -10.735604 -6.234958 -12 -3.182437 -12 0 
C -12 3.182437 -10.735604 6.234958 -8.485281 8.485281 
C -6.234958 10.735604 -3.182437 12 0 12 
z
" id="mb77f9c8816"/>
     </defs>
     <g>
      <use style="fill:#d62728;opacity:0.5;" x="2696.71375" xlink:href="#mb77f9c8816" y="250.00125"/>
     </g>
    </g>
    <g id="text_50">
     <!-- Human Original Cells -->
     <defs>
      <path d="M 45.40625 27.984375 
Q 45.40625 37.75 41.375 43.109375 
Q 37.359375 48.484375 30.078125 48.484375 
Q 22.859375 48.484375 18.828125 43.109375 
Q 14.796875 37.75 14.796875 27.984375 
Q 14.796875 18.265625 18.828125 12.890625 
Q 22.859375 7.515625 30.078125 7.515625 
Q 37.359375 7.515625 41.375 12.890625 
Q 45.40625 18.265625 45.40625 27.984375 
z
M 54.390625 6.78125 
Q 54.390625 -7.171875 48.1875 -13.984375 
Q 42 -20.796875 29.203125 -20.796875 
Q 24.46875 -20.796875 20.265625 -20.09375 
Q 16.0625 -19.390625 12.109375 -17.921875 
L 12.109375 -9.1875 
Q 16.0625 -11.328125 19.921875 -12.34375 
Q 23.78125 -13.375 27.78125 -13.375 
Q 36.625 -13.375 41.015625 -8.765625 
Q 45.40625 -4.15625 45.40625 5.171875 
L 45.40625 9.625 
Q 42.625 4.78125 38.28125 2.390625 
Q 33.9375 0 27.875 0 
Q 17.828125 0 11.671875 7.65625 
Q 5.515625 15.328125 5.515625 27.984375 
Q 5.515625 40.671875 11.671875 48.328125 
Q 17.828125 56 27.875 56 
Q 33.9375 56 38.28125 53.609375 
Q 42.625 51.21875 45.40625 46.390625 
L 45.40625 54.6875 
L 54.390625 54.6875 
z
" id="DejaVuSans-67"/>
     </defs>
     <g style="fill:#262626;" transform="translate(2739.91375 258.40125)scale(0.24 -0.24)">
      <use xlink:href="#DejaVuSans-48"/>
      <use x="75.195312" xlink:href="#DejaVuSans-75"/>
      <use x="138.574219" xlink:href="#DejaVuSans-6d"/>
      <use x="235.986328" xlink:href="#DejaVuSans-61"/>
      <use x="297.265625" xlink:href="#DejaVuSans-6e"/>
      <use x="360.644531" xlink:href="#DejaVuSans-20"/>
      <use x="392.431641" xlink:href="#DejaVuSans-4f"/>
      <use x="471.142578" xlink:href="#DejaVuSans-72"/>
      <use x="512.255859" xlink:href="#DejaVuSans-69"/>
      <use x="540.039062" xlink:href="#DejaVuSans-67"/>
      <use x="603.515625" xlink:href="#DejaVuSans-69"/>
      <use x="631.298828" xlink:href="#DejaVuSans-6e"/>
      <use x="694.677734" xlink:href="#DejaVuSans-61"/>
      <use x="755.957031" xlink:href="#DejaVuSans-6c"/>
      <use x="783.740234" xlink:href="#DejaVuSans-20"/>
      <use x="815.527344" xlink:href="#DejaVuSans-43"/>
      <use x="885.351562" xlink:href="#DejaVuSans-65"/>
      <use x="946.875" xlink:href="#DejaVuSans-6c"/>
      <use x="974.658203" xlink:href="#DejaVuSans-6c"/>
      <use x="1002.441406" xlink:href="#DejaVuSans-73"/>
     </g>
    </g>
    <g id="line2d_43">
     <path d="M 2672.71375 285.22875 
L 2720.71375 285.22875 
" style="fill:none;opacity:0.5;stroke:#ffffff;stroke-linecap:round;stroke-width:1.75;"/>
    </g>
    <g id="line2d_44">
     <defs>
      <path d="M 0 12 
C 3.182437 12 6.234958 10.735604 8.485281 8.485281 
C 10.735604 6.234958 12 3.182437 12 0 
C 12 -3.182437 10.735604 -6.234958 8.485281 -8.485281 
C 6.234958 -10.735604 3.182437 -12 0 -12 
C -3.182437 -12 -6.234958 -10.735604 -8.485281 -8.485281 
C -10.735604 -6.234958 -12 -3.182437 -12 0 
C -12 3.182437 -10.735604 6.234958 -8.485281 8.485281 
C -6.234958 10.735604 -3.182437 12 0 12 
z
" id="m6383ad0826"/>
     </defs>
     <g>
      <use style="fill:#ff9896;opacity:0.5;" x="2696.71375" xlink:href="#m6383ad0826" y="285.22875"/>
     </g>
    </g>
    <g id="text_51">
     <!-- Plasma -->
     <g style="fill:#262626;" transform="translate(2739.91375 293.62875)scale(0.24 -0.24)">
      <use xlink:href="#DejaVuSans-50"/>
      <use x="60.302734" xlink:href="#DejaVuSans-6c"/>
      <use x="88.085938" xlink:href="#DejaVuSans-61"/>
      <use x="149.365234" xlink:href="#DejaVuSans-73"/>
      <use x="201.464844" xlink:href="#DejaVuSans-6d"/>
      <use x="298.876953" xlink:href="#DejaVuSans-61"/>
     </g>
    </g>
    <g id="line2d_45">
     <path d="M 2672.71375 320.45625 
L 2720.71375 320.45625 
" style="fill:none;opacity:0.5;stroke:#ffffff;stroke-linecap:round;stroke-width:1.75;"/>
    </g>
    <g id="line2d_46">
     <defs>
      <path d="M 0 12 
C 3.182437 12 6.234958 10.735604 8.485281 8.485281 
C 10.735604 6.234958 12 3.182437 12 0 
C 12 -3.182437 10.735604 -6.234958 8.485281 -8.485281 
C 6.234958 -10.735604 3.182437 -12 0 -12 
C -3.182437 -12 -6.234958 -10.735604 -8.485281 -8.485281 
C -10.735604 -6.234958 -12 -3.182437 -12 0 
C -12 3.182437 -10.735604 6.234958 -8.485281 8.485281 
C -6.234958 10.735604 -3.182437 12 0 12 
z
" id="mce101c9180"/>
     </defs>
     <g>
      <use style="fill:#9467bd;opacity:0.5;" x="2696.71375" xlink:href="#mce101c9180" y="320.45625"/>
     </g>
    </g>
    <g id="text_52">
     <!-- Serum -->
     <g style="fill:#262626;" transform="translate(2739.91375 328.85625)scale(0.24 -0.24)">
      <use xlink:href="#DejaVuSans-53"/>
      <use x="63.476562" xlink:href="#DejaVuSans-65"/>
      <use x="125" xlink:href="#DejaVuSans-72"/>
      <use x="166.113281" xlink:href="#DejaVuSans-75"/>
      <use x="229.492188" xlink:href="#DejaVuSans-6d"/>
     </g>
    </g>
    <g id="line2d_47">
     <path d="M 2672.71375 355.68375 
L 2720.71375 355.68375 
" style="fill:none;opacity:0.5;stroke:#ffffff;stroke-linecap:round;stroke-width:1.75;"/>
    </g>
    <g id="line2d_48">
     <defs>
      <path d="M 0 12 
C 3.182437 12 6.234958 10.735604 8.485281 8.485281 
C 10.735604 6.234958 12 3.182437 12 0 
C 12 -3.182437 10.735604 -6.234958 8.485281 -8.485281 
C 6.234958 -10.735604 3.182437 -12 0 -12 
C -3.182437 -12 -6.234958 -10.735604 -8.485281 -8.485281 
C -10.735604 -6.234958 -12 -3.182437 -12 0 
C -12 3.182437 -10.735604 6.234958 -8.485281 8.485281 
C -6.234958 10.735604 -3.182437 12 0 12 
z
" id="m57153d7d9b"/>
     </defs>
     <g>
      <use style="fill:#c5b0d5;opacity:0.5;" x="2696.71375" xlink:href="#m57153d7d9b" y="355.68375"/>
     </g>
    </g>
    <g id="text_53">
     <!-- Peripheral Whole Blood -->
     <defs>
      <path d="M 3.328125 72.90625 
L 13.28125 72.90625 
L 28.609375 11.28125 
L 43.890625 72.90625 
L 54.984375 72.90625 
L 70.3125 11.28125 
L 85.59375 72.90625 
L 95.609375 72.90625 
L 77.296875 0 
L 64.890625 0 
L 49.515625 63.28125 
L 33.984375 0 
L 21.578125 0 
z
" id="DejaVuSans-57"/>
     </defs>
     <g style="fill:#262626;" transform="translate(2739.91375 364.08375)scale(0.24 -0.24)">
      <use xlink:href="#DejaVuSans-50"/>
      <use x="60.255859" xlink:href="#DejaVuSans-65"/>
      <use x="121.779297" xlink:href="#DejaVuSans-72"/>
      <use x="162.892578" xlink:href="#DejaVuSans-69"/>
      <use x="190.675781" xlink:href="#DejaVuSans-70"/>
      <use x="254.152344" xlink:href="#DejaVuSans-68"/>
      <use x="317.53125" xlink:href="#DejaVuSans-65"/>
      <use x="379.054688" xlink:href="#DejaVuSans-72"/>
      <use x="420.167969" xlink:href="#DejaVuSans-61"/>
      <use x="481.447266" xlink:href="#DejaVuSans-6c"/>
      <use x="509.230469" xlink:href="#DejaVuSans-20"/>
      <use x="541.017578" xlink:href="#DejaVuSans-57"/>
      <use x="639.894531" xlink:href="#DejaVuSans-68"/>
      <use x="703.273438" xlink:href="#DejaVuSans-6f"/>
      <use x="764.455078" xlink:href="#DejaVuSans-6c"/>
      <use x="792.238281" xlink:href="#DejaVuSans-65"/>
      <use x="853.761719" xlink:href="#DejaVuSans-20"/>
      <use x="885.548828" xlink:href="#DejaVuSans-42"/>
      <use x="954.152344" xlink:href="#DejaVuSans-6c"/>
      <use x="981.935547" xlink:href="#DejaVuSans-6f"/>
      <use x="1043.117188" xlink:href="#DejaVuSans-6f"/>
      <use x="1104.298828" xlink:href="#DejaVuSans-64"/>
     </g>
    </g>
   </g>
  </g>
 </g>
 <defs>
  <clipPath id="p8e93ef8061">
   <rect height="1663.2" width="2790" x="388.2775" y="7.2"/>
  </clipPath>
 </defs>
</svg>
