<?xml version="1.0" encoding="utf-8" standalone="no"?>
<!DOCTYPE svg PUBLIC "-//W3C//DTD SVG 1.1//EN"
  "http://www.w3.org/Graphics/SVG/1.1/DTD/svg11.dtd">
<!-- Created with matplotlib (http://matplotlib.org/) -->
<svg height="178pt" version="1.1" viewBox="0 0 650 178" width="650pt" xmlns="http://www.w3.org/2000/svg" xmlns:xlink="http://www.w3.org/1999/xlink">
 <defs>
  <style type="text/css">
*{stroke-linecap:butt;stroke-linejoin:round;}
  </style>
 </defs>
 <g id="figure_1">
  <g id="patch_1">
   <path d="M 0 178.051458 
L 650.31875 178.051458 
L 650.31875 0 
L 0 0 
z
" style="fill:#ffffff;"/>
  </g>
  <g id="axes_1">
   <g id="patch_2">
    <path d="M 142.42875 43.943333 
L 643.11875 43.943333 
L 643.11875 7.2 
L 142.42875 7.2 
z
" style="fill:none;"/>
   </g>
   <g id="matplotlib.axis_1">
    <g id="xtick_1">
     <g id="line2d_1"/>
    </g>
    <g id="xtick_2">
     <g id="line2d_2"/>
    </g>
    <g id="xtick_3">
     <g id="line2d_3"/>
    </g>
    <g id="xtick_4">
     <g id="line2d_4"/>
    </g>
    <g id="xtick_5">
     <g id="line2d_5"/>
    </g>
    <g id="xtick_6">
     <g id="line2d_6"/>
    </g>
   </g>
   <g id="matplotlib.axis_2"/>
   <g id="PolyCollection_1">
    <path d="M 166.449441 43.877958 
L 166.449441 43.943333 
L 168.825369 43.943333 
L 171.201297 43.943333 
L 173.577225 43.943333 
L 175.953152 43.943333 
L 178.32908 43.943333 
L 180.705008 43.943333 
L 183.080936 43.943333 
L 185.456864 43.943333 
L 187.832792 43.943333 
L 190.20872 43.943333 
L 192.584648 43.943333 
L 194.960576 43.943333 
L 197.336504 43.943333 
L 199.712432 43.943333 
L 202.08836 43.943333 
L 204.464288 43.943333 
L 206.840216 43.943333 
L 209.216144 43.943333 
L 211.592072 43.943333 
L 213.968 43.943333 
L 216.343928 43.943333 
L 218.719856 43.943333 
L 221.095783 43.943333 
L 223.471711 43.943333 
L 225.847639 43.943333 
L 228.223567 43.943333 
L 230.599495 43.943333 
L 232.975423 43.943333 
L 235.351351 43.943333 
L 237.727279 43.943333 
L 240.103207 43.943333 
L 242.479135 43.943333 
L 244.855063 43.943333 
L 247.230991 43.943333 
L 249.606919 43.943333 
L 251.982847 43.943333 
L 254.358775 43.943333 
L 256.734703 43.943333 
L 259.110631 43.943333 
L 261.486559 43.943333 
L 263.862486 43.943333 
L 266.238414 43.943333 
L 268.614342 43.943333 
L 270.99027 43.943333 
L 273.366198 43.943333 
L 275.742126 43.943333 
L 278.118054 43.943333 
L 280.493982 43.943333 
L 282.86991 43.943333 
L 285.245838 43.943333 
L 287.621766 43.943333 
L 289.997694 43.943333 
L 292.373622 43.943333 
L 294.74955 43.943333 
L 297.125478 43.943333 
L 299.501406 43.943333 
L 301.877334 43.943333 
L 304.253262 43.943333 
L 306.629189 43.943333 
L 309.005117 43.943333 
L 311.381045 43.943333 
L 313.756973 43.943333 
L 316.132901 43.943333 
L 318.508829 43.943333 
L 320.884757 43.943333 
L 323.260685 43.943333 
L 325.636613 43.943333 
L 328.012541 43.943333 
L 330.388469 43.943333 
L 332.764397 43.943333 
L 335.140325 43.943333 
L 337.516253 43.943333 
L 339.892181 43.943333 
L 342.268109 43.943333 
L 344.644037 43.943333 
L 347.019965 43.943333 
L 349.395892 43.943333 
L 351.77182 43.943333 
L 354.147748 43.943333 
L 356.523676 43.943333 
L 358.899604 43.943333 
L 361.275532 43.943333 
L 363.65146 43.943333 
L 366.027388 43.943333 
L 368.403316 43.943333 
L 370.779244 43.943333 
L 373.155172 43.943333 
L 375.5311 43.943333 
L 377.907028 43.943333 
L 380.282956 43.943333 
L 382.658884 43.943333 
L 385.034812 43.943333 
L 387.41074 43.943333 
L 389.786668 43.943333 
L 392.162595 43.943333 
L 394.538523 43.943333 
L 396.914451 43.943333 
L 399.290379 43.943333 
L 401.666307 43.943333 
L 401.666307 43.917015 
L 401.666307 43.917015 
L 399.290379 43.913705 
L 396.914451 43.910476 
L 394.538523 43.907342 
L 392.162595 43.904279 
L 389.786668 43.901225 
L 387.41074 43.898095 
L 385.034812 43.894792 
L 382.658884 43.891229 
L 380.282956 43.887356 
L 377.907028 43.883174 
L 375.5311 43.878751 
L 373.155172 43.874224 
L 370.779244 43.869789 
L 368.403316 43.865677 
L 366.027388 43.862126 
L 363.65146 43.859342 
L 361.275532 43.857468 
L 358.899604 43.856553 
L 356.523676 43.856543 
L 354.147748 43.857277 
L 351.77182 43.858505 
L 349.395892 43.859912 
L 347.019965 43.861144 
L 344.644037 43.861842 
L 342.268109 43.86166 
L 339.892181 43.860278 
L 337.516253 43.857415 
L 335.140325 43.852829 
L 332.764397 43.846332 
L 330.388469 43.83781 
L 328.012541 43.827256 
L 325.636613 43.814815 
L 323.260685 43.800825 
L 320.884757 43.785847 
L 318.508829 43.770664 
L 316.132901 43.756243 
L 313.756973 43.743651 
L 311.381045 43.733941 
L 309.005117 43.728009 
L 306.629189 43.726475 
L 304.253262 43.729577 
L 301.877334 43.737141 
L 299.501406 43.748596 
L 297.125478 43.763064 
L 294.74955 43.779486 
L 292.373622 43.796767 
L 289.997694 43.813917 
L 287.621766 43.830146 
L 285.245838 43.844924 
L 282.86991 43.857982 
L 280.493982 43.86927 
L 278.118054 43.878896 
L 275.742126 43.887047 
L 273.366198 43.893921 
L 270.99027 43.89968 
L 268.614342 43.90442 
L 266.238414 43.908176 
L 263.862486 43.910928 
L 261.486559 43.912631 
L 259.110631 43.913243 
L 256.734703 43.912743 
L 254.358775 43.911154 
L 251.982847 43.908545 
L 249.606919 43.905032 
L 247.230991 43.900767 
L 244.855063 43.895919 
L 242.479135 43.890655 
L 240.103207 43.885117 
L 237.727279 43.879399 
L 235.351351 43.873529 
L 232.975423 43.867462 
L 230.599495 43.861079 
L 228.223567 43.854202 
L 225.847639 43.846618 
L 223.471711 43.838124 
L 221.095783 43.828559 
L 218.719856 43.817855 
L 216.343928 43.80607 
L 213.968 43.793412 
L 211.592072 43.780246 
L 209.216144 43.76708 
L 206.840216 43.754536 
L 204.464288 43.743295 
L 202.08836 43.734042 
L 199.712432 43.727397 
L 197.336504 43.72385 
L 194.960576 43.723714 
L 192.584648 43.727088 
L 190.20872 43.733851 
L 187.832792 43.743679 
L 185.456864 43.756083 
L 183.080936 43.770464 
L 180.705008 43.786173 
L 178.32908 43.802573 
L 175.953152 43.819084 
L 173.577225 43.835215 
L 171.201297 43.850577 
L 168.825369 43.864888 
L 166.449441 43.877958 
z
" style="fill:#90c1c6;"/>
   </g>
   <g id="line2d_7">
    <path d="M 166.449441 43.877958 
L 168.825369 43.864888 
L 171.201297 43.850577 
L 173.577225 43.835215 
L 175.953152 43.819084 
L 178.32908 43.802573 
L 180.705008 43.786173 
L 183.080936 43.770464 
L 185.456864 43.756083 
L 187.832792 43.743679 
L 190.20872 43.733851 
L 192.584648 43.727088 
L 194.960576 43.723714 
L 197.336504 43.72385 
L 199.712432 43.727397 
L 202.08836 43.734042 
L 204.464288 43.743295 
L 206.840216 43.754536 
L 209.216144 43.76708 
L 211.592072 43.780246 
L 213.968 43.793412 
L 216.343928 43.80607 
L 218.719856 43.817855 
L 221.095783 43.828559 
L 223.471711 43.838124 
L 225.847639 43.846618 
L 228.223567 43.854202 
L 230.599495 43.861079 
L 232.975423 43.867462 
L 235.351351 43.873529 
L 237.727279 43.879399 
L 240.103207 43.885117 
L 242.479135 43.890655 
L 244.855063 43.895919 
L 247.230991 43.900767 
L 249.606919 43.905032 
L 251.982847 43.908545 
L 254.358775 43.911154 
L 256.734703 43.912743 
L 259.110631 43.913243 
L 261.486559 43.912631 
L 263.862486 43.910928 
L 266.238414 43.908176 
L 268.614342 43.90442 
L 270.99027 43.89968 
L 273.366198 43.893921 
L 275.742126 43.887047 
L 278.118054 43.878896 
L 280.493982 43.86927 
L 282.86991 43.857982 
L 285.245838 43.844924 
L 287.621766 43.830146 
L 289.997694 43.813917 
L 292.373622 43.796767 
L 294.74955 43.779486 
L 297.125478 43.763064 
L 299.501406 43.748596 
L 301.877334 43.737141 
L 304.253262 43.729577 
L 306.629189 43.726475 
L 309.005117 43.728009 
L 311.381045 43.733941 
L 313.756973 43.743651 
L 316.132901 43.756243 
L 318.508829 43.770664 
L 320.884757 43.785847 
L 323.260685 43.800825 
L 325.636613 43.814815 
L 328.012541 43.827256 
L 330.388469 43.83781 
L 332.764397 43.846332 
L 335.140325 43.852829 
L 337.516253 43.857415 
L 339.892181 43.860278 
L 342.268109 43.86166 
L 344.644037 43.861842 
L 347.019965 43.861144 
L 349.395892 43.859912 
L 351.77182 43.858505 
L 354.147748 43.857277 
L 356.523676 43.856543 
L 358.899604 43.856553 
L 361.275532 43.857468 
L 363.65146 43.859342 
L 366.027388 43.862126 
L 368.403316 43.865677 
L 370.779244 43.869789 
L 373.155172 43.874224 
L 375.5311 43.878751 
L 377.907028 43.883174 
L 380.282956 43.887356 
L 382.658884 43.891229 
L 385.034812 43.894792 
L 387.41074 43.898095 
L 389.786668 43.901225 
L 392.162595 43.904279 
L 394.538523 43.907342 
L 396.914451 43.910476 
L 399.290379 43.913705 
L 401.666307 43.917015 
" style="fill:none;stroke:#90c1c6;stroke-linecap:round;stroke-width:1.5;"/>
   </g>
   <g id="line2d_8">
    <path d="M 166.449441 43.877958 
L 168.825369 43.864888 
L 171.201297 43.850577 
L 173.577225 43.835215 
L 175.953152 43.819084 
L 178.32908 43.802573 
L 180.705008 43.786173 
L 183.080936 43.770464 
L 185.456864 43.756083 
L 187.832792 43.743679 
L 190.20872 43.733851 
L 192.584648 43.727088 
L 194.960576 43.723714 
L 197.336504 43.72385 
L 199.712432 43.727397 
L 202.08836 43.734042 
L 204.464288 43.743295 
L 206.840216 43.754536 
L 209.216144 43.76708 
L 211.592072 43.780246 
L 213.968 43.793412 
L 216.343928 43.80607 
L 218.719856 43.817855 
L 221.095783 43.828559 
L 223.471711 43.838124 
L 225.847639 43.846618 
L 228.223567 43.854202 
L 230.599495 43.861079 
L 232.975423 43.867462 
L 235.351351 43.873529 
L 237.727279 43.879399 
L 240.103207 43.885117 
L 242.479135 43.890655 
L 244.855063 43.895919 
L 247.230991 43.900767 
L 249.606919 43.905032 
L 251.982847 43.908545 
L 254.358775 43.911154 
L 256.734703 43.912743 
L 259.110631 43.913243 
L 261.486559 43.912631 
L 263.862486 43.910928 
L 266.238414 43.908176 
L 268.614342 43.90442 
L 270.99027 43.89968 
L 273.366198 43.893921 
L 275.742126 43.887047 
L 278.118054 43.878896 
L 280.493982 43.86927 
L 282.86991 43.857982 
L 285.245838 43.844924 
L 287.621766 43.830146 
L 289.997694 43.813917 
L 292.373622 43.796767 
L 294.74955 43.779486 
L 297.125478 43.763064 
L 299.501406 43.748596 
L 301.877334 43.737141 
L 304.253262 43.729577 
L 306.629189 43.726475 
L 309.005117 43.728009 
L 311.381045 43.733941 
L 313.756973 43.743651 
L 316.132901 43.756243 
L 318.508829 43.770664 
L 320.884757 43.785847 
L 323.260685 43.800825 
L 325.636613 43.814815 
L 328.012541 43.827256 
L 330.388469 43.83781 
L 332.764397 43.846332 
L 335.140325 43.852829 
L 337.516253 43.857415 
L 339.892181 43.860278 
L 342.268109 43.86166 
L 344.644037 43.861842 
L 347.019965 43.861144 
L 349.395892 43.859912 
L 351.77182 43.858505 
L 354.147748 43.857277 
L 356.523676 43.856543 
L 358.899604 43.856553 
L 361.275532 43.857468 
L 363.65146 43.859342 
L 366.027388 43.862126 
L 368.403316 43.865677 
L 370.779244 43.869789 
L 373.155172 43.874224 
L 375.5311 43.878751 
L 377.907028 43.883174 
L 380.282956 43.887356 
L 382.658884 43.891229 
L 385.034812 43.894792 
L 387.41074 43.898095 
L 389.786668 43.901225 
L 392.162595 43.904279 
L 394.538523 43.907342 
L 396.914451 43.910476 
L 399.290379 43.913705 
L 401.666307 43.917015 
" style="fill:none;stroke:#ffffff;stroke-linecap:round;stroke-width:2;"/>
   </g>
   <g id="line2d_9">
    <path d="M 142.42875 43.943333 
L 643.11875 43.943333 
" style="fill:none;stroke:#90c1c6;stroke-linecap:round;stroke-width:2;"/>
   </g>
   <g id="text_1">
    <!-- AstraZeneca_P0001_T1 -->
    <defs>
     <path d="M 53.421875 13.28125 
L 24.03125 13.28125 
L 19.390625 0 
L 0.484375 0 
L 27.484375 72.90625 
L 49.90625 72.90625 
L 76.90625 0 
L 58.015625 0 
z
M 28.71875 26.8125 
L 48.6875 26.8125 
L 38.71875 55.8125 
z
" id="DejaVuSans-Bold-41"/>
     <path d="M 51.125 52.984375 
L 51.125 39.703125 
Q 45.515625 42.046875 40.28125 43.21875 
Q 35.0625 44.390625 30.421875 44.390625 
Q 25.4375 44.390625 23.015625 43.140625 
Q 20.609375 41.890625 20.609375 39.3125 
Q 20.609375 37.203125 22.4375 36.078125 
Q 24.265625 34.96875 29 34.421875 
L 32.078125 33.984375 
Q 45.515625 32.28125 50.140625 28.375 
Q 54.78125 24.46875 54.78125 16.109375 
Q 54.78125 7.375 48.328125 2.96875 
Q 41.890625 -1.421875 29.109375 -1.421875 
Q 23.6875 -1.421875 17.890625 -0.5625 
Q 12.109375 0.296875 6 2 
L 6 15.28125 
Q 11.234375 12.75 16.71875 11.46875 
Q 22.21875 10.203125 27.875 10.203125 
Q 33.015625 10.203125 35.59375 11.609375 
Q 38.1875 13.03125 38.1875 15.828125 
Q 38.1875 18.171875 36.40625 19.3125 
Q 34.625 20.453125 29.296875 21.09375 
L 26.21875 21.484375 
Q 14.546875 22.953125 9.859375 26.90625 
Q 5.171875 30.859375 5.171875 38.921875 
Q 5.171875 47.609375 11.125 51.796875 
Q 17.09375 56 29.390625 56 
Q 34.234375 56 39.546875 55.265625 
Q 44.875 54.546875 51.125 52.984375 
z
" id="DejaVuSans-Bold-73"/>
     <path d="M 27.484375 70.21875 
L 27.484375 54.6875 
L 45.515625 54.6875 
L 45.515625 42.1875 
L 27.484375 42.1875 
L 27.484375 19 
Q 27.484375 15.1875 29 13.84375 
Q 30.515625 12.5 35.015625 12.5 
L 44 12.5 
L 44 0 
L 29 0 
Q 18.65625 0 14.328125 4.3125 
Q 10.015625 8.640625 10.015625 19 
L 10.015625 42.1875 
L 1.3125 42.1875 
L 1.3125 54.6875 
L 10.015625 54.6875 
L 10.015625 70.21875 
z
" id="DejaVuSans-Bold-74"/>
     <path d="M 49.03125 39.796875 
Q 46.734375 40.875 44.453125 41.375 
Q 42.1875 41.890625 39.890625 41.890625 
Q 33.15625 41.890625 29.515625 37.5625 
Q 25.875 33.25 25.875 25.203125 
L 25.875 0 
L 8.40625 0 
L 8.40625 54.6875 
L 25.875 54.6875 
L 25.875 45.703125 
Q 29.25 51.078125 33.609375 53.53125 
Q 37.984375 56 44.09375 56 
Q 44.96875 56 45.984375 55.921875 
Q 47.015625 55.859375 48.96875 55.609375 
z
" id="DejaVuSans-Bold-72"/>
     <path d="M 32.90625 24.609375 
Q 27.4375 24.609375 24.671875 22.75 
Q 21.921875 20.90625 21.921875 17.28125 
Q 21.921875 13.96875 24.140625 12.078125 
Q 26.375 10.203125 30.328125 10.203125 
Q 35.25 10.203125 38.625 13.734375 
Q 42 17.28125 42 22.609375 
L 42 24.609375 
z
M 59.625 31.203125 
L 59.625 0 
L 42 0 
L 42 8.109375 
Q 38.484375 3.125 34.078125 0.84375 
Q 29.6875 -1.421875 23.390625 -1.421875 
Q 14.890625 -1.421875 9.59375 3.53125 
Q 4.296875 8.5 4.296875 16.40625 
Q 4.296875 26.03125 10.90625 30.515625 
Q 17.53125 35.015625 31.6875 35.015625 
L 42 35.015625 
L 42 36.375 
Q 42 40.53125 38.71875 42.453125 
Q 35.453125 44.390625 28.515625 44.390625 
Q 22.90625 44.390625 18.0625 43.265625 
Q 13.234375 42.140625 9.078125 39.890625 
L 9.078125 53.21875 
Q 14.703125 54.59375 20.359375 55.296875 
Q 26.03125 56 31.6875 56 
Q 46.484375 56 53.046875 50.171875 
Q 59.625 44.34375 59.625 31.203125 
z
" id="DejaVuSans-Bold-61"/>
     <path d="M 5.609375 72.90625 
L 66.890625 72.90625 
L 66.890625 61.53125 
L 27.78125 14.203125 
L 68.015625 14.203125 
L 68.015625 0 
L 4.5 0 
L 4.5 11.375 
L 43.609375 58.6875 
L 5.609375 58.6875 
z
" id="DejaVuSans-Bold-5a"/>
     <path d="M 62.984375 27.484375 
L 62.984375 22.515625 
L 22.125 22.515625 
Q 22.75 16.359375 26.5625 13.28125 
Q 30.375 10.203125 37.203125 10.203125 
Q 42.71875 10.203125 48.5 11.84375 
Q 54.296875 13.484375 60.40625 16.796875 
L 60.40625 3.328125 
Q 54.203125 0.984375 48 -0.21875 
Q 41.796875 -1.421875 35.59375 -1.421875 
Q 20.75 -1.421875 12.515625 6.125 
Q 4.296875 13.671875 4.296875 27.296875 
Q 4.296875 40.671875 12.375 48.328125 
Q 20.453125 56 34.625 56 
Q 47.515625 56 55.25 48.234375 
Q 62.984375 40.484375 62.984375 27.484375 
z
M 45.015625 33.296875 
Q 45.015625 38.28125 42.109375 41.328125 
Q 39.203125 44.390625 34.515625 44.390625 
Q 29.4375 44.390625 26.265625 41.53125 
Q 23.09375 38.671875 22.3125 33.296875 
z
" id="DejaVuSans-Bold-65"/>
     <path d="M 63.375 33.296875 
L 63.375 0 
L 45.796875 0 
L 45.796875 5.421875 
L 45.796875 25.484375 
Q 45.796875 32.5625 45.484375 35.25 
Q 45.171875 37.9375 44.390625 39.203125 
Q 43.359375 40.921875 41.59375 41.875 
Q 39.84375 42.828125 37.59375 42.828125 
Q 32.125 42.828125 29 38.59375 
Q 25.875 34.375 25.875 26.90625 
L 25.875 0 
L 8.40625 0 
L 8.40625 54.6875 
L 25.875 54.6875 
L 25.875 46.6875 
Q 29.828125 51.46875 34.265625 53.734375 
Q 38.71875 56 44.09375 56 
Q 53.5625 56 58.46875 50.1875 
Q 63.375 44.390625 63.375 33.296875 
z
" id="DejaVuSans-Bold-6e"/>
     <path d="M 52.59375 52.984375 
L 52.59375 38.71875 
Q 49.03125 41.15625 45.4375 42.328125 
Q 41.84375 43.5 37.984375 43.5 
Q 30.671875 43.5 26.59375 39.234375 
Q 22.515625 34.96875 22.515625 27.296875 
Q 22.515625 19.625 26.59375 15.34375 
Q 30.671875 11.078125 37.984375 11.078125 
Q 42.09375 11.078125 45.78125 12.296875 
Q 49.46875 13.53125 52.59375 15.921875 
L 52.59375 1.609375 
Q 48.484375 0.09375 44.265625 -0.65625 
Q 40.046875 -1.421875 35.796875 -1.421875 
Q 21 -1.421875 12.640625 6.171875 
Q 4.296875 13.765625 4.296875 27.296875 
Q 4.296875 40.828125 12.640625 48.40625 
Q 21 56 35.796875 56 
Q 40.09375 56 44.265625 55.25 
Q 48.4375 54.5 52.59375 52.984375 
z
" id="DejaVuSans-Bold-63"/>
     <path d="M 50 -14.3125 
L 50 -23.578125 
L 0 -23.578125 
L 0 -14.3125 
z
" id="DejaVuSans-Bold-5f"/>
     <path d="M 9.1875 72.90625 
L 40.375 72.90625 
Q 54.296875 72.90625 61.734375 66.71875 
Q 69.1875 60.546875 69.1875 49.125 
Q 69.1875 37.640625 61.734375 31.46875 
Q 54.296875 25.296875 40.375 25.296875 
L 27.984375 25.296875 
L 27.984375 0 
L 9.1875 0 
z
M 27.984375 59.28125 
L 27.984375 38.921875 
L 38.375 38.921875 
Q 43.84375 38.921875 46.828125 41.578125 
Q 49.8125 44.234375 49.8125 49.125 
Q 49.8125 54 46.828125 56.640625 
Q 43.84375 59.28125 38.375 59.28125 
z
" id="DejaVuSans-Bold-50"/>
     <path d="M 46 36.53125 
Q 46 50.203125 43.4375 55.78125 
Q 40.875 61.375 34.8125 61.375 
Q 28.765625 61.375 26.171875 55.78125 
Q 23.578125 50.203125 23.578125 36.53125 
Q 23.578125 22.703125 26.171875 17.03125 
Q 28.765625 11.375 34.8125 11.375 
Q 40.828125 11.375 43.40625 17.03125 
Q 46 22.703125 46 36.53125 
z
M 64.796875 36.375 
Q 64.796875 18.265625 56.984375 8.421875 
Q 49.171875 -1.421875 34.8125 -1.421875 
Q 20.40625 -1.421875 12.59375 8.421875 
Q 4.78125 18.265625 4.78125 36.375 
Q 4.78125 54.546875 12.59375 64.375 
Q 20.40625 74.21875 34.8125 74.21875 
Q 49.171875 74.21875 56.984375 64.375 
Q 64.796875 54.546875 64.796875 36.375 
z
" id="DejaVuSans-Bold-30"/>
     <path d="M 11.71875 12.984375 
L 28.328125 12.984375 
L 28.328125 60.109375 
L 11.28125 56.59375 
L 11.28125 69.390625 
L 28.21875 72.90625 
L 46.09375 72.90625 
L 46.09375 12.984375 
L 62.703125 12.984375 
L 62.703125 0 
L 11.71875 0 
z
" id="DejaVuSans-Bold-31"/>
     <path d="M 0.484375 72.90625 
L 67.671875 72.90625 
L 67.671875 58.6875 
L 43.5 58.6875 
L 43.5 0 
L 24.703125 0 
L 24.703125 58.6875 
L 0.484375 58.6875 
z
" id="DejaVuSans-Bold-54"/>
    </defs>
    <g style="fill:#90c1c6;" transform="translate(38.66625 38.620292)scale(0.08 -0.08)">
     <use xlink:href="#DejaVuSans-Bold-41"/>
     <use x="77.392578" xlink:href="#DejaVuSans-Bold-73"/>
     <use x="136.914062" xlink:href="#DejaVuSans-Bold-74"/>
     <use x="184.716797" xlink:href="#DejaVuSans-Bold-72"/>
     <use x="234.033203" xlink:href="#DejaVuSans-Bold-61"/>
     <use x="301.513672" xlink:href="#DejaVuSans-Bold-5a"/>
     <use x="374.023438" xlink:href="#DejaVuSans-Bold-65"/>
     <use x="441.845703" xlink:href="#DejaVuSans-Bold-6e"/>
     <use x="513.037109" xlink:href="#DejaVuSans-Bold-65"/>
     <use x="580.859375" xlink:href="#DejaVuSans-Bold-63"/>
     <use x="640.136719" xlink:href="#DejaVuSans-Bold-61"/>
     <use x="707.617188" xlink:href="#DejaVuSans-Bold-5f"/>
     <use x="757.617188" xlink:href="#DejaVuSans-Bold-50"/>
     <use x="830.908203" xlink:href="#DejaVuSans-Bold-30"/>
     <use x="900.488281" xlink:href="#DejaVuSans-Bold-30"/>
     <use x="970.068359" xlink:href="#DejaVuSans-Bold-30"/>
     <use x="1039.648438" xlink:href="#DejaVuSans-Bold-31"/>
     <use x="1109.228516" xlink:href="#DejaVuSans-Bold-5f"/>
     <use x="1159.228516" xlink:href="#DejaVuSans-Bold-54"/>
     <use x="1227.441406" xlink:href="#DejaVuSans-Bold-31"/>
    </g>
   </g>
  </g>
  <g id="axes_2">
   <g id="patch_3">
    <path d="M 142.42875 65.989333 
L 643.11875 65.989333 
L 643.11875 29.246 
L 142.42875 29.246 
z
" style="fill:none;"/>
   </g>
   <g id="matplotlib.axis_3">
    <g id="xtick_7">
     <g id="line2d_10"/>
    </g>
    <g id="xtick_8">
     <g id="line2d_11"/>
    </g>
    <g id="xtick_9">
     <g id="line2d_12"/>
    </g>
    <g id="xtick_10">
     <g id="line2d_13"/>
    </g>
    <g id="xtick_11">
     <g id="line2d_14"/>
    </g>
    <g id="xtick_12">
     <g id="line2d_15"/>
    </g>
   </g>
   <g id="matplotlib.axis_4"/>
   <g id="PolyCollection_2">
    <path d="M 187.465279 65.931798 
L 187.465279 65.989333 
L 189.141223 65.989333 
L 190.817168 65.989333 
L 192.493113 65.989333 
L 194.169058 65.989333 
L 195.845002 65.989333 
L 197.520947 65.989333 
L 199.196892 65.989333 
L 200.872837 65.989333 
L 202.548781 65.989333 
L 204.224726 65.989333 
L 205.900671 65.989333 
L 207.576616 65.989333 
L 209.252561 65.989333 
L 210.928505 65.989333 
L 212.60445 65.989333 
L 214.280395 65.989333 
L 215.95634 65.989333 
L 217.632284 65.989333 
L 219.308229 65.989333 
L 220.984174 65.989333 
L 222.660119 65.989333 
L 224.336063 65.989333 
L 226.012008 65.989333 
L 227.687953 65.989333 
L 229.363898 65.989333 
L 231.039843 65.989333 
L 232.715787 65.989333 
L 234.391732 65.989333 
L 236.067677 65.989333 
L 237.743622 65.989333 
L 239.419566 65.989333 
L 241.095511 65.989333 
L 242.771456 65.989333 
L 244.447401 65.989333 
L 246.123345 65.989333 
L 247.79929 65.989333 
L 249.475235 65.989333 
L 251.15118 65.989333 
L 252.827125 65.989333 
L 254.503069 65.989333 
L 256.179014 65.989333 
L 257.854959 65.989333 
L 259.530904 65.989333 
L 261.206848 65.989333 
L 262.882793 65.989333 
L 264.558738 65.989333 
L 266.234683 65.989333 
L 267.910627 65.989333 
L 269.586572 65.989333 
L 271.262517 65.989333 
L 272.938462 65.989333 
L 274.614406 65.989333 
L 276.290351 65.989333 
L 277.966296 65.989333 
L 279.642241 65.989333 
L 281.318186 65.989333 
L 282.99413 65.989333 
L 284.670075 65.989333 
L 286.34602 65.989333 
L 288.021965 65.989333 
L 289.697909 65.989333 
L 291.373854 65.989333 
L 293.049799 65.989333 
L 294.725744 65.989333 
L 296.401688 65.989333 
L 298.077633 65.989333 
L 299.753578 65.989333 
L 301.429523 65.989333 
L 303.105468 65.989333 
L 304.781412 65.989333 
L 306.457357 65.989333 
L 308.133302 65.989333 
L 309.809247 65.989333 
L 311.485191 65.989333 
L 313.161136 65.989333 
L 314.837081 65.989333 
L 316.513026 65.989333 
L 318.18897 65.989333 
L 319.864915 65.989333 
L 321.54086 65.989333 
L 323.216805 65.989333 
L 324.89275 65.989333 
L 326.568694 65.989333 
L 328.244639 65.989333 
L 329.920584 65.989333 
L 331.596529 65.989333 
L 333.272473 65.989333 
L 334.948418 65.989333 
L 336.624363 65.989333 
L 338.300308 65.989333 
L 339.976252 65.989333 
L 341.652197 65.989333 
L 343.328142 65.989333 
L 345.004087 65.989333 
L 346.680032 65.989333 
L 348.355976 65.989333 
L 350.031921 65.989333 
L 351.707866 65.989333 
L 353.383811 65.989333 
L 353.383811 65.982756 
L 353.383811 65.982756 
L 351.707866 65.982115 
L 350.031921 65.981768 
L 348.355976 65.981672 
L 346.680032 65.981716 
L 345.004087 65.981754 
L 343.328142 65.981659 
L 341.652197 65.981362 
L 339.976252 65.980862 
L 338.300308 65.980212 
L 336.624363 65.979477 
L 334.948418 65.97869 
L 333.272473 65.977829 
L 331.596529 65.976806 
L 329.920584 65.975486 
L 328.244639 65.973709 
L 326.568694 65.971322 
L 324.89275 65.968209 
L 323.216805 65.964325 
L 321.54086 65.959715 
L 319.864915 65.95453 
L 318.18897 65.949 
L 316.513026 65.943387 
L 314.837081 65.937913 
L 313.161136 65.932709 
L 311.485191 65.927797 
L 309.809247 65.923126 
L 308.133302 65.918635 
L 306.457357 65.914312 
L 304.781412 65.910211 
L 303.105468 65.906408 
L 301.429523 65.902914 
L 299.753578 65.899605 
L 298.077633 65.896206 
L 296.401688 65.892353 
L 294.725744 65.88771 
L 293.049799 65.882097 
L 291.373854 65.875565 
L 289.697909 65.868388 
L 288.021965 65.860969 
L 286.34602 65.853697 
L 284.670075 65.846799 
L 282.99413 65.840231 
L 281.318186 65.83364 
L 279.642241 65.826414 
L 277.966296 65.81782 
L 276.290351 65.807203 
L 274.614406 65.794198 
L 272.938462 65.778892 
L 271.262517 65.761886 
L 269.586572 65.744234 
L 267.910627 65.727257 
L 266.234683 65.712307 
L 264.558738 65.700507 
L 262.882793 65.692556 
L 261.206848 65.688613 
L 259.530904 65.688299 
L 257.854959 65.690797 
L 256.179014 65.695037 
L 254.503069 65.699915 
L 252.827125 65.704502 
L 251.15118 65.70819 
L 249.475235 65.710757 
L 247.79929 65.712354 
L 246.123345 65.713414 
L 244.447401 65.714507 
L 242.771456 65.716158 
L 241.095511 65.718676 
L 239.419566 65.722049 
L 237.743622 65.725956 
L 236.067677 65.729897 
L 234.391732 65.733398 
L 232.715787 65.736201 
L 231.039843 65.738363 
L 229.363898 65.740222 
L 227.687953 65.742259 
L 226.012008 65.744907 
L 224.336063 65.748387 
L 222.660119 65.752608 
L 220.984174 65.757168 
L 219.308229 65.761447 
L 217.632284 65.764762 
L 215.95634 65.766556 
L 214.280395 65.766556 
L 212.60445 65.764867 
L 210.928505 65.761965 
L 209.252561 65.758619 
L 207.576616 65.75576 
L 205.900671 65.754359 
L 204.224726 65.755334 
L 202.548781 65.759496 
L 200.872837 65.767486 
L 199.196892 65.779692 
L 197.520947 65.796134 
L 195.845002 65.816364 
L 194.169058 65.839439 
L 192.493113 65.864015 
L 190.817168 65.888539 
L 189.141223 65.911527 
L 187.465279 65.931798 
z
" style="fill:#85b8c0;"/>
   </g>
   <g id="line2d_16">
    <path d="M 187.465279 65.931798 
L 189.141223 65.911527 
L 190.817168 65.888539 
L 192.493113 65.864015 
L 194.169058 65.839439 
L 195.845002 65.816364 
L 197.520947 65.796134 
L 199.196892 65.779692 
L 200.872837 65.767486 
L 202.548781 65.759496 
L 204.224726 65.755334 
L 205.900671 65.754359 
L 207.576616 65.75576 
L 209.252561 65.758619 
L 210.928505 65.761965 
L 212.60445 65.764867 
L 214.280395 65.766556 
L 215.95634 65.766556 
L 217.632284 65.764762 
L 219.308229 65.761447 
L 220.984174 65.757168 
L 222.660119 65.752608 
L 224.336063 65.748387 
L 226.012008 65.744907 
L 227.687953 65.742259 
L 229.363898 65.740222 
L 231.039843 65.738363 
L 232.715787 65.736201 
L 234.391732 65.733398 
L 236.067677 65.729897 
L 237.743622 65.725956 
L 239.419566 65.722049 
L 241.095511 65.718676 
L 242.771456 65.716158 
L 244.447401 65.714507 
L 246.123345 65.713414 
L 247.79929 65.712354 
L 249.475235 65.710757 
L 251.15118 65.70819 
L 252.827125 65.704502 
L 254.503069 65.699915 
L 256.179014 65.695037 
L 257.854959 65.690797 
L 259.530904 65.688299 
L 261.206848 65.688613 
L 262.882793 65.692556 
L 264.558738 65.700507 
L 266.234683 65.712307 
L 267.910627 65.727257 
L 269.586572 65.744234 
L 271.262517 65.761886 
L 272.938462 65.778892 
L 274.614406 65.794198 
L 276.290351 65.807203 
L 277.966296 65.81782 
L 279.642241 65.826414 
L 281.318186 65.83364 
L 282.99413 65.840231 
L 284.670075 65.846799 
L 286.34602 65.853697 
L 288.021965 65.860969 
L 289.697909 65.868388 
L 291.373854 65.875565 
L 293.049799 65.882097 
L 294.725744 65.88771 
L 296.401688 65.892353 
L 298.077633 65.896206 
L 299.753578 65.899605 
L 301.429523 65.902914 
L 303.105468 65.906408 
L 304.781412 65.910211 
L 306.457357 65.914312 
L 308.133302 65.918635 
L 309.809247 65.923126 
L 311.485191 65.927797 
L 313.161136 65.932709 
L 314.837081 65.937913 
L 316.513026 65.943387 
L 318.18897 65.949 
L 319.864915 65.95453 
L 321.54086 65.959715 
L 323.216805 65.964325 
L 324.89275 65.968209 
L 326.568694 65.971322 
L 328.244639 65.973709 
L 329.920584 65.975486 
L 331.596529 65.976806 
L 333.272473 65.977829 
L 334.948418 65.97869 
L 336.624363 65.979477 
L 338.300308 65.980212 
L 339.976252 65.980862 
L 341.652197 65.981362 
L 343.328142 65.981659 
L 345.004087 65.981754 
L 346.680032 65.981716 
L 348.355976 65.981672 
L 350.031921 65.981768 
L 351.707866 65.982115 
L 353.383811 65.982756 
" style="fill:none;stroke:#85b8c0;stroke-linecap:round;stroke-width:1.5;"/>
   </g>
   <g id="line2d_17">
    <path d="M 187.465279 65.931798 
L 189.141223 65.911527 
L 190.817168 65.888539 
L 192.493113 65.864015 
L 194.169058 65.839439 
L 195.845002 65.816364 
L 197.520947 65.796134 
L 199.196892 65.779692 
L 200.872837 65.767486 
L 202.548781 65.759496 
L 204.224726 65.755334 
L 205.900671 65.754359 
L 207.576616 65.75576 
L 209.252561 65.758619 
L 210.928505 65.761965 
L 212.60445 65.764867 
L 214.280395 65.766556 
L 215.95634 65.766556 
L 217.632284 65.764762 
L 219.308229 65.761447 
L 220.984174 65.757168 
L 222.660119 65.752608 
L 224.336063 65.748387 
L 226.012008 65.744907 
L 227.687953 65.742259 
L 229.363898 65.740222 
L 231.039843 65.738363 
L 232.715787 65.736201 
L 234.391732 65.733398 
L 236.067677 65.729897 
L 237.743622 65.725956 
L 239.419566 65.722049 
L 241.095511 65.718676 
L 242.771456 65.716158 
L 244.447401 65.714507 
L 246.123345 65.713414 
L 247.79929 65.712354 
L 249.475235 65.710757 
L 251.15118 65.70819 
L 252.827125 65.704502 
L 254.503069 65.699915 
L 256.179014 65.695037 
L 257.854959 65.690797 
L 259.530904 65.688299 
L 261.206848 65.688613 
L 262.882793 65.692556 
L 264.558738 65.700507 
L 266.234683 65.712307 
L 267.910627 65.727257 
L 269.586572 65.744234 
L 271.262517 65.761886 
L 272.938462 65.778892 
L 274.614406 65.794198 
L 276.290351 65.807203 
L 277.966296 65.81782 
L 279.642241 65.826414 
L 281.318186 65.83364 
L 282.99413 65.840231 
L 284.670075 65.846799 
L 286.34602 65.853697 
L 288.021965 65.860969 
L 289.697909 65.868388 
L 291.373854 65.875565 
L 293.049799 65.882097 
L 294.725744 65.88771 
L 296.401688 65.892353 
L 298.077633 65.896206 
L 299.753578 65.899605 
L 301.429523 65.902914 
L 303.105468 65.906408 
L 304.781412 65.910211 
L 306.457357 65.914312 
L 308.133302 65.918635 
L 309.809247 65.923126 
L 311.485191 65.927797 
L 313.161136 65.932709 
L 314.837081 65.937913 
L 316.513026 65.943387 
L 318.18897 65.949 
L 319.864915 65.95453 
L 321.54086 65.959715 
L 323.216805 65.964325 
L 324.89275 65.968209 
L 326.568694 65.971322 
L 328.244639 65.973709 
L 329.920584 65.975486 
L 331.596529 65.976806 
L 333.272473 65.977829 
L 334.948418 65.97869 
L 336.624363 65.979477 
L 338.300308 65.980212 
L 339.976252 65.980862 
L 341.652197 65.981362 
L 343.328142 65.981659 
L 345.004087 65.981754 
L 346.680032 65.981716 
L 348.355976 65.981672 
L 350.031921 65.981768 
L 351.707866 65.982115 
L 353.383811 65.982756 
" style="fill:none;stroke:#ffffff;stroke-linecap:round;stroke-width:2;"/>
   </g>
   <g id="line2d_18">
    <path d="M 142.42875 65.989333 
L 643.11875 65.989333 
" style="fill:none;stroke:#85b8c0;stroke-linecap:round;stroke-width:2;"/>
   </g>
   <g id="text_2">
    <!-- GenomicHealth_P0001_T1 -->
    <defs>
     <path d="M 74.703125 5.421875 
Q 67.671875 2 60.109375 0.28125 
Q 52.546875 -1.421875 44.484375 -1.421875 
Q 26.265625 -1.421875 15.625 8.765625 
Q 4.984375 18.953125 4.984375 36.375 
Q 4.984375 54 15.8125 64.109375 
Q 26.65625 74.21875 45.515625 74.21875 
Q 52.78125 74.21875 59.4375 72.84375 
Q 66.109375 71.484375 72.015625 68.796875 
L 72.015625 53.71875 
Q 65.921875 57.171875 59.890625 58.875 
Q 53.859375 60.59375 47.796875 60.59375 
Q 36.578125 60.59375 30.5 54.3125 
Q 24.421875 48.046875 24.421875 36.375 
Q 24.421875 24.8125 30.28125 18.5 
Q 36.140625 12.203125 46.921875 12.203125 
Q 49.859375 12.203125 52.375 12.5625 
Q 54.890625 12.9375 56.890625 13.71875 
L 56.890625 27.875 
L 45.40625 27.875 
L 45.40625 40.484375 
L 74.703125 40.484375 
z
" id="DejaVuSans-Bold-47"/>
     <path d="M 34.421875 43.5 
Q 28.609375 43.5 25.5625 39.328125 
Q 22.515625 35.15625 22.515625 27.296875 
Q 22.515625 19.4375 25.5625 15.25 
Q 28.609375 11.078125 34.421875 11.078125 
Q 40.140625 11.078125 43.15625 15.25 
Q 46.1875 19.4375 46.1875 27.296875 
Q 46.1875 35.15625 43.15625 39.328125 
Q 40.140625 43.5 34.421875 43.5 
z
M 34.421875 56 
Q 48.53125 56 56.46875 48.375 
Q 64.40625 40.765625 64.40625 27.296875 
Q 64.40625 13.8125 56.46875 6.1875 
Q 48.53125 -1.421875 34.421875 -1.421875 
Q 20.265625 -1.421875 12.28125 6.1875 
Q 4.296875 13.8125 4.296875 27.296875 
Q 4.296875 40.765625 12.28125 48.375 
Q 20.265625 56 34.421875 56 
z
" id="DejaVuSans-Bold-6f"/>
     <path d="M 59.078125 45.609375 
Q 62.40625 50.6875 66.96875 53.34375 
Q 71.53125 56 77 56 
Q 86.421875 56 91.359375 50.1875 
Q 96.296875 44.390625 96.296875 33.296875 
L 96.296875 0 
L 78.71875 0 
L 78.71875 28.515625 
Q 78.765625 29.15625 78.78125 29.828125 
Q 78.8125 30.515625 78.8125 31.78125 
Q 78.8125 37.59375 77.09375 40.203125 
Q 75.390625 42.828125 71.578125 42.828125 
Q 66.609375 42.828125 63.890625 38.71875 
Q 61.1875 34.625 61.078125 26.859375 
L 61.078125 0 
L 43.5 0 
L 43.5 28.515625 
Q 43.5 37.59375 41.9375 40.203125 
Q 40.375 42.828125 36.375 42.828125 
Q 31.34375 42.828125 28.609375 38.703125 
Q 25.875 34.578125 25.875 26.90625 
L 25.875 0 
L 8.296875 0 
L 8.296875 54.6875 
L 25.875 54.6875 
L 25.875 46.6875 
Q 29.109375 51.3125 33.28125 53.65625 
Q 37.453125 56 42.484375 56 
Q 48.140625 56 52.484375 53.265625 
Q 56.84375 50.53125 59.078125 45.609375 
z
" id="DejaVuSans-Bold-6d"/>
     <path d="M 8.40625 54.6875 
L 25.875 54.6875 
L 25.875 0 
L 8.40625 0 
z
M 8.40625 75.984375 
L 25.875 75.984375 
L 25.875 61.71875 
L 8.40625 61.71875 
z
" id="DejaVuSans-Bold-69"/>
     <path d="M 9.1875 72.90625 
L 27.984375 72.90625 
L 27.984375 45.125 
L 55.71875 45.125 
L 55.71875 72.90625 
L 74.515625 72.90625 
L 74.515625 0 
L 55.71875 0 
L 55.71875 30.90625 
L 27.984375 30.90625 
L 27.984375 0 
L 9.1875 0 
z
" id="DejaVuSans-Bold-48"/>
     <path d="M 8.40625 75.984375 
L 25.875 75.984375 
L 25.875 0 
L 8.40625 0 
z
" id="DejaVuSans-Bold-6c"/>
     <path d="M 63.375 33.296875 
L 63.375 0 
L 45.796875 0 
L 45.796875 5.421875 
L 45.796875 25.390625 
Q 45.796875 32.5625 45.484375 35.25 
Q 45.171875 37.9375 44.390625 39.203125 
Q 43.359375 40.921875 41.59375 41.875 
Q 39.84375 42.828125 37.59375 42.828125 
Q 32.125 42.828125 29 38.59375 
Q 25.875 34.375 25.875 26.90625 
L 25.875 0 
L 8.40625 0 
L 8.40625 75.984375 
L 25.875 75.984375 
L 25.875 46.6875 
Q 29.828125 51.46875 34.265625 53.734375 
Q 38.71875 56 44.09375 56 
Q 53.5625 56 58.46875 50.1875 
Q 63.375 44.390625 63.375 33.296875 
z
" id="DejaVuSans-Bold-68"/>
    </defs>
    <g style="fill:#85b8c0;" transform="translate(26.49 60.736917)scale(0.08 -0.08)">
     <use xlink:href="#DejaVuSans-Bold-47"/>
     <use x="82.080078" xlink:href="#DejaVuSans-Bold-65"/>
     <use x="149.902344" xlink:href="#DejaVuSans-Bold-6e"/>
     <use x="221.09375" xlink:href="#DejaVuSans-Bold-6f"/>
     <use x="289.794922" xlink:href="#DejaVuSans-Bold-6d"/>
     <use x="393.994141" xlink:href="#DejaVuSans-Bold-69"/>
     <use x="428.271484" xlink:href="#DejaVuSans-Bold-63"/>
     <use x="487.548828" xlink:href="#DejaVuSans-Bold-48"/>
     <use x="571.240234" xlink:href="#DejaVuSans-Bold-65"/>
     <use x="639.0625" xlink:href="#DejaVuSans-Bold-61"/>
     <use x="706.542969" xlink:href="#DejaVuSans-Bold-6c"/>
     <use x="740.820312" xlink:href="#DejaVuSans-Bold-74"/>
     <use x="788.623047" xlink:href="#DejaVuSans-Bold-68"/>
     <use x="859.814453" xlink:href="#DejaVuSans-Bold-5f"/>
     <use x="909.814453" xlink:href="#DejaVuSans-Bold-50"/>
     <use x="983.105469" xlink:href="#DejaVuSans-Bold-30"/>
     <use x="1052.685547" xlink:href="#DejaVuSans-Bold-30"/>
     <use x="1122.265625" xlink:href="#DejaVuSans-Bold-30"/>
     <use x="1191.845703" xlink:href="#DejaVuSans-Bold-31"/>
     <use x="1261.425781" xlink:href="#DejaVuSans-Bold-5f"/>
     <use x="1311.425781" xlink:href="#DejaVuSans-Bold-54"/>
     <use x="1379.638672" xlink:href="#DejaVuSans-Bold-31"/>
    </g>
   </g>
  </g>
  <g id="axes_3">
   <g id="patch_4">
    <path d="M 142.42875 88.035333 
L 643.11875 88.035333 
L 643.11875 51.292 
L 142.42875 51.292 
z
" style="fill:none;"/>
   </g>
   <g id="matplotlib.axis_5">
    <g id="xtick_13">
     <g id="line2d_19"/>
    </g>
    <g id="xtick_14">
     <g id="line2d_20"/>
    </g>
    <g id="xtick_15">
     <g id="line2d_21"/>
    </g>
    <g id="xtick_16">
     <g id="line2d_22"/>
    </g>
    <g id="xtick_17">
     <g id="line2d_23"/>
    </g>
    <g id="xtick_18">
     <g id="line2d_24"/>
    </g>
   </g>
   <g id="matplotlib.axis_6"/>
   <g id="PolyCollection_3">
    <path d="M 165.187386 88.035333 
L 165.187386 88.035333 
L 165.296174 88.035333 
L 165.404961 88.035333 
L 165.513748 88.035333 
L 165.622535 88.035333 
L 165.731322 88.035333 
L 165.840109 88.035333 
L 165.948896 88.035333 
L 166.057683 88.035333 
L 166.166471 88.035333 
L 166.275258 88.035333 
L 166.384045 88.035333 
L 166.492832 88.035333 
L 166.601619 88.035333 
L 166.710406 88.035333 
L 166.819193 88.035333 
L 166.927981 88.035333 
L 167.036768 88.035333 
L 167.145555 88.035333 
L 167.254342 88.035333 
L 167.363129 88.035333 
L 167.471916 88.035333 
L 167.580703 88.035333 
L 167.689491 88.035333 
L 167.798278 88.035333 
L 167.907065 88.035333 
L 168.015852 88.035333 
L 168.124639 88.035333 
L 168.233426 88.035333 
L 168.342213 88.035333 
L 168.451001 88.035333 
L 168.559788 88.035333 
L 168.668575 88.035333 
L 168.777362 88.035333 
L 168.886149 88.035333 
L 168.994936 88.035333 
L 169.103723 88.035333 
L 169.212511 88.035333 
L 169.321298 88.035333 
L 169.430085 88.035333 
L 169.538872 88.035333 
L 169.647659 88.035333 
L 169.756446 88.035333 
L 169.865233 88.035333 
L 169.974021 88.035333 
L 170.082808 88.035333 
L 170.191595 88.035333 
L 170.300382 88.035333 
L 170.409169 88.035333 
L 170.517956 88.035333 
L 170.626743 88.035333 
L 170.73553 88.035333 
L 170.844318 88.035333 
L 170.953105 88.035333 
L 171.061892 88.035333 
L 171.170679 88.035333 
L 171.279466 88.035333 
L 171.388253 88.035333 
L 171.49704 88.035333 
L 171.605828 88.035333 
L 171.714615 88.035333 
L 171.823402 88.035333 
L 171.932189 88.035333 
L 172.040976 88.035333 
L 172.149763 88.035333 
L 172.25855 88.035333 
L 172.367338 88.035333 
L 172.476125 88.035333 
L 172.584912 88.035333 
L 172.693699 88.035333 
L 172.802486 88.035333 
L 172.911273 88.035333 
L 173.02006 88.035333 
L 173.128848 88.035333 
L 173.237635 88.035333 
L 173.346422 88.035333 
L 173.455209 88.035333 
L 173.563996 88.035333 
L 173.672783 88.035333 
L 173.78157 88.035333 
L 173.890358 88.035333 
L 173.999145 88.035333 
L 174.107932 88.035333 
L 174.216719 88.035333 
L 174.325506 88.035333 
L 174.434293 88.035333 
L 174.54308 88.035333 
L 174.651868 88.035333 
L 174.760655 88.035333 
L 174.869442 88.035333 
L 174.978229 88.035333 
L 175.087016 88.035333 
L 175.195803 88.035333 
L 175.30459 88.035333 
L 175.413377 88.035333 
L 175.522165 88.035333 
L 175.630952 88.035333 
L 175.739739 88.035333 
L 175.848526 88.035333 
L 175.957313 88.035333 
L 175.957313 88.035333 
L 175.957313 88.035333 
L 175.848526 88.035333 
L 175.739739 88.035333 
L 175.630952 88.035333 
L 175.522165 88.035333 
L 175.413377 88.035333 
L 175.30459 88.035333 
L 175.195803 88.035333 
L 175.087016 88.035333 
L 174.978229 88.035333 
L 174.869442 88.035333 
L 174.760655 88.035333 
L 174.651868 88.035333 
L 174.54308 88.035328 
L 174.434293 88.03528 
L 174.325506 88.034916 
L 174.216719 88.032717 
L 174.107932 88.022339 
L 173.999145 87.984134 
L 173.890358 87.875303 
L 173.78157 87.638543 
L 173.672783 87.254891 
L 173.563996 86.817631 
L 173.455209 86.528166 
L 173.346422 86.555536 
L 173.237635 86.882774 
L 173.128848 87.323228 
L 173.02006 87.686317 
L 172.911273 87.899637 
L 172.802486 87.993482 
L 172.693699 88.025094 
L 172.584912 88.033346 
L 172.476125 88.035027 
L 172.367338 88.035296 
L 172.25855 88.03533 
L 172.149763 88.035333 
L 172.040976 88.035333 
L 171.932189 88.035333 
L 171.823402 88.035333 
L 171.714615 88.035332 
L 171.605828 88.035318 
L 171.49704 88.035193 
L 171.388253 88.03434 
L 171.279466 88.029738 
L 171.170679 88.010331 
L 171.061892 87.946698 
L 170.953105 87.786078 
L 170.844318 87.479295 
L 170.73553 87.051357 
L 170.626743 86.654042 
L 170.517956 86.497158 
L 170.409169 86.676561 
L 170.300382 87.083177 
L 170.191595 87.506048 
L 170.082808 87.801937 
L 169.974021 87.953678 
L 169.865233 88.012557 
L 169.756446 88.02944 
L 169.647659 88.029057 
L 169.538872 88.009427 
L 169.430085 87.936713 
L 169.321298 87.732074 
L 169.212511 87.281746 
L 169.103723 86.511376 
L 168.994936 85.499339 
L 168.886149 84.502419 
L 168.777362 83.807315 
L 168.668575 83.523111 
L 168.559788 83.485861 
L 168.451001 83.227288 
L 168.342213 81.879136 
L 168.233426 78.241945 
L 168.124639 71.53594 
L 168.015852 62.754349 
L 167.907065 55.250679 
L 167.798278 53.041683 
L 167.689491 57.65056 
L 167.580703 66.705075 
L 167.471916 75.977386 
L 167.363129 82.562446 
L 167.254342 86.045351 
L 167.145555 87.456689 
L 167.036768 87.900961 
L 166.927981 88.01044 
L 166.819193 88.031657 
L 166.710406 88.034901 
L 166.601619 88.035293 
L 166.492832 88.03533 
L 166.384045 88.035333 
L 166.275258 88.035333 
L 166.166471 88.035333 
L 166.057683 88.035333 
L 165.948896 88.035333 
L 165.840109 88.035333 
L 165.731322 88.035333 
L 165.622535 88.035333 
L 165.513748 88.035333 
L 165.404961 88.035333 
L 165.296174 88.035333 
L 165.187386 88.035333 
z
" style="fill:#7db0bb;"/>
   </g>
   <g id="line2d_25">
    <path d="M 165.187386 88.035333 
L 165.296174 88.035333 
L 165.404961 88.035333 
L 165.513748 88.035333 
L 165.622535 88.035333 
L 165.731322 88.035333 
L 165.840109 88.035333 
L 165.948896 88.035333 
L 166.057683 88.035333 
L 166.166471 88.035333 
L 166.275258 88.035333 
L 166.384045 88.035333 
L 166.492832 88.03533 
L 166.601619 88.035293 
L 166.710406 88.034901 
L 166.819193 88.031657 
L 166.927981 88.01044 
L 167.036768 87.900961 
L 167.145555 87.456689 
L 167.254342 86.045351 
L 167.363129 82.562446 
L 167.471916 75.977386 
L 167.580703 66.705075 
L 167.689491 57.65056 
L 167.798278 53.041683 
L 167.907065 55.250679 
L 168.015852 62.754349 
L 168.124639 71.53594 
L 168.233426 78.241945 
L 168.342213 81.879136 
L 168.451001 83.227288 
L 168.559788 83.485861 
L 168.668575 83.523111 
L 168.777362 83.807315 
L 168.886149 84.502419 
L 168.994936 85.499339 
L 169.103723 86.511376 
L 169.212511 87.281746 
L 169.321298 87.732074 
L 169.430085 87.936713 
L 169.538872 88.009427 
L 169.647659 88.029057 
L 169.756446 88.02944 
L 169.865233 88.012557 
L 169.974021 87.953678 
L 170.082808 87.801937 
L 170.191595 87.506048 
L 170.300382 87.083177 
L 170.409169 86.676561 
L 170.517956 86.497158 
L 170.626743 86.654042 
L 170.73553 87.051357 
L 170.844318 87.479295 
L 170.953105 87.786078 
L 171.061892 87.946698 
L 171.170679 88.010331 
L 171.279466 88.029738 
L 171.388253 88.03434 
L 171.49704 88.035193 
L 171.605828 88.035318 
L 171.714615 88.035332 
L 171.823402 88.035333 
L 171.932189 88.035333 
L 172.040976 88.035333 
L 172.149763 88.035333 
L 172.25855 88.03533 
L 172.367338 88.035296 
L 172.476125 88.035027 
L 172.584912 88.033346 
L 172.693699 88.025094 
L 172.802486 87.993482 
L 172.911273 87.899637 
L 173.02006 87.686317 
L 173.128848 87.323228 
L 173.237635 86.882774 
L 173.346422 86.555536 
L 173.455209 86.528166 
L 173.563996 86.817631 
L 173.672783 87.254891 
L 173.78157 87.638543 
L 173.890358 87.875303 
L 173.999145 87.984134 
L 174.107932 88.022339 
L 174.216719 88.032717 
L 174.325506 88.034916 
L 174.434293 88.03528 
L 174.54308 88.035328 
L 174.651868 88.035333 
L 174.760655 88.035333 
L 174.869442 88.035333 
L 174.978229 88.035333 
L 175.087016 88.035333 
L 175.195803 88.035333 
L 175.30459 88.035333 
L 175.413377 88.035333 
L 175.522165 88.035333 
L 175.630952 88.035333 
L 175.739739 88.035333 
L 175.848526 88.035333 
L 175.957313 88.035333 
" style="fill:none;stroke:#7db0bb;stroke-linecap:round;stroke-width:1.5;"/>
   </g>
   <g id="line2d_26">
    <path d="M 165.187386 88.035333 
L 165.296174 88.035333 
L 165.404961 88.035333 
L 165.513748 88.035333 
L 165.622535 88.035333 
L 165.731322 88.035333 
L 165.840109 88.035333 
L 165.948896 88.035333 
L 166.057683 88.035333 
L 166.166471 88.035333 
L 166.275258 88.035333 
L 166.384045 88.035333 
L 166.492832 88.03533 
L 166.601619 88.035293 
L 166.710406 88.034901 
L 166.819193 88.031657 
L 166.927981 88.01044 
L 167.036768 87.900961 
L 167.145555 87.456689 
L 167.254342 86.045351 
L 167.363129 82.562446 
L 167.471916 75.977386 
L 167.580703 66.705075 
L 167.689491 57.65056 
L 167.798278 53.041683 
L 167.907065 55.250679 
L 168.015852 62.754349 
L 168.124639 71.53594 
L 168.233426 78.241945 
L 168.342213 81.879136 
L 168.451001 83.227288 
L 168.559788 83.485861 
L 168.668575 83.523111 
L 168.777362 83.807315 
L 168.886149 84.502419 
L 168.994936 85.499339 
L 169.103723 86.511376 
L 169.212511 87.281746 
L 169.321298 87.732074 
L 169.430085 87.936713 
L 169.538872 88.009427 
L 169.647659 88.029057 
L 169.756446 88.02944 
L 169.865233 88.012557 
L 169.974021 87.953678 
L 170.082808 87.801937 
L 170.191595 87.506048 
L 170.300382 87.083177 
L 170.409169 86.676561 
L 170.517956 86.497158 
L 170.626743 86.654042 
L 170.73553 87.051357 
L 170.844318 87.479295 
L 170.953105 87.786078 
L 171.061892 87.946698 
L 171.170679 88.010331 
L 171.279466 88.029738 
L 171.388253 88.03434 
L 171.49704 88.035193 
L 171.605828 88.035318 
L 171.714615 88.035332 
L 171.823402 88.035333 
L 171.932189 88.035333 
L 172.040976 88.035333 
L 172.149763 88.035333 
L 172.25855 88.03533 
L 172.367338 88.035296 
L 172.476125 88.035027 
L 172.584912 88.033346 
L 172.693699 88.025094 
L 172.802486 87.993482 
L 172.911273 87.899637 
L 173.02006 87.686317 
L 173.128848 87.323228 
L 173.237635 86.882774 
L 173.346422 86.555536 
L 173.455209 86.528166 
L 173.563996 86.817631 
L 173.672783 87.254891 
L 173.78157 87.638543 
L 173.890358 87.875303 
L 173.999145 87.984134 
L 174.107932 88.022339 
L 174.216719 88.032717 
L 174.325506 88.034916 
L 174.434293 88.03528 
L 174.54308 88.035328 
L 174.651868 88.035333 
L 174.760655 88.035333 
L 174.869442 88.035333 
L 174.978229 88.035333 
L 175.087016 88.035333 
L 175.195803 88.035333 
L 175.30459 88.035333 
L 175.413377 88.035333 
L 175.522165 88.035333 
L 175.630952 88.035333 
L 175.739739 88.035333 
L 175.848526 88.035333 
L 175.957313 88.035333 
" style="fill:none;stroke:#ffffff;stroke-linecap:round;stroke-width:2;"/>
   </g>
   <g id="line2d_27">
    <path d="M 142.42875 88.035333 
L 643.11875 88.035333 
" style="fill:none;stroke:#7db0bb;stroke-linecap:round;stroke-width:2;"/>
   </g>
   <g id="text_3">
    <!-- PersonalGenomeDx_P0001_T1 -->
    <defs>
     <path d="M 27.984375 58.6875 
L 27.984375 14.203125 
L 34.71875 14.203125 
Q 46.234375 14.203125 52.3125 19.921875 
Q 58.40625 25.640625 58.40625 36.53125 
Q 58.40625 47.359375 52.34375 53.015625 
Q 46.296875 58.6875 34.71875 58.6875 
z
M 9.1875 72.90625 
L 29 72.90625 
Q 45.609375 72.90625 53.734375 70.53125 
Q 61.859375 68.171875 67.671875 62.5 
Q 72.796875 57.5625 75.28125 51.109375 
Q 77.78125 44.671875 77.78125 36.53125 
Q 77.78125 28.265625 75.28125 21.796875 
Q 72.796875 15.328125 67.671875 10.40625 
Q 61.8125 4.734375 53.609375 2.359375 
Q 45.40625 0 29 0 
L 9.1875 0 
z
" id="DejaVuSans-Bold-44"/>
     <path d="M 22.21875 27.984375 
L 2.484375 54.6875 
L 21 54.6875 
L 32.171875 38.484375 
L 43.5 54.6875 
L 62.015625 54.6875 
L 42.28125 28.078125 
L 62.984375 0 
L 44.484375 0 
L 32.171875 17.28125 
L 20.015625 0 
L 1.515625 0 
z
" id="DejaVuSans-Bold-78"/>
    </defs>
    <g style="fill:#7db0bb;" transform="translate(7.2 82.782917)scale(0.08 -0.08)">
     <use xlink:href="#DejaVuSans-Bold-50"/>
     <use x="73.291016" xlink:href="#DejaVuSans-Bold-65"/>
     <use x="141.113281" xlink:href="#DejaVuSans-Bold-72"/>
     <use x="190.429688" xlink:href="#DejaVuSans-Bold-73"/>
     <use x="249.951172" xlink:href="#DejaVuSans-Bold-6f"/>
     <use x="318.652344" xlink:href="#DejaVuSans-Bold-6e"/>
     <use x="389.84375" xlink:href="#DejaVuSans-Bold-61"/>
     <use x="457.324219" xlink:href="#DejaVuSans-Bold-6c"/>
     <use x="491.601562" xlink:href="#DejaVuSans-Bold-47"/>
     <use x="573.681641" xlink:href="#DejaVuSans-Bold-65"/>
     <use x="641.503906" xlink:href="#DejaVuSans-Bold-6e"/>
     <use x="712.695312" xlink:href="#DejaVuSans-Bold-6f"/>
     <use x="781.396484" xlink:href="#DejaVuSans-Bold-6d"/>
     <use x="885.595703" xlink:href="#DejaVuSans-Bold-65"/>
     <use x="953.417969" xlink:href="#DejaVuSans-Bold-44"/>
     <use x="1036.425781" xlink:href="#DejaVuSans-Bold-78"/>
     <use x="1100.927734" xlink:href="#DejaVuSans-Bold-5f"/>
     <use x="1150.927734" xlink:href="#DejaVuSans-Bold-50"/>
     <use x="1224.21875" xlink:href="#DejaVuSans-Bold-30"/>
     <use x="1293.798828" xlink:href="#DejaVuSans-Bold-30"/>
     <use x="1363.378906" xlink:href="#DejaVuSans-Bold-30"/>
     <use x="1432.958984" xlink:href="#DejaVuSans-Bold-31"/>
     <use x="1502.539062" xlink:href="#DejaVuSans-Bold-5f"/>
     <use x="1552.539062" xlink:href="#DejaVuSans-Bold-54"/>
     <use x="1620.751953" xlink:href="#DejaVuSans-Bold-31"/>
    </g>
   </g>
  </g>
  <g id="axes_4">
   <g id="patch_5">
    <path d="M 142.42875 110.081333 
L 643.11875 110.081333 
L 643.11875 73.338 
L 142.42875 73.338 
z
" style="fill:none;"/>
   </g>
   <g id="matplotlib.axis_7">
    <g id="xtick_19">
     <g id="line2d_28"/>
    </g>
    <g id="xtick_20">
     <g id="line2d_29"/>
    </g>
    <g id="xtick_21">
     <g id="line2d_30"/>
    </g>
    <g id="xtick_22">
     <g id="line2d_31"/>
    </g>
    <g id="xtick_23">
     <g id="line2d_32"/>
    </g>
    <g id="xtick_24">
     <g id="line2d_33"/>
    </g>
   </g>
   <g id="matplotlib.axis_8"/>
   <g id="PolyCollection_4">
    <path d="M 166.708476 109.906647 
L 166.708476 110.081333 
L 170.424362 110.081333 
L 174.140248 110.081333 
L 177.856134 110.081333 
L 181.57202 110.081333 
L 185.287906 110.081333 
L 189.003792 110.081333 
L 192.719678 110.081333 
L 196.435564 110.081333 
L 200.15145 110.081333 
L 203.867335 110.081333 
L 207.583221 110.081333 
L 211.299107 110.081333 
L 215.014993 110.081333 
L 218.730879 110.081333 
L 222.446765 110.081333 
L 226.162651 110.081333 
L 229.878537 110.081333 
L 233.594423 110.081333 
L 237.310309 110.081333 
L 241.026195 110.081333 
L 244.742081 110.081333 
L 248.457967 110.081333 
L 252.173853 110.081333 
L 255.889739 110.081333 
L 259.605625 110.081333 
L 263.32151 110.081333 
L 267.037396 110.081333 
L 270.753282 110.081333 
L 274.469168 110.081333 
L 278.185054 110.081333 
L 281.90094 110.081333 
L 285.616826 110.081333 
L 289.332712 110.081333 
L 293.048598 110.081333 
L 296.764484 110.081333 
L 300.48037 110.081333 
L 304.196256 110.081333 
L 307.912142 110.081333 
L 311.628028 110.081333 
L 315.343914 110.081333 
L 319.059799 110.081333 
L 322.775685 110.081333 
L 326.491571 110.081333 
L 330.207457 110.081333 
L 333.923343 110.081333 
L 337.639229 110.081333 
L 341.355115 110.081333 
L 345.071001 110.081333 
L 348.786887 110.081333 
L 352.502773 110.081333 
L 356.218659 110.081333 
L 359.934545 110.081333 
L 363.650431 110.081333 
L 367.366317 110.081333 
L 371.082203 110.081333 
L 374.798089 110.081333 
L 378.513974 110.081333 
L 382.22986 110.081333 
L 385.945746 110.081333 
L 389.661632 110.081333 
L 393.377518 110.081333 
L 397.093404 110.081333 
L 400.80929 110.081333 
L 404.525176 110.081333 
L 408.241062 110.081333 
L 411.956948 110.081333 
L 415.672834 110.081333 
L 419.38872 110.081333 
L 423.104606 110.081333 
L 426.820492 110.081333 
L 430.536378 110.081333 
L 434.252263 110.081333 
L 437.968149 110.081333 
L 441.684035 110.081333 
L 445.399921 110.081333 
L 449.115807 110.081333 
L 452.831693 110.081333 
L 456.547579 110.081333 
L 460.263465 110.081333 
L 463.979351 110.081333 
L 467.695237 110.081333 
L 471.411123 110.081333 
L 475.127009 110.081333 
L 478.842895 110.081333 
L 482.558781 110.081333 
L 486.274667 110.081333 
L 489.990553 110.081333 
L 493.706438 110.081333 
L 497.422324 110.081333 
L 501.13821 110.081333 
L 504.854096 110.081333 
L 508.569982 110.081333 
L 512.285868 110.081333 
L 516.001754 110.081333 
L 519.71764 110.081333 
L 523.433526 110.081333 
L 527.149412 110.081333 
L 530.865298 110.081333 
L 534.581184 110.081333 
L 534.581184 110.048136 
L 534.581184 110.048136 
L 530.865298 110.047911 
L 527.149412 110.048888 
L 523.433526 110.050961 
L 519.71764 110.053919 
L 516.001754 110.057474 
L 512.285868 110.06131 
L 508.569982 110.06513 
L 504.854096 110.06869 
L 501.13821 110.07182 
L 497.422324 110.074432 
L 493.706438 110.076505 
L 489.990553 110.078076 
L 486.274667 110.079215 
L 482.558781 110.080004 
L 478.842895 110.080528 
L 475.127009 110.08086 
L 471.411123 110.08106 
L 467.695237 110.08117 
L 463.979351 110.081217 
L 460.263465 110.081213 
L 456.547579 110.081159 
L 452.831693 110.081038 
L 449.115807 110.080822 
L 445.399921 110.080465 
L 441.684035 110.079908 
L 437.968149 110.079073 
L 434.252263 110.077877 
L 430.536378 110.076237 
L 426.820492 110.074086 
L 423.104606 110.071397 
L 419.38872 110.068197 
L 415.672834 110.064586 
L 411.956948 110.060746 
L 408.241062 110.056929 
L 404.525176 110.053438 
L 400.80929 110.050582 
L 397.093404 110.048638 
L 393.377518 110.047796 
L 389.661632 110.048131 
L 385.945746 110.049577 
L 382.22986 110.05194 
L 378.513974 110.054917 
L 374.798089 110.058141 
L 371.082203 110.061229 
L 367.366317 110.063821 
L 363.650431 110.065626 
L 359.934545 110.066445 
L 356.218659 110.06619 
L 352.502773 110.064885 
L 348.786887 110.062671 
L 345.071001 110.059786 
L 341.355115 110.056548 
L 337.639229 110.053318 
L 333.923343 110.050454 
L 330.207457 110.048258 
L 326.491571 110.046927 
L 322.775685 110.046513 
L 319.059799 110.0469 
L 315.343914 110.047808 
L 311.628028 110.048822 
L 307.912142 110.049442 
L 304.196256 110.049145 
L 300.48037 110.047457 
L 296.764484 110.044009 
L 293.048598 110.038595 
L 289.332712 110.031198 
L 285.616826 110.022012 
L 281.90094 110.011425 
L 278.185054 109.999997 
L 274.469168 109.988405 
L 270.753282 109.977372 
L 267.037396 109.967583 
L 263.32151 109.959604 
L 259.605625 109.953794 
L 255.889739 109.950262 
L 252.173853 109.948843 
L 248.457967 109.949125 
L 244.742081 109.950515 
L 241.026195 109.952333 
L 237.310309 109.95391 
L 233.594423 109.954672 
L 229.878537 109.954202 
L 226.162651 109.952246 
L 222.446765 109.948699 
L 218.730879 109.943563 
L 215.014993 109.936906 
L 211.299107 109.928848 
L 207.583221 109.919568 
L 203.867335 109.909344 
L 200.15145 109.898609 
L 196.435564 109.887983 
L 192.719678 109.878288 
L 189.003792 109.870494 
L 185.287906 109.865625 
L 181.57202 109.864613 
L 177.856134 109.86814 
L 174.140248 109.876509 
L 170.424362 109.889555 
L 166.708476 109.906647 
z
" style="fill:#75a8b6;"/>
   </g>
   <g id="line2d_34">
    <path d="M 166.708476 109.906647 
L 170.424362 109.889555 
L 174.140248 109.876509 
L 177.856134 109.86814 
L 181.57202 109.864613 
L 185.287906 109.865625 
L 189.003792 109.870494 
L 192.719678 109.878288 
L 196.435564 109.887983 
L 200.15145 109.898609 
L 203.867335 109.909344 
L 207.583221 109.919568 
L 211.299107 109.928848 
L 215.014993 109.936906 
L 218.730879 109.943563 
L 222.446765 109.948699 
L 226.162651 109.952246 
L 229.878537 109.954202 
L 233.594423 109.954672 
L 237.310309 109.95391 
L 241.026195 109.952333 
L 244.742081 109.950515 
L 248.457967 109.949125 
L 252.173853 109.948843 
L 255.889739 109.950262 
L 259.605625 109.953794 
L 263.32151 109.959604 
L 267.037396 109.967583 
L 270.753282 109.977372 
L 274.469168 109.988405 
L 278.185054 109.999997 
L 281.90094 110.011425 
L 285.616826 110.022012 
L 289.332712 110.031198 
L 293.048598 110.038595 
L 296.764484 110.044009 
L 300.48037 110.047457 
L 304.196256 110.049145 
L 307.912142 110.049442 
L 311.628028 110.048822 
L 315.343914 110.047808 
L 319.059799 110.0469 
L 322.775685 110.046513 
L 326.491571 110.046927 
L 330.207457 110.048258 
L 333.923343 110.050454 
L 337.639229 110.053318 
L 341.355115 110.056548 
L 345.071001 110.059786 
L 348.786887 110.062671 
L 352.502773 110.064885 
L 356.218659 110.06619 
L 359.934545 110.066445 
L 363.650431 110.065626 
L 367.366317 110.063821 
L 371.082203 110.061229 
L 374.798089 110.058141 
L 378.513974 110.054917 
L 382.22986 110.05194 
L 385.945746 110.049577 
L 389.661632 110.048131 
L 393.377518 110.047796 
L 397.093404 110.048638 
L 400.80929 110.050582 
L 404.525176 110.053438 
L 408.241062 110.056929 
L 411.956948 110.060746 
L 415.672834 110.064586 
L 419.38872 110.068197 
L 423.104606 110.071397 
L 426.820492 110.074086 
L 430.536378 110.076237 
L 434.252263 110.077877 
L 437.968149 110.079073 
L 441.684035 110.079908 
L 445.399921 110.080465 
L 449.115807 110.080822 
L 452.831693 110.081038 
L 456.547579 110.081159 
L 460.263465 110.081213 
L 463.979351 110.081217 
L 467.695237 110.08117 
L 471.411123 110.08106 
L 475.127009 110.08086 
L 478.842895 110.080528 
L 482.558781 110.080004 
L 486.274667 110.079215 
L 489.990553 110.078076 
L 493.706438 110.076505 
L 497.422324 110.074432 
L 501.13821 110.07182 
L 504.854096 110.06869 
L 508.569982 110.06513 
L 512.285868 110.06131 
L 516.001754 110.057474 
L 519.71764 110.053919 
L 523.433526 110.050961 
L 527.149412 110.048888 
L 530.865298 110.047911 
L 534.581184 110.048136 
" style="fill:none;stroke:#75a8b6;stroke-linecap:round;stroke-width:1.5;"/>
   </g>
   <g id="line2d_35">
    <path d="M 166.708476 109.906647 
L 170.424362 109.889555 
L 174.140248 109.876509 
L 177.856134 109.86814 
L 181.57202 109.864613 
L 185.287906 109.865625 
L 189.003792 109.870494 
L 192.719678 109.878288 
L 196.435564 109.887983 
L 200.15145 109.898609 
L 203.867335 109.909344 
L 207.583221 109.919568 
L 211.299107 109.928848 
L 215.014993 109.936906 
L 218.730879 109.943563 
L 222.446765 109.948699 
L 226.162651 109.952246 
L 229.878537 109.954202 
L 233.594423 109.954672 
L 237.310309 109.95391 
L 241.026195 109.952333 
L 244.742081 109.950515 
L 248.457967 109.949125 
L 252.173853 109.948843 
L 255.889739 109.950262 
L 259.605625 109.953794 
L 263.32151 109.959604 
L 267.037396 109.967583 
L 270.753282 109.977372 
L 274.469168 109.988405 
L 278.185054 109.999997 
L 281.90094 110.011425 
L 285.616826 110.022012 
L 289.332712 110.031198 
L 293.048598 110.038595 
L 296.764484 110.044009 
L 300.48037 110.047457 
L 304.196256 110.049145 
L 307.912142 110.049442 
L 311.628028 110.048822 
L 315.343914 110.047808 
L 319.059799 110.0469 
L 322.775685 110.046513 
L 326.491571 110.046927 
L 330.207457 110.048258 
L 333.923343 110.050454 
L 337.639229 110.053318 
L 341.355115 110.056548 
L 345.071001 110.059786 
L 348.786887 110.062671 
L 352.502773 110.064885 
L 356.218659 110.06619 
L 359.934545 110.066445 
L 363.650431 110.065626 
L 367.366317 110.063821 
L 371.082203 110.061229 
L 374.798089 110.058141 
L 378.513974 110.054917 
L 382.22986 110.05194 
L 385.945746 110.049577 
L 389.661632 110.048131 
L 393.377518 110.047796 
L 397.093404 110.048638 
L 400.80929 110.050582 
L 404.525176 110.053438 
L 408.241062 110.056929 
L 411.956948 110.060746 
L 415.672834 110.064586 
L 419.38872 110.068197 
L 423.104606 110.071397 
L 426.820492 110.074086 
L 430.536378 110.076237 
L 434.252263 110.077877 
L 437.968149 110.079073 
L 441.684035 110.079908 
L 445.399921 110.080465 
L 449.115807 110.080822 
L 452.831693 110.081038 
L 456.547579 110.081159 
L 460.263465 110.081213 
L 463.979351 110.081217 
L 467.695237 110.08117 
L 471.411123 110.08106 
L 475.127009 110.08086 
L 478.842895 110.080528 
L 482.558781 110.080004 
L 486.274667 110.079215 
L 489.990553 110.078076 
L 493.706438 110.076505 
L 497.422324 110.074432 
L 501.13821 110.07182 
L 504.854096 110.06869 
L 508.569982 110.06513 
L 512.285868 110.06131 
L 516.001754 110.057474 
L 519.71764 110.053919 
L 523.433526 110.050961 
L 527.149412 110.048888 
L 530.865298 110.047911 
L 534.581184 110.048136 
" style="fill:none;stroke:#ffffff;stroke-linecap:round;stroke-width:2;"/>
   </g>
   <g id="line2d_36">
    <path d="M 142.42875 110.081333 
L 643.11875 110.081333 
" style="fill:none;stroke:#75a8b6;stroke-linecap:round;stroke-width:2;"/>
   </g>
   <g id="text_4">
    <!-- ThermoFisher_P0002_T1 -->
    <defs>
     <path d="M 9.1875 72.90625 
L 59.90625 72.90625 
L 59.90625 58.6875 
L 27.984375 58.6875 
L 27.984375 45.125 
L 58.015625 45.125 
L 58.015625 30.90625 
L 27.984375 30.90625 
L 27.984375 0 
L 9.1875 0 
z
" id="DejaVuSans-Bold-46"/>
     <path d="M 28.8125 13.8125 
L 60.890625 13.8125 
L 60.890625 0 
L 7.90625 0 
L 7.90625 13.8125 
L 34.515625 37.3125 
Q 38.09375 40.53125 39.796875 43.609375 
Q 41.5 46.6875 41.5 50 
Q 41.5 55.125 38.0625 58.25 
Q 34.625 61.375 28.90625 61.375 
Q 24.515625 61.375 19.28125 59.5 
Q 14.0625 57.625 8.109375 53.90625 
L 8.109375 69.921875 
Q 14.453125 72.015625 20.65625 73.109375 
Q 26.859375 74.21875 32.8125 74.21875 
Q 45.90625 74.21875 53.15625 68.453125 
Q 60.40625 62.703125 60.40625 52.390625 
Q 60.40625 46.4375 57.328125 41.28125 
Q 54.25 36.140625 44.390625 27.484375 
z
" id="DejaVuSans-Bold-32"/>
    </defs>
    <g style="fill:#75a8b6;" transform="translate(32.885 104.828917)scale(0.08 -0.08)">
     <use xlink:href="#DejaVuSans-Bold-54"/>
     <use x="68.212891" xlink:href="#DejaVuSans-Bold-68"/>
     <use x="139.404297" xlink:href="#DejaVuSans-Bold-65"/>
     <use x="207.226562" xlink:href="#DejaVuSans-Bold-72"/>
     <use x="256.542969" xlink:href="#DejaVuSans-Bold-6d"/>
     <use x="360.742188" xlink:href="#DejaVuSans-Bold-6f"/>
     <use x="429.443359" xlink:href="#DejaVuSans-Bold-46"/>
     <use x="497.753906" xlink:href="#DejaVuSans-Bold-69"/>
     <use x="532.03125" xlink:href="#DejaVuSans-Bold-73"/>
     <use x="591.552734" xlink:href="#DejaVuSans-Bold-68"/>
     <use x="662.744141" xlink:href="#DejaVuSans-Bold-65"/>
     <use x="730.566406" xlink:href="#DejaVuSans-Bold-72"/>
     <use x="779.882812" xlink:href="#DejaVuSans-Bold-5f"/>
     <use x="829.882812" xlink:href="#DejaVuSans-Bold-50"/>
     <use x="903.173828" xlink:href="#DejaVuSans-Bold-30"/>
     <use x="972.753906" xlink:href="#DejaVuSans-Bold-30"/>
     <use x="1042.333984" xlink:href="#DejaVuSans-Bold-30"/>
     <use x="1111.914062" xlink:href="#DejaVuSans-Bold-32"/>
     <use x="1181.494141" xlink:href="#DejaVuSans-Bold-5f"/>
     <use x="1231.494141" xlink:href="#DejaVuSans-Bold-54"/>
     <use x="1299.707031" xlink:href="#DejaVuSans-Bold-31"/>
    </g>
   </g>
  </g>
  <g id="axes_5">
   <g id="patch_6">
    <path d="M 142.42875 132.127333 
L 643.11875 132.127333 
L 643.11875 95.384 
L 142.42875 95.384 
z
" style="fill:none;"/>
   </g>
   <g id="matplotlib.axis_9">
    <g id="xtick_25">
     <g id="line2d_37"/>
    </g>
    <g id="xtick_26">
     <g id="line2d_38"/>
    </g>
    <g id="xtick_27">
     <g id="line2d_39"/>
    </g>
    <g id="xtick_28">
     <g id="line2d_40"/>
    </g>
    <g id="xtick_29">
     <g id="line2d_41"/>
    </g>
    <g id="xtick_30">
     <g id="line2d_42"/>
    </g>
   </g>
   <g id="matplotlib.axis_10"/>
   <g id="PolyCollection_5">
    <path d="M 165.493982 130.771965 
L 165.493982 132.127333 
L 167.197551 132.127333 
L 168.901119 132.127333 
L 170.604687 132.127333 
L 172.308256 132.127333 
L 174.011824 132.127333 
L 175.715392 132.127333 
L 177.418961 132.127333 
L 179.122529 132.127333 
L 180.826097 132.127333 
L 182.529666 132.127333 
L 184.233234 132.127333 
L 185.936802 132.127333 
L 187.640371 132.127333 
L 189.343939 132.127333 
L 191.047508 132.127333 
L 192.751076 132.127333 
L 194.454644 132.127333 
L 196.158213 132.127333 
L 197.861781 132.127333 
L 199.565349 132.127333 
L 201.268918 132.127333 
L 202.972486 132.127333 
L 204.676054 132.127333 
L 206.379623 132.127333 
L 208.083191 132.127333 
L 209.786759 132.127333 
L 211.490328 132.127333 
L 213.193896 132.127333 
L 214.897464 132.127333 
L 216.601033 132.127333 
L 218.304601 132.127333 
L 220.008169 132.127333 
L 221.711738 132.127333 
L 223.415306 132.127333 
L 225.118874 132.127333 
L 226.822443 132.127333 
L 228.526011 132.127333 
L 230.229579 132.127333 
L 231.933148 132.127333 
L 233.636716 132.127333 
L 235.340285 132.127333 
L 237.043853 132.127333 
L 238.747421 132.127333 
L 240.45099 132.127333 
L 242.154558 132.127333 
L 243.858126 132.127333 
L 245.561695 132.127333 
L 247.265263 132.127333 
L 248.968831 132.127333 
L 250.6724 132.127333 
L 252.375968 132.127333 
L 254.079536 132.127333 
L 255.783105 132.127333 
L 257.486673 132.127333 
L 259.190241 132.127333 
L 260.89381 132.127333 
L 262.597378 132.127333 
L 264.300946 132.127333 
L 266.004515 132.127333 
L 267.708083 132.127333 
L 269.411651 132.127333 
L 271.11522 132.127333 
L 272.818788 132.127333 
L 274.522356 132.127333 
L 276.225925 132.127333 
L 277.929493 132.127333 
L 279.633062 132.127333 
L 281.33663 132.127333 
L 283.040198 132.127333 
L 284.743767 132.127333 
L 286.447335 132.127333 
L 288.150903 132.127333 
L 289.854472 132.127333 
L 291.55804 132.127333 
L 293.261608 132.127333 
L 294.965177 132.127333 
L 296.668745 132.127333 
L 298.372313 132.127333 
L 300.075882 132.127333 
L 301.77945 132.127333 
L 303.483018 132.127333 
L 305.186587 132.127333 
L 306.890155 132.127333 
L 308.593723 132.127333 
L 310.297292 132.127333 
L 312.00086 132.127333 
L 313.704428 132.127333 
L 315.407997 132.127333 
L 317.111565 132.127333 
L 318.815134 132.127333 
L 320.518702 132.127333 
L 322.22227 132.127333 
L 323.925839 132.127333 
L 325.629407 132.127333 
L 327.332975 132.127333 
L 329.036544 132.127333 
L 330.740112 132.127333 
L 332.44368 132.127333 
L 334.147249 132.127333 
L 334.147249 132.089863 
L 334.147249 132.089863 
L 332.44368 132.084354 
L 330.740112 132.08438 
L 329.036544 132.08993 
L 327.332975 132.098955 
L 325.629407 132.108573 
L 323.925839 132.116528 
L 322.22227 132.12191 
L 320.518702 132.124962 
L 318.815134 132.12643 
L 317.111565 132.127033 
L 315.407997 132.127247 
L 313.704428 132.127311 
L 312.00086 132.127329 
L 310.297292 132.127332 
L 308.593723 132.127333 
L 306.890155 132.127333 
L 305.186587 132.127333 
L 303.483018 132.127333 
L 301.77945 132.127333 
L 300.075882 132.127333 
L 298.372313 132.127333 
L 296.668745 132.127333 
L 294.965177 132.127333 
L 293.261608 132.127333 
L 291.55804 132.127333 
L 289.854472 132.127333 
L 288.150903 132.127333 
L 286.447335 132.127333 
L 284.743767 132.127333 
L 283.040198 132.127333 
L 281.33663 132.127333 
L 279.633062 132.127333 
L 277.929493 132.127333 
L 276.225925 132.127333 
L 274.522356 132.127333 
L 272.818788 132.127333 
L 271.11522 132.127333 
L 269.411651 132.127333 
L 267.708083 132.127333 
L 266.004515 132.127333 
L 264.300946 132.127333 
L 262.597378 132.127333 
L 260.89381 132.127333 
L 259.190241 132.127333 
L 257.486673 132.127333 
L 255.783105 132.127333 
L 254.079536 132.127333 
L 252.375968 132.127333 
L 250.6724 132.127333 
L 248.968831 132.127333 
L 247.265263 132.127333 
L 245.561695 132.127333 
L 243.858126 132.127333 
L 242.154558 132.127333 
L 240.45099 132.127333 
L 238.747421 132.127333 
L 237.043853 132.127333 
L 235.340285 132.127333 
L 233.636716 132.127333 
L 231.933148 132.127333 
L 230.229579 132.127333 
L 228.526011 132.127333 
L 226.822443 132.127333 
L 225.118874 132.127333 
L 223.415306 132.127332 
L 221.711738 132.127325 
L 220.008169 132.127296 
L 218.304601 132.127192 
L 216.601033 132.12687 
L 214.897464 132.126008 
L 213.193896 132.124032 
L 211.490328 132.120169 
L 209.786759 132.113787 
L 208.083191 132.105016 
L 206.379623 132.095297 
L 204.676054 132.087264 
L 202.972486 132.083664 
L 201.268918 132.085854 
L 199.565349 132.092954 
L 197.861781 132.102309 
L 196.158213 132.110792 
L 194.454644 132.115817 
L 192.751076 132.115375 
L 191.047508 132.107437 
L 189.343939 132.089704 
L 187.640371 132.06034 
L 185.936802 132.019091 
L 184.233234 131.966953 
L 182.529666 131.902672 
L 180.826097 131.816753 
L 179.122529 131.687611 
L 177.418961 131.486895 
L 175.715392 131.198043 
L 174.011824 130.84198 
L 172.308256 130.491353 
L 170.604687 130.253125 
L 168.901119 130.218853 
L 167.197551 130.41201 
L 165.493982 130.771965 
z
" style="fill:#6d9fb1;"/>
   </g>
   <g id="line2d_43">
    <path d="M 165.493982 130.771965 
L 167.197551 130.41201 
L 168.901119 130.218853 
L 170.604687 130.253125 
L 172.308256 130.491353 
L 174.011824 130.84198 
L 175.715392 131.198043 
L 177.418961 131.486895 
L 179.122529 131.687611 
L 180.826097 131.816753 
L 182.529666 131.902672 
L 184.233234 131.966953 
L 185.936802 132.019091 
L 187.640371 132.06034 
L 189.343939 132.089704 
L 191.047508 132.107437 
L 192.751076 132.115375 
L 194.454644 132.115817 
L 196.158213 132.110792 
L 197.861781 132.102309 
L 199.565349 132.092954 
L 201.268918 132.085854 
L 202.972486 132.083664 
L 204.676054 132.087264 
L 206.379623 132.095297 
L 208.083191 132.105016 
L 209.786759 132.113787 
L 211.490328 132.120169 
L 213.193896 132.124032 
L 214.897464 132.126008 
L 216.601033 132.12687 
L 218.304601 132.127192 
L 220.008169 132.127296 
L 221.711738 132.127325 
L 223.415306 132.127332 
L 225.118874 132.127333 
L 226.822443 132.127333 
L 228.526011 132.127333 
L 230.229579 132.127333 
L 231.933148 132.127333 
L 233.636716 132.127333 
L 235.340285 132.127333 
L 237.043853 132.127333 
L 238.747421 132.127333 
L 240.45099 132.127333 
L 242.154558 132.127333 
L 243.858126 132.127333 
L 245.561695 132.127333 
L 247.265263 132.127333 
L 248.968831 132.127333 
L 250.6724 132.127333 
L 252.375968 132.127333 
L 254.079536 132.127333 
L 255.783105 132.127333 
L 257.486673 132.127333 
L 259.190241 132.127333 
L 260.89381 132.127333 
L 262.597378 132.127333 
L 264.300946 132.127333 
L 266.004515 132.127333 
L 267.708083 132.127333 
L 269.411651 132.127333 
L 271.11522 132.127333 
L 272.818788 132.127333 
L 274.522356 132.127333 
L 276.225925 132.127333 
L 277.929493 132.127333 
L 279.633062 132.127333 
L 281.33663 132.127333 
L 283.040198 132.127333 
L 284.743767 132.127333 
L 286.447335 132.127333 
L 288.150903 132.127333 
L 289.854472 132.127333 
L 291.55804 132.127333 
L 293.261608 132.127333 
L 294.965177 132.127333 
L 296.668745 132.127333 
L 298.372313 132.127333 
L 300.075882 132.127333 
L 301.77945 132.127333 
L 303.483018 132.127333 
L 305.186587 132.127333 
L 306.890155 132.127333 
L 308.593723 132.127333 
L 310.297292 132.127332 
L 312.00086 132.127329 
L 313.704428 132.127311 
L 315.407997 132.127247 
L 317.111565 132.127033 
L 318.815134 132.12643 
L 320.518702 132.124962 
L 322.22227 132.12191 
L 323.925839 132.116528 
L 325.629407 132.108573 
L 327.332975 132.098955 
L 329.036544 132.08993 
L 330.740112 132.08438 
L 332.44368 132.084354 
L 334.147249 132.089863 
" style="fill:none;stroke:#6d9fb1;stroke-linecap:round;stroke-width:1.5;"/>
   </g>
   <g id="line2d_44">
    <path d="M 165.493982 130.771965 
L 167.197551 130.41201 
L 168.901119 130.218853 
L 170.604687 130.253125 
L 172.308256 130.491353 
L 174.011824 130.84198 
L 175.715392 131.198043 
L 177.418961 131.486895 
L 179.122529 131.687611 
L 180.826097 131.816753 
L 182.529666 131.902672 
L 184.233234 131.966953 
L 185.936802 132.019091 
L 187.640371 132.06034 
L 189.343939 132.089704 
L 191.047508 132.107437 
L 192.751076 132.115375 
L 194.454644 132.115817 
L 196.158213 132.110792 
L 197.861781 132.102309 
L 199.565349 132.092954 
L 201.268918 132.085854 
L 202.972486 132.083664 
L 204.676054 132.087264 
L 206.379623 132.095297 
L 208.083191 132.105016 
L 209.786759 132.113787 
L 211.490328 132.120169 
L 213.193896 132.124032 
L 214.897464 132.126008 
L 216.601033 132.12687 
L 218.304601 132.127192 
L 220.008169 132.127296 
L 221.711738 132.127325 
L 223.415306 132.127332 
L 225.118874 132.127333 
L 226.822443 132.127333 
L 228.526011 132.127333 
L 230.229579 132.127333 
L 231.933148 132.127333 
L 233.636716 132.127333 
L 235.340285 132.127333 
L 237.043853 132.127333 
L 238.747421 132.127333 
L 240.45099 132.127333 
L 242.154558 132.127333 
L 243.858126 132.127333 
L 245.561695 132.127333 
L 247.265263 132.127333 
L 248.968831 132.127333 
L 250.6724 132.127333 
L 252.375968 132.127333 
L 254.079536 132.127333 
L 255.783105 132.127333 
L 257.486673 132.127333 
L 259.190241 132.127333 
L 260.89381 132.127333 
L 262.597378 132.127333 
L 264.300946 132.127333 
L 266.004515 132.127333 
L 267.708083 132.127333 
L 269.411651 132.127333 
L 271.11522 132.127333 
L 272.818788 132.127333 
L 274.522356 132.127333 
L 276.225925 132.127333 
L 277.929493 132.127333 
L 279.633062 132.127333 
L 281.33663 132.127333 
L 283.040198 132.127333 
L 284.743767 132.127333 
L 286.447335 132.127333 
L 288.150903 132.127333 
L 289.854472 132.127333 
L 291.55804 132.127333 
L 293.261608 132.127333 
L 294.965177 132.127333 
L 296.668745 132.127333 
L 298.372313 132.127333 
L 300.075882 132.127333 
L 301.77945 132.127333 
L 303.483018 132.127333 
L 305.186587 132.127333 
L 306.890155 132.127333 
L 308.593723 132.127333 
L 310.297292 132.127332 
L 312.00086 132.127329 
L 313.704428 132.127311 
L 315.407997 132.127247 
L 317.111565 132.127033 
L 318.815134 132.12643 
L 320.518702 132.124962 
L 322.22227 132.12191 
L 323.925839 132.116528 
L 325.629407 132.108573 
L 327.332975 132.098955 
L 329.036544 132.08993 
L 330.740112 132.08438 
L 332.44368 132.084354 
L 334.147249 132.089863 
" style="fill:none;stroke:#ffffff;stroke-linecap:round;stroke-width:2;"/>
   </g>
   <g id="line2d_45">
    <path d="M 142.42875 132.127333 
L 643.11875 132.127333 
" style="fill:none;stroke:#6d9fb1;stroke-linecap:round;stroke-width:2;"/>
   </g>
   <g id="text_5">
    <!-- UMich_P0001_T1 -->
    <defs>
     <path d="M 9.1875 72.90625 
L 27.984375 72.90625 
L 27.984375 29.203125 
Q 27.984375 20.171875 30.9375 16.28125 
Q 33.890625 12.40625 40.578125 12.40625 
Q 47.3125 12.40625 50.265625 16.28125 
Q 53.21875 20.171875 53.21875 29.203125 
L 53.21875 72.90625 
L 72.015625 72.90625 
L 72.015625 29.203125 
Q 72.015625 13.71875 64.25 6.140625 
Q 56.5 -1.421875 40.578125 -1.421875 
Q 24.703125 -1.421875 16.9375 6.140625 
Q 9.1875 13.71875 9.1875 29.203125 
z
" id="DejaVuSans-Bold-55"/>
     <path d="M 9.1875 72.90625 
L 33.109375 72.90625 
L 49.703125 33.890625 
L 66.40625 72.90625 
L 90.28125 72.90625 
L 90.28125 0 
L 72.515625 0 
L 72.515625 53.328125 
L 55.71875 14.015625 
L 43.796875 14.015625 
L 27 53.328125 
L 27 0 
L 9.1875 0 
z
" id="DejaVuSans-Bold-4d"/>
    </defs>
    <g style="fill:#6d9fb1;" transform="translate(67.63875 126.874917)scale(0.08 -0.08)">
     <use xlink:href="#DejaVuSans-Bold-55"/>
     <use x="81.201172" xlink:href="#DejaVuSans-Bold-4d"/>
     <use x="180.712891" xlink:href="#DejaVuSans-Bold-69"/>
     <use x="214.990234" xlink:href="#DejaVuSans-Bold-63"/>
     <use x="274.267578" xlink:href="#DejaVuSans-Bold-68"/>
     <use x="345.458984" xlink:href="#DejaVuSans-Bold-5f"/>
     <use x="395.458984" xlink:href="#DejaVuSans-Bold-50"/>
     <use x="468.75" xlink:href="#DejaVuSans-Bold-30"/>
     <use x="538.330078" xlink:href="#DejaVuSans-Bold-30"/>
     <use x="607.910156" xlink:href="#DejaVuSans-Bold-30"/>
     <use x="677.490234" xlink:href="#DejaVuSans-Bold-31"/>
     <use x="747.070312" xlink:href="#DejaVuSans-Bold-5f"/>
     <use x="797.070312" xlink:href="#DejaVuSans-Bold-54"/>
     <use x="865.283203" xlink:href="#DejaVuSans-Bold-31"/>
    </g>
   </g>
  </g>
  <g id="axes_6">
   <g id="patch_7">
    <path d="M 142.42875 154.173333 
L 643.11875 154.173333 
L 643.11875 117.43 
L 142.42875 117.43 
z
" style="fill:none;"/>
   </g>
   <g id="matplotlib.axis_11">
    <g id="xtick_31">
     <g id="line2d_46"/>
     <g id="text_6">
      <!-- 0 -->
      <defs>
       <path d="M 31.78125 66.40625 
Q 24.171875 66.40625 20.328125 58.90625 
Q 16.5 51.421875 16.5 36.375 
Q 16.5 21.390625 20.328125 13.890625 
Q 24.171875 6.390625 31.78125 6.390625 
Q 39.453125 6.390625 43.28125 13.890625 
Q 47.125 21.390625 47.125 36.375 
Q 47.125 51.421875 43.28125 58.90625 
Q 39.453125 66.40625 31.78125 66.40625 
z
M 31.78125 74.21875 
Q 44.046875 74.21875 50.515625 64.515625 
Q 56.984375 54.828125 56.984375 36.375 
Q 56.984375 17.96875 50.515625 8.265625 
Q 44.046875 -1.421875 31.78125 -1.421875 
Q 19.53125 -1.421875 13.0625 8.265625 
Q 6.59375 17.96875 6.59375 36.375 
Q 6.59375 54.828125 13.0625 64.515625 
Q 19.53125 74.21875 31.78125 74.21875 
z
" id="DejaVuSans-30"/>
      </defs>
      <g style="fill:#262626;" transform="translate(164.503917 168.771771)scale(0.1 -0.1)">
       <use xlink:href="#DejaVuSans-30"/>
      </g>
     </g>
    </g>
    <g id="xtick_32">
     <g id="line2d_47"/>
     <g id="text_7">
      <!-- 20 -->
      <defs>
       <path d="M 19.1875 8.296875 
L 53.609375 8.296875 
L 53.609375 0 
L 7.328125 0 
L 7.328125 8.296875 
Q 12.9375 14.109375 22.625 23.890625 
Q 32.328125 33.6875 34.8125 36.53125 
Q 39.546875 41.84375 41.421875 45.53125 
Q 43.3125 49.21875 43.3125 52.78125 
Q 43.3125 58.59375 39.234375 62.25 
Q 35.15625 65.921875 28.609375 65.921875 
Q 23.96875 65.921875 18.8125 64.3125 
Q 13.671875 62.703125 7.8125 59.421875 
L 7.8125 69.390625 
Q 13.765625 71.78125 18.9375 73 
Q 24.125 74.21875 28.421875 74.21875 
Q 39.75 74.21875 46.484375 68.546875 
Q 53.21875 62.890625 53.21875 53.421875 
Q 53.21875 48.921875 51.53125 44.890625 
Q 49.859375 40.875 45.40625 35.40625 
Q 44.1875 33.984375 37.640625 27.21875 
Q 31.109375 20.453125 19.1875 8.296875 
z
" id="DejaVuSans-32"/>
      </defs>
      <g style="fill:#262626;" transform="translate(246.2523 168.771771)scale(0.1 -0.1)">
       <use xlink:href="#DejaVuSans-32"/>
       <use x="63.623047" xlink:href="#DejaVuSans-30"/>
      </g>
     </g>
    </g>
    <g id="xtick_33">
     <g id="line2d_48"/>
     <g id="text_8">
      <!-- 40 -->
      <defs>
       <path d="M 37.796875 64.3125 
L 12.890625 25.390625 
L 37.796875 25.390625 
z
M 35.203125 72.90625 
L 47.609375 72.90625 
L 47.609375 25.390625 
L 58.015625 25.390625 
L 58.015625 17.1875 
L 47.609375 17.1875 
L 47.609375 0 
L 37.796875 0 
L 37.796875 17.1875 
L 4.890625 17.1875 
L 4.890625 26.703125 
z
" id="DejaVuSans-34"/>
      </defs>
      <g style="fill:#262626;" transform="translate(331.181934 168.771771)scale(0.1 -0.1)">
       <use xlink:href="#DejaVuSans-34"/>
       <use x="63.623047" xlink:href="#DejaVuSans-30"/>
      </g>
     </g>
    </g>
    <g id="xtick_34">
     <g id="line2d_49"/>
     <g id="text_9">
      <!-- 60 -->
      <defs>
       <path d="M 33.015625 40.375 
Q 26.375 40.375 22.484375 35.828125 
Q 18.609375 31.296875 18.609375 23.390625 
Q 18.609375 15.53125 22.484375 10.953125 
Q 26.375 6.390625 33.015625 6.390625 
Q 39.65625 6.390625 43.53125 10.953125 
Q 47.40625 15.53125 47.40625 23.390625 
Q 47.40625 31.296875 43.53125 35.828125 
Q 39.65625 40.375 33.015625 40.375 
z
M 52.59375 71.296875 
L 52.59375 62.3125 
Q 48.875 64.0625 45.09375 64.984375 
Q 41.3125 65.921875 37.59375 65.921875 
Q 27.828125 65.921875 22.671875 59.328125 
Q 17.53125 52.734375 16.796875 39.40625 
Q 19.671875 43.65625 24.015625 45.921875 
Q 28.375 48.1875 33.59375 48.1875 
Q 44.578125 48.1875 50.953125 41.515625 
Q 57.328125 34.859375 57.328125 23.390625 
Q 57.328125 12.15625 50.6875 5.359375 
Q 44.046875 -1.421875 33.015625 -1.421875 
Q 20.359375 -1.421875 13.671875 8.265625 
Q 6.984375 17.96875 6.984375 36.375 
Q 6.984375 53.65625 15.1875 63.9375 
Q 23.390625 74.21875 37.203125 74.21875 
Q 40.921875 74.21875 44.703125 73.484375 
Q 48.484375 72.75 52.59375 71.296875 
z
" id="DejaVuSans-36"/>
      </defs>
      <g style="fill:#262626;" transform="translate(416.111567 168.771771)scale(0.1 -0.1)">
       <use xlink:href="#DejaVuSans-36"/>
       <use x="63.623047" xlink:href="#DejaVuSans-30"/>
      </g>
     </g>
    </g>
    <g id="xtick_35">
     <g id="line2d_50"/>
     <g id="text_10">
      <!-- 80 -->
      <defs>
       <path d="M 31.78125 34.625 
Q 24.75 34.625 20.71875 30.859375 
Q 16.703125 27.09375 16.703125 20.515625 
Q 16.703125 13.921875 20.71875 10.15625 
Q 24.75 6.390625 31.78125 6.390625 
Q 38.8125 6.390625 42.859375 10.171875 
Q 46.921875 13.96875 46.921875 20.515625 
Q 46.921875 27.09375 42.890625 30.859375 
Q 38.875 34.625 31.78125 34.625 
z
M 21.921875 38.8125 
Q 15.578125 40.375 12.03125 44.71875 
Q 8.5 49.078125 8.5 55.328125 
Q 8.5 64.0625 14.71875 69.140625 
Q 20.953125 74.21875 31.78125 74.21875 
Q 42.671875 74.21875 48.875 69.140625 
Q 55.078125 64.0625 55.078125 55.328125 
Q 55.078125 49.078125 51.53125 44.71875 
Q 48 40.375 41.703125 38.8125 
Q 48.828125 37.15625 52.796875 32.3125 
Q 56.78125 27.484375 56.78125 20.515625 
Q 56.78125 9.90625 50.3125 4.234375 
Q 43.84375 -1.421875 31.78125 -1.421875 
Q 19.734375 -1.421875 13.25 4.234375 
Q 6.78125 9.90625 6.78125 20.515625 
Q 6.78125 27.484375 10.78125 32.3125 
Q 14.796875 37.15625 21.921875 38.8125 
z
M 18.3125 54.390625 
Q 18.3125 48.734375 21.84375 45.5625 
Q 25.390625 42.390625 31.78125 42.390625 
Q 38.140625 42.390625 41.71875 45.5625 
Q 45.3125 48.734375 45.3125 54.390625 
Q 45.3125 60.0625 41.71875 63.234375 
Q 38.140625 66.40625 31.78125 66.40625 
Q 25.390625 66.40625 21.84375 63.234375 
Q 18.3125 60.0625 18.3125 54.390625 
z
" id="DejaVuSans-38"/>
      </defs>
      <g style="fill:#262626;" transform="translate(501.041201 168.771771)scale(0.1 -0.1)">
       <use xlink:href="#DejaVuSans-38"/>
       <use x="63.623047" xlink:href="#DejaVuSans-30"/>
      </g>
     </g>
    </g>
    <g id="xtick_36">
     <g id="line2d_51"/>
     <g id="text_11">
      <!-- 100 -->
      <defs>
       <path d="M 12.40625 8.296875 
L 28.515625 8.296875 
L 28.515625 63.921875 
L 10.984375 60.40625 
L 10.984375 69.390625 
L 28.421875 72.90625 
L 38.28125 72.90625 
L 38.28125 8.296875 
L 54.390625 8.296875 
L 54.390625 0 
L 12.40625 0 
z
" id="DejaVuSans-31"/>
      </defs>
      <g style="fill:#262626;" transform="translate(582.789585 168.771771)scale(0.1 -0.1)">
       <use xlink:href="#DejaVuSans-31"/>
       <use x="63.623047" xlink:href="#DejaVuSans-30"/>
       <use x="127.246094" xlink:href="#DejaVuSans-30"/>
      </g>
     </g>
    </g>
   </g>
   <g id="matplotlib.axis_12"/>
   <g id="PolyCollection_6">
    <path d="M 165.519461 153.48826 
L 165.519461 154.173333 
L 170.113811 154.173333 
L 174.708161 154.173333 
L 179.302511 154.173333 
L 183.896861 154.173333 
L 188.491211 154.173333 
L 193.085561 154.173333 
L 197.679911 154.173333 
L 202.274261 154.173333 
L 206.868611 154.173333 
L 211.462961 154.173333 
L 216.057311 154.173333 
L 220.651662 154.173333 
L 225.246012 154.173333 
L 229.840362 154.173333 
L 234.434712 154.173333 
L 239.029062 154.173333 
L 243.623412 154.173333 
L 248.217762 154.173333 
L 252.812112 154.173333 
L 257.406462 154.173333 
L 262.000812 154.173333 
L 266.595162 154.173333 
L 271.189512 154.173333 
L 275.783862 154.173333 
L 280.378212 154.173333 
L 284.972562 154.173333 
L 289.566912 154.173333 
L 294.161262 154.173333 
L 298.755612 154.173333 
L 303.349962 154.173333 
L 307.944312 154.173333 
L 312.538662 154.173333 
L 317.133012 154.173333 
L 321.727362 154.173333 
L 326.321712 154.173333 
L 330.916062 154.173333 
L 335.510412 154.173333 
L 340.104762 154.173333 
L 344.699112 154.173333 
L 349.293462 154.173333 
L 353.887812 154.173333 
L 358.482162 154.173333 
L 363.076512 154.173333 
L 367.670862 154.173333 
L 372.265212 154.173333 
L 376.859562 154.173333 
L 381.453912 154.173333 
L 386.048262 154.173333 
L 390.642612 154.173333 
L 395.236962 154.173333 
L 399.831312 154.173333 
L 404.425662 154.173333 
L 409.020013 154.173333 
L 413.614363 154.173333 
L 418.208713 154.173333 
L 422.803063 154.173333 
L 427.397413 154.173333 
L 431.991763 154.173333 
L 436.586113 154.173333 
L 441.180463 154.173333 
L 445.774813 154.173333 
L 450.369163 154.173333 
L 454.963513 154.173333 
L 459.557863 154.173333 
L 464.152213 154.173333 
L 468.746563 154.173333 
L 473.340913 154.173333 
L 477.935263 154.173333 
L 482.529613 154.173333 
L 487.123963 154.173333 
L 491.718313 154.173333 
L 496.312663 154.173333 
L 500.907013 154.173333 
L 505.501363 154.173333 
L 510.095713 154.173333 
L 514.690063 154.173333 
L 519.284413 154.173333 
L 523.878763 154.173333 
L 528.473113 154.173333 
L 533.067463 154.173333 
L 537.661813 154.173333 
L 542.256163 154.173333 
L 546.850513 154.173333 
L 551.444863 154.173333 
L 556.039213 154.173333 
L 560.633563 154.173333 
L 565.227913 154.173333 
L 569.822263 154.173333 
L 574.416613 154.173333 
L 579.010963 154.173333 
L 583.605313 154.173333 
L 588.199663 154.173333 
L 592.794013 154.173333 
L 597.388364 154.173333 
L 601.982714 154.173333 
L 606.577064 154.173333 
L 611.171414 154.173333 
L 615.765764 154.173333 
L 620.360114 154.173333 
L 620.360114 154.16007 
L 620.360114 154.16007 
L 615.765764 154.159968 
L 611.171414 154.161624 
L 606.577064 154.164413 
L 601.982714 154.167425 
L 597.388364 154.169931 
L 592.794013 154.17163 
L 588.199663 154.172592 
L 583.605313 154.173053 
L 579.010963 154.173241 
L 574.416613 154.173307 
L 569.822263 154.173327 
L 565.227913 154.173332 
L 560.633563 154.173333 
L 556.039213 154.173333 
L 551.444863 154.173333 
L 546.850513 154.173333 
L 542.256163 154.173333 
L 537.661813 154.173333 
L 533.067463 154.173333 
L 528.473113 154.173333 
L 523.878763 154.173333 
L 519.284413 154.173333 
L 514.690063 154.173333 
L 510.095713 154.173333 
L 505.501363 154.173333 
L 500.907013 154.173333 
L 496.312663 154.173333 
L 491.718313 154.173333 
L 487.123963 154.173333 
L 482.529613 154.173333 
L 477.935263 154.173333 
L 473.340913 154.173333 
L 468.746563 154.173333 
L 464.152213 154.173333 
L 459.557863 154.173333 
L 454.963513 154.173333 
L 450.369163 154.173333 
L 445.774813 154.173333 
L 441.180463 154.173333 
L 436.586113 154.173333 
L 431.991763 154.173333 
L 427.397413 154.17333 
L 422.803063 154.173321 
L 418.208713 154.173287 
L 413.614363 154.173188 
L 409.020013 154.172936 
L 404.425662 154.17239 
L 399.831312 154.171386 
L 395.236962 154.169836 
L 390.642612 154.167875 
L 386.048262 154.165924 
L 381.453912 154.16459 
L 376.859562 154.164362 
L 372.265212 154.165329 
L 367.670862 154.167124 
L 363.076512 154.169146 
L 358.482162 154.170877 
L 353.887812 154.172081 
L 349.293462 154.172778 
L 344.699112 154.173119 
L 340.104762 154.173262 
L 335.510412 154.173312 
L 330.916062 154.173328 
L 326.321712 154.173332 
L 321.727362 154.173333 
L 317.133012 154.173333 
L 312.538662 154.173332 
L 307.944312 154.173327 
L 303.349962 154.173308 
L 298.755612 154.17325 
L 294.161262 154.173086 
L 289.566912 154.172693 
L 284.972562 154.171875 
L 280.378212 154.170406 
L 275.783862 154.168142 
L 271.189512 154.16515 
L 266.595162 154.161752 
L 262.000812 154.15836 
L 257.406462 154.155148 
L 252.812112 154.151865 
L 248.217762 154.148054 
L 243.623412 154.143655 
L 239.029062 154.13951 
L 234.434712 154.137197 
L 229.840362 154.138126 
L 225.246012 154.142518 
L 220.651662 154.148998 
L 216.057311 154.154958 
L 211.462961 154.157015 
L 206.868611 154.150734 
L 202.274261 154.129488 
L 197.679911 154.083657 
L 193.085561 154.002436 
L 188.491211 153.880185 
L 183.896861 153.725941 
L 179.302511 153.569518 
L 174.708161 153.455619 
L 170.113811 153.424228 
L 165.519461 153.48826 
z
" style="fill:#6595aa;"/>
   </g>
   <g id="line2d_52">
    <path d="M 165.519461 153.48826 
L 170.113811 153.424228 
L 174.708161 153.455619 
L 179.302511 153.569518 
L 183.896861 153.725941 
L 188.491211 153.880185 
L 193.085561 154.002436 
L 197.679911 154.083657 
L 202.274261 154.129488 
L 206.868611 154.150734 
L 211.462961 154.157015 
L 216.057311 154.154958 
L 220.651662 154.148998 
L 225.246012 154.142518 
L 229.840362 154.138126 
L 234.434712 154.137197 
L 239.029062 154.13951 
L 243.623412 154.143655 
L 248.217762 154.148054 
L 252.812112 154.151865 
L 257.406462 154.155148 
L 262.000812 154.15836 
L 266.595162 154.161752 
L 271.189512 154.16515 
L 275.783862 154.168142 
L 280.378212 154.170406 
L 284.972562 154.171875 
L 289.566912 154.172693 
L 294.161262 154.173086 
L 298.755612 154.17325 
L 303.349962 154.173308 
L 307.944312 154.173327 
L 312.538662 154.173332 
L 317.133012 154.173333 
L 321.727362 154.173333 
L 326.321712 154.173332 
L 330.916062 154.173328 
L 335.510412 154.173312 
L 340.104762 154.173262 
L 344.699112 154.173119 
L 349.293462 154.172778 
L 353.887812 154.172081 
L 358.482162 154.170877 
L 363.076512 154.169146 
L 367.670862 154.167124 
L 372.265212 154.165329 
L 376.859562 154.164362 
L 381.453912 154.16459 
L 386.048262 154.165924 
L 390.642612 154.167875 
L 395.236962 154.169836 
L 399.831312 154.171386 
L 404.425662 154.17239 
L 409.020013 154.172936 
L 413.614363 154.173188 
L 418.208713 154.173287 
L 422.803063 154.173321 
L 427.397413 154.17333 
L 431.991763 154.173333 
L 436.586113 154.173333 
L 441.180463 154.173333 
L 445.774813 154.173333 
L 450.369163 154.173333 
L 454.963513 154.173333 
L 459.557863 154.173333 
L 464.152213 154.173333 
L 468.746563 154.173333 
L 473.340913 154.173333 
L 477.935263 154.173333 
L 482.529613 154.173333 
L 487.123963 154.173333 
L 491.718313 154.173333 
L 496.312663 154.173333 
L 500.907013 154.173333 
L 505.501363 154.173333 
L 510.095713 154.173333 
L 514.690063 154.173333 
L 519.284413 154.173333 
L 523.878763 154.173333 
L 528.473113 154.173333 
L 533.067463 154.173333 
L 537.661813 154.173333 
L 542.256163 154.173333 
L 546.850513 154.173333 
L 551.444863 154.173333 
L 556.039213 154.173333 
L 560.633563 154.173333 
L 565.227913 154.173332 
L 569.822263 154.173327 
L 574.416613 154.173307 
L 579.010963 154.173241 
L 583.605313 154.173053 
L 588.199663 154.172592 
L 592.794013 154.17163 
L 597.388364 154.169931 
L 601.982714 154.167425 
L 606.577064 154.164413 
L 611.171414 154.161624 
L 615.765764 154.159968 
L 620.360114 154.16007 
" style="fill:none;stroke:#6595aa;stroke-linecap:round;stroke-width:1.5;"/>
   </g>
   <g id="line2d_53">
    <path d="M 165.519461 153.48826 
L 170.113811 153.424228 
L 174.708161 153.455619 
L 179.302511 153.569518 
L 183.896861 153.725941 
L 188.491211 153.880185 
L 193.085561 154.002436 
L 197.679911 154.083657 
L 202.274261 154.129488 
L 206.868611 154.150734 
L 211.462961 154.157015 
L 216.057311 154.154958 
L 220.651662 154.148998 
L 225.246012 154.142518 
L 229.840362 154.138126 
L 234.434712 154.137197 
L 239.029062 154.13951 
L 243.623412 154.143655 
L 248.217762 154.148054 
L 252.812112 154.151865 
L 257.406462 154.155148 
L 262.000812 154.15836 
L 266.595162 154.161752 
L 271.189512 154.16515 
L 275.783862 154.168142 
L 280.378212 154.170406 
L 284.972562 154.171875 
L 289.566912 154.172693 
L 294.161262 154.173086 
L 298.755612 154.17325 
L 303.349962 154.173308 
L 307.944312 154.173327 
L 312.538662 154.173332 
L 317.133012 154.173333 
L 321.727362 154.173333 
L 326.321712 154.173332 
L 330.916062 154.173328 
L 335.510412 154.173312 
L 340.104762 154.173262 
L 344.699112 154.173119 
L 349.293462 154.172778 
L 353.887812 154.172081 
L 358.482162 154.170877 
L 363.076512 154.169146 
L 367.670862 154.167124 
L 372.265212 154.165329 
L 376.859562 154.164362 
L 381.453912 154.16459 
L 386.048262 154.165924 
L 390.642612 154.167875 
L 395.236962 154.169836 
L 399.831312 154.171386 
L 404.425662 154.17239 
L 409.020013 154.172936 
L 413.614363 154.173188 
L 418.208713 154.173287 
L 422.803063 154.173321 
L 427.397413 154.17333 
L 431.991763 154.173333 
L 436.586113 154.173333 
L 441.180463 154.173333 
L 445.774813 154.173333 
L 450.369163 154.173333 
L 454.963513 154.173333 
L 459.557863 154.173333 
L 464.152213 154.173333 
L 468.746563 154.173333 
L 473.340913 154.173333 
L 477.935263 154.173333 
L 482.529613 154.173333 
L 487.123963 154.173333 
L 491.718313 154.173333 
L 496.312663 154.173333 
L 500.907013 154.173333 
L 505.501363 154.173333 
L 510.095713 154.173333 
L 514.690063 154.173333 
L 519.284413 154.173333 
L 523.878763 154.173333 
L 528.473113 154.173333 
L 533.067463 154.173333 
L 537.661813 154.173333 
L 542.256163 154.173333 
L 546.850513 154.173333 
L 551.444863 154.173333 
L 556.039213 154.173333 
L 560.633563 154.173333 
L 565.227913 154.173332 
L 569.822263 154.173327 
L 574.416613 154.173307 
L 579.010963 154.173241 
L 583.605313 154.173053 
L 588.199663 154.172592 
L 592.794013 154.17163 
L 597.388364 154.169931 
L 601.982714 154.167425 
L 606.577064 154.164413 
L 611.171414 154.161624 
L 615.765764 154.159968 
L 620.360114 154.16007 
" style="fill:none;stroke:#ffffff;stroke-linecap:round;stroke-width:2;"/>
   </g>
   <g id="line2d_54">
    <path d="M 142.42875 154.173333 
L 643.11875 154.173333 
" style="fill:none;stroke:#6595aa;stroke-linecap:round;stroke-width:2;"/>
   </g>
   <g id="text_12">
    <!-- USC_OPT1_T1 -->
    <defs>
     <path d="M 59.90625 70.609375 
L 59.90625 55.171875 
Q 53.90625 57.859375 48.1875 59.21875 
Q 42.484375 60.59375 37.40625 60.59375 
Q 30.671875 60.59375 27.4375 58.734375 
Q 24.21875 56.890625 24.21875 52.984375 
Q 24.21875 50.046875 26.390625 48.40625 
Q 28.5625 46.78125 34.28125 45.609375 
L 42.28125 44 
Q 54.4375 41.546875 59.5625 36.5625 
Q 64.703125 31.59375 64.703125 22.40625 
Q 64.703125 10.359375 57.546875 4.46875 
Q 50.390625 -1.421875 35.6875 -1.421875 
Q 28.765625 -1.421875 21.78125 -0.09375 
Q 14.796875 1.21875 7.8125 3.8125 
L 7.8125 19.671875 
Q 14.796875 15.96875 21.3125 14.078125 
Q 27.828125 12.203125 33.890625 12.203125 
Q 40.046875 12.203125 43.3125 14.25 
Q 46.578125 16.3125 46.578125 20.125 
Q 46.578125 23.53125 44.359375 25.390625 
Q 42.140625 27.25 35.5 28.71875 
L 28.21875 30.328125 
Q 17.28125 32.671875 12.21875 37.796875 
Q 7.171875 42.921875 7.171875 51.609375 
Q 7.171875 62.5 14.203125 68.359375 
Q 21.234375 74.21875 34.421875 74.21875 
Q 40.4375 74.21875 46.78125 73.3125 
Q 53.125 72.40625 59.90625 70.609375 
z
" id="DejaVuSans-Bold-53"/>
     <path d="M 67 4 
Q 61.8125 1.3125 56.203125 -0.046875 
Q 50.59375 -1.421875 44.484375 -1.421875 
Q 26.265625 -1.421875 15.625 8.765625 
Q 4.984375 18.953125 4.984375 36.375 
Q 4.984375 53.859375 15.625 64.03125 
Q 26.265625 74.21875 44.484375 74.21875 
Q 50.59375 74.21875 56.203125 72.84375 
Q 61.8125 71.484375 67 68.796875 
L 67 53.71875 
Q 61.765625 57.28125 56.6875 58.9375 
Q 51.609375 60.59375 46 60.59375 
Q 35.9375 60.59375 30.171875 54.140625 
Q 24.421875 47.703125 24.421875 36.375 
Q 24.421875 25.09375 30.171875 18.640625 
Q 35.9375 12.203125 46 12.203125 
Q 51.609375 12.203125 56.6875 13.859375 
Q 61.765625 15.53125 67 19.09375 
z
" id="DejaVuSans-Bold-43"/>
     <path d="M 42.484375 60.59375 
Q 33.890625 60.59375 29.15625 54.25 
Q 24.421875 47.90625 24.421875 36.375 
Q 24.421875 24.90625 29.15625 18.546875 
Q 33.890625 12.203125 42.484375 12.203125 
Q 51.125 12.203125 55.859375 18.546875 
Q 60.59375 24.90625 60.59375 36.375 
Q 60.59375 47.90625 55.859375 54.25 
Q 51.125 60.59375 42.484375 60.59375 
z
M 42.484375 74.21875 
Q 60.0625 74.21875 70.015625 64.15625 
Q 79.984375 54.109375 79.984375 36.375 
Q 79.984375 18.703125 70.015625 8.640625 
Q 60.0625 -1.421875 42.484375 -1.421875 
Q 24.953125 -1.421875 14.96875 8.640625 
Q 4.984375 18.703125 4.984375 36.375 
Q 4.984375 54.109375 14.96875 64.15625 
Q 24.953125 74.21875 42.484375 74.21875 
z
" id="DejaVuSans-Bold-4f"/>
    </defs>
    <g style="fill:#6595aa;" transform="translate(81.5875 148.850292)scale(0.08 -0.08)">
     <use xlink:href="#DejaVuSans-Bold-55"/>
     <use x="81.201172" xlink:href="#DejaVuSans-Bold-53"/>
     <use x="153.222656" xlink:href="#DejaVuSans-Bold-43"/>
     <use x="226.611328" xlink:href="#DejaVuSans-Bold-5f"/>
     <use x="276.611328" xlink:href="#DejaVuSans-Bold-4f"/>
     <use x="361.621094" xlink:href="#DejaVuSans-Bold-50"/>
     <use x="434.912109" xlink:href="#DejaVuSans-Bold-54"/>
     <use x="503.125" xlink:href="#DejaVuSans-Bold-31"/>
     <use x="572.705078" xlink:href="#DejaVuSans-Bold-5f"/>
     <use x="622.705078" xlink:href="#DejaVuSans-Bold-54"/>
     <use x="690.917969" xlink:href="#DejaVuSans-Bold-31"/>
    </g>
   </g>
  </g>
 </g>
</svg>
